<mxfile host="Electron" modified="2023-11-09T22:55:45.796Z" agent="Mozilla/5.0 (Windows NT 10.0; Win64; x64) AppleWebKit/537.36 (KHTML, like Gecko) draw.io/22.0.3 Chrome/114.0.5735.289 Electron/25.8.4 Safari/537.36" etag="OKZB6F6bEN9F0oqTlrIF" version="22.0.3" type="device">
  <diagram name="Pagina-1" id="ZR_6BwqGiIvRILRJ7GTZ">
    <mxGraphModel dx="8153" dy="4481" grid="1" gridSize="10" guides="1" tooltips="1" connect="1" arrows="1" fold="1" page="1" pageScale="1" pageWidth="827" pageHeight="1169" math="0" shadow="0">
      <root>
        <mxCell id="0" />
        <mxCell id="1" parent="0" />
        <mxCell id="ODbVOPba3RWWneBiBJT6-4" value="" style="shape=image;verticalLabelPosition=bottom;labelBackgroundColor=default;verticalAlign=top;aspect=fixed;imageAspect=0;image=data:image/png,iVBORw0KGgoAAAANSUhEUgAAAqcAAAIdCAYAAAAAtNQXAAAgAElEQVR4nOzdfZBb9Z3v+Y/8hLETx/gB7IRA25EaaNrELHCvR5o7hOxdLlLPUD1MrYdw79x22OSI1CQlZap8E9d2FeOqriVT3kqkGaqCDlPGnrvjeLo2GedOrMNwt+Ihs63x3ITCC02DWyJuCME8+IlOjJ999g899JF01C211a2j7verSomt8zu/3++cxvjL9/x+3+OzbdsWAAAA4AELWj0BAAAAoIjgFAAAAJ5BcAoAAADPIDgFAACAZxCcAgAAwDMITgEAAOAZBKcAAADwDIJTAAAAeAbBKQAAADyD4BQAAACeQXAKAAAAzyA4BQAAgGcQnAIAAMAzCE4BAADgGQSnAAAA8AyCUwAAAHgGwSkAAAA8g+AUAAAAnkFwCgAAAM8gOAUAAIBnEJwCAADAMwhOAQAA4BkEpwAAAPAMglMAAAB4BsEpAAAAPIPgFAAAAJ5BcAoAAADPIDgFAACAZxCcAgAAwDMITgEAAOAZi1o9AQBAu3u71RMA2swtrZ6ApxGcAgCumS9xqtVTANrIKdnxza2ehGfxWB8AAACeQXAKAAAAz+CxPgCgqez4qlZPAfAklr/Uh8wpAAAAPIPgFAAAAJ5BcAoAAADPIDgFAACAZxCcAgAAwDMITgEAAOAZBKcAAADwDIJTAAAAeAZF+AEAmMKyp09Lks5dtpvWZ/FlBcfGr0qSNqxoQr7I2iFfZJ+M9FtKhcu/CyZe1FCs49rHAGYYwSkAAJNY9vTppgalRcW3BfFGLaAcj/UBAJjLwk/Jtt+a1aypldyhUGi3crM2IuYSglMAACYxE1nTuW1Mo4P7lGn1NNC2CE4BAADgGaw5BQBgCl/ZcnPdbf/68Dt1nVNs15DcIUX7/kpm5qXSV0Fjj/amHpC/1jlum6SK3Vk71DewT5limjP4mNJ7n1LYX+P8wG5F+3bKzBTHflJ7U4+XxraitypiFk/cqYBvZ75dxWasusbFvEXmFACAdmDtkC+wTWZGMhJPKp3eo0TiMUnHptVdLvmIApF9kh5TIr1H6cRjCmqfIoFHlHRbLDq6W6HATzTc/aTS6SdlBO9RxtypgGNtaWD7nsIxScFCv+k96u/pmP64mHfInAIAMAPOXr6i5YsWNqez3G6FIvuk4JPKDk1kKsPhBxSbTn/WDgXiL8lIv6hUuKPQ2QMKxx5U1LdN8b7d6nGMI0lm/CdKZH+kmL849uPqjd6qiLlTu6zHlQpLfv8D8vs3aHRgp6SAesIVGd1pjIv5h8wpAAAeZ+3aqYzuUWJvcwI360A+0N1eDBBLHlCvISmTVbbyJOMbpcC0KNz7mCRpeHRs5sbFvEPmFACAGdC0rKnGNDosKfj76mlKSvGQDpiSc01otaMazalsDajR+0B1s0BAwRkeF/MPwSkAAFOYzualaW14cnVMIxmpgSiwPsEnle7fUPNwYKYCxFaNi7ZBcAoAgKdtUFezA9OCQOWa0FnSqnHRHghOAQCYQiOvGK33taTFdlPrUGe3JDO/HvPag7pCsJtpVn9eHxfthg1RAAB4XH7j0T5Fooea8ErQDvVsvafUX5XcbiWtax7EZXPTLI2LtkdwCgDADDhx/mrzOgs/pbRxj2RuUyD0iKLJQ7KsQ0omdygUbfwd9v7Yd5UISjK3yRfaoWTykCxrt6KhR+QL7NTINU3WEYSGdsuyditpjc3CuJgreKwPAEAbCKd+pGxv/s1KZnyb8i9iukfBxIPTeETeodjQi+pMpjQQ36d4Zl/+6+A9hRqk1zZXf+y7Soz8meLmTkUiUjDxRcXCMz8u5gafbdt2qycBAGhnb5etn2xkfWY7WJg8rSuxG+pu3+ia07l2v1Bb+Z+TzS2cibfxWB8AAACewWN9AAAmcSV2QwM76ydMdQ4ZU8AdmVMAAAB4BplTAACmQJYTmD1kTgEAAOAZBKcAAADwDIJTAAAAeAbBKQAAADyD4BQAAACeQXAKAAAAzyA4BQAAgGcQnAIAAMAzCE4BAADgGbwhCgDQVNN5Dz0w1/GWsfqROQUAAIBnkDkFADSVHd/c6ikAHvN2qyfQVsicAgAAwDMITgEAAOAZBKcAAADwDIJTAAAAeAbBKQAAADyD4BQAAACeQXAKAAAAzyA4BQAAgGcQnAIAAMAzCE4BAADgGQSnAAAA8AyCUwAAWiCXDMnn8+U/UWvigBVVyOeTzxdSNJlr3QQr5Swlo6HC3PLzS+bkuflaUZ/7fUXbIDgFAMAzckoOmMpIkjIyBw+q9eGeJFmKBiKKm5nC3Iq8Ol+0s0WtngAAYP5a9vQrOnf5qiRp9fX5v5JORLtLx32JI2XtfT6fJOlq7PNVfa16ZliSdPr8ZV2/KJ97+fjrdzV/0jPKr1i/ocGIqYyCMrb2yN/qKUnKJQdkuh7x5nzR3ghOAQDwknBKQ3aq1bNwyOngoCNfaqSVTYUnglC/1+aLdkdwCgCYdcuefkWSSllTSTp57rKkiWypHd9cdZ5t26U2xeOV2VVnv5P1hekJdgXIjmJGseYUAABJOSupaMixScnnUygUlZWrr12ysuHEGbIqNhJNtk9nqg099c0zJysZVSjk6CsUUrTmHGvMPBmSzxdQ3JE4zcQDhf6Syk06X5c5NHhPS+1yxb6m/vlMcUVNuS+YWWROAQCzzpkxnSwDWtmmqJG29bCiIUXMTNX3mYypA9mUwv6p22UipuJGWnYq7DiSUzJUHtxJGZmRkGQ0PM065+k2pqRMRmYkoOFEVkOxmc595mRFA4q4LFTNZIY1Kql4l+q5ptzBPkWqLijfJhIYViI7pKkvyQv3BfUgcwoAmNdySffgaFrtzIhCjnJKuWRfdTAkScrIrGPM6c3TMaaRVta2ZWfTSgQLI8f7VG/FJ39sSLadLZ0rScFEVrZtyx6K1X68b+1yBKZBJbJ2/hw7q7QxseGt3muSumUk0sqW+rGVLU0qo/iuqUtGNfO+YGYRnAIAWsaZ5bTjm2tmPTc893rZp3ks7XJGj0FDaWcAlDbU5douMdHOEeBIUqZUTqn2Odl0Qo5TZmiehtLFjUv+sHq2TgRzgwdnMwrrVmfp136FU6lClrPea5L8sZRSsbD8hWg4l8tJnd0T93B4dIoSVl68L6iFx/oAgJaZ7PG807Ev3yFJ2rB7ZMpznd9/evliSdKvv3qne8e5UQ2XfhNUYu/EI3xJ8odTirm2i02084cV25vQYCCer/eZGdTBXEwx1T7HH45pb2JQAfe0apPmaSricy8ANeMCXQpKhfqnpiIBU8Ggoa392xUrTrzea8o3lhXt00BVndWCzIiyUu1MrlfuC+pC5hQAMH9lRxzBTrc661py6NLO36lu17aN9l1DvfMsa9dC/pj2Jspzw5mMqXgkUNpIVf+9z68VjZQC06CCwaAMo4Hcs1fuC+pCcAoAaKnJHucX+RJH5Esc0dj4RY2NX3Q9362fd89e0rtnL9XuuJDhyxvWaF1PdV3alWXm6jsnO9JAuDSteRpK2xOPyZ2f2dj4448Nyc5mlTaC5UsYMnH1JXP1X5O1q2ytqG0PaWhoSKntWxtcGlHU2vuCqRGcAgDmr7KMZ0bxPmdponzZoaTl1i7pKHNkKdkXn8jMBbeqx+9yzi5LE6dEXXeyX/M8ywI+U5GoVbYWM2clFU3O4vvm/X6FU0Masm2lHdUJMiPZuq8pN1oe9ueKx3fF68+Geu2+YFIEpwCAlnFmOn/88Eb9+OGNDZ1rxzeXsqrFT2OlpMLqdZZ0ypiKBIo1MAOKxE2NFNptL9v1FJ9oF4iU7cg3+ou72Cv6NiMKFGprBhqKTBuYpz+m/hpj5seNyxzRzCsEe466BRqtSi3Xd03+TseCidL1uJepqskr9wV1ITgFAMxr4VR5qaRa/LG9Zdk/N0EjLWeZ0/D2WrvyDSXqGdSh3nmGU+nplFBtshGZcWcA6Kwvmt8tL9V5TeFe1+sxEo1VPPDGfUE9CE4BALPObX3owxtX6OGNK8qOTbaetHn8ig1llU0bCpZFO0EFjYS2hyfahVP5MlBGeUMFg4YS6ayGygrwS/LHNJRNl7UPBhNKZ1PqmbF5hpWyXdZ6KqigkVZ2e8UcZ0Kgq+oeKVgY305pYgb1XFNYqWxCE/ufgjLSWaUavoEeuC+oi88uvqgYAIBpeVu+xKnS72byPfbOMlG13ixVfNRf+R3QOm9L0qz9OWl31DkFALSlYgDayKtNAXgfj/UBAJh3LEUdG4JcP8V6pMAsI3MKAGhrtTKomExYKdtWqtXTAFwQnAIA2hpBKTC38FgfAAAAnkHmFADQNjpWLJGksleYTrYBqtgeQPsgcwoAAADPIHMKAGgbxx7vavUUAMwwMqcAAADwDIJTAAAAeAbBKQAAADyD4BQAAACeQXAKAAAAzyA4BQAAgGcQnAIAAMAzqHMKAGiyt1s9AQBtjOAUANBUvsSpVk8B8Bw7vqrVU2gbPNYHAACAZ5A5BQA0lR3f3OopAB7DUpdGkDkFAACAZxCcAgAAwDMITgEAAOAZBKcAAADwDIJTAAAAeAbBKQAAADyD4BQAAACeQXAKAAAAz2hZEX5f4kirhgYwBYqoAwBahcwpAAAAPIPgFAAAAJ7Rssf6TnZ8VaunAMx7vsSpVk8BwGSsqHwRU8FEVkMxP3PBnEXmFAAAAJ7hicwpAGB+Wvb0Kzp3+aokafX1+b+STkS7S8crN8/6fD5J0tXY56v6WvXMsCTp9PnLun5RPvfy8dfvav6kWyWckm2nZnVIKxnVwGCX9g7FVJYfbcFcMH+QOQUAAC5yGh00lWn1NDDvkDkFAMy6ZU+/IkmlrKkknTx3WdJEttStpJlt26U2xeNupQmL/U7WFwBvInMKAJjfrKh8Pp+ilqRcUtGQTz5f/hOKJpWrcVrOiirkaOvzhRRNWtXtHf3nrKhCzvZWqbOpx3XO81rmnrOUjIYc88i3tXLObn3y+QKKZyRl4goU2yVzrnPJtw8p6TqgpajPJ1/ZxBu4f5h3CE4BALPu3OWrpeymHd88ZWaz2GY6bevOmo4mFQoMarg7oXQ6ISMYVMaMKxCqDvKsaEiBiKmMDCUS6UJ7yYxHXNtLkg5E1TcgbU2nlU4YCiojMxJS0koqFIhUj1sRzDVn7paigYjiptSdSCidTith5NtG+ibaBrZPXJOChhLptNLptPp73Hfmh3sNSRkNHnS5cuuATElGb/ja7h/mDYJTAEDdzly4osTLH2rD7hHtGDre6uk0lRkf1NbskIZSMYXDMaWGhpQ2JGXi2lWRrYyYGQWNtOyhlGKxcKl9NhGUMnH1uaQQTVPqH0opFg4rHEtpKN+54pG4lMg6xt2rRFCSOVAjE3kNc5fUZaSVtYeUisUUDocVS03Mu9jW7w8rHO5RV/4M9YTDCofDCteqGhXulSEpM3iwIrDMKTlgSjJUik2nef8wfxCcAgCmdOTDc/ryC29r/bOv6Zsv/lpj4xd13rFedLqcWc3Jspwbnnu97DMjjH5VluzMZwSl4dFisDQRbPWnwqrkj+UDy+ogTQomtqvsjEJAJxnqLxvYr56tQUkZjWSbOXdJCiuWCqsyxvT3bFWwqm0jwsonTwdVljzNHdRgxnnt079/mD/YEDUNy54+rXOX7ab2WXwRwbHx/L/sN6zgvxsAtN6ekVNKvXpSh4+flSStW75Y2+5eq+im1epYseSa+3fbzOTm2JfvqPu8f33v49KvFxRKT9130/VTjuF87FwS6FKw7IusRjKSjF65tJbkV2e3JHNEWaksCOzurAwJA+oKSlKXApW9dHZLDeyTr2/uE3KWpYMHDmhEwxoezihTGKpW+3qEew3JNDV4MKdYIVLOHRxURkElSssBpn//MH8QATVg2dOnZyQwlfJv5/ElTmnDigXeCEytHfL5blUoOTb5d17g1XkBbeq9s5e0Y+i41j/7mr78wts6fPystqxfrucevEXHvnyHngqtb0pgihYobLwKRCKKDw9rWN3q3poorIG9RuHtFVnPnA4OZqTgVtVYqgq4InMKAJAk/dM7v1Xq1ZPaf/S0JGnpogXa1rVK0U2rtWX98hkbd7KSUEWVxxYt8NVsu2X/aM0x5reckn0RmZmgEtmh8mUAuaQG4tfaf345Qjw+qIO5mGIqPtLvIQOKhhCcNmAmMqZtJfyUbPupVs+imlfnBbSB85evas/IKSWPnNAbp85LkjpWLFF002o9cdcarbxuYYtn6DWFR/HmAVmpsMuj6ZxGhyUFqx/Vt17xkXr1+lRlR5TRtT3WlwprV+NxDR7MqUeDyshQumywdr5/mC0eeH4MAJhtY+MX9bWfvqP1z76mr/30Hb1x6rwe6lihv/+DDTr2eJe+fd9NsxKYOjOaP354o3788Ma6zjvyH28v/fpybLMux9wzo7/507v0mz9t5itM/Yr1G5JMDbiUesol+xTPSEZ/zLvZwuHR6vJSA2bt9pn8+s+6+Hu0tfBo/+BgxmVt6Ry4f5hxZE6n4Stbbq6r3V8ffqfu9sW2ADCTDrz5kVKvntTzY+OSpJXXLdQTd63Rt+69kXWk9QqnlDZMRcyIfMOGElt71dk5qgMDgzIzGclIy2Ujugfkd9SbZlyB0IgS/b3qHD2ggbgpGYaCmcoAtfCYPmMqEupSul8aVY9iNetJOc6JxxWXZPS73Ii2vX+YLWRO21TO2qFQ6Fb5fMXPI4omD1WV3sglH5HPd2vhzSQ7FPLdKl9ot6PdmKxk4ftSP2PugxY2HpW/ncTxXW63oo45haK7a7yd5JCS0UccY+bbWmWNDynqc15f9ae0AcptXg3ep2ldh1v/oR0V1wG03ntnL+k7P39fG3aP6A//4ZieHxvX7auW6vtfvFnHv3qnvv/Fm2c9MHUrG/XwxhV6eOOKsmNuBfXt+Gbdufq60nkLffmPW7tPLF6gTyxu/l914ZStbNpQUKbi8YgikXi+0Hw6K9vDkVU4lVXaCEoZU/FIRJH4sLrTWQ1t73Jt74/tVcLI1x6NROIarF7OW31OoSyVggltr3Er2vX+YXaQOZ0FZy9fkSQtX9ScR2RW9BFFzJek4GNKJB5UZ+cxHRj4icz4NpmDTyo79Hj145DR3eqL76sqTGJF71fElILBx5Tof1Cdoy9oYPB+hXRPY5Ma3a1Q5CeS8aTS/crPx9ypwLAq5nNI0cA2mbpHRuJJ9Xdu0OiBv1Lc3KlIWdsN2p7eo96qcV5QJL5PCj6pvbGOGblP9V1HPvAPxF/K37t08d7tUyRwVInsj6rXdAGz7PDxs/kNTqNnSjVJH73tBkU3rdYXbv5Ei2fnIeGUbDvlfswf05Adcz8UTmkoXOO8uvr3KzZky7V3t3Pq/a7Uvdvc/QqnhlR9Sq3r9CuWGlKssv0071lZs3rvH+YdgtN2Y+1QxHxJQWOPhlIPFL58QOHw49qefESB+E71Jb+ooYrAzYz/REb6RQ2FOyr6koKJFyfahx9QOPagor5tDVTYy/fvDMjC4cfVG71VEXOndlmPlz2i6TL2KJt6oBTohcMPqKcrP/eJth3yhzsqgscxJQf2SXpMabfA0uka7lNd12HtUCD+koz0i0oV76nj3sX7dqtnqjkCM+D85avaP3rGtTZpbPMarVu+uMUzBIDJ8Vh/FixftLBJWdOJ4Ky/FHBN8Me+W6gx99Pqx9DGNyaCqMq+qjKQDyiVfqyxqRnfcHk7Sb6P4dGxsr5jjsC0NPee3y+8nWRMteSSf5ZfKJ9+qkbx5qJru0/1XId1IJ+93V52TyXpgcJbUrL1byAAmmBs/KJ2DB3Xhuder6pNevyrd+qp0HoCUwBtgczpNDS6eal5m52OFcqAPFgjOOsovFkjW/VmDaO3Mkibqq/GVPcvKRCY5O0kh3TwwAsa0VEND7809dtJCplKGXvqWCjfzPvkdh2HdMCUpJ0K+HbWmMNRjeZU+z3UQJM8Pzauva+frqpN+q17b9Ttq5a2eHYA0DiCU8yu3CFF+7bJzEgK3qNg923q3vr76t+a1UB8X42TDikayWcqsy6Z0JYJPql0/4aahwMEppghZy5c0f6jp6tqk8buXqttXauoTQqgrRGcToMdX1VXO1/iVN3ti23ntjEl+7bJzNxTvWEot7vm20msaH4DVWKv99ZwBsLVSxSAmfLGqfNKHjmh/UdP68yF/EbLhzpWKLZ5jR7qWNHi2QFAc7DmtK1sKLxZ4wW5VE2SNFZ4s0agjjdrFPoaPuZaJik3evRaJlpD8XF79bpOZbOuG7ByyUcKm7a+28Du92bep0n6Z10pZsn+o6cVPvBL3fE3b+iZV05IkuJ3r9Wxx7tk9W4kMAUwpxCczoIT56/qxPmrTeipQ7H+xyTt00D0UNXR0oah/noyjB3q2XqPlNmpvsq6prlD2hV/qQnzraEqID6k6IDLI/3cbvUV1plW7qqfXDPvk3v/PVvvkbRPEZf+ldutpHtUDNStWJt0/bOv6UvWW6XapMUNTt+7/zMUzQcwJ/FYv92En1La2KeIuU2+4ceU2Oqo35mpd8NQnj/2DRnxbTLj9ys08qS29m6QRl/QYHyfuo3HJLPWGtDpeqDwdpKdCoSyE3VV4/sk4zEFM87xDika2KmM7pHRJVmWSxAYeKD2hqMm3ic3/th3lRi8X/Ea/Rvpx6ffOea1Ym3SPSMTS30eve0GxTav0Zb1y1s4MwCYHQSnDVjg803rvDVLm5ugDqfeUrZ3h/oG9ile3EQUvKe85mZdHlDKflFd0T9T3NypjKl8wfr0i4opJXOSVy1Pf+4vKq0/U8Tcp3hkn6TCvAM/VcgxXn6dqSS9lC+a79JXMPGiwpNkVJt3n9x0KDb0ojqTKQ3E9ymeqez/GrvHvFKsTZp8+UMd+fCcpHxt0uim1Xpi02pKQAGYV3y2bdstGThxpPTrejcYtdrCZL5Uy5XYDXW1n86GqHa5F5h7nJvyKl8riZkxNn5RqVdP6plXTpQ2OH3h5k8oumm1Hr2tvn/PeMPb/PMDTOptSfx7tl5kThtQDEob3VlfT3uCUmD+eH5sXKlXT+rAmx9JytcmfeKuNYptXkNtUgDzHsEpAMyCYm3Sv/jFBxobvygpX5v0W/feqEdvu4HapABQQHA6DWQ5AdSrWJt0z8gpnb+cr9rR+7lPKbppNSWgAMAFwSkAzIDiG5wOHz8rSVp53ULF775J0U2rKQEFAJMgOAWAJnnv7CU98+pJpV49qffOXpIkbV57vWJ3r9WjnSu1dBGlpQFgKgSnAHCNDh8/W3qtaNG2rlWKblo9T2uTvt3qCQBoYwSnADANxdqkf/GLD/TGqfOS8hucoptWa1vXqnldm7TRiiYA4ERwCgANGBu/qOTLH2rPyKlSbdKHOlao744b2qw2KQB4E8EpANTh+bFxJY+c0PNj45LyG5yoTVp0iySypQCag+AUAGo4c+GK9oycUvLlD0u1SW9ftVSxzWuoTVqBt90AaBaCUwCocOTDc0q+/KH2j54p1SZ99LYb1HfHDdQmBYAZRnAKAAV7Rk4p9erJUm3SdcsXa9vda6lNCgCziOAUwLz23tlLpTc4FWuTblm/XNFNq6lNCgAt4InglLIjQGvNx1fy/tM7v1Xq1ZOl2qRLFy2Y57VJAcAbPBGcAsBsOH/5an6D05ETVbVJn7hrDRucAMADPBGcsssTaKW5/zafsfGL+otffKD9R0+X1SaNblqt3s99qsWzAwA4eSI4BYCZcODNj5R69WRVbdJv3XsjG5wAwKMITgHMKe+dvVTadV9Zm3Rb1yo2OAGAxxGcApgTDh8/m9/gVFGbNLpptb5w8ydaPDsAQL0ITgG0rfOXr2r/6BnX2qSxzWu0bvniFs8QANAoglMAbWds/KJSr550rU26rWv+lcUCgLmE4BRA23h+bFx7Xz9dVZv0W/feqNtXLW3x7AAAzUBwCsDTzly4ov1HT1fVJo3dvVbbulZRmxQA5hiCUwCe9Map80oeOVFVmzS2eY0e6ljR4tkBAGYKwSkAT9l/9LT2vn66rDZp/O61it29ltqkADAPEJwCaLlibdLkkROlDU63r1qqb917ox7tXEltUgCYRwhOAbRMsTbpnpFTpe8eve0GxTav0Zb1y1s4MwBAq5COaCO5ZEg+ny//iVoTB6yoQj6ffL6Qoslc6yZYKWcpGQ0V5pafXzInz83Xivrc7ytKDv/yPX1xz//Q+r88LF/iSOlzy7Ov6g//4VjpEXw9zl++qj0jp3T33x7V7/xdVntGTmnd8sV6css6Hf/qnfpB+FYCUwCYx8ictr2ckgOmMpKkjMzBg9oei8nf4llJlqKBiMyq7706X9Ty1f0ZPXf8Ol3x5dd73njufX3y0m90btEy/Uqf1q/e/EgH3vxI27pW6Xv3f6bm7vlibdJnXjlR2uD0hZs/oeim1Xr0thtm7XoAAN7WdsHpsqdfkSSdu3xVq6/PT/9EtLusjS9xZOLXPp8k6Wrs8679rXpmWJJ0+vxlXV9Y1/bx1+9q7qRnlF+xfkODEVMZBWVs7fFEoJdLDrgEppJX5wt3t/3lzzR6dYWWXL2gf/fBz9R55o2qNu8u+7T+9ZZ/rz0j0j+981v9yx8Hyt7M9PzYuFKvntSBNz+SlK9N+sRdaxTbvIbapACAKm0XnMJFOKUhO9XqWTjkdHAwM/FbI61sKjwRhPq9Nl+4iQ4e1ujVFbrx3Pt68FeWll0559ru0x+/q4eP/q3eue9L+sfxT+qbP3tX3//izdp/9LT+4hcfaGz8oqR8bdJv3XujHr3tBmqTAgBqapvg1JkxLTp57rKkiUypHd9cdZ5t265tnNnVomLfk/WHxgW7AmRH28zQ2AntfneJlly5MGlgWrTQviL/y3+nd+6Jav/R0/ph9owuXc3/2ev93KcU3bSa2qQAgLqwIeoa5KykoiHHJiWfT6FQVFauvnbJyoYTZ8iq2Eg02T6dqTb01DfPnKxkVKGQo69QSNGac6wx82RIPl9Acfo0ODEAACAASURBVEfiNBMPFPpLKjfpfF3m0OA9LbXLFfua+uczxRU15b60m+3/T06XtUD/7r2fTRmYFl26dElLc4clSVdsW9++7yYde7xLf/8HGwhMAQB1a5vMqTNjKuWzmm7Zz8o2RY20rYcVDSliZqq+z2RMHcimFPZP3S4TMRU30rJTYceRnJKh8uBOysiMhCSjoSk2ME+3MSVlMjIjAQ0nshqKzXTuMycrGlDEZaFqJjOsUUnFu1TPNeUO9ilSdUH5NpHAsBLZIU19SV64L60x8vEiLblyQZ8bbywIv/3ir3Vm5e/qzTMX9K17b+TxPQCgYWROpyGXdA+OptXOjCjkKKeUS/ZVB0OSpIzMOsac3jwdYxppZW1bdjatRLAwcrxP9VZ88seGZNvZ0rmSFExkZdu27KFJduVbuxyBaVCJrJ0/x84qbUxseKv3mqRuGYm0sqV+bGVLk8oovmvqklHNvC/t5qOri7TmwsmGz1t7+SP9wYZ8lvTw8bPNnhYAYB5ou+DUjm8uZTmdv3az4bnXS5/msbTLGT0GDaWdAVDaUJdru8REO0eAI0mZwYPKTXFONp2Q45QZmqehdHHjkj+snq0TwdzgwdmMwrrVWfq1X+FUqpDlrPeaJH8spVQsLH8hGs7lclJn98Q9HB7V5Ffkxfsyu1ZePNPwOZcuXdJtN1wnSTryYX3LAQAAcGqbx/pFUz2edzr25Tu0YfdIXec7v/90oQzOr796Z3XD3KiGS78JKrF34hG+JPnDKcVc28Um2vnDiu1NaDAQz9f7zAzqYC6mmGqf4w/HtDcxqIB7WrVJ8zQV8bkXgJpxgS4FpUL9U1ORgKlg0NDW/u2KFSde7zXlG8uK9mnAzMg9ET2irFQ7k+uV+9JCHy+8vuFz1q1bp7d+M/H6UQAAGtV2mdOWy444gp1udda15NClnb9T3a5tG+27hnrnWdauhfwx7U2U54YzGVPxSKC0kar+e59fKxopBaZBBYNBGUYDuWev3JcWud53VR8sW9fweevWrStlTDevbTy4BQCgbYPTejYw+RJHNDZ+sVRnsfJ858fp3bOX9O7ZS+6dFjJ8ecMareuprku7ssxcfedkRxoIl6Y1T0Npe+IxufMzGxt//LEh2dms0kawfAlDJq6+ZK7+a7J2la0Vte0hDQ0NKbV9a4NLI4pae19a4abrF+jjhdfr5NI1DZ131/90rw4fP6uV1y1Ux4olMzQ7AMBc1rbBacuUZTwzivc5SxPlyw4lLbd2SUeZI0vJvvhEZi64VT1+l3N2WZo4Jeq6k/2a51kW8JmKRK2ytZg5K6lochbfN+/3K5wa0pBtK+2oTpAZydZ9TbnR8rA/Vzy+K15/NtRr92WWxe/7jCTpn9f9Xt3n3HnnnXruzBqduXBF27pWzdTUAABzXNsFp85M548f3qgfP7xxWuf7EkfKPvWXkgqr11nSKWMqEijWwAwoEjc1Umi3vWzXU3yiXSBStiPf6C/uYq/o24woUKitGWgoMm1gnv6Y+muMmR83LrN82e7MKAR7jroFGq1KLdd3Tf5Ox4KJ0vW4l6mqySv3pUVid6/Vf7j1k/rg+pv00tr7pmy/bNky3fzvt+qZV06oY8USPRVaPwuzBADMRW0XnHpBOFVeKqkWf2xvWfbPTdBIy1nmNLy91q58Q4l6BnWod57hVHo6JVSbbERm3BkAOuuL5nfLS3VeU7jX9XqMRGMVD7xxX1pnz4O36FNLFuilNffKuuX3a26QumWjX3bPN/RHL7wnSXruwVu0dBH/agEATE/b/A3itjb04Y0r9PDGFVXHaq0lbR6/YkNZZdOGgmXRTlBBI6Ht4Yl24VS+DJRR3lDBoKFEOquhsgL8kvwxDWXTZe2DwYTS2ZR6ZmyeYaVsl7WeCipopJXdXjHHmRDoqrpHChbGt1OamEE91xRWKpvQxP6noIx0VqmGb6AH7ksLrVu+WIcf7dSW9cv1q+Wf1Q87/5P++8ZevbT2Pn2wyq+3uyIa2fIV/fXaHiWHx7Vu+WJZvRv1hZs/0eqpAwDamM8uvnx+tgd2lG6ayXfYV5aOKo7l9n2ttsDc9rYkyZc4Vfqm8p/97/z8fe381/d1vuJNbUVP3LVGT4XW80YoAMA1a7s6p9eqGIBW/uXbSP1UYL759n036dv33aQ3Tp3XkQ/P6Y3TF9SxYok2r72eklEAgKaad8EppstS1BfRpHuKggllJ3tFKdre7auWUlwfADCj5m1wWiuDilrCStm2Uq2eBgAAmNPmbXBKUAoAAOA9bbNbHwAAAHPfnM+cFl+hWPkK08k2QPHaRQAAgNYgcwoAAADPmPOZ02OPd7V6CgAAAKgTmVMAAAB4BsEpAAAAPIPgFAAAAJ5BcAoAAADPIDgFAACAZxCcAgAAwDMITgEAAOAZBKcAAADwDIJTAAAAeAbBaRvJJUPy+Xz5T9SaOGBFFfL55POFFE3mWjfBNlLzXgIAgJYiOG17OSUHTGUkSRmZgwdFeAoAANrVolZPoFHLnn5FknTu8lWtvj4//RPR7rI2vsSRiV/7fJKkq7HPu/a36plhSdLp85d1/aJ8rP7x1+9q7qRnlF+xfkODEVMZBWVs7ZG/1VOaj3KWrIMHNDBoqrvfVirc4HEAACCpDYNTuAinNGSnWj2LecxSNBCRWfhdd8PHAQBAUdsEp86MadHJc5clTWRK7fjmqvNs23Zt48yuFhX7nqw/AAAAzBzWnF6DnJVUNOTYWOPzKRSKysrV1y5Z2XDiDFnRUGGTU2Gj0yR7dqyob9LNPfXNMycrGVUo5OgrFFK05hwbmU9OyahjfJexk45xQ8ncxCavULJsDe1M38tGx8lf60RWVJLMyMS1T3V8OmMCADCn2S2i771c+jTavniO23fO793On6y/RqSNoC3J9WOk62snyZazsW3btp21E0G3tkHbcPblOC9t1O6vvnnWGjP/CSayDd4b53wSNa9notvy8YOGYQeL7YIJO1vqd+bvZaPjlF2rS7upjk9nzOZ7y7btt67pzwMAAM1C5nQacsmQImamOe3MSD5TWDqnT3HXUzIy6xhzevN0jGmklbVt2dm0EsHCyPE+TbtClRmveT3xXe4pzIxZrD7gnOPs3MtGxwmnbNl2WobjsJG2Zdu27FR4yuPTvTYAAOaqtgtO7fjm0lpQ56/dbHju9dKneSztckY8QUPpbCHYsG1l04a6XNslJto5Aj9JypTKP9U+J5tOyHHKDM3TUDoVzu/294fVs7U4YkaDB6cfGBnpbGHcrNLOKM08oFpP2EvnDMXkn7V7OZ1xrlUrxgQAwLvaLjj1JY5UfWo59uU7JNvOfyrOn6zfzzz7mj7z7GvuneZGNVz6TVCJvSmFHbWb/OGUYmG3drGJdv6wYnsdAVJmUAdzk5/jD8e0N9FAeDqteZqKONY7BtzTjo0x0kpNXLjC252B4bBG3aKtsnPcrmWG7uV0xrlWrRgTAAAPa7vgtOWyI45Hzt3qrKuoqEs7f+cUJYXq7buGeudZ1q75gl2B8i+mvG6Xc8rM1r2czjjXqhVjAgDgLW0bnNZT5smXOKKx8YsaG7/oer7z4/Tu2Ut69+wl904DXVNn/qq4tCvLmNV3TnakgTByWvM0lLYnHv07P0Ox6UXKmZFs+RdTXvdUZuteTmeca9WKMQEA8Ja2DU5bpiyTlVG8z1kWKV+OKWm5tUtOtMtZSvbFJzKWwa3q8bucs8vSxClRRZz1iJo1z7Ig1lQkalWXbkpew7vnzYGJUki1rnsqs3UvpzOOi+Ep/kug7HiTxgQAYM6Y5eoAJdMtJeX04zc/sn/85kdTlomarNxUPaWpKk1aHshRoimbmKI8kGvpqanbq85SUvXOc8oxGyxjVO81TJSoqigl5VK6arbu5XTGqVmyqtRo8uPTG7OZKCUFAPAOMqfTEE5lVc/eJH9sb/nudBdBI132nvXyDUNOhhKNbIhS/fMMp8pLHTWVYbj3HUxobwNLBWbrXk5nHMnvqGzg2uukx6c3JgAAc1PbBKdua0Mf3rhCD29cUXWs1lrS5vErNpRVNm0oWBZzBBU0EtoenmgXTuVLFxnlDRUMGkqksxqqjDj8MQ1l02Xtg8GE0tmUemZsnmGl7KzSRrAimAsqaKSV3X4tUVGvUtmEjFLHhT6HYmrsCfVs3ctpjCPJHxtSNmFM3L+goYTjvk1+fHpjAgAwF/ls21FnaTYHdpRzmsl32FeWjSqO5fZ9rbZojBX1TazpNNKlYvPwqrclSb7EqdI3/LMPAGiVRa2ewGwrBqCVf/lOVi8VAAAAs6NtHuuj1SxFHQX6XT+hJG8wAgAA12TeZU6LamVQUUtYKdtWqo6W2ambAAAAuJq3wSlBKQAAgPfM2+AUMyecsmXXk2IFAACoMOeD044VSySp6hWmk22AKp4DAACA2cWGKAAAAHjGnM+cHnu8q9VTAAAAQJ3InAIAAMAzCE4BAADgGQSnAAAA8AyCUwAAAHgGwSkAAAA8g+AUAAAAnjEnSkl9fOmqJOm//uJ9SdLPfnlGkvSrMxdKbT678jpJ0u9tXClJ+pN7b5IkLVtMfA4AAOAVRGYAAADwjLbOnP7iV7+RJO184S1J0vHxCzXbHv3g47L//8nISUnSkw/eKkm697OfnLF5AgAAoD5tmzn9xa9+o6/9MKuv/TCr4+MXXAPTG5cv1qc/mf9UKp5T7KMY6F6rXDIkn8+X/0StpvQ519S8R1ZUIZ9PPl9I0WSudRMEAAAt07bBKeaanJIDpjKSpIzMwYMiPAUAYP5pu+D040tX9fGlq9r5wluybVu2bddsmxuX/ttX7tJ/+8pdNdsU+9j5wlulvj0hZ8lKRhUK+TQ/ErB+xfoNBSVJQRlbe+Rv8YwAAMDsa+s1p3OXpWggIrPwu+6WzmUWhVMaslOtngUAAGihtgtOi+WiJtv8NB3Hxy+U+o7+zvqm9g0AAID6tN1jfe/IyYqGCht4Cpt4Jnv8nssVHtM7NgP5fAqForIciyutqE8+30TWVJLMSMXmoTr7aviKrKSiLn0mqzrNKRlytEnmJjYzhZKOtaKN3aP8tVdvlKreQJXvt/RdKCr3/VO50tKIibYhRa/lJgEAgBnVdpnTF988M2N9F4v3T505zSkZCiiecX6XkRkJSUaNMw72KVJ+Qv6sjKlIYFiJ7JBidS6ybGZfRVY0pIjp3mcmYipupGWnwu4nj+xSKF7czFSaZcP3qP65BhRxRu8ZU/HAsFR23W7jS8pkZEYCGk5kNdToTQIAADOOzOk05JJ91UGPJCkj0yXAy+uWkUgrm7VLm7CyiWDpvPiufKYwnLJl2+my+M1IF84pBYf19VX/9bgHpmXMSD5D6iJjVgam071HdTAj5YGpo9/Bg46crXN8I62sbcvOplW8TZl4X41sKwAAaKW2C07f+eiC3vmouetNi3515kLZK0/dWdrljLqCCaULQWI2nVCwxln+WEqpWFj+QrIul8tJnd0T7YdH6y6d1My+JrseZzAnSZlJyjsZ6Wz+nKGY/NO8R/UqjZUt7yszknW5JkPpVDi/898fVs/WiSDeGcwCAABvaLvgdDJLFy3Q0kULNH5lscavLNb/F7tTG557XRuee10v+RZO+fnnS9I/X5I27B7Rht0j7oPkRjVc+k1Qib0xhQtBoj8c095ErdCrfP1lIBBQIOLIOGZGlK1x5oz2Ncn1yB9WbK8jAMwMyjWeM9JKhR2PyKd9j+oQTGh7qbOY+t2WCJSNbyriWEMbcE/nAgAAj2i7Nafe0q3OupYtVq5/DCoYlLq7NY1H3M3sq5LL9fg71S1VPbZ3CnYFGuvzWnR3ltU/DXQFVTW77Mik8wUAAN7VdsHpZ1deJ0k6+sHHum6hT5L04cX8Zfzim+XF9jv/z1c0tsi9qL4d31z2e1/iSOnXY+MX65zNsEZzkjNpmB1xCYusXWXrH0trR3NJDZuZxgKpZvZVpfp6yrOQzenT9R7NGENpO6UaW7kAAIDHzKnH+rOikEnMy28+Kj7pzllR1806udHy8C5X+F9rV7yuYHJ41LHR5xr7qlJ5PX3JiXJUOUvJPke/wa3qqScLOo171FSBLsdaVFORqFW2VjZnJRVNzovXbgEA0HbaLnP6extXSpJWLl2onf9hgyRpzScWS5L+172vSZKOnTovSVqxUJIWlp1fzJg6M6XF7yu/cxdWryGZxQDLjCgwRbDl73Q8GK+jvRSQ82l1Jh6QL658prS30b6mEtb2RFBmvDSYIoG4a0ujP1bnK0Ubv0dN5Y+p34hPBMFu4xtp8S4qAAC8h8zpNIS319pxbijhttkn3Ota2tNI1OrH79hVfq19Tc0f26v0FLVHg0Zatcqcumn4HjVZOJW+1nKqAACgBdouOP2Te2/Sn9x7kz6+ZOvrf5/V1/8+q3u/95Lu/d5LOnbqfClrOqP8MQ1l0zKCE0FWMJhQOptSj+sJYaWyCRml5kEZ6axS7o0LQwwpmzAmArygocT28LT6quOCFE7lyzw5r0mSgkFDiXRWQ41EpvkLaPAeNVtYKTurtBGsCJKDChppZbezChUAAC/y2bZtt2RgxyP0ys1Jk/n4Un6D05/+MKtzl65IknInztVs/5Jv+o/1G5kX0L7eliT5EqdK3/DPPgCgVdpuzemyxflk75+GPq2v/bD+yqBFxQB0st36AAAAaI22e6yPelmKOorPu35CyQbeJAUAADDz2i5zWnTvZz+p7/9Rvvj7zhfekiQdH6//taa1MqhzR1gp22ZHOgAAaCttG5xK+QBVkv7uP3dJkv7rL96XJL345hlJ0jsfXZAuuZ87d4NSAACA9sVjfQAAAHhGW2dOi4qbpKK/s77s/yVpw+4RSdWvJJ1sA1THiiXNniIAAADqQOYUAAAAnjEnMqeTOfZ4V6unAAAAgDqROQUAAIBnEJwCAADAMwhOAQAA4BkEpwAAAPAMglMAAAB4BsEpAAAAPIPgFAAAAJ7hkTqnb7d6AgAAAPAATwSnvsSpVk8BmNfs+KpWTwEAAEk81gcAAICHeCJzasc3t3oKwDzGshoAgHeQOQUAAIBnEJwCAADAMzzxWB+Atx3+5Xv6P4be0pHTV/Srq8tK39+5cpHu+/QKRTet1pb1y1s4QwDAXEFwCmBS/+X//n/1l28v0YUF10mSVl48o09e+o0+Xni9XjuzRq+dOaU9I6f05JZ1+vMt61o8WwBAuyM4BVDT//xXln56Zb0W+q7o33xwWF1nRrTkyoXS8Su+hRr75Ab9j8/cr52H39M/vvUbHfqjz2npIlYMAQCmh79BAFQ5f/mq/vcfDemnV9brk5d+o96xH2nzyZfLAlNJWmhf0efGc/qj0f9L3UvP6/Dxs9oxdLxFswYAzAVkTgFU2fPyO/resQVauOCKHnznea0+f2LS9kuuXNDvvvYDvX/n/6bEyx+qr2uVNq+9fpZmi+ahrBiAoltaNjLBKYAqz/38mM4t/JQ2n3x5ysC06OrF8/pP172l753/rL7203f0L38cmOFZYibwxj4AeadaVoeex/oAqhy/vFiSdM+HP2/ovJs+GNHtq5bqyIfndP7y1ZmYGgBgjiM4BVDl+NWlWnnxjBbaVxo677333tPmtdfr/OWreuP0halPAACgAo/1AVS5rAV1P853unTpkj6/Zqn2H5WOfHiOdadtzo6vavUUAMwyLyztabvg1Jc4Uvp15VqIIx+ekyTd/bdHq857+T/eJkmlvyyd/UjSQp9P1y/ySZJ+e+mqa/9znhWVL2IqmMhqKOZv9Wxmjtt1zpdrb8B1Vy82fM6ZJSt16kT+z+GZC41lXQEAkHisD6CGE9etbvic9xZ+Sj84ekaS9I9v/UaHj59t9rQAAHNc22ROi5nOvq78Y6a9I9Vp52LG9PTXNkmSVl63sCqbWsyGVmZFL1+1dbaQMV35/VebPX1PsZJRDQx2ae9QTGU5wnBKtp2qv/1cUuPa56ubly3QcXtNw+f9lz98QK+PLNG7v72o58fG9fzYuDpWLFF002pt61qldcsXz8BsAQBzCZnTeSen0UFTmRlrj7ng3vWfLL39qV533nmnbrm9W6fOX1bHiiX6QfhWPdSxQmPjF7Vj6LjWP/uavmS9pefHxmdw5gCAdtc2mdNjj3dJkjpWLJHknjl1WyNabD8VWxMZ03m31hSo8OSWdTrw5kca+vQX9Oncu1Vvhqq0bNkybdu2TX/803d1/vJVfeveG/XobTfo0dtu0Nj4RaVePan9R0+XPmRTAQC1kDmdtpysZFQhn08+n08+X0ihpKWcFZXP51MomZtomQzJ5wvJ8VXFMZ+iVuUBS8loyNG/T6FoUlZlH4XxopakXFLRUHn7XFlTn3y+gOIZSZm4AsV2xYk5+6qnfSPzbEDOiirkuA6fL6Ro0lJll857l7MKP4uQ85qrf0ZRtx+Cy7VXfTfFvZ10/qHoNd2PVti89nrF716rswuW6vXbeiZtu3HjRvX39+tH71zW82Pj2rJ+uZ64a2JJQMeKJXoqtF7HHu+S1buxFLCSTQUAuGmbzGm9GdBKNxSyoU9uWed6vLiWdfXSRfre/Z+pu18rGlDElIJBQ4n+XnWOHtDAYER9Ck5rnhW9KxqIyFRQRiKh/s5OjR4YUNyMKzIsZd3Wfo4mFYoMSkZC6X7pwMCgTDOugKN9YHta6d5RHRiIy1Rh3pIUcF9JOnX7acxzqiuPhhQxM1LQUCLRq87O0fy1xCMyBxM1r70vXr30wP1nFFCo0Z9RHfe2KJcMKRDP5MdMF8c0FQkMK5EdUjsVAngqtF77R8/oX8/epLP/5gk9cv6IPh4b0fj4uJYtW6YNGzbo85//vD6/5Xf1zRd/rT0jp7R00QJ9/4s31+zzoY4Veqhjhb73e5/WnpFTZRnVdcsXa1vXKkU3rZ72n3cAQPtrm+DUU6xoPuhxlh0KhxWO9SrqizRlfWaXkVY2FS4FPuFwWD1dIQXice2yYkqFy9ub8cGy4Cccjqk36lPEnGjv94fl9wc0OhCX1KWecHjS4LGe9o3Oc1JWVBEzo6CR1lDpxLDC4Zi2J/N99iV7qko9mfFBGemshsL+ir6a8zOq594WxwzEMzLSWaXC1WPG+5LqaaNNZUsXLdDLj3Xqy//9V3p+bFzDultf+Lf/TlvWL9e/XbdMRz48p++897EO7x7RmQtXdPuqpXruf/lsXbVN1y1frG/fd5O+fd9Nen5sXHtfzweo3/n5+/rOz9/XQx0r1HdHflkA4DXLnj6tc5ftpvZZrCl7bDy/MXfDCh5sYv6ak//0n7lwRWcuXJEvcUSxu9cqdvda/fmWdfpzl+ypHd8sO75ZJ57o1jdf/LW++eKvFS983OWUHDAlGeqvSoOFlUobTbiCsGKp6kDQ37NVQUnDoy7PiI3+qqxcuDc/F9f2TTGNedbkuK8uEa0/tleJoJQZPFj9ON3onwgGK/tqxs+ozntrHTClYELbw9Vj9hqSMiPKNjZyy61bvlhW70Y99+AtWrd8sf7pnd/qOz9/X3/4D8e08/B7pcfx377vJr38WKe2rF/e8BgPdazQD8K36vhX79RTofW6fdVSPT82ri9Zb2n9s69px9BxjY03XnMVANCe5lTmtLJs1N//wQb1fu5TdZ9f3AhVfNSfcH3Mn9VIRpLRq0aSgtORsywdPHBAIxrW8HBGmUK6z+2htNHrMptAV1MWGUylkXnWNtV99auzW5KZD/Cc4V/1tTf3Z1TfvbV0wJSkuAK+eI2ehjWak6pi1zawrWuVtnWt0tj4RR358JyOfHhOt99wnTavvV63r1ralDGc2dTDx8/mH/mPniGbCs9Y9vRpSWp61lSaeCtP276Vy9ohX2SfgokXNRTraPVs0ObmVHA6Z+QsRfsiMjOSgkEFu7vVvXWr+reOaCButnp2E9plnrMpmFC6v7Pm4RrLe9tGx4ol6lixpKH/6JuOLeuXa8v65fre/Z/R/qOnlTxyolQ39Zs/e1e9n/uUYpvXNC0wBgB4x5wKTosZ08pXlToVX6l4g0vZqGLmtbVySvZFZGaC1RtockkN1ErKzbp2mefsC0yxlhf1W3ndQj1x1xo9cdeasmzqM6+c0DOvnNCW9csV3bRaj3au1NJFc3KVEjxkJjKmKGcld2hgMKC9Q49X/Xt0smOYW/i3ecMC6sovqHQtJZQbHa5xXkYjLgsOsyOVW3OKj6Sr1zkqO+KhYvjNnmfhvpoHVFlVKy+n0WFJwS4F6u2r4Z/RtSiM2YbrStvFlvXL9dyDt+j4V+/U9794szavvV6Hj5/Vl194W+uffU1f++k7euPU+VZPE8C0jWl0cF+Nvz8mO4a5pm0yp8UNSsmXPyx9V1wbWsyUFhUzqG6KmdLia1CLfThV9lfOr56tQcXddo7nLO2KV//R8fdsVTCekXnAUirsWL+YS2qg1tPv4VHl5MzAWYrWbDwNmeq1m9Nq37R5+hXrNxSPmBqI9ipcsSkql+xTPCMZ6Xp2uzf+M7p2hTEzpiLRXtmVm7pySSWzMcVmeqHyPODMpr5x6rySR05o/9HTZFMxa76ypXa5NKe/PvxO3e2LbQGQOZ0Wf6xfhqRMPJAvOG9ZSiajCgUikuGyE9zfo61BSWZEoVBUScvKF4cPxKVg5bah4s7uuALOtr6IhruNJmxwygdRkqlIKCnLSio5aYX4Wu1nYJ7hlNKGlDEj8oWiSiYtWVZS0VC+dqiMdN2lqSp/RsmpfkZNUKwoIJf5+wJxjczIqPPb7auW6vtfvFnHv3qnnnvwFm1Zv7wsm/rlF97W4eNnWz1NzHNnL1/R2ctXmtOZtUM+362Fl4PsVjR0q3y+/CcU2lH1wo9c8pFS+5y1QyHfrfKFdpc9VcpZOxRy9OPzPaJo8lCNF42MyUoW+im1HZt0yvX0b0Vvlc93f+GlLzsVKF5TcmzSY42Og/bQNpnT4s559x30eY28dnTPg7dIUqm8P8vucgAAIABJREFUlDU2rq853mozubBSdlZd0b58wXlTUjCoRDqrmHbJrEoc+hUbykrRPsVNU5mImS8yn86qZ7RPgYpEXjiVVVp9ipim4vnO87UzAwcVakLy1B/bq8RIYe4RKZjomTSjV6v9TMwznLKV7Y2qb8BUvLipKhgsrx1aX09lP6OMqdI9d/8ZNUP+59yZ3KWBuKl4pnL+MzEmpHxN1mJFAWc2dc/IKe0ZOaXbVy1VbPMaPXrbDVp53cJWTxe4dgd2KGQelYwnle7foNEDf6VBc58iASltP1VdqWR0t/ri1Y/FregjipgvScHHlEg8qM7OYzow8BOZ8W0yB59UtmJ9pxW9v/Byk8eU6H9QnaMvaGDwfoV0j+s06+0/sH2P0r3HdGBgp0wV+pakQIcCPbWPTfc64G0+27ZbssLb+Ti9le+yL9ZPbCw4nYQVlS9ilhd/BzztbUkTpWyk1v6ZbJbzl69q/+gZpV49WcqeLl20QI92rlR00+pp1WSd+96u+OegTcsazZDivZnJx/pT3vNCySbpHiWyPypf8188ZuyRnXpAUj5zGoi/JOkeGenvKhXuqGofNPZoqNC+qHheWWmomuWiDinq2yZTcm9fb/8aUzJ0v+JyCyYnOdbwOJiMF/4umPeP9YulcZoSmMJdLqfcpJ9WTxBzUTGb+i9/HNCxx7v07ftu0srrFmrPyCn9zt9ldcffvKFnXjlRquABtJNg4rvVm1HD0cLSoheqN5Ya3ygPTDWm5MA+SY+pvyKgkyR/7LuFF5/8tPBY3NG+Ksh7QKn0YxXfNdr/dM3WOJhNbfNYH+3KUjQQ0aRP0YOJqnfUA83UsWKJngqt11Oh9dp/9LT2vn5az4+N62s/fadUN7Xvjhv0UMeKVk8VbaDRzUszsdmpu7PD5duO/MtKMkerXvhh9FYGbscKFVcerPGykkJfZrawGXaq9pUa7X+6ZmsczCaCU8ywsFK2rVSrpwEUPHpb/i1TY+MXlXr1pPaMnNL+o6e1/+hpdaxYouim1drWtUrrli9u9VQBYF4iOAUwL9XKpu4YOq4dQ8f16G03kE2Fq3rX4jbySlLnOr9rd5s6SRGijc37NadNF07Jtm02QwFt5NHbbpDVu1HHv3qnngqtV8eKJdp/9LTCB36pDbtH9J2fv6/3zl5q9TTRpk6cv6oT5682tc/h0TGXbw/pgCkpGKjjZSUbCi8+cVmfKkkaK7z4pNhXof3wsRovN6msL95o/9M1W+NgNhGcAkDBuuWL9e37btKxx7tk9W4sPf7fMXRc6599TV+y3tL+o6dbPU1AmXiqKhjLJf8qv2N+6xfrWFvZoVj/Y5L2aSB6qOpoLvln+Ref9Bd3xneoZ+s9Uman+irrmuYOaVf8pWvs33lx2dpv2qs6dg3jwLMITgHAxUMdK/SD8K1V2dQvWW9p/bOvacfQ8VIpOswPC3w+LfD5Gj5vzdIFWrO0uX/dBoNHFSkUmbes3YqGCiWjgk9qb70lk8JPFV58sk2+0A4lK/sy9pTVZ/bHvlF4ucn9CkV3K2kdUjK5Q6HANsmo3K3feP+lAFj7FAntlmXtVtIam/pYw+PA6whOAWASbtnU985e0nd+/r427B5R+MAvyaZi1nX3/0jZxG0ajm9TJLJTZkYyEnsaLjYfTr2lbPoxBbVP8WJfkoz0i6VaqRMeUMp+UQnjHmXMnYpHtik+KG1Nv6hUbzP6L5R+MvIZ2khkpwZH6zvW6DjwtnlfhB/A3CzCP5POXLii/UdPK3nkhN44dV5SPojd1rVK0U2r1bFiSYtnOF0U4a9Hczcv5dV9rwsF5430W2QDMSO88HcBmVMAaNDK6xbqibvW6PX/fLv+5Y8D2ta1SmcuXCnLpu4ZOaXzl5u7CQYA5gNKSQHANdiyfrm2rF+u793/mVI29fmxcT0/Nq5vvvhrPXrbDYptXqPbVy1t9VTRJGSUgZlF5hQAmsAtm3r+iq1nXjmhO/7mDf3O32XJpgJAHcicAkCTObOpB978SKlXT+rw8bM6fPws2VQAmALBKQDMkJXXLdS2rlXa1rVKb5w6r+SRE9p/9LSeeeWEnnnlhLasX66+O/KvU1153cJWTxft4P9v735iJDfPO4//aE30J0JkeSQh0irISnZVS+mMldEhgJYE1kAOgasGNvo060DAtmMgpIUEKPowwAZoQD40kABzGBKbRCkaWGcWEOLti9sHkd49LOAFuuxFAGtstTtWV3nnD9bWxrJH0iSKPLYk7oHFalaRVcWq6e5id38/QMGa5sP3ffmW3PPoId+Xjb9QHP/FokcBHChu6wPAIXj69L166Q9+S2/8ye/qq3/423rusfv1nTfe1Qv/8//qsa/8QH/8P27oO2+8u+hhAsDCkZwCwCG699RH9Pnl0/r2f6jrH//j0/riMw/r3rsM/d3OTf27/9bV7/zXH+pvv/8zvX37g0UPFQAWguQUABYkW039+8a/1aefeEA/vPkLqqkATrQj98zppM37r7z5niTp2Zdfz5336vNPSZLOPnJfrh1JusswdN+p5LV0//KrDwvbxzEVOTKagUyvq60Wb1/G4bv31Ef0uaeSZ0+v3fql2q/9XH+3c3Pwefr0vWqdfVgrn/ioHr3/1xY9XAA4UFROAaBCnnjgbv2F9djYauofRdf1zWu3Fj1MADgwR6ZymlY6V5eTzY8v7+RfH5dWTN964ZOSkpWyo9XUtBo6WhV9/8NY7/Yrpg++9Np+Dx9V1mgrjttznRr5jtY3lnV5qzXT+6yBMoqqqV97/S197fW39MQDd8v55EP6/PJpqqkAjhUqp8DcetrdCNRZ9DBw7GWrqV//zJODhPXPt96gmgrg2DkyldOrX1iWlPySloorp0XPiKbx08Taq5jyrCmAqlr5xEe18omP6tK//zf6u52bar/281w19XNPfaz0775JDC//exbA8VWVV/NSOZ1H5MgwDDmRpJ4vxzJkGMnHshxFveHwnm8N4nuRI8swZFi+smG9yJGVacfItRPJMTLHCz6W35shbkLfhiXHjzRyGeX1IvmOlVxn2qfj5+YlG+9Y1vAYndH+e4p8J9OmJcuP1Ot/F9lrSubbkl/QX/a7GMh+n0PDGv5uDcuS07+IyDFkGHW5HUkdV/XDmlug79H7f03/6fd/U1e/sKxo5eND1dQn/8uOGpv/R197/a1FDxMAZnZkKqfzVgE+1q+Gvvjco4XH02dZH7r3lC596vHZGt90ZAXbku0pXFvS7ua6NoJAzboUxm01RuN3fa26+dvAPd9S3e3ING154YqWdje1vhGoWd+W191SsoC8rgthqJVcm5tquoFkerrcX2leNk6SIsdSM+hIpi3PW9HS0q421zcUuE0FG566Mz9LGcmpNxXIlO15WltK5sUNXDW3lW+vv1Je/fiVpSXt7m5qY2dXysxg5NTVDJTM0Vo6R02typxpdGXlv5NdbW642u4Pq34hVLiyq811V4H6Y5Kk+kHOLVDs0088oE8/8cBQNfWb127pm9du6Uv/6yf6/PJpOZ98aObfo9xFAk6SG4sewJ54QXTp1cFn3vNn6efFb78Rv/jtN8Yef+il1+JL3/1pfOm7P53eaGjHkmLJjL3umGN2OPhR1zMH8XbYLYzP/TwOY1uKZXrx6JE93dgzFUt2HI6NmRDX79u082enYzZzFzhNGHt2mBtz2t5QV10vNqdeY2ac+clO5mjkWNJXwXczbhyD72AQlczXtHFNijuQuT0o1+M4vn7H/59EtURX34k//9+vx/f+5+8NvtdPf/1H8d//8OaEs/j3ADi5qvN3wbG8rf/27Q/09u0PZHhX1Hr2EbWefURffu5Rfbmgehq7ZxW7Z/WzL57Rl771Y33pWz+W2/9MY3qXldsWs3FBnikp2FQ0eoK9pnZj+IRoM6lmXmjkGtKKLamzo+6Y/nv+qtyOZIcFVdqpcT3564EkW2vt/Nm11mV5ptTZeGXGW9ANtdqNXEWwdu68TEnbu3utRRdddWTKuzypgpgZZ36y1Q7tmUZ3OA5qboHyPv3EA/rqH/623viT39VLf/Bbevr0vfrmtVv6o+i6HvvKD/TnW2/ohzd/sehhAkDOkbmtX8botlFf/8yTWvnER0ufn97CSm/1e1Nu859ZKkqpalo6I6mzrd2elM057ZXRRCXSZiBJruqGO6aXfDvJqY7qScapgvynRFxXOx1J9sqYxLZ/HUGSHM96+7kXRXplc1M72tb2dked/rMMezfhe9rdlmSe17mJjU8b50Go6dx5U67rqm7tyFu7oFbuC5jkYOcWmMWD99ylLz7zsL74zMP6zhvvJguodt/WX/7DP+kv/+Gf9Nxj96t19mF97qmPLXqoACDpmCWnR5aZPLM6Tj2XvURymknFtTs5My0Zt496kZzVpoKOJNOUeeaMzpw/r7XzO1p3g0xgP4E7mEdG71ittaXukqPVZiC3GciVKdtb04VWvioMHBXPPXa/nnvsfl361OP62utvyb/yM33njXf1xAN3k5wCqIxjlZymFdPRV5VmvX37A0l7C6WyD/ynldf9cUaFhdUx6o3ySU/kJAuOJt8OLx+3f3ryV5sKOmZmIVd6yNf6UHG4ruWKJqapWqOtrbitXi/SxdVmspBpJ1R8WIk+cEBGq6kP3nPXoocEAAPH8pnTw5J9fnJP/1a9uaz61Bb6CdqE50pH9XwrWbVe9LzrTHH9vouejU1a6N92L3MdqfR29lq+z+7OyC4F6eMP0669P87t3cLnM3u722PO62inoOHuzuxb5tdqDbW3uuOfJc45iLkFDsZzj92vp0/fu+hhAMDAkUlO00VKhndl8Exo+s9X3nxvqOr57Muv69mXXx8cz34evOcuPXjPXVpdPq3V5dNDx9LzXn3+qUH1dZKOezGXfPT8dQWSzPPnSlQrk2cbpUDN0U02k8bkR8N/Xu0/P7o1OTMtEVdTa82WFGi9oO/BIqq1OaquuUQykrMe5MIaK0n/zdyepsPjPHfelDquVkc3Lu1Fuujmk8108VWwObpxqa+CYRTq5QbUT6aL5BLsA5xbAACOuSOTnFaRaW6r2d9UPYp8OVayN+boXqKTpCu3FTRlWI78TFtG3dXOIDKSU09Wt9vLUhRF+U9vljhJjbZCW+oU9F1qsVVOusOAq7rlyI+i/sb5TW2fsfOPlzbaCm1TCpqqW+k8RvJ9R5az95KCWmtNSbP1ZDP/NKbelOyC1fq1czrfn1MrO466K5llniWIdLFu7J0b+fKdfiV6aJFT5j8uLD+JSyd33+cWAIATYlF7WFVhH604juOr79yOr75zO/6b771Z/qTMvphdz0726kz3MfVK7vE5HBGHQ+0oljm8J2poZ46N+Zhet3TcUO+hHZvm+L5n041D28z012+rv6dp0d6euf5lxqY3Olnd2Mu2a5qxF3Yn7IE6Gm/HXtgtvc9paJsTv49x/Rzs3B6U6uxth0Xj3wPg5KrO3wVGHMfxwaW+46W35qXFvoXk2q1fSpKia7f0wjMPlzup/1YjO4ypfi1a/7swve7kRx0wQfJWkOx71Hkz0El1g38PgBOrOn8XHKvV+vNIX+dXOjE9qXq9KRvG11QjNwQAAHeIZ05RQiSnXld90mfV521HAE6knm/JMIzkk10EGTmyDEOGYckZXdCJQmPnEicKySlKaKgdx4onfbZYeQ4Ae5LXGCf7iXQU8LpioLQTf1sfAHBnfv2vvi9Jeu/9D/XQfclfKz9zhvdey64zMAxDkvRh6/cK2zv9t8n+xW/94n3ddyqpofzrnz2zv4M+cMmWchvNINk9pdT2gth3vUjRK5ta3wh0Zq1gnci041gIktN5NNqK4/aiRwGJ7wJAdfXfModFieTUm0q3t85vVT3tOBaF5BQAMJdsxTT18/fel7RXKS1a7ZtuEjMak62uptK2J7UH4HjhmVMAwLHSS19kki6sMZKXakS5l8wVx/mjgXtnKHKs/iKn/kKnCWt2IseYuLin3Dh7yUtErExbliVn7BhnGU9PvpPpv6BvP9Ov5ff2FnlZw4tgD3ouZ+0nuda9qqgkBc29a592fJ4+sX+onAIA5pKtmEpJVbOo+jkak5oltqzIsdQM8q817nQCbXbbatSmx3WagVw7VDz0AGJPvlXX8BuTOwqallTworr9GWdRn5I6HQXNurbvaH/nXflWc7jtTqBmfVted0uFze5clOWmi7zKXct+zuXs/dy5RfQJKqcAgGOi5xcnEnPFBc2kUjg4ZzWfJEqSOgpK9DnfODN92qG6cay4GyavvJbUcVc19w5VgTv2etyLxSXMTpBPTA9rLmftp9GOFcfhUK5rh/3dZdqNqcfnvTbsD5JTAMAdid2zgypn9p+LPPnVfxx89leki9mMx7QVdve2u+uGtpYL47y9uEziJ0mdwfZP48/php4ypxzQOG2F7Uay2r/W0LnzaY8dbbwyf2Jkh91+v12F2Swt2NS4O+yDc7Zaqh3aXM7Tz51aRJ9IkZwCAO6I4V3Jfca5+se/I8Vx8hk5f1K7j3/lB3r8Kz8YP4jerrYHfzDlXd67hS9JtUZbrUZRXGsvrtZQ63ImQeps6JXe5HNqjZYuezOkp3ONM1Az87xjvbjsOBs7VHvvwtW4kE0Mt7VblG0NnVN0LQc0l/P0c6cW0ScGSE4BAEdfdydzy/mMlko9ilkQV1uasqVQ2bbHKDvOobj9Zy7Xh38w9boLzhlyWHM5Tz93ahF9nmwkpwCAfVFmAZPhXdG1W7/UtVu/LDw/+8n6ybu/0k/e/dX4huvL0yt/OQVxQxWzcud0d2ZII+cap61wzNv55l0Q1dnpDv9g6nVPc1hzOU8/d2oRfZ5sJKcAgKNvqJLVkbua3RYp2Y7Jj4ri/L24XiR/1d2rWJrnda5WcM7FSHunOGpm9yPar3EOJbGBmk6U37rJv4N3zwfre1shjbvuaQ5rLufpp8D2lP8SGDq+T31iTvGC6NKrgw+ARboex/F1/j+JeNZ/D4rivvGjd+Jv/Oid3LFsu6OfcTHjfjZOaCuWxn/sMInreubEuNH4Mm0PPpmThs4Z9/MJ/U7tMzvAEspeg+l1+2d0Y88s+vmew5rLefoZHX++3cnH5+vzKKvO3wUV2ef0xqIHAAA44hrtrrztgn1BR9RalxXu1CdWPE07HHrPeuOCJzNwC54DteV523JnWKRUdpyNdig7GN4oft/YtuwgyLdtero8w6MChzWX8/Qj1XTuvCm3M26iJx+fr0/sB27rAwDmUvRs6Gc//oA++/EHcsfGPUu6v2pqbXXVDW2ZQ4u+TZm2pwuNvbhGO9m6yB4OlGna8sKutkYzjlpLW91wKN40PYXdts4d2DgbasddhbY5ssWSKdMO1b1wJ1nRitpdT/ag4X6bWy3Ndof6sOZyjn4k1Vpb6nr23vyZtrzMvE0+Pl+fuHNGHGf28zjMjqe8GQTA4vD+8pPqhgzv5uBPB/Xvwejv/7Sfop+Pi8XsIsfYqwLyZiPkJHexD+N3wDQVua0PADip0gR09C9CihjAycRtfQAAjqxITmaD/sKP5fMGIxwpC6uccmsGAJA1roKKSRpqx7HaJSK700OASuC2PgCgEkhKAUgkpwAAnAiNdqy4TIkVWDCSUwDAoXrigbslKfcK00kLoNJzABx/LIgCAABAZVA5BQAcqqtfWF70EABUGJVTAAAAVAbJKQAAACqD5BQAAACVQXIKAACAyiA5BQAAQGWQnAIAAKAySE4BAABQGexzCgAY48aiBwDgBCI5BQAUMrybix4CgEMUu6cXPQRJ3NYHAABAhVA5BQAUit2zix4CgENTncd4qJwCAACgMkhOAQAAUBkkpwAAAKgMklMAAABUBskpAAAAKoPkFAAAAJVBcgoAAIDKIDkFAABAZZCcAgAAoDJITgEAAFAZJKcAAACoDJJTAMDxFzkyDEOW31v0SCa7k3EelWsEpiA5BQAAQGWcWvQAAABH26//1fclSe+9/6Eeui/5a+VnzpmhGMO7svfPhiFJ+rD1e4Xtnf7bbUnSW794X/edSmoo//pnz+zvoKuq0VYctw//XKBCqJwCAACgMqicAgDmkq2Ypn7+3vuS9iqlsXs2d14cx4Ux2epqKm17UnsAjhcqpwCAY6SnyHdkGYYMw5BhWHKmLBDqRY4sK403ZFiOooJTepEvZyjOklMcKMey9uIMQ5YTKY3s+ckxJ+r3bRgyLD853l/U5ERpY5GcTDtFn8ECqNy5E67RsOT4e2MayLbRG75ey/Hz8TPOIVAGlVMAwFyyFVMpqWoWVT9HY1KzxJYVOXU1A8k0bXlrK1ra3dT6Rl2WzML4nm+p7naS+DCND9Ssb8vrbqlVGxe3q80NV9u7khpDA5DRDCSZsj1PK0tL2t3d1MbOaKCkXV+rbqDOxCuq60IYamX0x7ubarqBZHq6nA5y7JxYagYdybTleStaWtrV5vqGArepYMNTd6ulXAu7vqzmhmR7CteUxAeu6tvKxZedQ6C0GACAOI7j+HqsS68OPtNkY9P4op9lf150/qT2ZhLasaTY9LqjB2Jbyh/rx9vhmHjTi5Mj3dgzs38eo+vFpqbHdT0zlhRLZr7vwZgmdpSMR3Y8FFZ0bjonBQ2m4yiaE8mMR6cxtDW2/elziOq7Hs/6O+CgcFsfAHBHYvfsoMqZ/eciT371Hwef/dWTvx5IsrWWK9U11A7t3BnRZlJ5vNDIx6/Ykjo76s4wguiiq45MeZcLKpFF7DW1c31P1/NX5XYkO2yP1mJHI/fmpJ2PrLUuyzOlzsYr+dv19lqu4tlYSeZwe3cver/nEJC4rQ8AuEPTbs9nXf3j3yl93v/+f/86+OeP9Lef+v3fvG9MdFc7HUn2ypSELRVpM5AkV3XDHROzrd2e1KjVdO68Kdd1Vbd25K1dUCuXjPW0uy3JPK9zJfNNe6XcSIeH7aieZKYqyDdHTJuTmpbOSAqSBDI77MKx1ZdHHo6YZQ6njRXYQ3IKADi5TE/h2tLYw/V+UlVrbam75Gi1GchtBnJlyvbWdKHV6Cd1/USw+NHWfRLJaSaVyu70zPTwlJxDoCySUwDAviizICp7/NRHjImxz31tt7CP/VZvNErdhq812tqK2+r1Il1cbSYLinZCxe2GpLqWDzQxlSKnqWCWxwYOUdk5BMrgmVMAwDHQTw63dwu3O+rtbhfHz/FMZK3WUHurK8+UFGwq2bmpf4v8gJ6x7PlWsguBd3mG1e/9axyMMddq/1GEZdXnGtX8cwhMQnIKALgj2UVQ3/jsx/WNz3681HlXnn9aV55/evDn91tn9X6ruDL6z3/6jP75Tye9wjR5LlQdV6uj+5r2Il10Rzds6scrULNwY1BffubHvVzG209GM5IFQ0l7+7rFZ8/Xav85062Z9mWqqbWWjGm94BoHC6vW5q3EzjaHQFkkpwCAY6HWWpMtqePWZTm+/CiS7zuy6k3Jzq/WT1erK2jKsBz5fqQo8pMN9OuudgaRkS7WDVmWIz9KYnynX8nMLjZqtBXaphQ0VbeSTe6jdAwTNrCfLJJTT3YBsJelKIryn0kNN9oKbalTcI3lF1aNV34OgRksbBMrAEDFVGOPwzvTjT073UdUsUw79sLuhD1Qu3Ho2cn+pINzRvcf7cahbU6JyUSHdmyamViZsentbQ6a7i9auJfpyF6l6d6ikz6Da5qwR2puTOPGP2mf1f4+rvPNIaqvOvucGnHcf8kxAOCEuyHDuzn4E++xB06SG5JUid8B3NYHAABAZZCcAgAAoDJITgEAAFAZJKcAAACoDJJTAAAAVAbJKQAAACqD5BQAAACVQXIKAACAyiA5BQAAQGWQnAIAAKAySE4BAABQGSSnAAAAqAySUwAAAFQGySkAAAAqg+QUAAAAlUFyCgAAgMogOQUAAEBlkJwCAO6I4V0ZfEZdefM9XXnzvaGY9JMeK2rH8K7olP89/cZff1+/8dffH9v+iRA5MgxDlt9b9EjyisZW5fHOYsK1OdEhtnECkZwCAACgMk4tegAAgKMprWSuLp+WJF3euZmLefbl1yVJb73wSUnSg/fcNaiWpsdi9+zQ/6be/zDWu7/6MDnvpdf2e/iVE/mO1jeWdXmrpVr2QKOtOG6Xj1+0MeM9cvbjOo7LXBwyKqcAACxcT7sbgToHFg8cHVROAQBzufqFZUnSEw/cLam4cjpaDc3GTxNrr2Ja1A6A44nKKQDgGOkp8h1ZhiHDMGQYliw/Uq9gYUrPt2QYlorW7STHChat9CL5jpVp35Dl+IpG28gueun5cqzh+N5QqCHDqMvtSOq4qqdx6cBGFtBMjZ9lnKXl59UZt+BpzIKfXjQ8D4ZlyYnGLBQanTPLGTv2XuTIyrZrWHL8SLnwGb6TSdex13GJMc64+Cl3LROu+zgjOQUAzOWJB+4uXQXN+thLr+ljL72mF597VC8+92jueLoy/7HgB7r0qcd16VOPl247cupquoFk2vLCUKF3RtpoanV9e+ZxFrQup96UG0hnPE9hGMqzTXUCV83VguRGknZ9WfUNbZ/xFIaebDOJr1t78fULYf+Y9sYdhlo7V/wk6fT4OcY57coL5nV7oy6r5Lz2fEv1pqttped7stXR9m5B8KaTmbNk7OoEatYdjeZ4kWOp3gzUkS3P25uXwG0OzfGQEt/JVDOMsaxkjgJpMEe2TAVq1ov/A+pYiwEAiOM4jq/HuvTq4DOrsuek7b/47TfiF7/9xtjjD730Wnzpuz+NL333p+UGENqxpNj0uqMHYjt5SmDoWNczY8mMc+GDY4rtcLgdzw7j0fDC2P5YitoPbRW03Y09U7FML9d+2lbp+FnGWcaM85of76Sx5vsp/E7SY9nBp+MquKD0WovGVfo7KZr3OcdYtl07HDPH0+ZuX1yP7/R3wH6hcgoAOHBv3/5Ab9/+QIZ3Ra1nH1Hr2Uf05ece1ZcLKqexe1axe1Y/++IZfekxqnflAAAK9UlEQVRbP9aXvvVjuf3PeD3560nVaa01WnFsqB3a+3AVDbXajdzK+Nq58zIlbe8WlLfsNY0Op7GSjKUwfl/MMc6xDmNeh5ne5dycqXFBnikp2OxXJjPjajdybdRal+WZUmfjlXw1dB++k3JjLC/aDCTT04VGfo5XbEmdHXVnbPMoY0EUAODAjG4b9fXPPKmVT3y09PnpQqh02ypv7C3+rnY6kuwV5VOV/dWLIr2yuakdbWt7u6NOf8m8WRBrrxSMpr5cGLvfZhnnePsxrzWdO2/KdV3VrR15axfUyiVhe84sFR2raemMpM62dntSozZtXP34IEnqsi3ux3dSboxlW4u0GUiSq7rhjomZtc2jjeQUAIAyepGc1aaCjiTTlHnmjM6cP6+18ztad4NFj25PBcdZa22pu+RotRnIbQZyZcr21nShla/wnlimp3Btaezh+gmaKJJTAMCBSSumrz7/lCTp7CP35WLevv2BpGShlDS8bVT29aaL1ZO/2lTQMeV1t4Zv6fZ8rY8reB266o6z1mhrK26r14t0cbWpwG0q2AkVF9yWH++MCouWlTL/GOsNknWJ1foAgGOhruXkgcrCFde93XGryjvaKXiYr7szur19ehs5/7yiujsV2gx/v8c577yOV6s11N7qjn0+s/i5z/6tb3NZ9ey4xj7f2dPudjZ+f5UbY1n9azlhz5VOQnIKAJhLukgp3fpJ2tsG6sqb7w1VPZ99+XU9+/Lrg+PZz4P33KUH77lLq8untbp8euhYet6rzz81qL4WS55rVMfV6ui+O71IF918WpYuEAo2Rzfk9LU+7u53LkmL5IwNnsOsCcq4+H0b5+zzWqSXy+X6z2cW6LgXcwlnz19XIMk8f65fWayptWZLCrResIloz1+V25HstYN5tWu5MZbVn2MFahZtiNrz5c+7P9URRXIKADgWaq012ZI6bj3ZcD6K5PuOrHpTsgtWldfOKckJmrIsR34UJRvN113JHF0ek66adlXPxhpNbZ+x92GBUyZBsXxFkS9/4u7r4+L3f5yj8+pPm9ecSBfrxt4cR758x1IzkMyCBU2mua1mfyP9KPLlWJbqbkcyPV3OloMbbYW21AmaMixH/mi8HWqmJwZmUHqMJaW7C6jgWoy6q539v4RqW9gmVgCAiqnGHodX37kdX33ndvw333tzjrO7sWeb/b0oFcs0Yy/sTtirczTejr2wO2ZP0G4cZmNlJvtSdr3YnLrXZ7aZgviCsQyOj21rTPws4yyteJ4K57Vgn9PQNmNzMJ7ke8nt6Zk5r+vZmXgztr38vq2D1kM7Ns0pbReOK9tIye9w1jGW3ec0naehNidcy4Gozj6nRhzH8UEnwACAo+CGDO/m4E+Lep/9tVu/lCRF127phWce3p9GI0dGM5DpdbU1R2ULh6D/HdlhfGAVT0xyQ5Iq8TuA1foAgEpJX4m6b4kpivV6U17XWVONPB4LQHIKAMCJE8mpNzVxiZTpqbt1MAuKgElITgEAOHEaasex2oseBlCA1foAAACoDCqnAIDjr9FWHFMnrDS+I/RROQUAAEBlkJwCAACgMkhOAQAAUBkkpwAAAKgMklMAAABUBskpAAAAKoPkFAAAAJVBcgoAAIDKIDkFAABAZZCcAgAAoDJITgEAAFAZJKcAAACojFOLHgAA4GgzvCuDf47ds0PHrrz5niTp2Zdfz5336vNPSZLOPnJfrh1JusswdN8pQ5L0L7/6sLB9AMcPlVMAAABUBpVTAMBc0krn6vJpSdLlnZu5mLRi+tYLn5QkPXjPXblqaloNHa2Kvv9hrHf7FdMHX3ptv4cPoKKonAIAAKAyqJwCAOZy9QvLkqQnHrhbUnHltOgZ0TR+mlh7FVOeNQVODiqnAIDjIXJkGIacSFLPl2MZMozkY1mOot5weM+3BvG9yJFlGDIsX9mwXuTIyrRj5NqJ5BiZ4wUfy+/NEDehb8OS40cauQzg2KFyCgCYS9kK6KiP9auhLz73aOHx9FnWh+49pUufenz2DjYdWcG2ZHsK15a0u7mujSBQsy6FcVuN0fhdX6tuoM7Ij3u+pbrbkWna8sIVLe1uan0jULO+La+7pVZNkuq6EIZaybW5qaYbSKany0lg6ThJihxLzaAjmbY8b0VLS7vaXN9Q4DYVbHjqbrVUG20LOCZITgEAx0oQZJNHqdFoqLXiyGgGajoritvD6WngbsgOu9pqZNK9yFHd7cgOu2o3Bg2p0VqRYzTlrvo6t9VSTTXVGrWRRLEnfz2QZCscJJFl45K+m0FHph1qazDWhhqNli74luquq1X/nLZapKc4nkhOAQAH7u3bH0hKqqatZx+RJH15TOU0+3xpWkW9duuXkiSvRCXV9C4rl7c1LsgzA7nBpqJ2Y7h6aq/tJaB90WZSzbzQyDWkFVsKgh11pcLqZc9flduR7LCgSjs1bi9hXWvnz661LsvbqMvdeEW9FtVTHE8kpwCAAzO6bdTXP/OkVj7x0dLnp4lqmqSWSU7PLBWlbDUtnZHU2dZuT8rmnPbKaBIYaTOQJFd1wx3TS76d5NSk4io7VEFuWSKuq52OJHtlTGLbv44JyTFw1JGcAgBQxEyeWR2nnssMIznNpOLanZyZlowDTiaSUwDAgUkrpqOvKs3K3vKXhm/rp5XX/XNGhYXVMeqNRunqZOQ0FciUd3ny7fayccBJxVZSAIBjZXu3aLOl/q16c1n1qS3UtWxK6iS3zsvo+ZaSYmjB864zxfX7DjYVFbeg3W2VvA7gaKJyCgCYi/utH0uS/FffHPwsfTY0rZSm0gpqkbRSmr4GNW0ja7S9STruRUWt4cVIPX9dgSTz/LkS1cqazp035XaKV/er58vvttRq7P15tf/86MQV9KXiamqt2XKbgdadFTVG+t5bREXVFccXySkA4FgxzW01DUu2t6aVdH/QTie3l+gkg1XxQVPGti3vfGav0U5HdtjqR0Zy6q46MmUvS1FUUO+sN9SolY2T1GgrtAM1x/Q9dbEVcNTFAADEcRzH12NdenXwWZSr79yOr75zO/6b770524mhHUuK7TCOu54dm8kbUGPJjG0vjLsj4V3PHMQX68bhUDuKZZqxHe61FNqZY2M+ptctHTfUe2jHpjm+b2B/XY+r8jvAiOM4PsRcGABQWTdkeDcHf1rU++zTPU2ja7f0wjMPlz8xSjbat8OYyiIwsxuSVInfAdzWBwBUSvpa1JkSUwDHBqv1AQAAUBkkpwAAAKgMklMAAABUBs+cAgCOh0Zbcdxe9CgA3CEqpwAAAKgMklMAAABUBskpAAAAKoPkFAAAAJVBcgoAAIDKIDkFAABAZZCcAgAAoDJITgEAAFAZJKcAAACoDJJTAAAAVAavLwUAjHFj0QMAcAJROQUAAEBlUDkFABQyvJuLHgKAE4jKKQAAACqD5BQA0Pfbix4AAMiI4zhe9CAAAAAAicopAAAAKoTkFAAAAJVBcgoAAIDKIDkFAABAZZCcAgAAoDJITgEAAFAZJKcAAACoDJJTAAAAVAbJKQAAACqD5BQAAACVQXIKAACAyiA5BQAAQGWQnAIAAKAySE4BAABQGSSnAAAAqAySUwAAAFQGySkAAAAqg+QUAAAAlUFyCgAAgMogOQUAAEBlkJwCAACgMkhOAQAAUBkkpwAAAKgMklMAAABUBskpAAAAKoPkFAAAAJVBcgoAAIDKIDkFAABAZZCcAgAAoDJITgEAAFAZJKcAAACoDJJTAAAAVMb/B5hzZncohz5jAAAAAElFTkSuQmCC;" vertex="1" parent="1">
          <mxGeometry x="80" y="220" width="679" height="541" as="geometry" />
        </mxCell>
        <mxCell id="ODbVOPba3RWWneBiBJT6-5" value="" style="shape=image;verticalLabelPosition=bottom;labelBackgroundColor=default;verticalAlign=top;aspect=fixed;imageAspect=0;image=data:image/png,iVBORw0KGgoAAAANSUhEUgAAA74AAAD+CAYAAAAdztnwAAAgAElEQVR4nOzdf3Ab530n/jdj56a95CI1rusmciyJIsyK4feuMGskB3xTNSohmZSiyBmJZXOkhUwp0JQaAxOPLGMkNXRlDS2r7oBOLZqQMoEsJsdQmsiJJdA2FKW6nPCt4dK8SxnoZEAU6bPyozn7qGtzSdMk+P6xu/ix2N9YACT4fs1wRiL3x4PFPp99nn1+NSwsLGRBREREREREVKfeU+sEEBEREREREVXS7QAQCoUwNDRU67QQkQLmTyJajhj7iKhcoVAIv/OZv6x1MmgR+Mdv/AVbfImIiIiIiKi+seJLREREREREdY0VXyIiIiIiIqprrPgSERERERFRXWPFl4iIiIiIiOoaK75ERERERERU11jxJSIiIiIiorrGii8RERERERHVtdtrnQAiIiIis1Z+5QYAYOFzawEA//DuL/CJb97M/f27n16F/+eD/ya33W0NDfiN24Cf/jKb24eIlrcnZt4GAHyx9W4AwI9+/q8Yzfw49/f+prvwu7/x3tx2DWjAe98D/OLX2dw+tHQYqvj+7gtz+Pmvsvjgb9yG2T+9B0D+gdPQ0ID/7VuT23bN197Cwr/8Cr9xWwN+9NAahaMRkZ2YP4louVn5lRv406b34z9n/jn3u0988ybm/9NqrPg378lVghc+tzZXyf3lr7P4v7/M4p6vztcq2US0iDwx8zb+w2+9D//9f/8097vRzI+xf/2H8Ru3vSdXCf5i6925Su6vs1n866+zeOrqD2qVbCqDbsVXKlQDwLs//xVWfuVG0ZvSbDab+51U2AaAn/8qW7It0XK18tQc8Ous9kbvacDCrjWmjsv8SUSLWaVi3/d2fgT3vP/2oopvYTy75/2lxZssgHu+Os+4R7TEVCqOBJo/hJXvva2o4lvYirvyvbcp7vfU1R+wtbdGnkjdNHQvfLFllfKf9E4gFaqVHhSFb1KVfs+HC5FgYdca4D0N6htYCNgA8ycRLW6Vin1KFdtCq786j8edv5X7/8qv3EDz+P/E0MfuMH0uIqqtSsURtYqt5OjVH2DD73wg9/8nZt7GX/2PH2Hzh1aaPhfZ44stq3TvBbVKL2BwciupgCwvKP/7s2/j359928ghiJY91cBtMWDnjsv8SUSLWKVin5Jbv/g1Vn7lBh5u+QAe//184XThc2sx+9l7EHrtHTz+2ju2npOIKq+aceTnv/o1nph5Gx+74/34o4KK7xdb78Zj6z+EV364gJd/uGDrOck41cqvTqUXMFjxXfmVG7mfQt/bcTeQzea2kW//e+NvGTl8lc1iZNNKrFwZRLzo93EEN63Eyk3y35M5ateXAIXAbUPA1sqf39tR2hXn73/yL/j7n/wL3vhfv7BwtqX8/ZabxxkjiKyqROyT+4d3f4HVX53HV//4Ljyl0rK78Lm1eD71f2w979K01OLZci27qX2+OIIrV2LlphHM1vR41VWNOPKjn/8rjl79Af7knjvwgErL7hdb78Zr7/yz4t+oOkoqvwYqvYCJ5YyUukWu/MoNvPXPv8z9Pxv8fWSDv5/7/49+9iujh6+9xZzTqa7kAreNAVstf678yg3cLnsr1n7+B2g//wNsfOlmyT51rdw8zhhBVJZKxL5Cn/jmTXz306uw5Z5/m/ud1AIs+Yd3rbzwq0P1Es/q5XOosfvz1cH1qnQcGc38GP1Nd+H3PvCbud9JLcCSH/38X20/L5mXq/warPQCBmd1lgrV/7n9d/GnF3+kuE02+PtoCP+3kn8vGY1ehF9dQLjW6aBi8REEj4WAfQsIey38fZGyM1jr5c//+mmh1fcd31rcEc0XAG/22peGJaHcPM4YQVQ2u2Lf46+9k2u5XfmVG/jup4VCT+FyRoAQH/+06f1FlV9p27qn9XzUimdL6bla73HZ7s9XJ9fLrjjy8g8Xci23T8y8jf6muwCgaDkjQGjh/Q+/9b6iyq+0LdWW0QqvRLfiW9iS1PGR3ywZTyjvXklkp9nMOUSTgM/i3+udXv4sdFuD8u+JiJaapz52R0l3ZrX4NvKJOxFy/hbib/9f/NnvfUBxm3pk9fm43J+rtHw88KGVJd2Z1WZr3r7qt/BHv/MBZP7pZ/iDD76/GsmjCjDU4mtEQ/i/5bo5L7nWXiIiIqpb97z/9mVV6SUi+618722s9C5xhsf4GmGuwjuL+EgQmzatxMqV0s8mbArGS4cgzMYxEtyETSvz227aFMRIXGOwgtI+Qa1B+3oD+82nV3c7w4rTNhuXpUPtWsyOCJ8/GBfSL6VJ/hmrcn1NnisexMqVK3FfKAkAiO7Mbx+MG/h7uZ9vuSvz+zV076t9L8ob6+c/3ftdKY+Lv9P42ZRLkE6MMHOfydM6EizYbxOCIxrxwvb4QkQ5qrFPZXIl8Vm0STlwIR4U8mjJn2eVY1pQ6Thm44Wh56NCPDP6XDWTdrPsLLsZesZYLF/pncO2uG9s0inj6bY4iRWfOwZ9G+e9d+KJwCjeBfBu8lF8OXAnnvCKP4FH8XdJhav2g1F82Xsnngh/G8As0uFOcXvhOPntvo2/k/7mvRNPeDvx5fC3i7eR0qDx8+VvzJrYrvT8Xy7cRu0zLVK2tfgCKJrYSlscwU07EU0CcLng87WIv08hlcoAKBhUEg9i084ohE19EDZNIRqNIrkzinNDb+DVgcbiw8+OYNN9ISQBoGCfVDSE+1LXLHTfMZHegnO7fD4Ip44iGt2J+1JDeOPVATTKD2/C9ZFN2BlKwuUrvhYhtWshfYLgfdgZVfxD9a6vmXOta4bP5xOuXVLYvkW87M3rAEDv72V8vuXO6vdr5t6XbSscU/heWq6HUZxJTOQ/aQ+1+73EOjTnzl8ohWg0CcCHfUbuD8v3WQYjm3YiBBd8Ph9akEIqmkQ0tBPRa2ewIB9gV+H4QrSsaca+c3DZdyKMPHwfQknxPD7ht6lUFNHQfcp5H4DheKH7/FRhaD+raTdyWWwsu5l6xghMl6+qFfd1WC0XGsbnjiXvfKMTXxt5HXdveQhtawHgKqYuvIBXDryA7w+8hj/7jPJVS4c/hq9dUPjDD0bx5V0H8TaAu7c8hLsA4MYLmLrQjS/deBKfH+7HBwEAa/HbWx5CW8kBrmLqwusAHsIfiuc2uh0AIPkovnzgBeH8LcWf6W2dz7SYlF3xvef9t+dmdpa3+CovMD+LEbEQ6zvzBsJejYs0OyIGFR/OvBFG4abhcBzBlTsRDd2HYFPhBAxxBO8LIQkXht54FUX5PTyLkU1iwDbMRHpz55anN4xHRjbhvlAID49sth6EkiHsTPpw5o1Xi6/FI2JQCj2Mkc2yzwwAqWM4liy9hlW9vmbP1TiAcBiYHUkhmkyiZV9YNsmG3t+tfr7lzmr+MXfvx59VPkc4PIvZ4u4IJvKfSO1+V9SIgXDpNB/x4EpEAfjOhBWq1TLl3GfREM75zuCNsDdfcJDyc/QC4mFvwfkrHF+IljW7yw46WoZw5vkBWYx6RDhPSd4XGY0Xus9PFUb3s5J2XfZef+PPGJHZ8lXV4r4Oq+VCw/jcsSR1EF9LPYTPnorB8eH8r7d2iZXXkT/H3308ho9/WLbfjWfwX1IP4bOnninaD/g2zu86iLch/9szcH+jE18aOYhz3/CKFc9GfDz4TEmS0uE7MQWg7cgzcAAmtoNQ6T7wgsL5ga3Bb+O8txtTIx/D+bt/gq32vSGsiLK7On9v50ew8Lm1ij/f2/mR0h3izwrBy3dGtxArBC6x8FmyqRfhMz4AQPRCvg/O7MgxRAG4hp5XyOiNGHj1jLm3hibSK51bKb2NA/vgA5A890oZXUNcGFIqzDcO4PkhF4Akzr2icPRkEi0Kaarm9bVyrnLV4pxLndXv19y9P4tMCgBa0KRwjsbC35nIfzkq97th8aDQWuw7Y6iwWN595sO+wsIPADQOYJ8PAKIo3KXy8YVo+dKNfc8P2dji24iBsLziKPx+84MuyPN+nvF4UTlW067N3rKbiWdMjrnyVbXivj6L5UKD+Nyx6n5sLqm8AvhwPx4cuB/A6/j+3ylctdTruOtI6X7vfuOZfGVU9rcPfuZRtAF4+3Jc1uW5QPJRoRV5y7h2xVRlu/SE0NKsdH7gj7H1yEMAgKnEtzUOvjjYOsbXiPiFKAAXhh7RK1FKgcuHLWqbercIgTB6ITfm5vq1JAAXHtysVupdh2YTTy8z6X3lXFIjveJ5k9dw3fjpi7kehNrHatz8IITDKxzdNYTS5Ffz+lo7V3lqcc6lz+r3a+7eb0RTCwBEsXPTCLSGTxnPfwUU73ej4ggKtV6cMdREUuZ95mqGUs/DdSUXuQrxhWgZ0419jZvxoO0tGbOIx0cwEgwiuGkTNm3Kj69VZDheVIPJtOuwt+xm/BmTY6p8Va24b4DVcqEhfO5Y1vJp3FtSQRR88OOfxt0A3n5LYVWclifhVihjvXlZ6HqsfIusxW+3AEi9iXcUz/htnD/wAoCH8NngH2skWm27WbxzAxrnB+DqFLpMX4ghrXGGxcDWMb76tN7CyV2HEAeVA4RAynRWjm+EhfQiip0ro3ac3JzGJrQASKYymIXsTWJLk8L4i2peXyvnKlctzrnUlfn9mrj3veE3MJS6D6FkCDvvC8Hl8uHBfY9goLgvvrX0KN7vxsSDO413cQZQ9n1mOK01ji9Edc3usoP++eLBh7EzKgUFF1wuoKXFh5YWaX4BBWXENvtYTLvOMe2+/saeMQaVlK+qFffLpFUuNITPnYr4cBPuAvD2jQzexR+L43JFa5uK/w8AuIH/lQKAF/A17wumT5cOd5d2XTa1nXj+lntxh+KeQL7ybTp5VVfliu9yUDj5jhKtQFmG2Yxwvy2KByMtT2bu/UYMvLqAzbNxPPvwMUSTwmQgIZcPZ141Wum0mckuzrVRo/hCRLaZHRErjvJxngBmRzYhWquEGbB00m7jM2aplq9sSzefO7b6QQY/BlQquVruR9uW9Rp/V6iYltnFuR7VqOKbQmYWOmPwirtQKG+q9tbNyPHNMJPeFmwJ16Dgfv2ayYbLal7fcs5lVS3OWS+sfr/m7/3GRi/Cr3oRzrUiRLEzuEU2q6Xd+VmJ2S7OkmrdZzWOL0TLQjViTb776Bn5OE9IXX4Xq0qn3f7rb+wZo6OkfLVEyhemy4VyfO5UxNtv4m1TO0itqevRHNRutS1Wbhdn+fmFrtTKlXUjrcKLQ5XH+EqTHxgZbJ8fo6E60D9+QXi7mHubJe2jcfzZV3DOcCSwOb3lSp6DWjKEsZCAT3XAiVw1r6+Vc5WrFudc6ir4/Ro4tze8TzYmykz+K4/5Ls6Sat1nVYgvRMtWPtaoDofUKTsoj6OMQ3w0F9CqEEldfherSqXd7rKb8jlKnzEFTJWvFlH5wtZyoRyfO5alvok3f6D8p3RC6K7c5taqjBZqxB1rAeAFmHm3VH4XZxPnT8YwBVhoxa6+qk9ulZsFLvSwwuLasxgpWKjc+4gwi2J0Z1BhcgKphaZ44htpn2ToYYUF46Vp2WuRXmGB8ZGygkcSoYdLFx2flbpompzUp5rX18q5AKBRiLpIZZQju9bfrZ5zOavM9yu/92cxqzXbSEGhykz+s6zMLs7Vus8qH1+Ili9pIqDozk3myg65SYyOlewnvVArJrWilVZYZkcetnXJJL3np/n9Kpd2e8tuxp8xeebKV4unfGFvuVCOzx2rXscrR0dLZll+V+pSrDiJlTpH15O4G8DUgUeRVqhQv5t8FH9XmEFs7uKsfX6pxfh+bO4yWpmvnRp0dRameU/tjCK08z6EihYpTyLpGsJmadPGATw/dA73haLYeV+0YDH1/AQKvjOy9cly+yQRum8lzsn2cfmGMJQKmQjQdqQXSEWjuanvLXP54EMI9608B5evJb+IeBIAXBh63uQi4tW8vlbOBQDrmnMPw03XWtCCFJq3vIoBr4G/Wz3ncmb796t8779y7D6Edrry97GUn+CCb1/hfWwi/1mSL6C4cAHBYOmq8c1bdCZEqdZ9Vun4QrSc6cQ+qJYdvHhkyIVoKInQfZtwToxpqVQUSQxhyBdCKFp0Igzs8yG0M1q6fdKHoSEgZFftV+/5aXq/Cqbd5rKb8WeMyGz5arGUL+wuF8rxuWNNy0Now0F8yftN3L1lPe4CgBsvYCoFAPdj8/5+cy2jH+7HgwPfxJdGXsDXdr2Au1sewl1rhT/9+MILuaWGBPmK6N2I4Xw4VnK433bvxcddNwxu16hx/quYuvA6AKDtiMK6xItQbcb4esN49Y0tGHn2GM5FpQwKuFw+nJFl0saBV7GwOY6gNDlBwbb7nldeq7Nx4FW80TSCZ4+F8vu4XPCdeQNhLzCyKVTR9ArnPleS3qF9j+g/cDQ145FX38CW4MM4Fo2Kb5JdcPkexL5HlNbV01fN62vlXGgcwKtnrgkLxYsPraEtxv9u6ZzLXDnfr7F7vxGbH/ThHKTvDBDu4yGcUbqPTeQ/s/ItMsmCtBRzNevn22rdZ5WNL0TLW1mxD0E8HMrHNJdvCG+EB3A9qLCPN4w3zgAP7yze/szzA1j3yiaYLKFofSDt56eV/SqYdvvKbiafMQCslK8WR/kin+6dYkW03HKhHJ87VtwL9/BraA7/Of7LhReEbsC4H3dv+TT+sKtfYS1cfR/8TAyfv3sUia9+E1OpF/C2OLTg7paHsPk/7cXHxRZbqesy8DrevvC64njiu+/ZizsSxraTjvvBz8TwxY9/G+ePPlNy/j/cr7S+7+LUsLCwkA2FQhgaGqp1WkhVHMGVOxF1DeGNV8t8e0dLDvMnES1Hiyv2zWJk030IJX04s8CJfuoHy1f1LhQK4Xc+85dVOtu3cd7bjamWJ/H5YZOtulRx//iNv+ByRrUxi9n4df0Fv9d52SJJRERESwzLOUS0+LDiWxPX8exOpUkvirmG3oCXA1CJiIhoSWE5h4gWH1Z8a8KL8MICOB0AERER1R+Wc4ho8an6ckZERERERERE1cQW3yWBb06JiIhqpxEDry5goNbJIJuxfEV2+mNsjf8EW2udDFLFFl8iIiIiIiKqa6z4EhERERERUV1jxZeIiIiIiIjqGiu+REREREREVNdY8SUiIiIiIqK61jAwMJCtdSKIiIiIiIiIKqVhYWEhGwqF8IWDT9U6LUSk4M73ZfGTnzbUOhlERFXF2EdE5WIcIcmd78uyqzMRERERERHVN1Z8iYiIiIiIqK6x4ktERERERER1jRVfIiIiIiIiqmus+BIREREREVFdY8WXiIiIiIiI6horvkRERERERFTXWPElIiIiIiKiusaKLxERKYjj0KoVcGw7jvlaJ8WwOA5tWwHHtgAuL6pj1djccXStWgHH/nitU0JERFQz5iu+c3FE93uFh2jux4uu/cdxea5ww1lEtxVuU/CzzYtDl2YNFaYu7xf30X1gWzlfwT6mCnda+4mFRYWfrm0B2TUqPuZl2XXt2hZAVHV7AHNxHNrmLfoeDl2aNfwpqA4Zzp+0WBiPcfWmAvF3zsbkmT6W1di/lPA5RUS1ln8GHLpU67TUq1lcPuGFY1U5L36NHMPcM2W+5Hli/vl6u5kPEN3fjyNjSfH/LjjbxH9OJTE9lkTfVeDit/ZgtXzXNhecuf8kMT2VxHivE+NtQ8rbS+aO47kx8d9j53H5qBcbjCTVyvmmQjh5aQ8ObzRw/LmXEZsymY6pJKanoujzpHDgShy+NYUbxnFo2w6MTwFo86F7PYCrKYxPRTHtieL66Vul6Zo7ji5PCNMAnD0+NAO4NhbFeK8T13rOYuKo10ACqX6UkT+Xi0vHcSgcAoIK+alWrMa4emNX/F3jxeFv3cJhO9JUzrEMx/6lhM8pIloELg3jiJEyOJk3N4vLI/14biyJaQBASwWPYfaZEsdJzw6Mw5V7nuBqFOMmn68GK76ziG5z4sgU4OwZwt6BPdggP/hcHNGRtMK+Ppz81nBxYW4ujugjO3BkKoR9Jx7AxO5GxbPOx88JD8w2F6anonjuRAAbVLa143zj4ePo26hfMbg8EhK/THPpmD/hRftgEkceOY5PFlZA5tK4NuUq+dIOi4WG8d4A2m8WHiuOQ54QpiHb52hA+J7GnkZ0wLuEC1hkTjn5c/mYv34O41NAd60TUsBajKtP9sbfWjIR+5cSPqeIqOZmEQ1Ha52IunR5/wr0jQGAC92DQ2geDGG8kscw/UwB1g2excXd3oJn6DD6LgXQ3hs1/Hw11NX58n6xUD04jYmjCoVqAFjjhe+owQf6Gi98zw7BCWD6pZdVurjN4jsvJQH4sPfZB3W2Lfd8PnT3QGx10DmW1ELT4zNdgF69+zFhn6lrsl50DuxVelOxZg/29gBACjcKd7h0HuMAnIOjsn0a4Qv6ACRxZGS5dZtcvmzPn1QlNsa4Ja068beW1GP/UsLnFBHV1vyJfhyZcqG7x1XrpNQlZ89ZXLwSx+Hdjiocw+QzBV74iiq9gtUbt5p6vupXfKWCRtsQjtnZErHmAXS2QT2hUleGnq3YkNv2HL6juHH552sfECrG469oP4iF1gYXDgxstZCIdVjXBqCtGWuK0uZVrqzkJHG9YEjU5VeiAFzo9Cp8H9INcDW9DAvQy1C5+VNhTHDXtgCiSmPwpAlyth3HvHxcRtE+s7h8IlBwTC+6TsQV7sfiyZPmLwXQVThOXy0dlwJCOk8ojxMUxsx682NExO3bB4Vu4OO9+XOUjA8Sr0fx+GiFtBdNFiRcC9NjVU3HOIvXy/J+OoxeKwPsi78qE3LJvy/Z/XnIwP1ZHpXYn0ufiXxYzj4l8mPluvTGmPM5RUQ1FcfJwSTQ8xj6mmqdlvqz4egtTBz1YvWaKh3D5DNFl9rzVUa34it1K+sO2t1adB3Xp6CaUOmheWDAC3veEGufL1cxHntaY6KOOC6OAWh7EJ9UPIgOaWzaeofJa+nCulzZYRY3rgJAC9YqpkEsYC3plgUyqqz8eSmALs8OYVxwmw/dPT509whdbo/0OlUrlsA1nNzmRN/VFjSL+0Dc59ClWVze70TfYEpolevxwYkkpgd3oF2jYD13wov23iiwPp8O6KbDoMZm4ZjimGdn7rP6CvIVxPGIwvVwin/vbktiemwH2jUqP5f3O9GXG1ttXDkxzur1su06W7xWqqoRfwEAaUS3OdH3Uip37zqRxLjO/Vk2rdhvJR9azrvFpN4isGW8LZ9TRFQ5l/fvwDh8OMm5AZYJV3EZTc1cGtcAw3UrnTG+0sPLh3a7J4MRu0EpJ1ShgLNxK7oRxbjVCWA0zwdIBc8jvVEcGYnDp5Cx5k88jXFIlQxzhaT5S8exrzeE6TYTmTbXmldY0NOpwKMRa9cDmBK6CGi/TaGlrYz8OXccXb1RTMOHk1eGi+6Tw0fjOLRqB8YHnTi0TmHCmqkoxnvOIl1wHx/eHICjV5i0Zhw+nCwcl3F0q3A8tbw7FULflA8nr8SL0zEgTowz2I+ot4xJgdbsweGjwPyJFMankmgODitMoiSNR5Rfj2H0nfCifVBlfoCrT+O5qdJrqK+MGGf1etl2nS1eK02Vjb85YyHEes7i4tGC7lLS56/Q5GKasd9KPiwn7xbIjcWS5WXT+Jwiokq7FEDfGNB9WihbsKdIHVN8piiZxfyll03XrXRafPUeXlaI3cx6o4DKmxupgOP81AMFlVQv2nsAIIqLpqYv1z9fzsYADrRBmF215I9iF4u2IfQZqmRE0VfQBa29N4TptiFclE+8pZHu6COVam2n+mA9f+Zaik8rVdi8OHzaB0Ct66lCPpK6LiL/YCo8nnbedeGAUsVxzR4cG3QBSCIWr+zyJ7lKlcL1kMZnKo6/nUqiWfEaGjuftRhn9XrZc50tXys9tsZfNT7sPSobI5QbT2T22aLGeOy3kg/Ly7uC+RPeXKX3YlmtJ3xOEVGlxXGoN2pD/KfFT++ZUrhsoBPtvefQPHjWRN3Kyjq+phUXAhyrnOgbjGK6zScUwkq2lyZ8KR0btEEaBxbW6kpn9nyFpO6GUTwn6ypW3NpgUJsLztwPgKkQ2g2tYVgwS+/g9OJZeoXqhIGWYqkiq1QJUaxoi10XVbqmrGnSmIhC463eaq846VPmuvr+ZctPMqV8PTS6ZVp6EJcZ46xeL1uucxnXSpfN8VeJyksizfvT0nmMxH4r+bDMvIv8DNNoGypu+TaNzykiqrRZRLeJXZyX6oz4ZJCRZ8o6rOvJD1fLDVUysZavTlfn4kKM5Rsut6ZhC5rXN2Pd5gfg26jSDU4aC9XzmMJMXw+gsy2E6alz+M7cHvUueWbOJyd1NxwcxuXdUkVZbG0w1aVUeVmlQ4/swHivE1Ba8xAoWPfQhe7TozhsNN20DFnNn0ZaiqVjm02T2pg+i9Y40Axg+moa8yinkK5FvB6Iom9V1Nyupsfrw54Yp8bq9TK8XxnXygjb4q8KK9+XaUZjv5V8WGbeHduBdkCo9JZTiORzioiqQJjFWaknGdUVw8+URviODuf/e3Q4N5yoz4PiYXYqdCq+dozDUSgEaMit0Ti2A44xta2ELnk+xTFk5s5Xyou+QRfGBwvW1MwtyxAoL+Ot8eJw0Ifx3ijGX4nj8MbiLmaFb+JPPquyLI1EtbKjN6kI1Y9lME7O5KQF5XGhu0drsXZ7hnyUH+M0WL1epver1LWqYPytJZ3YXzVtLjinktZfrIDPKSKqkksBtA8m2aOkzpl6pihYvXEPjg2eQ/tgFBcvDWODzr2iU/GVuoAlVSccsZc44QsAZ5ta17MkpqeA6aIWAXut3v0Yugd3YPyllzG/+wF8JxwF4MNeO5ZzamwWuhTKfi198c6eszim2f1MepuvVtmpxLhsWqys5U8jLcWL5D6avVaSV+wnXY8WtB+t9FvlCsc4q9fL8H6Vv1YVjb+1VBL7reTDMvPu+scw8WwaXZ4Qjni8gNIaihr4nCKi6phFNBwFAEwPOuEYVN5qvHeF+GJ02uSEirQYGH+maDOJE6YAACAASURBVFu9rgVAEteuzwI6PZB0x/hKk5VgbIeBsallkmZe7jmLiW/FVX5u4aStE5EoEVodMBXCyRNCt0TbWhuUCphzx7FvMJlbUkL7i2/EJz+lMRGN1DpSNGkO1Str+VNsKdbKQ7qzoNtIY+1aYckfoHtzaaVeeTxqvmJpnIHrYRc7YpzF62V5vyLVuFYVjL+1VBL7reRDG/Lumj2YOO0DkMQRj1dj+SgZPqeIqIrWfio/lrPkR7Y8Yee62qaVLDD1TNE2fz0FAGg2sP6RgcmthFkinQDGe53oOhFXnnRlLo5D+y2s35iTf7ujV/jasNkHQG+Sq/JIk72MDwp9zuWT0FgyJ85Mh+LPKHR9lNbzNJA2aebUwWHZYG7p+HXQOkIGWcufuUmUepUmBJDuI+P3ZHmSOPJIaV6eF5cvKJlAKjd5T+mar8I6f8qEN4IQ3gjKaF8PIS3Rsit6dsU4k9er7P1kaavCtapI/K0lldhvJR/aknc3DuPiaR+Eyq+xSUH4nCKi6mnEht3DOHxU+afvU0KPqeag8H/D8/iQPS4F4Fi1wvCa8UrMPlMun1Arc4gVaIPzgOh2dQYAbBzGxGkIawcO7kD7IAomkAIwlRTeZLcNoc/QARVIE74YKXxJE6CUMU5J15o92NsTEpd8UJiERlcUfdtS+Wskdl8E5LOVSWOdgNhIAKpzqjZtRd9u6Y2IUNkZ742izxOFs8eHZgDXxqL5ZS7MJpeWLiv5c01+TESfJwpnmw/N6wEghfGxJACg+3QZa+ea0eZDN0JoX3UOzp4WNAPA1SjGpwDAhQPPyifhkcaBCi1WMXGfa1ejmMYQDvSEcESp1VfqajrYj65MC5qRwrrNcfg2QuN6FOerstgV40xfrzL3k6vGtSo7/taS0dgPa/nQpry7euMwLg6mxOPoTQrC5xQREQmkXmLTL72M+d1WJkq08EzJRNE3GAXaXOheLzZkXI2Kz1eXgZV7BMYqvoBQuL4ZwOUTw3jupSimpcI0ICTiU48VPPDMm4+fwzSMdn3KF3wtTQBj0IaBITjHzqHTaqtX4TWC0CWjMxhQeTOVxPRYUn2cXVsz+nYXpGPjMC6ebsbJcAjjYkECbT6cfNb8mqJUByzkz9W740h74zj0yNMYn4rmC+dtPuyt6n3UjL5vTaN9fz+eG4uKLbYuOHsexN4B5YkOVu+O4yIC2DcYzeUbZ88QLh7dg7n9IeXTrNmDidPXhBcEY0nhTeNm2THXHcfJ8LmS63EgGBAqyGWwL8aZv17l7Veq0tcKsCH+1pKJ2G8lH9qVd1fvjuNkxou+sSj6VhmZEZPPKSKi5W7NZh8wFrVhuIrxZ8qGgbM4gKcRG0tifCop/t0FZ89jpsYHNywsLGRDoRC+cPCpspJORJVx5/uy+MlPG2qdjAqI49CqHRgvd2mVZcPq9eJ1pqWpfmMfEVUL4whJ7nxf1sgYXyIiIiIiIqKlixVfIiIiIiIiqmus+BIREREREVFdY8WXiIiIiIiI6hontyJa5DgxAxEtR4x9RFQuxhGScHIrIiIiIiIiqnus+BIREREREVFduz0UCgEQmn+JaHFi/iSi5Yixj4jKxThCktwY3+PHj9c6LUSk4NatW1ixYkWtk0FEVFWMfURULsYRkty6dYtdnYmIiIiIiKi+seJLREREREREdY0VXyIiIiIiIqprrPgSERERERFRXWPFl4iIiIiIiOoaK75ERERERERU11jxJSIiIiIiorrGii8RERERERHVNVZ8iYhoEZlEf0MDGjzDyNQ6KURERFQ3zFd8M5MY7vfA09CAhtyPB57+YUwWlVIyGPYUblPw4/GgfzKjUKgxWuBR287KOTX2afDA0z9povCVP1b/pFKy+1XO04CGhn4o7SIcVuGae/pl15sIJvIn1UYtYpwaO2PfYsNYTERUn3TiO9VMJjOJfo+n6JnqMfKM1H22apVXin/07onbTXwcDPfvQjCSEP/vhtst/jORQCKSQOcMkL4SQJN8V7cb7tx/EkgkEoh0OhBxh5W3t4OVcxbtAyQSCSQinXBE3AinryCgl9DJYwgmdLYB4Hb70doq/20LHIrH7IenM4KEuJ9f3G9mZgZvAujQPx0tC2Xkz+Vichj9TwaBg1mM1kPGsTOulhv7FhvGYiKi+mQwvlO1TeKYoxMRuOH2+9EKADMRRBIRdDpm1MsSBp+t93bl/6ZkJhJBAm60KD7ACywsLGQHBgay2tLZsBtZAFm3P5yNpZU2iWXD/nA2XbKPPxtT2lY6XrjwYLGsH8jCXXgcJWrbWTmnxj7ZdDbmd2cBZOEv/at8W+n4ALJKm6fDbtW/KR8ynHVDTJv2BaE6trCwoLOFlfy5/JjOfxVRixinxq7YZzej10gNY3G90I99RLS86Md3OcaRaollw+FYyXM7HfML35fSM92uZ6t4Dr2yz8LCQtZQV+fJfgeCCcAdTuPKaAAdSjX2pg4ERg22MjR1IHAqDDeAxMSF6nSns3TOJnSMHoQfACIvqnd/A5AZ3oVgwg2/362xFQAjbyNEk8eCSMCNcHpU+ZoToQL5k5YmW+Oq8di32DAWExHVJ+PxnaqvA4FAR0k5s6lju1CWSKSQlv3NnmdrBsNPRgD4cdBA9zT9im9mGE9GALjDOGVnf7emLehyQ/FCVIylczrQopu/JnEsmAD8B7GvRX2rdMpE3wzpuvsPLr1uhlQ95eZPhXEVHk8/hpUGZGSGhe08w8ggg8nC/Yr2yWByuL/gmB54hpXGixaPY81M9sPjKR7foZgOcXymZ1i5ajfZL5wz92dxe4fYNyrSqTEWRLweumNdpWvRPyl8XmmfWk/IZGtc1Yl9Rq8VAGTEe6JojI4H/SrfoXWMxURE9clYfKdFyi0bRmTXs1Xs+u4O7zM05Eh3jK9QGwf8B+1uLUojlUDphagoK+fU32eyvxMR+BEb7QCGn7QjochcmBCu+3aOHCN1ZeVPxXEVM4hEIkh0RjARTuOKYjRK4ZgniAj88Ptb0SruE+yMIBVLY/uLDnRGhDEefojjLoKdcKRiyKoMrk0Pe9AZTAj7FKQjqJkOgxwt8Pv94liT4nGdRS1+mWF4HML1LBqfEumEY0Z93OxkvwOdEevJs5edcVXjWKauVQbDu4ReCXD74fcLv52ZiSASdCCicV+YxVhMRFSfKhHfqQoyb2IGAFrvLSpD2fNsNdfaC0BvjK/WGDA9OvtKfb6LOuhXcPyb6jm1x7lJYwlUxxGIx5T+rjV2LObPj0uQftxufzas0LFd2NadDaez2XTYL/aB1xnHSXVJfXxKGflTc1yFmL/k93FuH4Vxn1LeglJ6pOOp/V4lHbnzCflAfi61sRyFeaf4cFrjOgvSqLJf0fmktLndWbepsSm1iHFqrMY+k9cqm86GFWOW2vktjvFlLK47HJtHRNls1lR8l2McqZV0Nh2Tykql5Qxbnq0Gx/ZKFhYWsjoV33ImGVEr1KSzsdwH1CoIG/gxXCjUOmfBQHm3O+vO/UjncWf9qle/9PqoZ8Z0Nuz3Z/0FP0VfssqEW36/dBOI+xWky+D3TEucetC2nj+lgr/eC52iClRhZVktLToVjeK/Sfuo38uKFakKVHwNVYoLr3PBSwBzcz/VIsapsRb7TF8rrRQoHsvKfc1YXI9YYCUic/G9FONINcnLOO6sX2HCK3uereYbfxYWFrImljOyKoLOBoV+gG4/wqdGVftju91ag8sSSGgO0bJ2TiQSKDqsP4y06oRAGQx7xG4XhpYOaUJgdLT4V6OjyEwOY1dnEIngLgxvkU/1HUEk4kesaND3KPYNe+AIJhA8NolAXazLQtWVwZszAOCHag+Tju3wI4JI5EVMjnYU5xnFbrTieNCE8oRBDuGPyudyd2GLSgZq2tIFdzCBRCoNVGxqrgwuTCSgfj2kzyaMmy1KhTuMfRazYE1inOrpjMa+Mq4VMpicvIA3X0whNTODGd3PaBRjMRFRfTIb36m2HGgRh7kBwlC3SLATkQk/YqeUJrAq49mauQChOLLdVJlHp+KrVYgxIbdGZCtaW1vQsn0LAlrTd7nDOKV5g0+iv6ETmsPqzJ4TfsSyUoExg8n+XeiMBOFQWftUmFkO8McsFDILNHUEcCo8AUcwgYkLGQRkfdT9sdIbpSlwEP5gp3KlhJYRq/nTyDhQ6dhm09SKe+18MjXdi1YAiZk3kUHpbIH2EK+HWmVSi2zMimE1iXFqzMQ+K9dKOmbxGtOtrX60ts4gEimv9stYTERUn+yK71QtshfLBS+VOx0oKGvkWX225maENtn6oFPxbcK9QqkTb2ZgcappP2JXqn3DlnvOJnSMXkEMDeiMBLFreEvx5DqT/XAEE3CH07DjJX9pq5Z03dWW2+jAdj8QiZTzvdDSZ0f+XORUJkWoDDf8Wqujo5oT8empVFzViX05xq9VZlis9PpjSI8Wv7zIDHu0K/d6GIuJiOqTzfGdaiP/UjmCFydH0dEBlP9sncSLEWj2GFSj29VZ6qK4HLtydYzG4I90IlLU9U2aQQxIBB1oCCrvG+lsgLDKjLUZaR36aygRWcyfRlqKazHrulIyUuYbnU2Trkcrto/yrTKgFvsA89cq3zU6NlraYm9qWSGFYzMWExHVo+rEd6qOJqGWi5mCWmxZz9bJF4XvvWuL6UYR3Ypvvrm5E/3b0xhdVq+0OzAa8yPSGSmqWNzbJS25okC2ZErLvfpnkab0dhe89hBukohil7vcmw67u5XSkmMtf0pv2grfvsmIQaUqLa2JCVzIBBTXcZsUbnTF6e6Vx/1KecMMA9dj2VGOfeavldYLFGmsuXWMxURE9cnu+E61kxEf9q0FD8pynq1C2dCNLrPNvYDeckbSJF35WS/dirNzZbPZdCzr9xfOwmllqZUKL/WhSG8fA0saFW6tNtNcOqw4s1luqm/V2abVZ6c1On03LW26MxJayZ+GljOS3Xu5JXyU8qd2PtKcvVflmGlpZumSv6nPBp1fpkZhNkCt2aA1r4eQlrDS0k7mpnTO1ibGqbEY+0xdK/04pnpfWFpNoPT4jMVLF2djJSIlnNV58YmF1coEdj9b1ZbI1Gd8VueOUVyJAZ7OCBLBTjiCKJhYBfkZQd1h7DNf917kmhA4FcaEI4hIZz+2KwzMNmom2AlH0A23vxWtAGZmIuKspm6Fgfv58wYdDZgQ32rl9nGHcYrdOgiwlj+b8mMuOh2R3FtTID/ZkD8mn9m2Qtx++BGEo2Eilzekt7mAG+FT8gmWOrAv7EYkmEDQ4cFEYX5CGGF/EEGlVl9HC9wAEsFd8KRa0YoZtGy/gkAHNK6HMCthAsIEDMuLSuwzda2aEDjoR7AzUvpdJfwIh4FgsPKd2eUYi4mIiGyUiqAzGAHcbvjFQkHhszWctunZKs39YnI25xxDLb4FtfNY2F+wzmN+DcjSN+j10uIrnlFaZ0rnzb7W2pExv7tovUjAnXX7Y9m01iHTsazf7S7aR3lNLKpXxt9Wmsmf0i7y+wtZt1v5rV3FWnzd4Wy6JH+4dRcwV1rwPJ1VX8dXOKW/6BxhWWLTsbDi9QjLE7IsWnzFlKjEPsPXKiu0AistTm/fOr4Kn46xeMljSw0RKWGL7yKUjmXD8merW3y26uxn6tmq1XtPx8LCQrZhYWEhGwqFcPz4cSv1ZiKqsFu3bmHFihW1TkYFiEv2uMOKS4YR0fJWv7GPiKqFcYQkt27dwntqnQgiIiIiIiKiSmLFl4iIiIiIiOoaK75ERERERERU11jxJSIiIiIiorpmbDkjIiLbdWA0m8VyWySIiIiIiKqPLb5ERERERERU11jxJSIiIiIiorp2eygUAiCsbUREixPzJxEtR4x9RFQuxhGS3D40NIRQKISf/LSh1mkhIgV3vi/L/ElEyw5jHxGVi3GEJHe+L8uuzkRERERERFTfWPElIiIiIiKiusaKLxEREREREdU1VnyJiIiIiIiorrHiS0RERERERHWNFV8iIiIiIiKqa6z4EhERERERUV1jxZeIiIiIiIjqGiu+RLQExXFo2wo4tgVwudZJISIiIqJFz0DFdxbRbSvgWKVdwLy8fwUcq1ag68Ss/iEvBeBYtQKO/XHZOZR+vOjaFkD00izmddOosv/+uMa+xce5fMKr/VmltCv+qOw3F8ehbd6iNB26pHGdzG5Py5ix/Fl35mqdgELlxi9SxnhMRERy+WfuoUu1Tgspmosjut+LrsJn8rYALs/JN5zFZdl2XdsCiJZsp8b8vXC70UPr2bDZB4xFMf3Sy5jfvQerNba9/EoUANC92Vv6xzYXnIX/n0pieiqJ6d4ojsCFA1fi8K3ROLhs/+mpJKbHdqB9TGPfuVlcHunHc2NJTAMAWjROIHC2+dC8Xv7bZpQcfu44ujwhTANw9vjQDODaWBTjvU5c6zmLiaPe8rYnWqouHcehcAgI3sLhjSb3XePF4W/dwuGKJKwM5cYvYjwmIiJ1l4ZxZKrWiSBVlwLo6o0Kz802H7rFZ/O1qyncALAht2Ech7btwPgUAGm7qymMT0Ux7Yni+mkDZUML94JtFV9sDOBAWxRHps7hO3N7NAp3cVwcAwAf2ks+kA8nvzVccFEks7i8vx99Y0kc8azQuBhK+xfsOxKHT1ZQubx/BfrGAMCF7sEhNA+GMK7xMeevpwAAzcFhA4X1OA55QpiWF3iPBhDd5sSRsacRHfAWXCuz2xMtXfPXz2F8CuiudUJsU278IsZjIiJSN4toOFrrRJCaueNipdeHk1eGsWGN1rZpXJsqbRA4LL5wHu8NoP2mUplKYu1esHGMbyM++SkXgCRicfVuYPMnnsY4AOdgQOPDlB57w9E4Lp72AQDGe81062zEhqOPCYXrsfOK+zl7zuLilTgO73YYPKYL6xoNbHbpvPhZR2WFo0b4gj4AQmXc8vZEtASUE7+WH8ZjIiJSMn+iH0emXOjucdU6KaTg8oj0slin0gsAcGCvUi+4NXuwtwcAUrgxp7631XvB1smtVnsfhBMQujsrbjGL77yUBOBCp9dISUV2/I3DONkDAFFcNNWvfx3WtSn/ZcPRW5g46sXqNcaONJdJGj6r0KVb5bNu3CpUxq+mc9fK7PZEps3N4vKJALq2FY9DPSQbmy+N2VcdM1EyTt/4saV92weFvDTem98+d76548KYj/1xSGNAhDEix8X7P45DRf+XU06L4nh/cSyKtXkBjFONX7qfFcavrcLnKho7sz+Oeb1x4Ur7ieOUS7eVpf1EoGA/Lw6dMHcdGY+JiEhZHCcHk0DPY+hrqnVaqMTccTw3BqDnMWM9odZ4dSrHSVxXLeJYvxfs6+oMAGseQGdbCNNq3Z3nXkZsCkDbg/ik/G8GSWOJx1+J4/BGo+OrruP6FIA2hTFfFTOLG1cBoAVrFU8qVsanrmEOwGrT2xOZNYvoI05hPESbD909wm+vXY1ifNCJ8cxZpMWhAHr5rHScvvFjo7EZ3T0+4GoU41PF4zOVWu4u73eK3V+NKhw34kJ3jzRGNIVrV9MACj6PwhhOXI1ifGwH2q8O4eK3tOcrMEv3uip+VhPXVuFz5cbOIIVrYzvQftWn3r1ccWxOCuNjUUz3RhEbnMbEbqWXlmlEt+3AEbjQ3eNDM1K4NpbE+OAO5fRVHeMxEdFSdnn/DozDh5NHvcCJp2udHJKZj5/DNFTmb7JEvTdXOfeCvRVfsbvzkSmhu7NPVkCSLorzUw9YLyhs3IpuRDF+NY15eA0cZxbRbTswDqA7aFchVhird0T8n7PNh85gAL6NhZ9Xr7LdiLXrAUwJTfkb1pjd3pYPQsvN+iGcfHaP7P6Rxiyex+WjXmEIgjRmv/B3OeI4/bYh9BWOqzR67DV7cPgoMH8ihfGppPb4zKtP47kpA2NFcsT8PgV0n57G4Y1aPUukMZzy4w+j74QX7YMh7DvxgEpFzyKt+KX1WY1e26LPpTCZ1tFZYR+lySA0xuYcPhrHoVU7MD7oxKF1CmOUx0KI9ZzFxaMFn2lArHwr3kN2YjwmIqprlwLoGwO6TwtjPtnTZvERemAJldX5EwHsG4yKE1QCzp4h7B2Ql2HUDiS2HKs1kpZ5L9i+jq96d+fyujkbE0XfNi+6cj8r4FjlFPqAn562YUKZWdyAD909+R8ngOmpKI70Oo0t5URUM43wHVUKPNL4/MIuuEq/E0ljH4teYJk5tglTSTSfNlrpRX6Gv56zOpXe/HwD3QrHX71bmBdAfdhGBah+VnPXNj+Pgnxsqnisb51VbPEVxuYoXw/Ai8OnfQCA8VeUxrX6sPeorCKfG6dj8bvXxXhMRFT/4jjUGy192U6LSL6X1PWRFWgfjALSs7kNmB4Loc/jNbBM0Syij4hlEcXGyvLvBZtbfKHe3Vnq5my077dVU8ncGwYAQM8QLh61q6W3Eb6jw8W/OjqM+UvHsa83hOnBfkS9XK6EFrtZXL70Mm68cg3Xr6ZwDUlMK7QArvY+COdgsqRbrubYR4PHNsxkcJPSdmBAr6uN9CJOaXZ5oCZdWXU/q7FrK711VX/BKH224mMLDy2164F8a7VSC65Ky+iaJmHCw8pgPCYiqm9Sr00fTto89IgqIYrxMbVedMqr6+Tle6Q5B5UaK+25F2xv8S2c8bJwdmfb+n7PpXENANY7FD60Dydv3kL65i2kb07jZI8LGAuhXXUCHHus3rgHxwb1Z7Qmqi1p4iQn+npDODKWwjUAzet9yrPirXkAnW2QzYYudXOWd0ExeWyjFPO5Gr1xmYXErqyIoq9wgfXcj0p34HJpxS/Vz2rm2pq5BoWMzIOgPkmgue+pshiPiYjqgzBzb75bKy1+Wr3o1FbXESbKzPfQVRpiZte9YH+LL5BvGXjpZczv3oPVuq0rJsxeE8YJN63T2VBYQuQkVqBvrAJj9WSk1rHpzHUABedRbTFSKaCa3Z7IoPkTwlqykI/FBDB/wquwXqo0Zj+Ki5eGsWEjct2c5V1QzB97sSic/EqJzRPiGY5feUv32tYO4zER0RJ3KYD2waRK6x8tLtK8F2oTUnnR3gOMj5XOizEvtgajTWkuE5GN90JlKr65Dyh2d4bUzXlrmW9spMWKjY8T3nD0LLrHdmC86t3epO6EapOfyFtYzG5PZEb+5dNJ+VhMqC8LI+/uLHQllr/AsnbsyjEy4ZCU31rQfrRab5LNxy/r19bspEtGunYv5RjEeExEtHRIz0tgetAJx6DyVuO9K8Q5LdRWHKBqEYY2mSNVep09Z3FMoYwjsPdeqEBXZ8GGzT5IXc3s6uZ8eb/Y/dDUOGFpUhahb3ml5GaszrXkSBPPqHS3K5kgyOz2RGZoFdSl1isF0gRFY+dxeU7s5lzyAsvisW2nk4dk265dD1Ru4qVS1uKX2WsrfS6NayDNt6C4n8b1EGPQYurWrIbxmIhoaVv7qeLJC4t+xGE3zjbh/53GO1FRhaxe1wL1sodYfizsJTV3HPsGhd5sE6qVXoGd90LFKr5Cd2dg+qVhnHwpWd5sbHNxHNq2Qljfsm0IF82uCbkxgANtAMZ24FA5hdy54zh0Il4yXnj+kvjlwYe9BW8ZcjPDDg7j8lzhHuKsZGVuT2Sc1IJ1Dt+ZK/6LNG5CjfASK4qLI2I355IXWNaOLQRJ4Jr6CuWm5fNQP6KX5MedRXR/frz/hoEhOAGM9wZk+U0wfymAqB2V4rLil/lrK32u6cH+0hkU56SljtT3U74eUgwyMnFYlTAeExHVqUZs2D2Mw0eVf/o+JbQuNgeF//t0VnGgKhDrWkplj/xqE4Fcw4mwkoSRMoW994KJrs5R9G1Lwan0p/WPYaKkMCd1d46KH9bIm/HSc0xP5bvyaTeFa2mE79khxDwhjPcG0H7TetfGa4M70D7ogrOnBc0Arl2NijOruhQGXAutzeO9UfR5onD2+IR9xqL5ZUPK2p5Iop8/fUEfjvRGccTjRazo/vXhwCBwZFCl22xuNt+oygusRmvHbmzOVdC6Mi1oRgrrNsfhK2v8hpCHrvUKS9ocafOhez0ApHBtLInptiF8Utp0zR4cGzyH9kExv7X50Lxe+FNhnjOuEvHLwrXNfS5hfdtY7nOlMD6WhLNnCAeuhkorzarXQ9gPALpPL65ZkhmPiYiIFoN8Xauw7JF7LrcN4VjuZXG+x1psJIDraods2oq+3VbqferMjfGVLxUkWa+8+YaBITjHhBq94TFtsnM421xo/tRj6PN6sXqNqdQWW7MHe3tC6BuL4rkTAWyw8qZ+zQPY23MOz40lMT0mpdMFZ89jODagkr6Nw7h4uhknwyGMiwUmtPlw8lmVtUnNbk8k0cufG4dx8TSwrzeau3+dPcJkAmviXhxRPbD0Ekuja6eVY6/Zg4nT19CV28eFA5vNfWRFG4cxcWUroiNPIzYWxbhYwXO2+XDy2eJJuVbvjuPiuuM4GT6H8alobnkgZ5sPB4IB85XwSsQvC9c2/7lC+c/Vll/PPLotpHiq1bvjSHvjOPTI0yXXY+9ii0GMx0RERIvHmj2YuOKQlSFc6B58TKUCW/j8VtDWjL7d9vYya1hYWMiGQiF84eBTth6YiOxx5/uy+MlPG2qdDKobcRxatQPjbUO4yHURaRFj7COicjGOkOTO92UrOMaXiIgWnyU0SRURERGRXVjxJSKqK3FE95dO+gRAWCR+sU1SRURERFQFFVrHl4iIauX62A4cGQOQm9xLPvHT6KKapIqIiIio0ljxJSKqK170nR4CxAm7pMm90OaCs+dB7B3Yw4mZiIiIaNlhxZeIqM6s3rgHhzfuweFaJ4SIiIhokeAYXyIiIiIiIqprrPgSERERERFRXbs9FAoBENY2IqLFifmTiJYjxj4iKhfjCEkaFhYWsqFQCMePH691WohIwa1bt7BixYpaJ4OIqKoY+4ioXIwjJLl16xa7OhMREREREVF9Y8WXiIiIiIiI6horvkRERERERFTXh1g3/gAAIABJREFUWPElIiIiIiKiusaKLxEREREREdU1VnyJiIiIiIiorrHiS0RERERERHWNFV8iIiIiIiKqa6z4EtESNIl+TwMaPP2YrHVSiIiIiGjRM1DxzWDY04CGBu0C5mR/AxoaGuAZzugfcrIfDQ0NaOifLDi+sZ/88TX283jQP5lBcUom0V9yDMXE5bbrl3/gzCSG+z3wFJ3PA0//JEqOKH1GxR8jhfX85ytJB1GOsfxZdwyEmeqwGr+oGOMzEREpyWBSFts9nn7wcboImX62WvxulZ73nn5MGrgnbrf2yUp1bPcDkQgSExeQCQTQpLHt5IsRAIB/eweADNDqhlvr4IkEEgDgDuNUQOHI7sL9E0gkEoh0OhBxh5G+IqWlA6MxPyKdESSCxzAZGEWHwqkyw08iAgD+GEY7Cn/vgSOYKDlfIpFAIvIkLuzrgHLS/Ghtlf+2BQ6tzwsAk8cgnY6oLk0Oo//JIHAwW5TXDGnqwOiVLEYrkjCTyo1fBMZnIiIqNYl+TyciCQBuP/ytAGZmEElEkHBEkIpZKD9QxRl7tlr8bif74emMICGexy+eZ2ZmBm8CimWHIgsLC9mBgYGsunQ27EYW8GdjGlvlt3Nnw2mt7WJZP4wcT++4GulKx8S/IeuWJSbmF34Pv8LZ0+GsWyltMb+wjzucjZV8tnQ2HS79fTrszgLIKp1GXzqXfuvHoHqxsLCg8Vej+XPxKS+PLBVG4yJls4zPVEw79hFR3UuHs26l56fa80AB40j1mHq2WvluC/9moUy1sLCQtXGMbxO2dLkBJDBxQb2tWXpj7w7v06+VA8gM70IwAbjDpxTf2CsnpQOBU2G4AaEFuuBPHaMx+AEg0inropbB8K4gEgD8seLWhsybMwAA/8EAOkrS0ISmgNLvAcCNFt2mg1LCZ3bD79dsRyKiRc5S/FrGGJ+JiCjvXhxMXyl9fjYFcNAPADN4k12eFxmjz1bz3+3ksSAScCOcHlV5ruuzdXKrpi1dipXNvAwuTCQAuNG1xUCKM8PYJZQazXcRbNoCoR6eQrroD0KXOgCIPDmcS6dUQJV3oQOAdMp8nzYr+wgmcSyYAPwHsa/F4iGI1GQymBzuh8dTPA6yXzagQhqzrzp+sWicvrljS/tKXVMjnfntc4fLDAtjN8R5ACb7PeIYDinPimM9PcOqsUYpLYrjPcWxIrrbmWUkfimMU/F4+jGsOFCl+DNnJmWfz/b9YPw71fs8hi8m4zMREYmaOnQqOAmk0lp/p2oy9Ww1+91mhvFkBID/YHkNCfZ1dS7cVqVbn9RE7Q5n9Vuo9boI6qVL7FKtci6pS507nNbvMlHQlc5oy7pwfPPdG4X9hHQsj66gpMe+rs4FXTTd/qzfL/y43QrdS6V7XuXmk/JP/s8mjp0OC3+XhiMUbJ/LL1Ke9Mfy3V+L8qBW/o7ljg23O3dsv9+ddcu3z+V9ZN3Sdm75uaww0MU55s+f251Po/RZ5cM0Cj9zTIwNbn8l9zPxnapdS7+1GMb4TNksuygSkTqjcZxxpHqsPluNHMeOZ+7CwkLW5opvPmGlhSjtv5nfViddOgX3/Fhjd64gp34xiwuAYQMdy4sK6wWFW819xTRL6WDBirJZmyu+fuVxkKXH0DquUqXTzLHFv2jd37mXZO6sW3Esh1rFN59X/br5tGC+AZUxoEZilRLd/TXHqUjpkl+b/O8V98sdU/7Qsbqfue9U/YGXzqZNX0bGZ2KBlYhUmGhIYxypHkvPVjmV77awjJEO5xsOhJftSmWVUhWp+KrfjCYmeTH0Bl8tXelsLHdBdNIsnUezglxw3ILWEe0CVjob9vsLWppkX5DiBSgtyLNgRdlsdSa3UrrXVO8/Md8YrRSqHcdQxVf1/lep+Oq+8DJ4fp0eI5oMxK/SFnOVYxRtkK8MqtenlSrcVvdTV3rtKjDJGuPzsscCKxGVKnzBrb8140i1WHm2KhxD8bvNlzH8Uo8weS89g63/9ld81Sq4BV0XtekX0orPo/Lj9uteAKngYrSgLOwUy4ZlBSyjLzLSMY2WFYVrzIIVZbOVqPims7FYWAhQ7nyLWsm9ppJntbuyGDx21miLr1rlUbliarybjd51s1qRMxK/jBxbafZ7A5Vxxe/M6n759Br5TnNvehVnVzaP8ZlYYCWiYvmyv9EXtYwjtaX+bC3ZUuO7LazzqffS0ysr2Dyrs6QJgYN+yGd3zlyYEGbk3K49l/NkfyciAPwxhZm+1LjdcLvdwnpO/jDCsTSyV0a19y+YeCbsh8IsoiqaOhAYvYJsOoaw3w0kIuh0KC3KrLRrAKfCpTNfSxO3yGcrJbKXNEmUA52dQQQjM5gB0NrqV56hVpogLvJiwf09iRcjANxdKJ6fzuSxjWq9V3NN8GIZCBP8tuJe3Z3SEOZgiKBTcaF1h6V1Wo3FL/Hcbq31Yh1osXLZmu5FKwDMvGluci7F/cx9px2jaQjhLYhOh9YkXQYwPhMRUaHMMDwNDmFW/VgaV7hUwpKg9mwtYuK79cdKZ3RuChwUV4R4Ufd5f7uJtBvXsR1+RBCZuIBMIICm3GzOfmjWeyf70SmUGk0sSO1H7IrZAknB0hgHAwg4gIlIEJHOfmzPGjxWUwcCox3Y0uKBIxhBZ/92ZA0kumlLF9zBBBKpNIAmYLIfjmAC7nCai3BTRWWGd6EzkgD8MaRHO4oqlJlhDyIlewhLlAUTEbw4OYqODgCTLwoVu4MB2f5mj71YuOH3l6yyXkCrcipjKX7ZLPMmhLq/mRcGyvtZuV8CV7LYkpnEsV1PCovQd0YQdJuN0YzPRESUlxn2CCtBuMOInVJboo4Wq5JnawFj320T7m0FkFBbKqkD2/1AJCIsgaR1f1SgxTefACQmcCEDIHMBQr13u0ahZRL9QqkRsQqXMEqWxmiS3kZE0GmoWSEv95bBbAuLkBIMPykUHxNBR0mrk3y5F4/xNUGIZPIvn2KySgygPgW9tERZ5EUhX0y+KOTR4hdY1o5dOUbW9ZNaVFuxfXQUo6o/AYMVSDPxSzx3yVJrhYy0CivtloKlq12yn/XvtKmpA6NXriCbTSMmtbqaiKuMz0REJJEqRm5/DOkrrPTWEzPfrcNSN7hSlWnxBdAhVL0xcSGDLdDv5pzvIljh7mTiG3x5AbUpcArhCQeCkU70b89W7O2+1OXbLb6yuLfLD9UGp5kIIgnA7fajtRVoubcyaaLlQKsiJXURVtAUwEF/EJ2RFzG5D0I355IXWBaPbTuphVroThPQ7AYlvT0saM0ug7n4ZeDcYsu6YsttYgIXMgHFrtTCiwmVWGtqPzu+0yZ0jB6EP9KJSORFTI526F8bxmciIpJIw178MVxht5slS/5sFX5p7rtturcVQESlfCcOwzMy1M3+ya0k0oQq4oxbWhOrmJiJtbx0qS0TIkuHfJmOsNoMoen8upjFi01l/eFYyefND/A2tzQUJ09Z3uyZ3Ep9VvXCSYS08oXf71fZxuKxtWaH1p0MT23CpoLJpUrX7cmG/QXbay4plM2mY/5s2EjesxK/DC1npLEskUI8TavOJm1lP7PfaTqbVoyRZmbHZnymYpyUhmh5s2NdWMaRKjH5bDX/3eqXS/QmPFtYWMiaaPGNoNMzA8WG5taDCrV1qb91BBEA7vAWlS6DUhdBAJEn4Zl5UjMVrQevWH7bL7XKqI7B6xhFzB9BZ0Q2JiwVQTAYQRAQJtISN08kxO5+7jBOyd4+zAQ74Qi64fa3ohXAzEwEwuZuTpJCFaCfPwMH/Qh2RhB0eDBRdF/6EQ4DQbXZnKQx+5EI4A5jX8nN22Tt2I4WCHMh7YIn1YpWzKBl+xUEysocHRiN+THTGUGw04GgW2qxm8FMJIGEO4wtuWQHcCo8IYwBdURyLXcAMBOJCL1UYqM657MYv1TPPYNIRLhWqhNkuf3wIwhHw0Quvkitj4Ab4VMq3bNN7Wf+O73wpAPBznzMy11zuEvGhCthfCYiorx876KJY/1IqW3Wsh37AqVDcqj6jD9brXy3TQicCmPCEUTQ0YAJsdyUO4fCs16R8RZfjR+1V95p/SmslRY71vqxvG6kSmuBwoalrQ7iEhlu2XVwu91Zfyyt0JIhrCnpLkq7O+v2x7JpU2s4s0WBjLb4Gsuf6Zjyot9695qUT7Xeplk6dtE+7nwLq+UW31xihDxblF/VWnbDWb/bLcvbxhZctx6/8ulUOrfyqQs/szzGuDUWcLe6n7nvNB32y2Kk9rFlF5LxmUqwpYZoOTNQvjHQo4hxpFrMPFvL+G5Lyk1uxZZmJQsLC9mGhYWFbCgUwvHjx/VryURUdbdu3cKKFStqnQyquUn0N3Qi4g4jfcXopFvl7EdUW4x9RFQuxhGS3Lp1q1KzOhMREREREREtDqz4EhERERERUV1jxZeIiIiIiIjqGiu+REREREREVNdMLGdERES104HRbBZ6CyzZtx8RERFR/WCLLxEREREREdU1VnyJiIiIiIiort0eCoUACGsbEdHixPxJRMsRYx8RlYtxhCS3/85n/hL/+I2/wPQPf1XrtBCRAueHbmP+JKJlh7GPiMrl/NBtWLlyZa2TQYvAwsICuzoTERERERFRfeOszkREREREVNc+/423a50EqoEvfebu3L/Z4ktERERERER1jRVfIiIiIiIiqmus+BIREREREVFdY8WXiIiIiIiI6horvkRERERERFTXWPElIiIiIiKiusaKLxFpuIhn1t+BT372edys5jk/ewc++dkv4LWqnZOIiIiI6pnmOr43X3gAPUOvGzrQR0N/j97rf4DHJ4R//81Da7V3+O4X8En/KaDr6/jOE+0AbuDsZ/8Az03vwlNX/xofM/oJAOCtG3jtb7+E0y+fwvenC37vvB8fdWzHH7Vvxo5PSOm5iGfW/wnOQy+d+e22Rt7Bo59QO7mUbo3t3rqIZx7/K5yflq7l/dgaGcGjn1A5t9ntaVkymz918+Ri8VatE1BJ1Ypzahj/iIho6bj51kWMFz0TgI86d6H3qb/Gx+6pYcLIgNuxtf0ubPp3wPeSN3HyZunv9RTtt+qDeNb1mypb/gynzr2LKd0UaWrBR53Fv/m+dOM578dHC36/FsDH2ncBE6fw/Zdfwc2HHsYqjSO/dvEUAGBre7tOErUVF/7vL0rv96dfF34m3sRHcoXMdjwa2YXz/lP4/tCX8NpDyoXPmy/8Fc4DQNfXNQp9AL77JTw3rfH3t57Hn28+gO8D+GjXLqwFcGPiFM77/wA3ur6Ov3mivbztaRkzlz+XjHva8ejX3sGjtU7HImI+zqlh/CMioqXiIsY3/wnO4/7cMwHpUzg/fQqPb05h7ysvYwcrv4vXqg+oVm5/ePNn+N4H1He968O/ibvwS/zon0r/9uN/+hl+XPL7X+KHBpKkWfFd9dBf428eKvxNQWvF15QKTJ/HXucpPDf9Iv6/tx7WuBkv4r9OAMAu/L9ahSpNN/DaF4UWZjh34Sm1Nz9vXcTZL2eKf/eJv8ZTXafw+MQpPP7FTrHFuXCf5zE09DqAXXhKs6B1A2dHTmn8/SKe2XwA38f9xZnzic8L13Hir3D2z9oLrpPZ7Wk5M58/aekpI86pYfwjIqIlYnXo6xh7qL2gMe2v0f3dL6DHfwrPPf48/uPXtBvaqFZux9b1aq2zv8TUVY3W2VUfxLMfBn78P97B+f+T//WHP/BeAMCPr75b0Hpsjs1jfNfiPz5wP4DX8bd/e0N1K6k14aOhz1sunN98YUAoDHZ9HWNf0+jucE87djzxcMl5PvbE17EVACb+BM98t/AvN3D2caHFYWtEu/Jw84UBPDd9P7Z23a+8wXdj4ucckRXW1mLHwC4Ar+O5L1+0vj0R1bVy45waxj8iIlr82rGjqNIrWPWJTuEZNv0m3q5Bqkjfh9ffgU3/7v9v73xD4zjvPP4VdV/4IE5JXphYrYOo1tiSaFlq12S2BpcztXftF+IwcghuxJHyrI2d02LHIGNTI3CQwY3ZbeskGq6UzZWQLqGnF/Kuc2dowNUGV70TLbISsltE3cpFPXqsbahf1Mfci5nZnZl9ZnZmdlZ/1t8PLEi7zzzzzDPz/J7nN8/vzxP87v6TgEeaCvNj3PxUdqx8F9gvkQe36t0/jEFAN3eWlljCJzfnAOzB/v0hDTDNHYn4m/jZRPOA8Idu8gcAM+80Avfoizm0NvHDLXwwOQeMvIGXvyovoZtzu1ynOWgr1fq5g5YnJDT3buHDS4fw7V3PG59DOH3pVvBny0c9dy7pv9kVLAu3z+jHXjKVGo+AWsb5TtfP9zxOv3IGH8r8gt3K3pa8lLv3rl7u0i3ou6zGNTnbEFW/+SESOecG5R8hhJANTnwHvrzWbSASNiO1cxNw/yGKD1uXtmGYR6989rBpR/iFLS08dH0QfVTn7QexPw5gfhqfSBejH+HjeQDxYbwU0mRt+eNpfUfiZJvmDfuu4coIgPkLmHxvKYCJH3Dn0jHMeJZbwh8rADCAr0iv86t4MQ7L26qg5QkJyb13cfrgMVwvzGFwZBRHRkZxJD6Hu4VjOB4kerPPevYeMBSsW/LdOt/+/pbzwTzfyB7cnc/jD39wlL19plE2bi97XezG6ffcLVJ002JJ0LCo+s0nkck5Nyj/CCGEbETuVbEEALF+mjmvQ76x9zl8DY+Rv/M44JGtdnvbp33VuQnd3Pn6vG7ufNQRNdRczA0eOhjyYW3sGL/4Yvut3TvxcxwpHMPM5Emcvjnny8QPt89gvNAoJ1/w/h5/mIfH26g+fCUGYH4Rf7wH7N0etLzvSyTEgulHOYorH1lNZ6/h5fcO4fjkBUy+d9BHBOgA9ewzfP8LRdyZOOAYW4a/f/xNvNzC3//OTyT+nwDOTixh2fqS7d67OC3ykrYBZyeMaMWTu/FWnyQKceUH+Lf55uOi6ze/RCvn3KD8I4QQsnFYwvLtjzApLuBuvPVLWrIG9D6H0W3A736t+/BuC3Ss+25vg034zj/24jvGfyuPHuO3nz7EzLI/RbkjeXzdzZ0jMHOu47YzEBTT5G9OTxHiw8TvLZH3tVAnZL1h+tcfUZv9RXtffQNH4OWmELYe0/c/j185zZ1Nv86WL8K8dgT70Gv5TleQ5W2zmfjKdqDn59AnOS6qfgtOVHLODco/Qggh6xnD/WnX8/j2rt04LqbRd96Ie7HWTSMONuN739wMPHqEYuAFUavd3k14AY/xu/uNzwqArc9sxne+uRUXdvnby+2I4utq7myaOY+80bnInKavnuPj6l8IYHlp0WflS/jwFcPEj1HkyIbDfPHkFk3drzlp8HrMl2FOZdPTr9OGseOHPMZfeRd3XHP9mgqyR8R401+0UMQd529ShS6qfouQEHLODco/Qggh65ev4sW6e9MoBjGHmcljOP7KGY+1AFl9NuHIAcPE+dZD3A96+JZ/wNefAXD/sctu7xPM3Plf/Kvl8+a/L+PKrx/pCvDO53HEIz1So5UdQY/CeV3kbebOdZ+1NnP3tjx73BJldF4333PFEkDmVOwCrheO4a0DEhNINAK/tDQFJGRdYpiTIo/xXV5paDpQz/aD2B+/gLs2c2fTzNmfv//eid/gVGU3rs9fwPjBCxiMj2L/yddxdJ9VaW5lMgs0FFXJT1J/oaj6LVoCyTk3KP8IIYSsa/pwdOJa49+Ja1i+/S4mxQWMHwSutMxfT1YDPYpzw8Q5KN/Y9Qy24gn+49NgfsH3lx/ip59txvjOTfh67ybMPPQ2ee6Q4gtjVyWPmZsfYfnVE+htuWviF9PXK49f3b6Gvc66tp/A2fdP1P9dfu8Qjk9KAtUAsKXuOHkCR18EPi5cwIw4g285B9LtMzg+OYfB879pYQrowNgFal5Mu5huBi1PSGD24MjIgMfvfqMkBqnH9P23jFvDzNl/8KY+HH3/r3jp3i18MP4DzMzncVfkcT2+WnmLo+o3P0Qp59yg/COEELLx6N13AufPT+P4pMscSVaX3ucwvnMTVj5bCZlfdzPi2wA8eoz/DhoFGsD95cdY2fkMtm75IoC1UnxxAN8aAWYK0/jk3gkchWnmnGp7gbr3wChQyGPm1i2c3Rd+97g5dUdjII1fSuGXdaf5JXz4jr7Tc3dyN749Ka9vRjxv5KH8DX78qrmr5BaMxbkzFbQ8IUExn7EBfGuiHUUxXD29+4cxODlXH7e6mXPwF2G92w/g7PsHcBZLuHPpJMYL1vFqNzuWK9RBx1JU/RaMqOScG5R/hBBCNiq9fQMA5rC0tATsiyqwJAmO6ZsLbN25FT/cKS/1tW/24ocAVj5bwZtOH97ezfgagJXlvwU3kQ5IZ3x8DfQ0Jnp050jNnPe9jlNxAIVjnmlJPDF2MJypO3pffadet9Vf7iuHGv4FTZ+4XmbQSJuiuyuaAX30628+vzOoT9DyhASl4SfbFGRqNerZfgLfHYHuW3vPMHNu60VYH/ZOvOHw1/XRNmMs+U+DEFW/BSQKOecG5R8hhJANjBmfoq+PSu9a8+dle9Ap2+eRXmblkf7/byU7ut/48mYAT/Bbn5GZnWzr3YytAFYe/r1l2Y4qvmYQmbs3f4QPbs5FGAm0D0evvKlHjp7cjdOXbtnTmdRZwp9+L/veiEwKmb+a7p8MADPiTH0xvffVazg7If+8fEj3tes7qf9v+hzWo71O/sjhgG+efxTftaQ/CVqekKDsfU0fNzNCHhRi+fYZfOhDuQtbj/4yLI9f/cQwc/b9ImwJy7c9lD/LTqB328yxtAenXvP/Ei6qfgtGu3LODco/Qggh658777nNuY288+25T5L2eYL/+tQedMr6KRrK7IpRpjntkGHmjL/jz15mzlu24Hu7NjelR9rWuwX/vHMT/Ob+7aCpM9Awd84bJnB+3tbnMf7KIgZlP8XewI/N3YntJ/Djj/rx1vgxzBSO4XgBAPZgMG4WNtJzQP/emgrzzqVj+o6PW+qOfddwZSTvMKEMg54qZEbkMX4wj8GRUfQBWCrkXfJlBi1PSEC2W8xZD+YxGB9FX0z/yfqcdawe0/e/EDwlzifv7MZ1sQeDIwPQ1Z9FLBXmcBd77H7Crm1bxExB94M9ot4MFlk+qn6r03k55wblHyGEkA3B7/MYn8wD8T04EtNjbCxV8sa8twenPuK8sOHZ8kVsBTyiOTfYuvM5jO98gpX7f6+nMtr6DAA88R1Uq8OKr7FTUriAu0Fy97pFKI05/t9+AGff/ytevv0uPnhnGkvz9kXgYHwA+0++jpf29TUWxbfPYLwAOE38mto98XMcKeiLTbcop77Ydw0/U3fgg3cuYMZYwCE+iitXZDlGQ5QnJCC9r97Ez/r0MTMzn6+PmcH4KE6dfB1HfT7r4eoxX4YFNVvtw0uHRvEx8rhbMOXDHgyOvIkrr52Q5Na9iV/uv4W3zCBYlrZ9N+RYiqrf6nRSzrlB+UcIIWSDsPe1n+MUfoCPC3OYmTcCOMb3YHDkDZyfOEDXl27gmU3+zJQf/g0372/GoW2bsHWbfgzwBCv3H+Knnz7GfZ9BsXou/ef/aH/5xfcx8i+X22s4IaQjxF/4Aub//H9r3QxCCFlVKPsIIe0Sf+EL+NKXvgQAeP0Xf1rj1pC14Ef/pDvD1Wq1Dvv4EkIIIYQQQgghawwVX0IIIYQQQgghXQ0VX0IIIYQQQgghXQ0VX0IIIYQQQgghXQ0VX0IIIYQQQgghXU3H0xkRQgghhBBCyFpiRvclTy/c8SWEEEIIIYQQ0tVs+ssvvg9Az3NFCFmfcHwSQp5GKPsIIe1Sq9XWuglkndBTq9W08+fP4+23317rthBCJDx48ADPPvvsWjeDEEJWFco+Qki7UI4QkwcPHtDUmRBCCCGEEEJId0PFlxBCCCGEEEJIV0PFlxBCCCGEEEJIV0PFlxBCCCGEEEJIV0PFlxBCCCGEEEJIV0PFlxBCCCGEEEJIV0PFlxBCCCGEEEJIV0PFlxBCCCGEEEJIV0PFlxDiQQnpnh70JHKoruY5Ez3oSaRRWrVzEkIIIYSQbsZT8a3mEujp6fH1SeSqKKUbf7eklNaPTTuWttUScukEErb6E0ikS46FdxW5hPF7oEW513GW35o+sjbYjy052p1IpOHWFdVqCemEvX8TiTRKXhfSdEwCac8DSDcTdHxuGDZQU0PjW86RztKOzF/vrMM5iXMYISQMlB0bhmopjYR1Xk2kkfO4V9VSTt/s8FU+2LwmpVaraSdPntRkVLJCUxTF9gGgfxzfi2xF04rC+C2rVaQ1NigKvR5RtJ5PXr/+naJlbZVWtKyCenlrPZ5UsppSP4eznZY63a67qR2apmlFTdSPE5oQQhOWY5rbVtSEUZcizPJe9dvbbR7T+N/vxZONSK1Wk34feHyGwnhWfYxp4o9gco50lrAyfxUpZjWhBJjj9IPW35wUYg5zk32EkKeINte/lCOrR1E01jJCCE0IpX6v5NNCo7ziKK80TTxB57VmarWa5qn4SppoLBKEJq/f/L3VQsGcZC31WJTmYtOxFa2SdX5vV3z9LsxNhdtb8ZVdX6VxQ529W8lqiuya64PVWV9Ry2aLTe2tuL44aCxK5Mo/F8vdjH+h3Wp8hoGKb6QElnOks4SU+auIuTAI1IR1NyeFm8O4YCXkaaf99S/lyCrhNl9UJDqffkDj+4qP8oHntWY6oPg2JulmTd27TPDJvdEWIdk9djmx3jlCuCzmW12f280oui5WdUXbr2LqUr/xMEn71HzQuOvbtVDx7R5CKTGkg4SU+atIOMV3nc1JIecwLlgJecqJYP1LObIatHgRIbuPHvdWOu9FMK/VajUt8uBW/YdHoAAoF264+EZVcaNQBqBg5HB//dvKYjn0OYfPZaEAUKe9Q+GUrmZQhoLsueGQZ4phQJF83Z9Esl/yfZ0yFisBTqMMIGb5tzStwtlfdZLDEACw8PkG9kUjq47hY9q2P6OPekzff6c7v6WAw98tcAKYAAALZElEQVTfI6CWxDfW1b/DrazMd6Sa08ulSzB9SKRxANrst1ByrlpFKefwmelJIC27aPM6EjlUnb4wtms36rReR87lOvz0uXEP3XzJ9WcgYT/G2eeO9qTd2uPWpnQJ1brPblSB0Vxkvlc7Wvgz+T7G6NNYRn9m1FSjvOtYMllncxLnMEJIGCg7NgoVLJYBKCOQ3SrEBnTdMNDE4yCieW1T+Ba40H8YI0oG5XIBN6pjGHM2snoDBUnnJIcFoKpQL+dwLjkGz2tzO6d6GblzyeZzAgBK0MePft7FgJelY95Y+yKgNQoG/BxQ/RwLADC0w3L9VXyuf4kd0usyFmblRVSAYP1Gnk6qOSRiGZQBKEJgCAAWVKhqCrGFLCqzPsefz3rqY3u6hKlksqkafWIDxHDzb17nEwCABaiqiqHKlP3hL6WRSKl6WUVADDXKllMqCtkKZuWCAqV0DCk1/PV6EVzOVZEbjSGjnxRCv2gsLKhQMzGoi0VoU7J+W8TVRAYqBIQYwpBx7ZmUisViBcPTMaRUpd6PC6qKciaFmLO+IH0ems+RS6SQgQIhBIawgAW1DDWTkl+fpU2w3NsFNYXYgtnGqPCQ+WGesSDHxAYghNCfsbJefmhI/8nXfOLJas5JnMMIIWGg7Oga+ndgCEB54XNUkdTvlU0Ztt89fZPA5zxVx2f5qE2drVvUXtvXzb9Zg4wILdvS0c3RlhYmD/ZtczfzTW9/L7N9gQNptTQTrWiVolnWxQbeo45gpmtkoxGtqbOLT4XmNjbdnr8g9Xi1S1a//Jzuz3lFq9j8Qyz+HrJAdLJACPWxqmiK53F++82NEHJOyP2BpX1qDd7nFFSmjGzla2M7xGefe5mjudVjC1ji8C/18EWV+3tZ+ySIaXJImd/OMxbkGC1i8/g1mZPCz2E0USTkaSaa9S/lyGrQwtTZZU5vrJ/MNUBFKwZaU2kB5rUO+fh6N6KVM7olmEjLhaGzLUEW160UXzgifJqLKUUTviPPtFKUGwudet2S4CJUfEmUiq/3Itq/Ehq0HtfyUoVJdk7//suyiPGyc9oUQ4sS5hV50H+/eRFEznnUIvWB8Qry4K5caZqs3wL4jLel+Mrr94r87z4hBvXJDSfzwzxjoZ5LLUrFd63mJCq+hJAwUPHdSNQjNHvpVpK52ZbpwvIy3OdZA21KdsTHF4BhegygXMANm0+XYeYsLrqYI/cjOTULrVJEVihAWUUmFUNPq1yCxrFjFwUAFZcdfmbV3GWoAMTFACbU5TLK9Q8AkUVFm8WUt4G5eUbkErp5opKtQGqJiBgGhIAwPgp0076Yr2slJAymf72A3KrYbjYUZT2m77/TD9/Tf8dGP3YMAYCKVCLnMUZM0yi3tqHhF6RON/uBKlmcazouqn4zCSPnqiiVcsil00gnEkgkGr6fUqTuGKa/qtwcKNbkzOq3z9vExXWkuT0N8yf356WFT64XvmV+mGeszeeybTgnEUII6Rz9Y3lkFQDlDGI9PUik00inE+jpiSEDAaGgab6v5hL6WkZR6nOPvixKIdEymIWfea2Zzii+dSW0jIJF863eKKAMH758/UmMORaGqZiPYCXGwqGcuWopW8LVjNeiVYZAUdOgaRo0rYKiUAA1g5gs2I6Tag6JnhgyZQWi6O5HCPRjbGoKU8ZnVtNQKWah+L1WQgJj+CtCRarHGijJ/Bi+pJ2ox3wZZlvU2/3uW5GcqtSFairmFkTIjx++h3Jk82V01Nl2vznwJefMQFsxpFIZZNQFLAAYGhIQIqyG5+Yv1Yy/Pm8TaZ/LaOXv1Q5BZH6YZ6zN57IdOCcRQgjpOP0Ym9XnTwVAWVWhqmUooojK7DDgWCfVlV5RRGV2tj73TM1qqGQVXfl1CZjpf15rJvrgVibJYQioUAs3UB0bQ3/LXRMJ/UmMTSVxeCCBWEZFKj3sEsilflKcyypQMyou584hOdYPlKahAlCy5+Bb77U3AsmpWRTRg5SawWjusGsHN95cZFHMj7WIPiY5U3IM+WwBsYyK6dIUbHGAXJ33O7kYJN2JAiGGPH73G7wtSD39ODyiIFO2PNvG2PRvidGPsVkNh6slXB29DLWsBwTKKALF2amQ4zsIUfWbAw85V82NIqUaE8NU0tZP1VwCshhc0bLWfb4W+Jf56511NSdxDiOEhIGyYwOhz5/JKcfX1ZwjUGJDJyw61jYA0D92ESKTsuiQ1qram9c6p/giCT2AqRHdGaaZ83DgxVK9A6zRwFqVLdxAdewwblxWAQhcbHPhkpwqQqgpqJlR5A7PNplqmzdCEUXkJTfRL/07hgCUsfB5FfrdNM0oF1D/ykbYSNPk6cN8loYwPNWO0hKunv7DI1Ay5Xp0Z93MOYglhlFPfxJTs0lMoYpSehQp1aos+onyGHTMRNVv3jTLOe+JoZ0UcIHb5tnnq42bLIwWd5kf5hnrxHPpzfqZkziHEULCQNnRLTRb/JqWdG7I58wo5rUOmTrrJIcb5s6+zZzbPyvOZRWgnMHVnK5sh9/ttdc7VdSvJ3PVYfRVzWHU2K6fbWOBAQBV/fUVhuqvr/SdMqfZeB1zR3vkMEO5kxY0fDZbpLzuTD39Y9Dd8KdRqhpmziFehFnbkZy66PCL9NE2Y8z4N7GNqt+C4jWpm2+6VxtZnzeQ5+gz7nUE59bvg4ssBBpxJCLBTeaHecY68Vx6sK7mJM5hhJAwUHZ0B14Wv/pLjWYkinFU81pHojrXMSOyCU0oLSKzZd0im7qFtvZoizWlhzTaW5h0Rtbf7dHDgkZVLmZl6Sy0RvoIr1QjFZfv/Z2abEAiTWfkmVJF0ypFoWVtB7uMlcD1mNXpkWuFEAGjJFe0ilQ+SMr6ShvjEmHYLSxg2Ot1nj2QnHOPgm+NgihPyySTtd7PR3P04AB97pFmyIxmHLTPvaNWS+RtxRqVOIp0Rtbfw6Qm8ohi7fcYTWsZMVvG+puTws1hjMZKyNNO++tfypG1pOKa0aC+NnCmM7Qc05wZob0MNp1LZ2Shsejxnrit5axpJRrfBVNSZZ1m+TWk4qtJUnA0FqeKEJpw+1jSQtTbpij1363pM6TdZMnBaZ7HK/0K6R6izeNrV5oUpfGMyp8n93QCwepx1OeZosArnZF1nCl1Jcgt96m9bS7Kon6At+Ib+nodVxZUztXHfeO6FeMeZ70Uw4gU33B97mirktWyXumMgii+mve9VUQ24BwVRua3bofb8xDmGKuyrxjlvV+yrNM5KcQcxgUrIaTd9S/lyCpRyeprGtE8t8n1v6K+KWq7t0pj49KWQz74vCZjVRRfzzf0tnJFLSus+RPNxYGeRzHoIk4/r9s521B8tcYiQb+R1vxUHh/bjpRxrbbfFU1peuvh7KKs7SGBIn9LT7qLqBVfTTOfJcUx1mS7kd559PzXY6nRNn6kJVxyBwuHfFA0RWTdx0ClKG2bfMO1teIb9nqdbQom5/TdZKusMK/Zc0c0EsU3eJ9Xss1trWgt8vgGVHz1PnHKQjPfbtA5KozMtzXE/zPWzjG2Z8Cv4rv+5qSg5blgJYRoWnvrX8qRVcJ1bvOcRbSic52hyHLIh5jXJNRqNa2nVqtp58+fx9tvvw1CyPrjwYMHePbZZ9e6GYRsAEpI96SgKllUZgPkbSfrEso+Qki7UI4QkwcPHnQ2uBUhhBCyakQZIIoQQgghXQUVX0IIIRuEEnLpEqRBIKs5JFIqAAXZc92ZYZgQQggh4elgHl9CCCEkWhbVFDIqAEVADOnfLSyoKJcBQIEo5pvyrBNCCCGEUPElhBCyQUjiXDELXC5ALatQzTx/igJFjODiuTEkqfQSQgghRAIVX0IIIRuG/uQYppJjmFrrhhBCCCFkQ0EfX0IIIYQQQgghXQ0VX0IIIYQQQgghXc3/A0r5hFxHp8WPAAAAAElFTkSuQmCC;" vertex="1" parent="1">
          <mxGeometry x="670" y="700" width="958" height="254" as="geometry" />
        </mxCell>
        <mxCell id="ODbVOPba3RWWneBiBJT6-6" value="" style="shape=image;verticalLabelPosition=bottom;labelBackgroundColor=default;verticalAlign=top;aspect=fixed;imageAspect=0;image=data:image/png,iVBORw0KGgoAAAANSUhEUgAAAbQAAAC0CAYAAAD8Q9nyAAAgAElEQVR4nO29e3BUV3ro+1PCVIVzDpiyM4cMeGweEhiZco6sQUxacTxjS4AE44OnQOZMACll3LLGD3XZYYwKfA2xKeEwnur2jJHVxjUtrDsXy9TgeETLWJiMy6EziMg6cQkR6EY8YpjhJuNrwz0h95hJ3z/2o/dj7d17d7ck3KxfVVdB99prfeux17fW931rqaSlpSXd3t6ORCIZX9ra2viv3/2riRZDIikafm+iBZBIJBKJpBBIhSaRSCSSokAqNIlEIpEUBVKhSSQSiaQokApNIpFIJEWBVGgSiUQiKQqkQpNIJBJJUSAVmkQikUiKgknZEvzRnrP8++/S3PwHv8/o/7gNgGk/PQNASUkJ/0/TLD3trJ+d57P/73f8we+X8Jv1swS5SSQSr2wfucC1/0gzedLv84M7vgbAtuFPlB9LSnjuzpl62hdP/Jp//93vmPR7JWwunynKTiIpelwVmqbMAD79998x7adn+OwvZuu/p9Np/TtNyQH8++/StrQSSTEyress/EfaPdHvlfBZ4yxf+WrKDODqtd+xbfgTnlt4ayZBOq1/pys54Np/pO1pJZIvEdtGLnh6p54TLNxcFZqmzKwKS/sOcPxeIrkR+KxxlrtSy0GZAboysyos7TvA8XuJ5MvMc+Uz3ZWagzIDDz40TUFZFdVd+z7hrn2fiB6RSG4oPmucBb9XYv8hR2WmoSkoq6KKnPoNkVO/yTlfieR657nymY7vlJMyAw8KbdpPz+gfIx+vuhXSaT2NNf0de897lX0cGaVjyTSmTQvRb/q+n9CSaUxbYv3+OmK0n47QEqZNm8a0adNY0jHK9S13P6Fp05i2pIPRiRZlHLAptTyVGSg7MO1jpHXeH9E6749s6S9c/d9cuPq/uXj1i7zKvb54n97Wr7Kt9WmSEy2KjetZti8/NqWWRZmBh6AQEJscrf9Ph/4bACXh/wnAb67+zkvW1wfX/YzbT+ju1cSAqqYmyrWvr3u5byx086P670IgMjlq//+9EvMKdvfp/9v0XFFwcaIFcOF6lq1I0M2P6r+zkVWhaabG/6vmj/gfh8RmjnTov+mKzPjvLw1zagm/9xnhiZbDif4DijJr/4j3WuYYfphzfct9A1IoRQYZpbTm9j9k77l/tf3+6NzpAPwfC2/lrwxKr62Yohxn3M+KyL+wYqLKH+ik9//cAn/+L6yosvw20bLdIHhRZBquCs3oN6v7+mSbP826S5OMDaOpEQDKS+dkSSkpFow7rPlT/sDRnwZQ4vC9JH8+/eRvGByByokWROIJTybHbJSE/6fN5CiRSCQSyXhSsJtC/CmyUfo7QixZMk0Pcpg2bQlLQv12t5AaDLFkWibtkiUhOvpdHEiiZ0JuwQnZAhj8y5s1nQdGO5R87m4bACC2WstTCwJxkdup3YSCeKzfqDhdSJxplsoVrp0kHrjYyeu1X2Vb+H1glOTPn1b+X/tVttXW0/vz9/nU8dn3+VW43pD+q7ze+jS/GhD0llZOayefMkrS+JzpGbsMrwtleJ9ePb8C1OeimrY1UxclvaUuA0+zrfar/LjjGACDmzPpewecZUuGrWksqPkqcufYxhJHCrJDg0xQSHb6CS1ZTWwAqKqiqUkLcRhhZCQF1BqShliyOoaStAkl6QixWIyB1TH223xKwGgHS+5uYwDA8MxIrI27R07S5LtmPuQ1lK0Hb4zEiMVWc/dIOx+914Ivo2Hpg0p5IzFiA0oblJcDzGeu23MWOZpUeWOxGOWnw5iF8Fq/UToevZs2JVOamtRUIzFibXcTO/kWn4Vr8USh20nigxS/al3DQRZRuXw90znBpQPHGOxYw+D5vTwXut+cfOBpXt+8h0+AW8vXUzkb4ASDB/bwyeY9HG85ysPfFfXWKRKtWxhkPZXLFzBdfebg5j386/ajzE8s5mcHFnHr8vVUApcO7OGTjjX8WCRDweozyq9eXMzBEaB8PZXLlW8vndnDYMdic/pb51G5fD2c2cPgiFL36aoH5g9drLtlgfVwYA+DifdZUWWvRzKxB4DKgOG3nNtYYiUvhXbbf5nE+f/3GmDfod32X0RZj9KhTp5Nb31EuNalk0Y7VGXWxFsfhTEmDYf7CU1bTaztbkKln5GZR/sJ3d3GAFW0f/QeJl0XHqVjiTohe8aHvHrZVnnDPNmxhLvb2ni0Y6ldAbswp7aFcC2MdowQGxigfGMYLzqj/2VxG4TDo4yat1w+6geUt/PWqy2Ykz2ptGvsAP3hWrKLV/h2kvjgwBaOL9/LE6H7uVn7rqGT1xu38MmBOMnQ/ZRp31/sVCfa9Xyv6yXKZmSyWRF6n97aNQx2LKb3VkHAxMgeBpebFcqKwNNs27yHwc2LGWQ93+t/KVNWqF7JzypDIesDMPsFvvdMs6ku8Bi/al3MQWP6Gc2sCMGnPz/B4Mgxpv/5S/Y6iqh6jKXle8x56bzPyQNA+QsEtLzyaWOJjbxMjh+v/jqf/cVs4efj1V+3P9D/sqJQmt7KOnkqkzI0vRXGnrSW8FtNAMQOZE5gjXbsVKMBX8U+H86h5b23/O3QfMirlS2Sd07LRpqAgf0Hx8GkNooSQ1KOPYZkDnOM3/moH8yhJWxVZsr3Sx+sAmIc8HAY7vpppxuV9fyZcfIHmNHMny0H2MNJw4Iv2bOFT4DK7S9ZFADA/azYvh6AwcT71h+B9XzPutOqqteDKyq3v2SZ7O9nvkCGQtYH5vDNkFWZKd/Pu3dRDmWLcMlrIM4gcOu9tbq8+bWxxMq43rbffyAGVNH+ZLZ1vDYpN7HcKWntckU5xQ7oh4pPnxwAqnhwqdPkPJf5PlY5fuQ9uH/ARV613IGTnPZefI7MobQcIMbqJR24uRq918/IKP39HXSEQoSWLGHJkoyPz8uz10873aCUz+MWwde33LbI8s0ovz0DsN75ndEU1IG4/WCxsJzZ/GE5wCKh2c4ugwc818fIKMmBTn4Vfpre1npeb834ygrBzd/879yKXQkp5sZF3PlNbX7Ks40lNgrmQ8uO287BymlldVPl5ivSJr9c8vdCDvISY/W0WCEKz4va8Ee0j9xN20Abq+9uo6qqiQc3PkmLaUvkt71G6Q89yuqY1uBVVFVBeXkT5eUjxGJelNr11U43JLNLzbsZR87wryM4Kgw1M0VBjfgVYgG32HYjOeK5PgCjJMOP87MDmvJaxK3lMH32eqbPPsHggQIptRm13FluNXlq5sb/zjy97mPZxjcm46jQbgSMQRUisgRzFIw5tLz3GUtH+3n50Z3EBpQgmraqJt56L+zBz2VntENVZk1v8VG41hS0MdqxhJiv3K6XdpLcSHz6c1WZWX1uwKc/r2ewYCUpZseDI3s4OfASZVXo5sbKP2/2oYAlfpkAhTZCahSBL8aI2fQkTuq0i/OSvx/8yFvO8nBuCmMsmDOnlvB7tYT13VWM1aHllmhEL/XLmArfsigz0Ey9Xrg+20kiQtsZnOK34DAJe9lhXC+McuqDY2i+PWt9fnu+cCZHUM2OHcf0aEfF3Gg1LRZbG0884+hD04IHBth/MJvLP+MHcgw0UK+DorxUnWC1Z1zyHz3Ifs9O3wLLO6HMoTa80eJz9FM/NxOwZrr0Jsf13U6SDHO4ZTa4Bkqouw5/Zr+Jwk0xaL6sAqIFphyIk7yomhuX11sCYYqtjSeecQ0K0aPY2h4VHIwepcNw+Ln2yXaqgNjqkCCwoZ/Q6hjWgAbtmYG2R+0HiEe1cPGJkBdG+0N0jMskPsqoWySIQSl5r5+2s9qPVfeNdjzq6yjE9dNOkmyUNbygBDdsfpqk7SLe9+ndrAQ5LG3wc25sotB2Q3/DKUtdPv3548rZNAE337oAgEuf+I+7LQusB/Zwskc1Nwbs7VRcbTzxjLPJUQm3H1kdo2313bSZDj4PMFDVzlIt6ZwWXm3fz91tMVbfHTMcKs4EIDS9ZTlrpj8zQNvd09hveaaqqZ32kTYfE3Ah5IWRWEw/gjAeHNx5N22rq6hqKldv5lflpYqmjcZDy17rN4eWjU20rY7RdvcS9qv5jozEGBhoor0d2rw26nXUTpIszGjmwZa/4ccde/hZ4x7D4eJMAEXl9jjfLFSAx5gyh2/++XoObt7DwcZ6ji9fwHSUQ9WfjKxnaQscFEU63jqPW4FPOh7n9fPKAfE/DMT5pqczafVUsofBA3vMZ8+MFFUbTzzj70OrDfPeR8vpeHkn+2PKDRig3ILx1qvmGyLmtLzHZ0v7CWmBDYa0G18VnU9TnvmotIOXd7ZlnqmqUg8OQ8eStjGVVyl7v03e9o1P0jIuTqM5LH2wif3EGIgNqDvSKqqa2nnrScE5Mq/1qw3z0Vvw6OpMvlVNykHruQeX4KdVr492knjh5u/Gee6b79P74ksMjuzhE3Unc2v5ev7sGdHZqeuYqpd4Yjvs37yHTw4cU27mWK4ctL7lV/UcFD0zo5mHt59SDj8fOMYnLGJpwGuBytm6wQPms2dWiqqNJ5iSlpaWdHt7+0TLIZHccLS1tfFfv/tXEy2GRFI0yLD9cWeU0f7T2Q8Oz60tYKSmRCKRFD9SoY07p3l59eqs57aq2j+iVt5nKJFIJJ6RCm3cqSX8mfwr0xKJRFJoxjVsXyKRSCSSsUIqNIlEIpEUBVKhSSQSiaQokApNIpFIJEWBVGgSiUQiKQqkQpNIJBJJUSAVmkQikUiKgpKWlpb0RAshkUgkEkm+TAJ4asuOiZZDIrnh+Op/TvMv/6tkosWQSIoGaXKUSCQSSVEgFZpEIpFIigKp0CQSiURSFEiFJpFIJJKiQCo0iUQikRQFUqFJJBKJpCiQCk0ikUgkRYFUaBKJRCIpCqRCk0gkEklRkEWh9fPszJsoE3waHmjlg7Pm1B88o/722mj2kg+3Knk9069+MUrsAXFZeplu+Z4d5YPXWmmw5vFALQ3P7CJ2OPPsuddqXcvxWqZW30wdsnC2n2cfMJZdy7OHPbQVo3zwWi1lM1v5wC3NM7U0WPoodlac+pxNFnGfusmk9dezhwU/a/0r/LjU42w/MUs9ykxyZR8n2scq17nDu3j2AXO+MZf2P3fYMp6ypB9TfIxvSS74m+sk1yeTPKesrKJC+/fgAEODMTZUj7D5SD9Ns5Sv713aBN0xhn7xLuce+T63u2T3wcEYAGuW1rqXZWC+Q17nXqulZuuA+r8qKiozvw0NDiif7pPMvhDhXgDKTWm0dKKyncrk7C5e6Vb/3d3LBy/Wqnk7p2+obmMIqFjbxHzgZHeMvesqOLl2Hz0vCtrh7CgfdDTzSvcAQ6rcYvp59oFV7B0EKptYswA4McLewRhD1TFOv/E5z99nTr+7ehV7qdJl4USMvYI+deRwhO2DWdIAFZVNzF9g/XY+wuwPt9KwLqa0kVYP4OSJEc6A3r6zv5P5TcTJ7hhDVDF3Tua7zBipomJtOfMZ4WR3jO3rYsS3DtHzyBxTHh88U8uGbiX9mrXlYEhvb8+xxf/4HicO7+LZcBuExrc9xhwPc53k+sSjQmti9zvml0V7ybY/uYtvv6Mqr/ta2VwZY/vgfv727PddOr+fQ91KvjW2F8FeljOjfPBMBRu6gcomdr8c4V5RmWf7iXUk9f/e/kiEnkfM+cQeqGD7oPeyz/XvVyfeKoYGY7zyWiv3WibFDP08W93GEFXml+LFVqXc7r8m1lJraq8PnrlJqRdVrNnazvytbex1EuZskpODVbYX7nlVie5d10qNZbKbu3Ufhx6pNSw6Imw43ErNupi5T4WMEgvHHH8FOHd6BID5oYi3ye7sLlWZNbH7iEM/AjCHex9x6aPDrZR1Q8XWTkNb9LN76wBY827p59nqVezdGuEDY56HWxVlVtnOIWM7aOkF7Tk25Da+x4tzp/ezdxDWjHvJY4nHuU5yXZKzD+32R36gDOTBk5zVv53Dt79TBQwQ73cx5bz21+wFKra25jUpnHutWXnZ1+7j0Dsuk+CsWppe/H4BJ6BR/vYXygT52MsPUgHKrtQp+eFetb6dFiU/h6ZQEzDA9g672bJi7T4OHenn+UfKsshTxmOi1eOs7/PYWoARzpw1/lBLk0mZKdx+3wpBn9o591oz2werWLO2Kotc5l2SGx90aArfTZllQ1O0TTxmXFzo7d9qzntWLRu2VgExDh225lHF5pctk9esWp5/owmI8YoXs3qeTNz4lhgRz3WS65E8gkLmMrcSqDSbj26vzTbBa8qgivpaj7OdiLO72LhVXUW/aJ+cxxTN3LZ2BffOWkZ9JTC4n789K06umFcd6qspkRNJU3vd++Ln9LxYy+2zPMgzqzaLEhjgtJ/5t9LBJAjou521P2BDqXMWZ1MDzj/aEqvm27U/yM+ko/ZLfgul05weBCof5NsiWebMV8Z36nTOJXiiEONb6Her5VlXX7TiwzSmb3im3/wuq/5RzQy6d52D39JP+Wd3KX7TZ/pRfMatBj9qLc++1u+8YBT4XRsK6u8Uz3V+y9d87kKfMwjiCsz5u/aJBMhHoZ19l/ggsKDMsorNMsFrzzlNGB7RTH5rQuNvAtAU1OaWWrLtsmCUMycAypk9S5Sb+rKM6erP407pbJKTYO9TAx88s4q9NLFb5PPLEb0vRf5UzzjszsBVCSmK1/tOklllqs8xOaYTSv7je5TYkxVs2KqYcdesVT4VlQPs3VohDmQ6u4uG6lVs7x6gQk2/pnKAoe5V1DywK1PfOfPV35T/VlRm8s+0Yw7lA5Ak9kAFG34xwvy1TaxZW0UFA+zduooa0TOHW3WZ0eVQ3ADb11V4C1DLhtNc57P8e5c2AbD3oLjuwrgCr30iAXJUaOcOqwEOlaKJzd3sqPuevrMsD0WU2eV5nogKhur/MypkbZfV3SuI3tNW/E67njnMXgB2s2AB0HY+WRcPo1n6VOVwKxu6Yc0bXv1HA2yvzr5qNiqVc6aV+U00PLPLW4SZ2+5s1vfZubUKulfRoK/0lcjRDTZ/m7bAcFqQqUp/TBcgBRrfC9rZfeRzku9EeP5F5dPzzhCbKxGMVc3P28TuI5/To6Z//p3PObS1Cgbb2KhNzrO+z/MvRtjwHcXkPD+Uyd+0w/ZVvkp3G/EF+zj0Tr/6TD89R9qVIA3rMya/6+f06OX0k7ywjzXA0NYK5x2RB1zfC7/l39fqUndtXmlnw32Z7zz3iQTwrNBibDBMMjXr2hiqbFfs+oLUzmZHL+ZGc1nGbbY9BN1p1zN26P4/k0KupWYtmH0xE80osSfbXFb5xjDlCmrW7Wf+1n2OfQr9PLsuZnnhnMs+Y1iVr1nbpIwH4ao5s4M93XETNVtjoK9EYai7jQ3Vor631NVpd6Zy+yP9HNpaxdDWVdSodd6wdYCKtfssEY6ZBdn2J60r4Eybjg/5jO85il/N9rxWP/NY1cb1mjfsvjrNh+TqJ86z/AxNPGY1seq+YPMzit9VLDNo/k7nHZEY73Od//Jd6q75eQ3zSuH7pPjxvkOrrKJC/wCDbdQ4naNyMjtqW/dsvhJTWdrHKWRdgGaPz3IuyT/OCvneFmUVuTd8PZgBtKhNqNg65BBlOJe5JoWjmnWEZ25GiT2gmho9RXnNoenFzKr8+Rcj9Fz4nENvKG00tLVZoKBi7O12WIk6mnNV9HG1wnHnqIe+V1ZlFG0lDHWvosFiyrr9kU5lJT3YRs3Mm2h4ppVnn6mlbGYF21FNba5+xjHG1/ge5YPDu4g908qzD9TS8EDG92VMowU52aOOIT+zuJfyDTi066xSawCSthBykpkslhMXPM11uZWvLfatStbuZx/LPilecg7b52w/zz65ir3rKsB2LkfxK21fFyPeP0qTugL25ivxE7bvzPxKwwswOFCYVbWbQp61jPrKNoayHlkYY/TzblWseaOT5+9z2gkrSkfnxQjnDu9i47o2NlTDbkNYuhLV6MfUKOb2+77Pzq37qdk6YBoXGo4r0a2r2Oty1k+PkGwRjytdma3dZwmwiLDhtVpqtq6iodR4Fm0OTe8MMfsZ9Qxgt3o2bu0+dr4Iu2fGoFJU0viRfXyP8sEzzepZOtDOr81f0MT8BSPs7TYqFdUsTowNM2MFktBP+QZc/LdmspnyITPp+5Hb61yXY/naPGEazwI3xpj0SfHj/WC1lVm1PB9qYu+6GHsP9vP8fZbJ5L4VrCHGXv2QdbYVhx9Uv9NgjEOHI9xrzW/W93n+ne/r/zUfTM0dzcRA9yrKup1SiSdrbSVlf1mzBY14J7MLaWf3yyJzjzsZhWNo18Ot1GwdcNnp+Syj9kEqtg6oARpzyPSlk79IMefu7VZ8jPY6iSYDI5lxt1sQLagrTNtlAHO498V+7n3R8sDZXVkDZ/In//GthPyLlLiSXnymUTtE7oT3XWlu5V+nZJvrfKGYHbcb+1Y1N4pdA4XrkxuB3BUaZKLHhD9qE5G6YyG7WcgP2q0k+Q8wr2iHwZXD1GIGGBqEIdNBXW2V5jQhe1npZUeb1JRdRO7HGG6fWw4McPL0KNyHfoB6aGsFZVvFz+xdd5N6zst+44YX7OYkHwh8D2a0la4TZtNNtnYrTERmdvIb3+5K3H6kQmuDcmpeLMSBcb/l54KXfivMuwUI5rrcy9cWdVrfKuZG60K/0H1yY5Df5cSjJ11NeUqYqrJjKfhEoEcMrSpMaG421ImTtfvoeaff4fM5u23O6yyHzbNOyB7QziypV2jls3PQb/hQt0uzv2MO7jB9LGHb9XM95K9FuZZmEmtKVHwYX1tIiHewrmf8TDhFkWZTeEYKaWXIQl7j220i1ywCRrRI20IFNfktPxc8yKy9s4XYTdvmujzK14Jcunv54Kw6vm0L/UL3yY1BHufQ1Kg3XJSU6hQd+kWE3b8Y8Bgh55U5NL2sBRlUKAcNz4rSjXI2lW9Zmauesilk/ayJIThEj0jaGrEEXGht6Byd54VsPiRb+tfEl62eO6wqRn3CVq6Zev5F8ccatt2k+evO7hIehDXmb6qvOnmLgkXcb5VxV3YKWgSqElhijVpUztXhwXKgXENVCF+iN/IZ385HDzR/qBU9qGmd09hoJWaZWJWFCMpuPs/yc8FdZu3d8v5eOOIw1+VTvjJPxDjUoZobBfNKLn1yo+PR5BhjwwMjhkt7FdMauEXRQcbsGFMnJS+7EGtZRsp5zOiwnfV9eo6UKQ7b7lXUqHcfZi5vzcgJVXjYQIjRD4N7UMia79AUHKKE8O5dF2NDdcx0ObEe9purbIYVb7yjFcf7K0pXsEG77ioVY8PWmBLxt0CdlE7E1LZSr5/KWR6Fk1tXUbNVuwjYnL+9vsrkHa9uY3v1TcTVC431Zyrb2SlS+NqZsCzK6N4X97HmRGaMKO0/wknt0mfrGaOzu2h4cj8sKFcvp84EMRTKl+iJnMd3Jihre3UtcVMfNLF5K2y3+pRnZfynG6pjpkuljePUhGaG29pMQ0q58Hnu0n6a7suh/BzbRyxzpr/WvOH3QmEfc10+5WvzRHfMeV7JpU9ucLz70CyRVBWVTdSHWjOrcgfubWmnolvZQXi+6soxKlHgHJ1Vy/PvfM6Gw7vYHd7PyUHzS15RWU59qJVv3zcnZ7ODv8Pgyv2Ae62RfPdFOPTGfHaH29irDkbXC2d9M8BQt0s0Z+V8NjyiTNr3tuxjM39NvHuAvca/MrD2B3n533RmLeOxtfvVCEFNJjX/FofrvPTJ+6+VvxKgKb+tP8goYiuqGchovhRTy/PvDFHzWoRXfhHToxaprGLNd0T5K7eB6P2EMt4fe7mVe2eN80n+XMf3fREOvQEb18X0PqhYqwQLzeqvZbugqNsf6efQXKWcTB8odd8caqVJEJzS88ZJ5XBx94BiJViae/m5cPsj/SRr+y3jRuuvHN8tH3Nd7uVri333ecV3n9zglLS0tKSf2rJjouWQSG44vvqf0/zL/yqZaDEkkqJB/sVqiUQikRQFUqFJJBKJpCiQCk0ikUgkRYFUaBKJRCIpCqRCk0gkEklRIBWaRCKRSIoCqdAkEolEUhRMAuU8jEQiGX/kuyeRFI5JADfddNNEyyGR3HB8/vnn8t2TSAqINDlKJBKJpCiQCk0ikUgkRYFUaBKJRCIpCqRCk0gkEklRIBWaRCKRSIoCqdAkEolEUhRIhSaRSCSSokAqNIlEIpEUBVKhSSQSyYSQIlJdQklJM30TLUqRkEWh9dFcUkKJ46eaSEpLq3WOOF11dTORvhQpx7Lcnlc+1ZGUx/TVVDf3OZRleK464iKPn+f85Km2qVO6VB/N1dWmujT3eZEyRV+kOsvLkaKvuZpqY5tWNxNxyD5lk0VJ70kctTytXZpFQvU1u/S3Sz1SfUQs9SgxyZV9LGkfq1ypvgjN1eZ8Iy4VTvU1U+0jvXdyHd8Sf/iZ4yTXO5O8JgwEAoJvFzolxpQ6kSCRSJCojxIiQDh5hNZS18LwUZotfSKRIBGtpyyapaxEiJ19rXTWuciikTpAT8JDukSIxshyjrhW0KmMCNVlIRJAIBhkITAcjRKtL2M4GOeISNBUir6djbwQTaCI59RKfTRX1xNVMie4EBgeJpqIkiiLMhJPW9qhj51l9UQJ6LIwHCWaiFJfNpy9DwH6dhLy0GaBQJCFNrHLKRPm2Ux1fVRpI60ewPDwMKcArQrzGjK/iRiORkkQoNxQSCpSTVkoAQQIBBeykGGGo1FC9VF6wklbn/Y1V1OvNChBpUH19Pb2zINcx7fEF77mOMn1SUtLS9qZeDoIaQLhdNIllUIyHQ6QhmA67vB7PBhIA2kgHbQlyva8n/SGsmwFac+pH091S6fjQbdn1DwDgXQA0hBIhx0zdWpT9Xvbs5q89jwzMgXSwXBYfd6h/ZLhdEAkVzKsymx9Lp4Oh+O2tknGgx7bzdzO9v5Op5PhgONv4iwNsnrpNCfUOgRMjRHPtJ/x62Rc3K5O7eCUXsBnn33m8muu41viDz9zXKHxO+dJsjGOPrRS6jqPkObAEYMAACAASURBVIwHAYjWj6XduJS6zi0EAaJvO5QTJBhE3aVlyS4V4YUoEAwqeTqRWEhDOAAkCGXN1ELf20SBQLjLsuIupXVL0DHPQDBOMnmEztZ5WQqYxxbRar60lS1BgGFOmUwrdbS21mFLXrdSaYPECEmX0lKRRkKJAMGgaNVrqoFpl+RG384QCQKEk53U5bwrSRFROpMtxsbQ23+jOe/SOjaGA0CUt/useQQId7Wa26i0js54EIjywpjZqryMb4nkxmPcg0JK6zpRdJpxghgLyijPMpeu3BgmAESzCKJPpBtXZi11XmsXyvxXL/YbOZXxtjJBNiwXzNSaEhk+ZfKb1HWmOdJZR6mXyb20LosSSDDipqGsBBxMggD0sTOUgOAWNpY7Z5Ec8WLDVdEXFVvyM7GpZtBAeCO5WwSTjCSAQAOi7qKsnACQ8NWgfnEZ36kUfRGLb6+kmmaRgk1FFF9kdYSU1cdq8geqeRr9eBEXP57Az1nt5F/UZGjuE5bT7FSOn3oWErVunn2aorZo9uC/91uOZGKiHOtWqru0MdVo2qTjMvGWLqchAERfcHH89qHoGofJy54prV2qovS8C01xahhgIfOEZaiTV5ZdUX543CmlTqGIOs+2e9Poa64nSpB4wZxIkDrQQwIIrswnT4fdGbgqIUXxet9JUjpP9TmeGsPJx2l8p4g0llEfipIgSDCofAKBBNFQmao0RIyws7qM+uGFLAwGlZ11IkqovozmvhR9zWXUh4YVK0UwSIAEiVA9ZaL8+pqpLqsnFE0o/lo1v4SaX7Xjy3aKSHUZ9T3DugwBEkSF5eRazzxJRfS6BdQygwHVpykK9DKkTxjagmiIsuqdjBSqHInC+PnQsuVbWB+a5r/J6qvTfCEOvgizn8epPeyyaM/Z8xXlkb2dFX+ZB9+cX3u85pfy4BNLxrW0LmWo7alV281PZvJLqp9AIJgOCxxkxvonw0HVl6Y+Ewx786kJfWeGGqqyBnTfYTId178zOdYc/ZpqRg5+STP5+NBcx7ewPRzy02UVjFXt3XDwsQrHm6ufU3vGIrdBhkDQ4rd1bEuf9XTEzxzn4GdNG8eOyC8rGidGH7NL23oqR6LhTaE5fcyjskAKzenjFCyhBmPoH0OghHCWs8rpJrdVTu8KzXnSuZ4UmtvEaMzTGHxiDxSxpTfUw1mhJdPhYDAdNHxMSkqoQILpYFCb+NTnAk7jw6mu7u2jL0RMClOgUrR0jmOhUArN7/jOXjexMnEZ/1kWJMbfRN9ZHrLPHVkWAFnztOAv2Mj7HOeer/PYd1Y+4nfWbzmSDHmG7Y8RwrB9l/DZhBayrhIMk+xsdTSJmVGCLkL1UV6IbKTOYIpKRV5Acdt4zcuSb1eYnrIQ0RcibKzLJY+xJEWkukz1JyUdQszLKDcEwgxHo0RD9UR7gsS7rIEZKSLVqqnxiJe6ltLa2Wn+qrOTVF+ExvoQiVAjkeXWIJYo0WiQuCkopJONarh9aGcfrU5mTu3YRXClo+9MD9sPBAhq5wiGo0Sj9VRjPjZR2tpFuKeMUCJEWUlIPdowTFQzswWiRJ2OHvglp/Gdoq/vAKfeHmFkeJhhEiTcXJZC07xm6habW8uUH01lKqbzII6W4bqVBIkSjb5NX2eduS8c3AP2coz4rKcL7nNcigPKAHKom9ktUErGVC30i5ueya8ciYEJMTlqK7Kcd3hO6Q3hzI4yi54TrZRcvvO0Q9Oqal2lXQc7NH1FnMMqPy5eTTutKn2H5qdFbeZ1J+lc92ztZzQR2082OK20lfFmNn/G00mP741/k6O38W08HgPKzk7ZBbvs0IT5ub+T9r71Um9BnsL5wK2cHOrpiNc5LstOzmaa9TKfuc1FXsuRGPG8QysoyRHlYKxnL7tXlKMBcUqoj/o54KyEZkdDhl2aMYw7H4latxAM1RMV7jgsOK66sgWNeCezCwkT72r1Hf5eWtdKV7iHslCUt/s6qasD+popCyVcdno+y1jeQCCUUAM0SoFS5i3EcacAdawMQjSqHD2w1ylbYE9mVRzvFBxV0Pqw5wCpVuPOSBlvdZaNJqlI1sCZ3Mg+vlORRuWwdzBO0lKXVKSaaEHlmTgmrp7aIXonCrQrH7dyiosJUGiZMzzOW/H8qOuME4x6VCIq5klrOQecouH8S0NnPEi0PkqoMcLyI6LzYpoZwWlC9hCx6QFNmQWCcboEE7dXShXtwvCpFNSh9ickQmWUhMTPROtL1AWC/cYNL5RlO4PhhrY4aVjuUGe1fZ1L92XmKUxEpjPO49tdMfs6JpETXtqpEGN5Iuqp1W0hKzs7fSxynd7pQpcjgQkI2+9rVvw2eZ8nckU73OrngLN6gDYRYmdE8bfkuzvLZK2evUuEaIycEiQoZXmDYkzvOSAIyM06IXsgFaExpKxoj+ShzABSynaRhep2cV5DJmza9lH1UEANWW7Idv6bjEIw7uA1JSpsH20H5rCDdT3jZ8J6uFwjm8Izks0HUgicxrebstB2+WOJupN2O2OqjuX8dq8TUU8PdROmdxqzOFyn57cciYlx86El45mItBzs9b7Lc/S7uDxnDGEW+lv8+9Bsz6JGqjlefWUN1fXqG3NPl90HZ0kfFl8v5eRDc8LRh5YMCyMmnfN3DpV3jybz1n76EQKbDy1p+s2dpK+IvNzD9o2/G8vK3kY22QrqQzPk5xq2b5HPtw8th3o64mOOy3L1WjIeTIeFbSG6cs7oK/Nz9EFQjkRnDEyOUeqrh22XqWpkN3fZn8+wkC1HvG7DDVGG9c2sTHt4rrSVLcEQ9YW4kcJGxvSYUIKfHH+vL4uaLidOAMF4PuaHzKq1Z2ez82HO8pVs1K67GolSH4qaIv6Gh1XZteuncpZHYThUT1lIuwjYnL+9vpn+DJWV0KNeaKw/EwjTJeow7SC4S3QjqGa84Xqi0XrKouhRi8Papc8By0HxVITqxh5YuFCNv1UjHHGLGi0kovGdidgNlVXTY2rXIOEwhLzcFp2XWBkfa31Z1HDxdKZ9gvF8L1SeoHo61s38ntrTJ0xjVmuLQDBMeDhkv8DbbzmSDIXfodk/gYB6fsnTOSGvkT3ednTaitkeMefzEl8ltzx2aGZ5nNo0GQ8bzlahHGL2tKty24l4aVuLTMl4OmyJ4CMQsB98zYLbOTRrhCCo+bsVkIyngwFzdJvr2bgsh6ltMoWDhrNeSp2F+dvkUA6Fx90HuYn8dmgK9vGtrOBFB89dd1SF2qFlhHBoH2FGOUQ5+qynI/7PdSnvqL1uogsBMuktYyqeTGdtX5/lSNLpkpaWlvSuXbsKpiAlEok3Pv/8c2666aaJFkMiKRrkX6yWSCQSSVEgFZpEIpFIigKp0CQSiURSFEiFJpFIJJKiQCo0iUQikRQFUqFJJBKJpCiQCk0ikUgkRcEkUM7DSCSS8Ue+exJJ4ZgEMPTr3020HBLJDUfF136fadOmTbQYEknRIE2OEolEIikKJuYPfEokEhNP/PyTiRZBIvnS8uPv3grIHZpEIpFIigSp0CQSiURSFEiFJpFIJJKiQCo0iUQikRQFUqFJJBKJpCiQCk0ikUgkRYFUaBKJZAyZzIYHZ/JyzVRmTLQoRclkNtTM5OWam6nMNYupU9n84ExeXjy5kIIVGG/1zHIO7Qz7vvcNXhkS/FSxiBUtHay5ZzYzvT7DIu5s+EvattVYnjFw/hD7Xv8hv+w5xnE/zwFHn7uFTT1Aw5v87bYab/Wq2E73zx51yfcQLy14iF6ndH7lPX+Ilzb9kN6hY3raFdEOnr5ntou8isxH97Swqb2cHSd+xGKnNM+18IZBljsrGvnWjh+x6jZ76gvnD7HXJIuSft2OH7FYkF5UntaOK6K/5el7LD9/+BTfDnY5PNvoXA9Rm1Y0skOXy22MmbHKdeHDV9nbsZle7dmKRh5reYJVDu1/4cOnaO/o4rjH9GNJ5eKZNM4ALn7Kk0evjnv5Nw6TWFEznSVTBD9ducbHJ35L/MI1Lo67XAKmTrQA44THeno/WF2xiDv1/xzj+NAxeoPfcJ7obc/A8aFjHO95iLU9i3js4Lu2SfbCnmWsbT9me1Z57of8/cM1wokZgPOv8kaP+u+eOEe31ThM+haGNtO+Zyk/We9/gvIt7/lXeXzpZo4DdzY0Mhs409NFb/AbnGl4k5+IlPD5Mxx93aikyh2kOcRL33tImagrGllRBiRH6B3q4vjSLs7ZFM4h9i59iF4W6bKQ7KJ3qItNS0eE/WPjwx97Uip3VjQyu8z67TxuFeb5FI8Hu5Q20uoBnEmO8M+g9+nXl2V+E3Gmp4vjLOL22zPfZfprEXc2lDObEc70dPFKsItftv2DbQwcfW4Zm3qU9CsaysGQ3t6eY8zUqSzTtjgzJlPJVQbHsfgblivXuKT/ZxLTp0zirqrp3HXlCjsOXZ54pXb5KrsPXZhoKbwxcyobFkyBExfYLRLZ7XeP9fSo0BrZ8TPLavr8IfZteohXHBWC4Bl1B7Gp5xivvH6IVcYJ/MOnlMmmYjs7djxq2SGc4cKeg7jdpXDhl2+rk+Aijg918caeJ1icTUlVLOLOoWMcb29h37c8TOBGfMt7iJeWbuY4FmW+7Qllt9HzQ/ZZFKC+42QRK9q2M7t9M71O8pxPcWbIvlB4WlWivcGn+FPLjuj2tjfpXm/cRf6INR8+xdpgF69sepU/cd25nmFfh9PuS+HCmREAZrf8yNvkf/5VVZk1suOg2y5xNovXO+1SUXaGPXBnW4ehLQ6xt/0YWPN++BAvLX2I3vYfc9SY54dPKcrMumDT0gvacyyZMXMy04FLV64xfcpkli2YxOCJa+NU+o3KVboOfWpeOEydzIqqm1kyZQp/seDf2C77wDMzpk7mrinwcY6/eyF3H9ptNazasZ07gePvHsTbGmE2i7f9JStA2UUZftEmvxUtVuWgPDdzveh7jTP8/bvKZLVux0rvMg2V8622RYCiYP3gW94P4/RinWSVtKtaGh1luLPhTboPvsvT60uzSFTKOtGu6rZHWdcAMMI/nzf+UMOq9XaT6Mx76pX+GTrlvoDY08IrQ4tY0bAoi1zmXZIbR1/XFL5Xk6cITdE2ss64oNHb/wlz3rfVsKZtEdDF331ozWMRj+2wKPXbang62gh08caeM7kK6ZNJ3D1zEnCVdweucgmYPvM/SZ/URHD5Kr0DV2QfXKfkd5fjbUv5VsVmjquTn5t/K8Ncbq8ALKaqT04fE6b2hGb6aqhn8W1z+eeKzRwfepu/P/9o1l3X19d38Ni73+CVnod4qca7GcmvvEcPKRPkt74l2DXeU88KuuhNprhARsks3vZb7zuA27KZWI9x7hzgVVFUOJgEAX230/Ama+b+0HHXqLRRNoWnopmMG/7S307ZijoW7mx7Io/d02nODQEVK/kTkSy3z1MWTadPA+PgS5s5VfHnXLzK4OUv+NqVKSyZMpm7p17m4mVB+qlT2Xz/FKZf/JQnj35B5YKpLLtD2eHBNT7+p8vET1y1m8umTmbFgqn88YxJalq4dOUq/zjwKb3WctS0S2ZoU8g1Ll28zE+PCvIVocl45Qo7Dv0bX1t8C8u0cq9c5b0Tl+m9cA2YZJP/0j9d5qci+d3qoOdXAC7/G/94ZQpLpkzia2CWw2u7WPto8S00zpgERlOmp/6YzIYHb3YxgartN3My03WfoFtfCdrbrV+91HfmzbxclQk4uatqJi+r//544AK7yfL7BS/1VMgzylF78d0mP2/PLK5pBKC341WPu70MmrJ47OEasu147MzWd5q9wadMu0Y3/Ml7hn9OApTzdeFkrSl5911RfnjcKZ1PcQagrNRxgXL0uYfopZEdroE3/tBMxitq8snTYXcGFiVkRlO8XneS3Faq+hxTvsdqLlTeOhm4xnsnrgLX6D1xFZjEkgXZotK+woqa6TTO/AqXLl7l44vXuMQk7rrjZjZZI9qmTmXz/TcrE9PFq3yspp8+ZTJ/ZA2OMKS9pKW9MonpM25mk+9oxknU10ynccoXuoxMmcySqulsmDmJysXTabzjK7pMl5jEdJH8ADNvztThirkOS6qms3lBoe5i/4rSJleu8Wvj1zm2S+Xi6Yoyc8gra384MpkNNdNpvGMy07mm5nGVjy8CU74irJfW3sbxMn2GQ3t7re8Vtewryn8v6X1zld9c8fC7D/LrYdWM4zb5mTnDvu89RC+Kqc70zD1P8FhFF68MbWbt9075iCQ7xN/1YF5Nazser8Ehtz1KW9vbrG3vYtNz9VkiJHORN5vin83Xy4AhxSyYu7lNgLbzcdpt6JzhwocHaQ9u5niFi7L68Ck29cCKqOI/yj6hH+OVpbfwivq/Oysa+ZagrYxK5cKep2hv78pEajZsZ93DbiZnTTaX3Znexw/x+Nw3aVtfw0wtctTmb9MWGA67fE3p+7JM5MpkKmYAV67ykbYqv3CVj5nMXdmCQ2ZM4Y8vfsoO42pZ2xlYnq1cMIXpXOO99y9ZdmOTmGGKMJvMhvunMJ2rdL3/KYOGtDMWTGfTHT59S1Mmc5c1alNd0d9VNZ27uErXfqMfS12pW+s+dSqbqyYL5dKfuWM6Gy47BCT4YeZk7gK48oVhp5Bju0yZyrIp9me894cTk1hRc7Pikxq4xG4vu9MZU1h28VN27BeNl6msmHrVvDP0Wt/Ll9l9VPn+rjsmcenEp5Y+yPa7d3LcoZ3h6B4lGg3HlXoXm763jMf1zy18e8E3FL9L9B8Epr3ZrPrZP7CjYREMdfFK8Bt8+3tPse9Ddz/FhT2KyevOZUsNE0sNf9qgyJDxi7gzc30Hj1UAPQ/xkqdncpN3fDnDvk1KVKVtAQEoRxJu4dsLlL5ZG3yb2W1v0m0L5jGkD3ZBxXbWZDXNnuGfaWRFQ+ZzJ3BcbavHTf6nzA723Ou3sLa9C7TnKuB4z2Y2LV3GvvPikvS6Ou3OVGauf5futkUcb3+ItWqdN7Uf486GNy1BTbP5k2Wqb3WTdQeeadPxYMaCqdwFXLrwb4bJ8ypDFwEmU+GqTa/yrtVUdPky79qencTXpgB8wa9tJsxrJrOmJs/HA1alARdPXOZj/PqWrtJlPYJw4aoeGPDxgCUow6HuigIQywVX2T2glHHXrfmctZpE5YKb2Vw12SZ3zu0yZRKXbM947w9HdDP1p96UGeA+XiaZdoaFHweFwaNC62KTPvFpE0EXxysaFQe+02NDSni/8gEattN94l2XM1ezWbztXf724Js8ZlEUR4WTmRYMYvdNLX5YNSN6NmEaTI8+nvEn73iSOat1Z5toAQEwl9tNCucYve0PsVYov7a7bmSHa/SjxmxWbfsRTxs+PznxW7qjaiBRe4tAQXXR29PIjoO/5Sfacz/7Ld1eAnfOH+SXmh/VIYketl+xKKNoK+B4z0M8/pw5b32BM7SZtQtu4fHnnuKl55YpizKU5/yZ2nNBCwa5xj9aJqXBE0pgwl0LXEx8VpOYyq8vWye4a/z6CsBkGmumUum4A8gEpwwJX5AvFBOR6lvyhFBGNR+uCU1Odvk1BeAkFxklOWOyjwPIk2l8cCYv6x/VfHflKu+9b1S0ebTLlSvEbc947Q9nzGZqj3geL2MwDgpEDufQypldNo/ba5ZmMQkaD85q4fqbWZsky0FmlAjKbTWselg5YPtKTxeblmI/iKtPYoJAAj1gxVtwiPKMZpbyeTbNq7zjhX7eLduhbUXp6Gz7ERc+fJX24Gab/EpUY8bUmCsz79Ha+Bi//OUZVlnaeEXUHuE4c/1fsqL9IVcTsh4h+bDYVKors4Y36d5mOaqwZ5lqijSeRVN24F/XDqr3qGfjGt6kbRvsXdAFFbm3gyem/if+eApw8bI9KEMPTHAJDjGZxNwZPHqJr9VMZ8mUKTTeP4VlwkAK1XekTvSNOVTJH6IdiggHn5Ylr99cgbs8+59U9HNoX3DpyjV+88m/CYJL8mgXhz7y1h9OuO3w/MtiZ7zHgXdyP4fmC2Uns4Nb2NTjQ1moiuJP5i4T+reUSQzoeYhv9zhlIp44ndAnz1zOpmWR19nnki1oxDuZXYjofFx2Mgqni7/78Ecsvgf9zJ3zTs9nGd9ayZ3txwxRgpoP0SkwQzEh9/Y4+RgFflQTmWMdOwS3t+h9/u5BLqw3LraUcbt4m+WB869mDZwpBJoZjRk38/KDTqkm8cczJ9FrW0X75Rq9hy7w0dTJ1FdN5a4pk1lSNZklVwRnsbjGxxe/cM3LWbF8mRDV3Y1Ctouf/pgorr9xUKiwH08s3vYmK3r8Kwt9wjGFtauTGMphajGKqfO49dCsK8o5o179cHG2819e5NWCDJwm5FyiRe1oykzZRbhfE+Yq/+xy4BhnzpyBe9APUB9v/wbfbhc/0xu8RT3nZb9xwwu3zvUY3i9CO2Nm8qMaUdvXEXOUabZ2K0xEZjbUYBCUw9RiJjF9Cky/YyqVJwozyV28fJXdh5QoSiWUfDKNiyczePQqmV3OFwwdvV4mVcjIJQij1/Gyi8u3/MK3i3t/ZOMrfG0q4GeX5onrdRyMs0IzKQvrTSF+0SIsna6MUlFu2zDsNrxwz4/Y0dCl7ia3F+CkkRJk8MqQw24x64TsgfOv0q6a1Nzawwv6DR+zZwNn3K+ZSnbRO5S53up2D42l3+oyd67+naJEuxx209riRbyDdT3jZyLLgsITmd3en47l1VdaJN3FT9nuMnkp9zsqARKDBT1DcI3Bo5epMEUUqr6dKWNRXj54kEsYmTiO5RegDHt/OKf96MI1ltxRqN27Pf/rcxxMxG379zwhjCY8uscpQvAMR22RjJlrl7KtknM937Z425usAI63v80Zga/En7zqrg11t2gKhlAjB12i87yQzYckkl8UuHLhQ1Ux6hO2cs3U09vEnzXLlJ3V7Bbl/7pf9fyrvLTnkK3Njfmb6quOC1GwiB7JKjws7a7sFLSoVyWwxBq1qJyrwzWgJJP2GwXxJboziRXqGbOPP3FfiQ+qv7sGh3gob8ZMl7WtYVejB6NU3SwMVpgx82ZWjO05BiHuck1mQ1UOQRIFK99vu3jvDyf0SMM7bmGFLa9JrFic318/yKW+Fy8r5snpU8V1y/a7F8Z5hwZaNOEvrfcLnu7ilfYu5byS5aJfACq206ZNgFowiJfwce1Mmp/gEMC4mzw+hD0AwI+8lvw2Le0yXU58nHwnSM0HB798/SnOOSWbW88a7bqr011sau9SIv7KlAuPzyS1W+UXuUevepWq/SHWtmsXAZvzt9c3My5eWXoLv1R3fPoztvZU0c6EZVFGi7e9yYrkQ/T2PMTaHu1y6BHOaJc+W8/enX+Vxze9DWXl6g59hN4epW8L5Ut0RAsGEUbAWdDOpLkFh3jg7gXT2VR1jUsXv1CDIL7C9BmTlAO5Jww3M1y+zE//aTKb7phM4/0zWXblKpfUSMTpMyarofO5yZAXjnJ9hbvUQ8sfD1jPdI1H+bm1i+f+cEQ5qrC5SjlUvuSKdnBZzefKFT7yXUkDudRXDbCZfsctbJ76BZf4Cr/55BK9Fzz+7oEJUGio9wtuZlNP5hLhxQ+/yWP8kF8m1TB/NemdFYuYbfkzNbrJypOJTrmrr9chqs4V3fRo/8mPvMb8uqPzlD9foioy859FyZdjHDf9GRsLFfNYs77GLH/Pscyfj6nw9md6PHHbUtY1vK1GCGoyqfk/XMNMUX1ve5SfHCxV/7yOQfm1/WVGEVs5d8pmvhRTw9M/+wf+dM+PeePdLj1qkYpFrFgmyl+5DUTvJ7Q/rfMEi28b2+uu9IuITWfPnLhK/J+ucVde5qVrfHThKn88c7I6aSrfXbp4ha4TlwXnjC6x4/JU6hcoilS7UumSfmVVDiIUgIsnLvHkhclsUIMojHK9KzyfVvjyC9Mu/vrDkQufsv197fqsyXqE56UrV+kayP8vBfiu7+XLbB+YpByAV5Xzbz7x8bsHSlpaWtINT76QT70kEkkOVHzt95k2bRoAT/x87C49k0iKnR9/Vwmnk3+xWiKRSCRFgVRoEolEIikKpEKTSCQSSVEgFZpEIpFIigKp0CQSiURSFExM2L5EIjGhRWlJJJLckTs0iUQikRQFk0A5DyORSMafzz77bKJFkEiKhkkAN91000TLIZHccHz++efy3ZNICog0OUokEomkKJAKTSKRSCRFgVRoEolEIikKpEKTSCQSSVEgFZpEIpFIigKp0CQSiURSFEiFJpFIJJKiQCo0iUQikRQFUqFJJJLriD6aq0soqW6m77rKS/JlIItCSxGpLqGkRPCprqa5L0XK8dE+Is3VVJueq6a6uc/5GSDVF6G5utpWVnVzhD7HB/toFsloKDeiP2uoU3XEVRY932zpHOvqIHOqz1JHpS2zk6IvUk1JidsLmqLPIkt1dbOh/pbUNlmU9J7EUcvT2rNZJFRfs0u/uNRD1KYmuVzGpuVjlUsZY+Z8Iy4VTvU1U+0jfWHI4937MlPISvnOy888Irke8X7bfiBAQP9PgkQiQbS+jGggTPJIK6WGpKlINWWhhO25RCJBIvoCBzbW0Wp8AJRJvrGeaMJeXiKhlFcfDREIJzlie9goZkDw7UJx4kSIxshy1/zcSRFpbiSUEZpARmgS0QT1w5jbJxWhuixEAggEgywEhqNRovVlDAfjHOmsExSTom9nIy9EEyTc6kMfzdVqGwaCBBcCw8NEE1ESZVFG4mnM2fexs6yeKAFdFoajRBNR6suGCSeP2PvJVuROtK52IxAIstAmdjllwjybqa6PKm2k1QMYHh7mFKBVYV5D5jcRw9EoCQKUGwrJjM0AgeBCFjLMcDRKqD5Kj2Bs9TVXU680KEGlQfX09vYcI3y8e196SuvoPJKmc4Lz8jWPSK4fWlpa0s4k0+EAaQim47af4upvpAPhZOb7eDANpAmE0/Gk7aF0Miz4PhlOB1DzCsbTtsfS6XQybkgTtqaIp4NqmaJniQ5pmwAACyVJREFUhXUKBNT8Amlbdp7yTWbqHxTVNa20UdD4rJqfrUwtL7ss8aBSBgTSwXBYfV7QH+m02o6C+ujta30ung6H7e2dNPShe3tm2gBIBwVCJcMBx9/EWRpkzd6Zzqh1MI+VeKb9jF8n4+J2dWoHp/Q++eyzz1x+zeHdk+SJn3lEcj2Su0JLpzOTj2EA+J7AjIoh28uZdFIIOSg0gumwKiuOwjrnqykaXxOKcJI1/2aVJR5UlXzSII9jf8QdlYAir5vyNqX2NGErfR1IB4POfa6l8dpM/uR0lEw8bl3a3z5unRcZ2fLySs4KTRHY9u5J8kUqtC87+QWFlC6nIQAkRkiqXyVHPNifjGgmq0CYrmz2rdI6OuNBIEFoZ/5u3nmtXYQDQLRe7P9xIhXhhSjeZDbQ93YUCNCwXPBM3UqCAMOnTKb/us40RzrrKPVSTGkdda7pEowk3X63EHAwCQLQx85QAoJb2FjunIWv8aC1a3BLdlOnG+qYCoQ3krtFMMlIAgg0IOouyspRhr6fBi0ggncPUMzTEYvPr6SaZkcnqt1X6ehzFaVtjpDS/X0Wn6jqP612KLuvWeSXcvBbpyJKuc19KL7kZoMc1TRHRL55jz7wXLDK01xt98v76Yuc6qc/LCxHGK+g9qGnuAY/YyMHGWz5FsAvnedfrNZe+szEV7cyCNEo0RcibKzLbt9XJnkIbvHoC6hbSZAo0ejb9HXW5TFhAZTS2hWmpyxEtL6ZlelOT/n17VR8YJ5lBiDFqWGAhcwTPlRGuWGCGhu/iNmf5EjqFIqo8xzl6GuuJ0qQeGcdRF4oiHSpAz1Ku67Mp1dTRBStyBarVjQpIfNviuL12D4ApfNYCCSGT5GibgL8WPZ3D1JEGsvUBWKQYFD5dng4SjRURnQkTtro9LP4c5Xkw0SjURYmO7E4xvW0un+WYYajIcqGexB5nMaGU0Sq6wkRIBgMqj7QBNFQvb1+40Rfcxn1Ueu3PvtCx2/9jH5zzc8LMMzwsNHjjNB/z3CUaLSesuGwq6/fdWz4kUHoH1fyTTj4sX2Rl8lRaCYz+FUCwXTY1RGSxazj+ZncTI6a1ElH06Mo3yxt4kh2GbOb23L03Xg2TyUzvsqASxlqv2vN5WZmzvgAM5+Aw7gw1j8ZDuo+U9z8lA6yOZkCNVkDuu8wmY7r35kca+5j09Ev6Z28TI5O756wncR5OY+3pGri1lM6mPqNefsz8TqX7/CeuPnZXXzE/kyIPtLr71QgHRD6e/31RW71y7R9MOvL4eA/ThvfCYO33/PY8CGDq39ck8+Pu8pOjgotmY7rE47ohUum46pfxV2x5TZBa5NkpuKZxhB+hArXWKaxUwTyBQSBHb7t7BOl0JzqZs3TGHwiDsxxqoezQkumw8FgOmj4mJSUUIEE00HNP6k9F8jI5r7w8bbY0BcwJoUpGMVaOlufuUziPshNoWV79xxyc/QRZs9DNOFZEojlGROFJpbXPie45OWIj3nEoID8TsDC9yWX+jn43T2XmcnI0k4+Fu0+ZBD3UW55OeHR5BilvsS2p4ZAkHCXyExXSl3nEdIb+4jsfIGQGuYcCgSJd3Vm8fPkhzjcNhsG06NHU+mXgxSR6jLVn5R0CDEvo1w3KahHCEL1RHtEfZUiUq2aGj2Fi5fS2mkJmu7sJNUXobE+RCLUSGS59WhAlGg0SDxpLLuTjWq4fWhnH61OZqXUAXoUm6Wj6VgP2w8ECGrnCFSzSzXmYxOlrV2Ee8oIJUKUlYRUM80w0WhCMSMFokSdjh4UDL/vHkCKvr4DnHp7hJHhYYZJkLC5MkuZtxBIRKmvLife1er4XmrmWKHvF1R/XkhQxhjg4NctU+z1hSvG6zwSCLPR1crppS+M+Xmvn+aTD7sLAKQ4oLwYiK35VneH97HhRwbF5eIkA4VxJ3nboalb60AgHQgE08FgOIsp0ZpNPB3Wd2yindHEmhz1X2wr0S+xyVFf8QU8mCMsj8bFq0WnVZ7/yFZRW3vdSTrXPVv7GU3L9pMNTrsQxdpgNn/G08kCRMR526H5efcslhGU55TdsaiPzMcuxKZgL+Pdf1Sp8nMOOzSHQSYeg+NgcnQc9D77wnf9/MxDWXae+kdstcpvbFhkcG3bXOfWDB53aEHiR7wFTAgpraO1s47l5dWUhaLUN69UnZvaSkCNvvO0LVKd4Y7BFblT2rqFYKieqHDnoKdSZR7mVAr/u03HoI9sQSPeyexCwq6rKydK61rpCvdQForydl8ndXVAXzNloYTLTs9nGcsbCIQShgANrV2dAjPqUOKNnNq9D2Wx6BCVaFilxjvtQRx63/ccINVq3H0q1oY66+ncVCRr4Exh8P7upSKNyiHwYJykpY6pSDX2fV4prUfSLE/1sbPxBeUAvmZJyed9l+TQF+OBMWBDhHF3+OUcG+N6l2Np6xZbaHrdSsXYFX3BY2ht39vKYHAxK+WO4VhAo7M82vbf39EBdVuPMiHbEUWt+UdTZoFgnOQR/8pMo3SeMvCHT6XIRA5CIlRmuxJIuxUmWl/iGqadDaVdc0QdF4GG5Q4KRlsIOZZuMrtkozARmYXEXWG7HZ8oLa2j88gR0ukk8WBAMTXZzrE4jVuJndz7wj9e+kWbexaysrOTTseP3Y1QuLHh5f3Kfw6c+MuJ6zYqZ8ESIRqzTYSpCNX1Xm22ucrTiaLTQjRGTgmT6Io5Wu/xDkaAUpYrB4foOSB4JuuE7IFUhMaQsio8IniRfGWlbBdZqG4X5zUECQYdPqoeCgSU/zfM85C/qhAChu2YokQd2kfbgTnsYF3P+JnIsqDwRDafxETgNhlou/9slFLXqY3tt9UzZZlx63jkTvNdOiA+q6f1ZzFSiL7IRpb5xJJWWZ9GeTvn47vuY6MgMmiblXysHnmF7QuIh50iGp3Co9Mer77KRMgV5Oor1zplwpQDAYd8TfI4RAUm4+mg8Oora9iqV9+Yezq/t2zEw+LrpZx8aE44+tCSYWHEpHP+zj5V90g7b+2nHyGwjbGk6Td3ktmjtTySV9i+Y3rntjPLnEwn3SKPjWPe4I+1uxiN/hmHsPksV7oVnw/Nb19kyy9L/QiI/VtBUR86vfPBdDiXsVEwGdyOhnin8ArNeO5Id2YbQ/gdBksybAjPdng224RWMIWWzoSQuuUbN4ehG2UOOD1ryDdgCWXPPkG6TdyZlyhgCZU3fQwKRu8r3VkdVBS4z4HlptC0iTAgyF88FxgWNwHLMy5jx91BrxE3jbGA6qDP9JXgbFDA2J6BLOPQH4VVaGnD2LK2d+aaN9HVXsb6BRz6xjgRa/2it0cwnDXQyiZTIJwOF3NQiK++yLV+afMcFLD0o6Ue4j4UzT/+xkb+Mjgo+RwouELTIhoDRuUESoRPPOnhYG/QpsQURWGYaG3qfQwUWto44btH5sTDQVt9CTif50rGrcrb60W8XhRalo9p5a32lbWtHXbJji3gcg7NGiGovCRxy+FM62PxdDBgjhBzPRvn615FQX859ZVNDuUljLsK752CK7S02ZKhKG3lcK+oj5K2cRtwPcBuH7daBK27rKJD8sl0sUc5+uuLnBWaUpDtPQ44zClKH9rHtHVO9Ts2/Mjg/F455O2DkpaWlvSuXbu4/knR16xGDgGBYJyuPP1EEslE8vnnn3PTTTdNtBgFQDvvGCTu8fo4iWQsmPigEM8o4dPJeFC5jy9aT5mvP0QpkUgkkmImz8uJx5/Suk6OpAvy5/8kEolEUkR8iXZoEolEIpE4IxWaRCKRSIqCL53JUSKRXG8o1yS1TrQYkhseuUOTSCQSSVHw/wOPb5vUN5hnOgAAAABJRU5ErkJggg==;" vertex="1" parent="1">
          <mxGeometry x="660" y="100" width="436" height="180" as="geometry" />
        </mxCell>
        <mxCell id="ODbVOPba3RWWneBiBJT6-9" value="" style="shape=image;verticalLabelPosition=bottom;labelBackgroundColor=default;verticalAlign=top;aspect=fixed;imageAspect=0;image=data:image/png,iVBORw0KGgoAAAANSUhEUgAABFgAAAGGCAYAAABPDzVdAAAgAElEQVR4nOzdfXAU150v/K9ifJ/kiZ9AnDje2KwRQkKLls1a6HrsGtUuN5gBIzCxU6BHmwiYfVaMLDvxTK0Xs1NARb42pWDWtTPONYoGXBljJVcFVHBsMwoWJsXdi8oZl6zcDRGLZxiEYzvxzdpX5Do3b7bn+aO756Wn3053z4vQ91M1ZaPpl9Onz69PnzPd59TNzMxkQUREREREREREts0DgHA4jIGBgWqnhYgEMXaJahfjk+YClnOi6guHw/jcl/9ztZNBRAA+Vu0EEBERERERERHNduxgISIiIiIiIiJyiB0sREREREREREQOsYOFiIiIiIiIiMghdrAQERERERERETnEDhYiIiIiIiIiIofmVTsBREREc91vP8jiyE9nMP7G+3jr138EANz8qWvhveU6dP7FAnxiXl2VU0hEREREZtjBQkREVEU/+cVv8fi//E+88/4fi/6efvf3SL/7e5xM/RoP/9XncOvnP1GlFBIRERGRFexgISIiqpKf/OK3+Icfvo1sNpv72+c+eS3mfQx4+39LHS7vvP9H/MMP38Y/3XUTO1lo1lnwnUsAgJm/XQwA+Ol7f8Bf/eCt3Pf/8qWb8RfX/4fcctfU1eHj1wC/+SCbW4eInHnk3JsAgG8sXwgA+OXv/oih9Du573sbb8SffPza3HJ1qMO1HwP+8FE2tw4RWWOpg+VPDk/jdx9mcf3Hr0Hmb24BkK8w6+rq8L/89bll67/3BmZ+/yE+fk0dfrm1XmNrRFQpjF2i2vXbD7J4/F/+Z1HnCgCkfw28/g9fwH/854nc37JZadmnv3wLXxeiWWPBdy7hbxqvw39Nv5/721/94C1c/uoizP8PH8t1tsz87eJcZ8oHH2Xxfz7I4pbvXq5WsomuKo+cexN/+elP4n/8r9/k/jaUfgc7l92Ej1/zsVxnyzeWL8x1pnyUzeKPH2XxzfNvVyvZRLOWaQeL0kADgPd+9yEWfOdS0S8K2Ww29zel4QYAv/swW7IsEZVa8Mw08FHWeKGP1WFmW73Qdhm7RM6VKz4B4MhPZ0peCzLyzvt/xJGfzmBb66eF90VkpFzl/F83/yluuW5eUQdLYd1yy3Wlt6FZALd89zLrIJpzyhWHwebPY8G11xR1sBQ+lbLg2ms01/vm+bf59ArNWY9MvWUpHr/RcnPpn802rjTQtCq6wl8ctP7OypHI3My2euBjBr9I22y8MXaJnCtXfALA2cvvmy+kMv6G+DpEZspVzrU6UAot+u5l/GNBh+GC71xC88jPMXD7Z4T3RTTblSsO9TpQFPvOv42Vn/tU7t+PnHsT//Rvv8Tazy8Q3hfR1eIbLTebxqNW5wpgcZpmpbGlbnR94dib+MKxNy0mk4j06FaqDhpvAGOXyA3lik9ljBURygxDRG4rVznXcuUPH2HBdy7hvpZP4R9vzTfiZv52MTJfuQXhH7+Lf/zxu67uk2g2qGQc/u7Dj/DIuTdx+2euw38q6GD5xvKFeHjZ53HyFzP44S9mXN0n0Wyi28li0LkCWOxgWfCdS7lPoX/dtBCQ3x0v/E5Z9s9G3rCy+QrLYHDNAixYEMJY0d/HEFqzAAvWqP9eQzJjGAytwYIFC7BgwQKsGcygttM9htCCBViwZhCZaidlFiipVF2oTBm7ZJ1e/hJQnvhU+/i8j+HXH16L/xH8cyz+znlM1F1T8vnvH9ThC0d/bmPrPL/i5t41pxLl/Kfv/QGLvnsZ373zRnxT50mVmb9djG9P/drV/c5OV29Zs45xWI44/OXv/oh959/G/3vLZ3CXzpMq31i+ED9+l09NUqGX8WLwBjwSfAipaielQko6WUw6VwCLHSyA9msGC75zCW+8/0Hu39nQrciGbs39+5e//dDq5quv5nsAxhBasRnheBIevx9+vx8twCxIN4nIVaouVqaMXSJ3uB2fN3/qWgDA/3VNHX794bX4719vxev/8AX8ZfRnmL7y+9xy6vgsjF2qgqv8mlOOeqjQX/3gLfzLl27G+lv+79zflCdaFD997w+u73dWusrLmiNXed6UOw6H0u+gt/FG/Nmn8jPTKU+0KH75Oz4xSSpzdMzjXCeLhc4VwOIsQkoD7b+u/hP8zalfai6TDd2KushPSv5/1mjwIfLSDCLVToeesROIA/AMvIaX+hoKvmio7XSTMDcrUsYuVc3YIEL7w8COGUR8Nr6vUW7Gp/eW6/CZT/4HPLJ2MT573bXY/MzPcOm93+FT1wCA9M58TcbnLD13rpkD1xy3yvk//vjd3JMoC75zCf/yJenGtHCaZkCqq/6m8bqiThZl2aueUTwZlTXGIePQoh/+Yib3JMoj595Eb+ONAFA0TTMgPbHyl5/+ZFEni7IsEQDgpjuxIforbHCyjeQQXvzubuCrv8IGj1sJKz8rHSsK0w6Wwl+/1/3pJ0rGdFC/ekDlkUlPAQBaGhtMliSSMHapmjLp44gnAb/N7+eCzr9YgJ0nf4GvHU8h/e+/rXZyLOO5I6u+eftnSl4D0htEffCvbkC49dMYe/P/4O/+7FOay1yN7MYT45CsuuvzC0peA9KbHeiemz+N//S5TyH9v3+L/3j9dZVIHs0x7735A0xMAW3VTkgZWXqCxYq6yE9yjzDXxC9sRGQJY5eoOj4xrw7/34pP4x9+qP/MLeOT5pJbrps3pzpXiGrRgmuvYecKkQOWx2CxQuzmL4OxwRDWrFmQG7R1wYI1WBMaK32tUh7cdc2C/LJr1oQwOGbwAqbWOiGjwVbNBmQVT6/pchZkBqXtrAgnAQDxzco2lUG9DNKtl2+aCbF4fBnt5ULaGzU5OPfyiZxh7Bbv270yWZy2zJgqHXp5kRmUjj80JqVfSZP6GCuSv4L7GgvpXLMWIDRm4XunxzfL3Pr5T+Cf7roJN153re4yQvFp5/xava5bPXdu1hNWjq8ccWTnmqPe32CoYJtrEBo0uJawPhSje850BkSVy+4anTI4FpLyvORrkbIsev4txZNGWWMcKhnBOKyal/Gi7wY8EhzCewDeSz6Ep4M34BGf/Ak+hFeSGrn29hCe9t2ARyIvA8ggFemQl5e2k1/uZbyifOe7AY/4OvB05OXiZZQ0GHye/n5GYLnS/T9duIzeMYl4O4PU91V55evAi+r9F9FepzQ/dNIdGcJ7yOCV4A14xKcamDb5kPbxy1IRaV+vFP0GVHzuTfcffCi/vry/bw2+CgCY2JVf7sWkxW05PQcV4toTLACKBuEzNobQms2IJwF4PPD7W+S/T2FqKg2g4GXSsRDWbI5DWtQPadEpxONxJDfHcbxkTBJIF9cVYSQBoGCdqXgYK6Yu2HicUiC9Bfv2KAPRTsURj2/GiqkBvPZSH4Re8mm8V9rfVBzxpJQHLS0A0IwlRuup0uGX0xuPx9FyMYLiRFg9vgwG71uBsLRR+P3yUlNxxMMrEL9wFDNWXwR2O5/IEcYuyl4mLw6uweawPEh1QV6E9fJCOYLQCmyOa35RufwV2deSZvj9fo1rFtC8BADMvndwfLPUrZ//BJ7+8i048tMZnL38vjR9c8E4tpbj09b5Fbium55bwe2JclAmdOPI9WsOAKQxuGYzwvDIA9JPYSqeRDy8Wfv4WR+KMTxnx+HeK/12y7LF828pnjQwDi1iHFbCu9/vwPcGX8XC9VvRthgAzmPixGGc3HUYP+v7Mf7uy9q5lorcju+d0Pji7SE8vW033gSwcP1W3AgAlw5j4kQXvnXpMXw92ovrAQCL8dn1WzVeMzmPiROvAtiKv5b3bXU5AEDyITy967C0/5biY3rT5JiMZfDKvttxcgpAy1a0rZf++s6lw5gYvB0Tb4zgG6E7Veu8jBeDXZiYAtByG9rWL8ul/Z1LaQAFyxfkGwrS/c6J3fjWpR9A+4UwF6nOW5uczokTh3Hjm08ANwFYuBRt67dK53NKyt8b5TdGP1uYwLKdg8px3MFyy3XzcjMaqH9lu+U6rc1nMCg3ePxHX0PEZ5BBmUH5Iu7H0dciKFw0EhlDaMFmxMMrEGosHOBrDKEVYSThwcBrL6HoGh/JYHCNXOFYJpDe3L7V6Y3gwcE1WBEO477BtUKNggZfHyI+IDM4hXgyiZYdEUuDmY09qZ0HkUgGmeKufoHjA9AygKPf7kPxYg9K+Ro/gbGID+bJcz+fSBxjt1CZy2QyjM1JP46+9lJxXjwo39CF78PgWtUxA8DUfuxPluZhRfNXdF8NfYhEjK5ZZt/bPb7Z7RPz6rCt9dPY1vppAMAXjv5cMD4dxI/V67rpuRXcnggnZUIvjly/5sjiYRz3H8VrEV++QabEesnxsz4UU6ZzpsdOWbZ6/q3Gkxrj0BrGYflN7cb3prbiK88k0HRT/s8bOuXG9uDX8ModCdxxk2q9S0/gv01txVeeeaJoPeBlvLhtN96E+rsn4P1+B741uBvHv++TG9cNuCP0REmSUpEbMAGgbe8TaAIEloPUSbDrsMb+gQ2hl/GirwsTg7fjxYU2B2dd/Bi+srNXdcwP4JXg7Th5IoFU6M58WpDBK3LnStveH2ODx6jsKfl2G9Y+o8rvUEba/pSN9ApIHdHe/4ZQBu8pT7Dc1IsNIeC975/HxNSruPGrT5TmY7nPQYU4fkXoXzf/KWb+drHm5183/2npCmNPShdK/1HTxrzUSQD4j6ovxgDgQ+SoHwAQP5F/JjIzuF+ebefbpY0VNKDvpaNiPeEC6VX2rZXehr4d8ANIHj9ZgUcNM5DGxG1B6Zi4DWgo/JvA8QEN6IuoK2vp72vv9QCI44T6EX+t1NVMPs1tjN288pdJDwZKbioBNPTh2wMeAEkcP6mx9WQSLRppqmT+2tmXU9XYZ60RjU/78ePOdb1825M4KhM6ceT6NSfHjx2FjToAaOjDDj+gPn7Wh2JMz9m3B1x8gsVuWbZ+/suHccg4rITbsLakkwTATb24t+82AK/iZ69o5NrUq7hxb+l6733/iXynh+q767/8ENoAvHlmrPTVFEXyIempmPUjxo1vneWkTgLt/QN3YsPerQCAifGXDTaupwF3hNSdK9Lfl668DcBhXCjsSEw+JXWKrB8x6VzJ59vCvv9S2pmFBtyx87EyP8GSwbuXAGAZPqOx/+tL/qavvOegclwdg8WKsRNxAB4MPGjWb650EvixXm9R33rpohs/kXvX9uKFJAAP7l2rVxiXoFmg9hVJ78njSYP0yvtNXsBF67u3qQGNLQAQx+Y1gzAarsD68RXKYGxsEIOhEEJr1mDNmvy7wFbWrZ18IhGMXQdl0nMv9A6rYe29kDavsXXPAEqTX8n8tbcvZ6qxz9nPefw4ua6Xe3sOy4RmHLl/zcnvT/sV3iUlG2N9KMr0nDWsxb2u/6opWJYtn/9KYByWbI1x6J6WL2GpTuP5+ju+hIUA3nxDY8bKlsfg1bjfeP2M9MqO9vlejM+2AJh6He9q7vFlvLjrMICt+ErJqzZWllM6CfT2D8DTIb36ciJRPJaJkAxSySG8EnkILwY78HQwPyZJodT4YQC3YW2n0bFI3n3jVQC34c/v0Imhm3z48xbtr9zRgM8sBoDD+F5wCCn9cftNVOoclJ+rY7CYM3qyQu2i1JOnc4GUKBc9O9u3wkZ6EcfmBXE3du6IL/IaBqZWIJwMY/OKMDweP+7d8SD6it8zEMyvDMZC92FzXMlwDzweoKXFj5aWKcTjVirt2sonsoqxWzYNjWgBkJxKIwPVr20tjRrvfFcyf+3sy6lq7HO2cxI/blzXy7k9wHGZ0Iwjt685ZvvTwvpQTBnPmc7+bJVly+e/nBiHjMMqu6kRNwJ481Ia7+FOedwU2eLG4n8DAC7h36cA4DC+5zssvLtUpKv0lR+h5eT9tyzFZzTXBPKdPMLJgzSo79fwvRNKZ8ptWNgC3Lh4K25crIwHk19W/4mQ0u1aX7Z8mkI/xtpLt+Pk1G58b9tuLGzZij//6gO4w+Tpm2LlPgeVU+EOlrmgcCBNLSaD07qmAX0vzWBtZgxP3rcf8aQ0+FjY48fRlyLi790CyAzKlbX6nVYAmcE1iAttrVbyiUhRpTKZSUv1RE3clNNc4+513f3tzQ2sD2vRbC7Lsznt1cM4dNXbabwD6HSmGCkczFWLRuPb4atBlfDe9+XOlfUj+HqouMPpve93YKKyySmDBtwR/RWWvv0yxvc9gYkpaUDaky1b8ZWocafX1ahKHSxTSGeg8f5moeJH8rQX1etNt7J9ESLpbcH6iL0OjHJoaPAh8pIPkdyvGXFsDq1XjZ5u5fjyj1AeVb/TCuURTytqM5/IKsau6y5eEHwQo5L562RfdlVjn1cL0fPr1nW9XNtTlLNMuH3NEcH60J5KnLNyleVKYByKYRyWxZuvSzPaWKY8mbAMzSGRBrnTV4PU+5deQdLuFLLyhIWW/OtPX1F1rgDKKz5azuPdt6ExFonTZcvn+pvuxIbondiQe2LnML4X6dCYIUlLOc9BZVV4DBZlcC2dAR1VyyrjiOgOxDV2QuqFz/3yq6xjsP3MSRy3XLe4nN6qaoAvskP1bqzI8RlVmsojntbSUdv5RNoYu44kj0MvGdJYMYBf96V2tUrmr519OVWNfc52ds+vW9f1cm1PUY4y4fY1xw7Wh2Ly13WtIasAmJ4zzbGuMAb5MlygXGW5EhiHYhiHtk39AK/rjLchjSECtHmtNKyBwnE8RPoAnb8aJLD/ZEJ60kT4qRyjTgHlFZ/itEgD3+oMEqyz7L/r9Wi9PYafGcS95jg5eBkXtKbRtqwBTaGHBMdLKec5qKyKD3KbG407fB8GS0ZfzWAwNJgbpdv3oDQafHxzSGOg1jGENsehHsRSWScZvg+DJZtXpmGrRnqBzFgIgxW5eGeQMRrZtqDStX58Sg9/aUMxM3if0BR6tZNPJIKxK7DzEkmE78vvr3C7UlZoD/6np5L5a2dfANAg3bFiKq19LTL63u4+5zJ759fedV3/3LlXT6iVo0y4fc2xg/WhGGVQ8PjmNWLnLDf46v6S9cZCmzVemSlfWVYzu1aKr8c4FMU4tOtVnNw3VDKrz3vKqziag9nqa+qUZruZ2PWQ5kCp7yUfwiuFhcHlV4OM9688AWNt4NliypMZpR1S733/a5pTKOdmTRr8Gl5Jlt7DvhLJ57syoPDErg68ok7328oUzhpyA8Y+UbKe0iFlTQbvlaSxgKpj6fqF0itg77xZuk75zkFlVeEVIWkat6nNcYQ3r0DY44f0yuMUpuJJJD0DWKss2tCHbw8cx4pwHJtXxOHx+NEiL6sM0OU/+lLxtG65dZIIr1iA46p1PP4BDEyFBSoYN9ILTMXjuantKuHk/hUIb/bA42+BXAVL6YUH/h19Bb8sWD2+BvTt8CO8OY7wijU4Lm93aiqOZNKPgQEgbDVTayifSARj1zaPH36EsWLB8XxMTsUhZYUHA9/uE3sSo5L5a2dfALCkOXfTvOZCC1owheb1L6HPZ+F7u/ucy2ydX5vXdd1z52I9oXt8LpYJ1685NrA+FGNyzqB7znx4cMCDeDhZWjYxgAF/GOF40Y7KV5bVzK6VwusxDoUxDu1p2Yo27Ma3fD/AwvXLcCMAXDqMiSkAuA1rd/aKPWVwUy/u7fsBvjV4GN/bdhgLW7bixsXSV++cOJybvleSb2wvRAIvRhIlm/us9wHc4blkcbkGg/3nB6Ft25vQmArZTAPu+OpWnNx1GCe3deBncl69c+kw3pzairV9wMmSmYSkKYnf2XUYJ3fdjpMtW9Emp+WdE6/izZbHsLQk317FyW034GfqdK9/DGsv7dboyLkT3r7bMDH4amm68BjWrt+NkxafYnn9u7fj5K7b8uVASSduQ9tXVeVg4VJphqnBr+HpN5bhRpzHZ70J3OFBGc9BZVVnDBZfBC+9th6DT+7H8bjSyAA8Hj+OqhoaDX0vYWbtGELKQK0Fy+74dul89co6rzUO4sn94fw6Hg/8R19DxAcMrgmXNb3Svo+XpHdgx4PmFaYrGrD2Xj+OI45kPCn3/Hvg8Q/g6IN9pXlm9fh8Ebx2FLhvc367Hv8Ajn67D0tOroFIrtZGPpEwxq5NzXjwpdewPnQf9sfj8q+lHnj892KHVkxaUMn8tbMvNPThpaMXsCZ3vfBgYL31723tc46zdX7tXNeNzp2L9YTW8bldJly/5tjA+lCMk+vYawjhvnBx2Xwt0oeLIZdiw94BGV8r7azHOHSQBsahdUvhjf4YzZGv4b+dOCw/8XAbFq7/Ev66s9fWeCDXfzmBry8cwvh3fyANlCp3Cixs2Yq1X31AaoSj8AmLV/HmiVc1n9BYeMsD+My4teWU7V7/5QS+ccfLeFEZqLVg/3+98wn7Y5x4nsDX9wLHdx3OpWPh+sfwlZ29+MwrHTips87fPdOBV448gZ+dUDqupLR8RdV5lc+33fl0t9yGtr0/xgYP8Epwt2ayrv9yAl/HQzg+WJyur4d68W5Ee51SDVi6cit+hsMFeXybdHxa5eCmXvzd3tfxdC4vbsNab3GaynIOKqhuZmYmGw6HMTAwUO20EJEgxm6tG0NowWbEPQN47SXBp1Ro1mN80lxQW+U8g8E1KxBO+nF0hgOW0twRDofxuS//5wrt7WW86OvCRMtj+HpU8CkVqoIMXgnejpNTW/GVsbk3o081cJrmqsggM3YRemO05Szx8VdaoprC2CVyB2OJqPoYh0T2ZPBe8hLeNVts4Z2z4okLchc7WKriIp7crDWoWjHPwGvwcZABohrC2CVyB2OJqPoYh0T2XML4LvOBYBf2/RhNX2bszDXsYKkKHyIzM+BwWUSzDWOXyB2MJaLqYxwS2XMnNoz9ChuqnQyqSRWfppmIiIiIiIiI6GrDJ1iIiMqGvw4SEVVOA/pemkFftZNBdFXj0xuzSwPuiP4Kd1Q7GXMIn2AhIiIiIiIiInKIHSxERERERERERA6xg4WIiIiIiIiIyCF2sBAREREREREROcQOFiIiIiIiIiIih+r6+vqy1U4EEREREREREdFsVjczM5MNh8P4+93frHZaiEjQDZ/M4le/qat2MohIA+OT5gKWc6LqYxwS1Q6+IkRERERERERE5BA7WIiIiIiIiIiIHGIHCxERERERERGRQ+xgISIiIiIiIiJyiB0sREREREREREQOsYOFiIiIiIiIiMghdrAQERERERERETnEDhYiIiIiIiIiIofYwUJERERERERE5FCZOljGsOfm+WjS+HRuDOLMdPHSZ3bK3x3MmG/6dFDa1s4x+Q8ZxDdq7yu3T6PtTmdw5mAQneptbPShc+cBxE/n17180Ge4H6v7VI43fwwmpsewZ2Phvn3Yc9pCXiGDMwd9aLo5iDNGy+z0oVN1juLT2ktfLkmL9jk1SpNyvvac1vhaOb+aH4PjmB5DXHUcTUXpMi8nykedrsunD2DPxuLtxg3y//JpVXkyWb62KPlkVGbKGbM+qfydzuCyaRp11t85ZrBu8XZM48NOeRSNV9vxTTTbiNU3AATjQ3T7NtJjhUia7dZ5LqbBeb1ORE4xDolsMG3/KZzW9ybtV5V5IsfQdKS4ck51Npiv1OZBq/L/E0lMTsTR0z6FXWfH4K+X/rxyrR8YjmPyhR/i8vb7schgc2dOxgEAXWt9xvsq0KyzrcsHfVjdn5T/5UFrW/67yYmk9Bm+gMVvRbESANBStIyynNa+9faJ6QN4alj+/+EXcWafT962/vKd7WFMAmjt9qMZwIXhOEa2tOJC9zEc2aeRD9MZnBnsxVPDSUzK6dY2hj0bN2FkAkCbH13LAJyfwshEHJPtcVx89goeXVW8/KH2TRiBJ5cWnI9jROOc6jodxd4Jk2UAtLb50bxM/ddmaG7+dBCdW+JSHinHAeDC+SlcAnL5u/ju/HdaLgzHMQkPlhQU63wZ8aC1uwXNmMKF4Tj2bokj0T+JI9uLY+DMTh96hqXlu7pbgILlS/OzcmzFroGyxawSd1vi2AuPeZlSrS/F7CasHjZY13J85Fkuj6Lxaie+iWYl0foGgvEhXp8Jp8cKmzEtVOe5mgYX6nUicohxSCTMYvvPlfreYvtVodnBks0CHyBb9Ldr6+pyjTJ1Y02fH4eejxZ1ICgN1r0PHsAXn5cbZquC2NUWx96J4/jR9P0GF5ExnBqWtru6JCNK96UvgzM7W9EzDKDNj0NPRrFSa5/TY4gPpnL/XLQ9iiPbi7cT39iKvRPW93157LhcEDyYnIjjqYNBrNyu19gdw572MCbVDc19QWm/w48j3ucryq8zO+dLxwUPuvoH0NwfxoheYqZTuDBR2hB9VL45G9kSxOq3io9rSf8xnNruK2hQR9FzOojVW+LF51RTBvFIXPdbALh8cQoA0ByKWru5nT4gB5cfh87qnEcAQANWbjc4R6eDaBoGWvuHCvJiDIf6k4B6231j2NO+CSP9UZwp3ObpoNS50jaAU4X5oCyvkZ9ucy92TZQ1ZjM4s7MXPcNJ7G2fb3Dh01q/YN3BMfhVjRmh+IBoeRSNV/H4Jpq1hOsbwfgQ3b6N+s+ceEwL13llSIOzep2I3MA4JBJguf0HF+p78/armuYrQkuPZtBy9FLRR9F0JOPo1+9F2x9GFwBMXMB07q8N+OLdHgBJJMYMXr04+DhGALT2Bx01Ui8f7JUaWd3HcOp5g5NS74N/3/0uNogz+NELUoP9gSfvRSsgPQGgt/jpF+XjHVI1shrgD/kBSI1ItdbuYzh1dgyPbm8ySU8THtDqFa+/Hw90A8AULk0XfuGDv+jiL1m0aoPGOS11+WAv9k540NXtMUlX8VMkRs4MKjeSJsFlSAkcPx4o7OzK5X+weNv1PvT0ewDEceq0ehse7HpSVQnW+/Dos34AcTxl5ZUaB8oZu8XKGbMNWLlvDKee9QMARraIPCbfgJX75GvM8Iua61mPD4XF8igarzbjm2h2EqxvhONDtD4TXd4C2zFtvc5zPw3O6nUicgPjkEiEWF7UbOMAACAASURBVPvPWX1vvf2apzsGS6qzoejz8/c/cKmBtgRL2gC0FT/6ushn1uGgdE540OFzkIbpA9jRLz9lsK/0YlZWyuNF3Ruwsv4udLQBmDiOH01rLy69WqFzvMpF93yqKL9W7ruCI/t8WFRvIT31PpNCmcRFkf6ANqPHmeWnQbofRk+j/iam00n9L0sWll+36n7Y2a/88nlx1nF3ERcnALTdiy9qpaWhWSrf6Yu292BV+WK3WLljdtGqKA51A8UdWVbI1xgNQvEBsfIoGq924pto1hKsb4TjQ7Q+c7v+g72YFqrzypQGQ4b1OhFVBOOQKE+0/eeovrfWflWzNMjtz9//AKsSbxQ10Gw31qZ/iMQEgGVNql/5TToclPX0GrAWKa/odIUq/6idcuOzq88H81+0Mrh0HgBasLhea2tyI7KsvdoWf1WbTuECUHpOC5zZuQkj8OOQi2NK5M6l1tgeluk8vQIYdopIN8UCvzrWN8nv1Fa2wexq7KpVIGZXrvUDAEZOijzJoXR2VfKGRDReayG+iWpJ4fW0HPEh+pSI6PK1ENMupsFCvU5EZcY4JCrhTvuvkH59b7f9atrBom6gORnD4fJpeeC1Nq2EGr9ykBu75O67HFxk8r+ou/Y4rmXyWBSFjU3l1yTNVxnMGokNWLwMsPUYsxmlZ9C0YZwxOaey00H0DANdz1p9n10ae6NolGeN2Q8KOzkuHwwWjwy984C1kdeNnl6pvx/7+z3A8CZ0HlRmppFmnukpGa9FuXHV62yQK8kKNpjdjF1tFYhZ4V9cM4hv3IQRuNmJaqU8isZrFeObqJZo1jcuxofl+szm8jlO0mytzitvGhQW63UiKiPGIZEeV9p/gHl9L9x+zTOcRWjmDx+V/PotJo6em+PFf1IPAFpgke9etPYnNWYmsfKqgca+AEBzJhK9X3fKJzcWRVFj04fV3cDIcBynTkexskozzBTLIP5g2OApnzHsuXlTwcCgHnT1H8N+jXdHc8tviQNtA+gxPb4MLsGPru78Xy4MxzE5Ecdkyaw9+V/qLg7Ox95habYEqTEex8hwGD3Dx01GXjd4ekW2aPsYTsGH1f2bsLo///fW7mOqGYSkzoa9E0mNwcjyeVopzmPXGmcx61QcPRunCmYRSmJyAgA86Hp2yIUBI0XKIxGJM6tvKr39cqendH+1cY0RrdeJyH2MQyJzbrT/pO2Ytnctt19LGXaw3PbctPMGWtE0qklMToSx+ubjcgNIte36u9DRFsakemYS5VUDs3etNKdpNp+CNadgasNCXY6n19VvbK7sG0DrcBgjkQPoWVXtEcKVWZGA1v5JnWNegiVKQYY89WP/Joy8oDUbk/I0gR+HLI1+3gD/vmjxn/ZFcfn0AezYEsZkfy/iPnXAxDEyrB5BOooeZbYqjZlkcnLlaoNuz2RumuY2D7qWyWXpfBwjw5vQieLpLhdtH8KuF1qxdyKM1TeH5an2pjAynJSmBWuLY8TutJuCXIldK5zGrFMTyeJ47R7AqX1uxZGd8khE1lipbyq5/XKnR0utXGNE6nUiKg/GIZF1Dtp/pvW9aPu1lOErQs4baH4cen4MR3KfK0idPYautiRGtrRiT8nAlflxSQpfObD2rpV6X8onKnRz0tzmQavysb6aMaPGpoXBbiti+gA6b26VRkl+1uhXM+mG8FH5c+StKzj17ABaJ+LoaS+e7UUaddneo1WFFq2SX9XReRWl69nSiic3W5XOTDJAwQjUfdrlKte50n0Mp54fyx3zo89fwal+DyaHN6GzaFagBvifn8ShbqnsTA7HMTKclGateX4DIDB/ulMV6VwB4CxmLTB8/9iPQ29dQeqtK0i9JeU7hsNYvfFAWce5MSuPRGTCcn1Toe1bWf50MPcIctGnDNcb3WtM2dJgvV4nonJhHBKJsNX+s1Dfu9F+1X2Cxf3xGmT1Pjwa8mNkSxwjJ8fw6CpVA2zVBnQhjpHcKwf5qY1XO/5FSX7/eELnlZz6+/Ho8/fn/plrYDskNeQBDG9C07DeUtKNlF99ouUxO0obl2aD2VmXf0pjAIeevF+4l1y6GTyO1f0F+Xo6iNX9Sdd+Ccy9ipK+CKAB+XOpN56O8vqV9K556TFpjIlTJF/uDmnMNrVo+8Po6t9UUE4V0hTDK/epVpg+ULGBysoWu3rKGbOZC9I4Lo1LTBaU8v0Q5qNnOIwdB+8q66P1peVRJhqvFYhvoloiVN/YiA/R+szy8g1BHHp2g8YXS4rT51JMa15jKpgGzXqdiCqKcUikZr/9Z6m+d6n9qtnB8m+bG/C7D7OaK1iadsiMMjuL5pdKxsivHMD8NQ4RK9f6gWGdzp2ykBvyAFrb9ObPlsaOmOyP4sx2pbdMGTRVr4PAnZlSlMLW2n0M+x1MW71oSQuAJC5czACrII9tAkz2t6KpX3udkS3zpXFpbL5nXt9ofT7yEqdf1BgTp5Ccv7qKZ2Mwyzf3R7zWVvbY1VSumFXGyLE+jsvKfcfQNbwJIxV/fUc0XisT30S1xHp9Yy8+ROszoeXrG7Cy3ug6VIGYrnAaiut1jjdFVA2MQ6Jidtp/1ur7jGvtV80OlmvqgE/OqxNNu3Xyr9J6lE6QxFgGX4TLDdNVQexqi2Pv8CZ0NlZgADm5IY/u4vE61M7snI+eosFu84Omaj7ZYtpBYMH0AeyQX4ExSpsVly9OAQCalzQAyGDx3X50LdNZ+HwcIxNAa5sfzcuAJWYPJ6BgRpqCJxmkSieunT+5ji3tX+qUKbPNG+4mN6qWuPkUlrGyx66OcsTsmZ3S+5Fi47j48Oiz0hNyxu9fOlNaHkXjtQLxTVRLhOobG/EhWp+5WP/ZTrMBrTqv4mkoqteJqBoYh0TFhNt/AvW9W+3X8v2orWdaHpUXBg0weWrWyReiOPRC0vYIvtoa4H9yQHqCpr8VnTvHcHlaa7kMptNO95XvCTNrbK5c6wcAjETy71Ir75FN9kdVU04peag/+40VZmOQlCx/MKg59dXl03LBzXUgNGDl9vx7pOpPz91Sz2NzSPq3X+mRnz6APbnpkLW3X3S8q4LY1QZpIEBVunKzNmlNv2zS+SKRnsoApIGSitOUkedFh4WnNDK5jgKnY9HUNDdjdnoMezbOR88wpFnHRBs/crnA8CaNcZ5E0iFWHkXjtdzxTVRLROsb0fgQrs8Ely9HmoXrvDKkwXq9TkTlwjgkEiDY/rNe39tsv2ownEXIOb1pVM1G6c9PXyxlkpVfW9T7KtSCB54vaNzW348jZ5uw58FNGBnehNXDAOBBa1tpOgEPRH4/KqIMbmulsamMY1E0G0v+1/ie9rg8K408jSOcNtiVd7GBxGAQF/UWa9yAHmWKuHQcPf3xohl1LpyP56bG3XXWeQfChf5NWN3vQWt3i3SsBdsvPV6psyzRHsbe9vlIyD2KuXXaBrBf6+ZUGTjVpHNk5b5j6DqfLyPKrEAXhuWZa9qk8Vny2z2AzgePA8uktEOZQQiVnJXCLQbxtOxhjR5gd2J2ciI/5pH919by5WJkSxCr37JfLsXKo2i8ljO+iWqJjfpGKD5Et28nPVaIx7TYNaYMaahAvU5EJhiHRAJE2n/lqu+NlbmDBSXTqLa2+dERChr2+gD56YsnBcZfKJmyNUdjquZ6Hx59/gp6Th/AochxXJgo7lRpbWtBRyiIL65qsJ3ZuUd8LT2O60NPvwcj/apHe1dFcerZZhyKhDEi3yChzc0p25KYHNbLNwBtzejZLjWmV/Ydwy48jsRwEiNKQ7jNg9buhx2N35JTfxce6D6Op4YL0yRvv8+HRfVa6yidZY9jZKLgxrT/Yf1AsTxwqg+PPj+J1QejeOqFOCZz+e9B191a229CM5A/T5DK+wNPBk3em69RevGk8+icGzHb2uZB890Po8enc76tqr8fD3SH0TMcx1MHg1hp50kQO+VRNF7LHt9EtcR6fQPARnwIbl94eQtE0mznGuNyGsperxORKcYhkSDh9l8Z6nsDdTMzM9lwOIy/3/1N1zZKRJVxwyez+NVvKj/mChGZY3zSXMByTlR9jEOi2lH5MViIiIiIiIiIiK4y7GAhIiIiIiIiInKIHSxERERERERERA6xg4WIiIiIiIiIyCF2sBAREREREREROcQOFiIiIiIiIiIih9jBQkRERERERETk0LxwOAxAmj+diGYfxi5R7WJ80lzAck5UfYxDotpQNzMzkw2Hwzhw4EC100JEgq5cuYL58+dXOxlEpIHxSXMByzlR9TEOiWoHXxEiIiIiIiIiInKIHSxERERERERERA6xg4WIiIiIiIiIyCF2sBAREREREREROcQOFiIiIiIiIiIih9jBQkRERERERETkEDtYiIiIiIiIiIgcYgcLEREREREREZFD7GAhIiIiIiIiInKoTB0so+itq0Odxqe9vRejadXSvfJ30bT25ooXlrbVOyr/IY1ou/a+cvs02m46jdFoL9rV22hvR3tvFNGCxKaj7Yb7sbpP5Xjzx2AiPYre9sJ9t6NXnYnaK2I02o66ul7o7ymN0d52tKvOkV7y0yVp0T6nRmlSzpfm4SvnV/NjcBzpUURVx1FXlC7zcqJ81OlKj0bR21683ajBAadHVeXJZPlaIVq+3Ylbo7Kpl1DrMVt4LTJOZ34547A0Kb+AeLzajm+i2UasvpFWEYkP0e3bSI8VImm2W+e5mAbn9ToRuc/C/QYRyfTixWb7z2HdPE8k6XWRnxT9Oxu61Xwlrxde5f/HxzE+HkNH0zlEUmcRbJT+vO6eABCLYfzICaSDQTQabG70uRgAIHDPOuN9FVius610tB1NoXFlZXgLVh4fH5c+sSkszQ5hnbwlr2oH4+PjmvvW2yfSUTwWk/8/9hxGh9ZB40iKlm9vCmEcgDcQwHIA52IxxDqacC6QwNkhjbXTaYzu34bHYuMYN0zNKHrbOxCTNo7AcgDnziE2HsN4UwxTiSyKNz+K/U0diMGbSwvOxRDTOKe6Rvcjl+UGvN4AlpckuwVNmtvsRXtHTMoj5TgAnDt3Dq8Dufxd2pn/Tsu5WAzj8KKlYCf5MuKFN7Acy3EO52IxhDpiOBJJ4azqgEd729EhZSgCUobmli/Nz8qxFrti5du1uBUgHrPrMJQIINYRw3hoP0aDQ5rxlo4+hhgABBLG58is/IrGq534JpqVROsbCMaHeH0mnB4rbMa0UJ3nahpcqNeJyH0W75eJCIbxYqf9p7BdN8/MzGT7+vqyhT76KJv9/YcfFX0K4Z8ns/jnyay+RDYAZIFANqH6JhXxZgFk4Y1kU/m/ZiNeZAFvNpLKGtDarrJu6b70pbKJAOR0BLIJvX2mEtlIIGKwXfF9K8fv9cr/NTxg5XjV+aKfX7njgjcbiER0z4OcmKxXK89TkaxXc71ENhJJZEsWTwQ0zqnmDuV0S5+ARqKU/NH6TnuTBWk13rkx+RiKz0dBeSv8c0qnfOvlg97yLpiZmSn6t/PYLWRWvisZt85iNreudqHTKe+laTAuv6LxKh7fNLuo43NOs1HfCMWH6PaF02OFeEwL13mup8Fpvc5yTuQ+8/tlNcYhzV3i8ZKj2f5zXjdrdrAojbDCT+F3hf/VSa1Bg1L7u1zHg0GLQnsZ+50cCJTeVIgRbyTmlldu4oxuXnROeuF36gZjIoCsN5DIplLZrPF5yGazqYRuQ1VqkFpt4FnrQJDy3ZsNBPQLrbKM1YalWDp1U6Z9Hg3yvzTwTBrFRufSAXWF6jx2C5mX70rFrfOYVcqoutzlL8pmF1HT8isarzbim2YX3vAWEK1vRONDdPuu1X8O0pwVr/PKkQadDVn+YYDlnMhdVu6X1RiHNFfZiRd5Td22iNO6WXcMlmzo1qJP5sofUBf5ibXXggw1ocULwFv8eE3j+k54Ael1A8310jhxRHr1onO9g+dV01FsC40D3ghSQ+sMX2twnfL4UuAerGtcj07pgHFC79Xs52LQPd519yAAAOdeL8qvdUNZnB1ah0YrB9a4DusMlxvHVMrCdhReo0emRrE/NA4EdmNHi/4mUlMCz0Mqr1sFdjt7hFk+L97IDuPXtQylMDUOwNsJzeLZ1CKVb6EMtad8sVuqInHrSsxKrwoBQOyxaC6t6eg2OSZNXg2yUH5F49VOfBPNWoL1jXB8iNZnbtd/sBfTQnVemdJgyLBeJyL3WbtfJiLAUbwYtP+c1s2WBrnNXPkDlnxnqqiBZruxlj6BI+MAli8tbiiZdTgo6+k1YC3v/gjGAQR2G48ZUQ7KjU9kxzoAjQjuDgAYR2i/1lA5abx+DgCWY6lmQuWOqvEplK/Jrv0+Won065CSulQ3T0d7OxBDAAkXx5TInUtH43qkEZV6abBb3Utj0CkiBZ7F/AGAxqXyu+2VbTC7GrtaKhC3rsXsuiEkAgDGQ9gWTec7biyUS/PyKxqvtRDfRLWk8HpajvgQuF7bWr4WYtrFNFio14nIfeW4Xya6WtmPF4P2nwtMO1jUDTT1YJki0qPywGterYxoxHqppYYjGi01pZHl7VzvoLLP/5ouduPkhlFI/SsFDU3l16TYcxqjEStPROj9etSIpVKLHa+73WJXngwxbRSnTc6pbLQXHTEgkNAeYLTUOEJNqlkdNKYzKOzkSEd7i2eC6I1amwHB6OmVxiCeiXiBWAfao6Nyx4g0M1NHDPBGnil4cka5cdXraJBvVivYYHYzdvWVO27djdl1QwlIfSzb0L5NGgTStFxaKr+i8VrF+CaqJZr1jYvxYbk+s7l8jpM0W6vzypsGhcV6nYjcJ3y/TDSHOYkXS28v2K+bDTtY3v3dhyW/fouJoaOg0dvUEcK4N4LUWe2M0H/dwMprBsX7KpyasHTKRb1fd8pHmaWkuKG5DvdIPSx4rmamYEsjqjQ8NZ8YKJyCuwlNHUewPJLQPafAKHql3gjsMC39abyOAAKB/McLYHw8hlBHk2qa3fwvdVP769AUigHKel5gPBZCR5PWuVcdq0nvZWPwLFIRL8ZDHWiSj7kjNA5vIKGaQSjf0RDaFi0pv0qeVorz2LXOWdxa5VbMKq8KjWPc4qtB1ssvEYkxq28qvf1yp6d0f9brvHISrdeJyH283yCyzkm8mLX/nNfNhh0sn/32T5030LxeeHMfAOMhNNW1o1erB0jvdQPlNQOzsTaK9qV8DOZlUktHi56C0JwX2xb9hua6HRF4UTwuRPWkEW1vknv0UjoNzya0FBW4ccRCHWhq79V4YiSNaLv86NZZKzerjQgODWGo4HM2m0UqIeXReGibRodJDLFYAIlUFmeV9c5mkYrInR2ar18pyVPK1T26N5G5aYG93nygeYHxWAfaVQWjMfgMIrkyXof23l709rajrq4JIUjrVep9dldi1yqnceuEjZhNSz1zVjYuWH6JyDor9U0lt1/u9GixU+eVg0i9TkTu4/0GkXUO48W0/ee8bjbsYHHeQAsgcfYszuY+WWRTCQS844h1NGk0gvLjkhS+bmBtrA31vpTPkFDjbnlh54z11YwZNTQtDHZbEeko2uuaEBr3IpBIqZ7OKFRc6HIFbjyGjqbeoledlAFEnT7q2LhOflVH5zWUQGKoZLDCxuBug9evJKP7QxjPjYlTKte5EkggdfZsPtDkDpzxWIeqF7MRwbMpJAJS2RmPxRCLSU+7pM7eg0o+wlKxzhUAzuLWOaGYLRgwNxIAEOvQ7Yxxq/wSkYrl+qZC27ey/GivxhOydahrd//HEd06r2xpsF6vE5H7eL9BZJ3TeDFr/+kxa48W0u1gqYv8RPPjWOM6DO2WZ/PQei9GHpck/7qB8vRHAM7bacr7xzqv5DQGMVTQOSNlonPSiQQQ69C4OZJ+MdM9WbpjdpgNZmddOtqOuibp9a1E6iyGjKdWKJEvcAX5OtqLptC4a78E5l5DyQ04q5xLvbE5lNev9N411xgTp0i+3CU0Zq5ROnBKX4tpxLqhszibzSIrf84OrUNjBQcMLFvsGilb3LoZs8WP/weVp8c6NBoQdsuvaLxWIL6JaolQfWMjPkTrM8vLN+1AIpEo/exWjS/lUkyX1nmVTYNmvU5E7nP5fpnoquY4Xszaf8Y062YN87T++MfgrfjtBx9prmBp2iEzyuwsml9KDeNY7AhOpIMIwvw1DhHrpI0j9twohtZV4komn0gAXq9e408aD2I8tB+jQaU3Thk0VeogKL3nMxvMzhrlKQ1vIIFnHExb3bh0OYBxnHs9DayD/G4bMB5qQl1Ie51YR500Lk3E3i+YTS0OOsBGn9MYE6eQnL/6ey+ajcEs9ZV6mqPssaurfHHrVsyWTskcxDORI2gKxdDRew+yuSt12kb5FY3XysQ3US2xXt/Yiw/R+kxo+cZGrGs0WqICMV3hNBTX6+zpJXKfnfsNxiLNVS7Ei2n7zx2aHSzz6oD/59oyNsdSU4ZvSygNqiMn0lgPlxum63Yg4o0hFOtAe0sFLlTyiUQggbMGXW2jvXXoiMXw3OgQpDakNGhqaFx6siVYjgKivC5hkjZLm5LHtVi+tBFAGks7AwjoDX9zLobYOOD1BrB8OdCy1ML2ldloCh5XkW7+Ytr5k+vY0v6lTpky23zwVZMbVUvcfArLWNlj10DZ4taNmJV7vNVTMjcGn0HkSBNCsQ703pPN9YaLl1/ReK1AfBPVEqH6xkZ8iNZnLtZ/ttNslDyNOq/iaSiq14moHNy+Xya6mjmNF+vtP22W6+aZmZlsX19f1l2JbADIAoFsQv1VSvkO2UDJl6r1vYFswIssvJFsSndfqWzEq7Mv3VUiWa+cBm8gkU1pbjyVTQS8Juk027fyvdE2ZIlAFlAfa0E+FqXRIH+z1pdLBJAFvNmIfuYWLx9Rp0OSSij5ae0cpCI6+ZqKZAORRMm51t++kr+lx6Dsw6t5cNbyT8ofZBFQpylV9J2x/LKmi9owMzPj/kZzRGOrjHHrKGZNrjlK7Dktv8Lx6jS+qdaVNz5nF9H6RjQ+hOsz4fRY2qpYTAvXee6nwY16neWcqDz07zdKMQ5prjOPF4v31y7UzZpPsLgnho72cwUDT8pTo8JslH7ldYOY/IiPlV9b1PsqtBy7C6cbbAzibGoperd1IBbrQFMMAORZjlTpBLxoMd23DmVwWytTSK27BwHEEBuXX7FoBJQpZWMdMXQ0xeANBLAcwLlYTHo6wNFgWMq72MCR/b2Y0lus5R7sCMqPTk/F0BGKSTPqLJe6D8+di8l55UUk5XxwrnOhDjSFvPAGlkvHWrD90uNtRPCZCI40hRBqqsMRuccyt443gme0nnZQxkMxeX1l3VACgXP5MiLl/zmci41LT2B5i5+GQDqK9m1HgOVS2oFziMWkgjQ33q11OW6X787/suwgZkd7O3JPkWmeg3VDSARi6IipXxUSJRqv5Yxvolpio74Rig/R7dtJjxXiMS1W55UhDRWo14mIiKrOYvsPcKFuLu8TLKUfrzeQjWj9XKKW+8Xa7Bem/FMi+h/9nqZUIpINeL25X8ch71NJp3FKjX+FN36KwvryUhoL0ufV/sWplFFPnZV8Uz2FkEpkIwFVXnm90hMFlo6w+DhLexilJxBKzoXuEwv5dAW83qJ1tHoe89kSEDgvqWwiEsh6vcXHrLn9knRI5T1hmHhnausJlqy7cavTBS0Us5afTrHyZJ1yiMY95KLxaj++qdbxF0WFjfpGWdNSfIhu3356LB2t5Zi2Wee5mQYX6nWWc6Ly4BMsRNaZxovl9p/zurluZmYmGw6HceDAAbO+GCKqMVeuXMH8+fOrnQwi0sD4pLmA5Zyo+hiHRLWjOqNhEhERERERERFdRdjBQkRERERERETkEDtYiIiIiIiIiIgcYgcLEREREREREZFD7GAhIiIiIiIiInKIHSxERERERERERA6xg4WIiIiIiIiIyKF54XAYgDR/OhHNPoxdotrF+KS5gOWcqPoYh0S1Yd7AwADC4TB+9Zu6aqeFiATd8MksY5eoRjE+aS5gOSeqPsYhUe3gK0JERERERERERA6xg4WIiIiIiIiIyCF2sBAREREREREROcQOFiIiIiIiIiIih9jBQkRERERERETkEDtYiIiIiIiIiIgcYgcLEREREREREZFD7GAhIiIiIiIiInKIHSxERERERERERA6VqYNlDHtuno8m3Y8P8Wll2QziG/WX69wYRPx0Bpd192W0vvTpPJixuLwPnTvHdPZVsN7GAwbpEVlPZJtynuotNz2GPRt9Rcey53RGa8mS9J056EPTzUGcMVpmpw+dhXm6MVhwDotdLkmLtPwZneW19qfky57TGl+fDhqcb4PjmB5DXHUcTUXpMi9LykedrsunD2DPxuLtxg3y//LpIDoFlq8arTy72YfOnQdU59Mg7zZKZbG03JqUadPl7OzTbvxrqVY5JZqtxOoSAIJ1m+j2baTHCpE0271OuJgG53U2Eblh1twbElWZ7XqrjG3BQvNEDqbpSHGQpzobTNdpbfNo/LVFe+E2D1oL/z2RxOREEpNb4tgLD3adHYO/3mBn6vVlzRaXn5xIYnJ4E1YPm+xrIoxDp+/Ho6sM0qKY/iESExaWmwhjx8G7cGS7eZ6W7uMAOtvDmATQ2u1HM4ALw3GMbGnFhe5jOLLPp7FOBmcGe/HUcBKTAHTPCcawZ+MmjEwAaPOjaxmA81MYmYhjsj2Oi89eUeXDGA61b8IIPLm04HwcIxNx9LRPmZ9DADgdxV4Ledba5kfzMvVfm6G5+dNBdG6JS3mkHAeAC+encAnASnmxxXfnv9NyYTiOSXiwpOA0XT7ow+r+JAAPWrtb0IwpXBiOY++WOBL9kyXn9MxOH3qGpeW7uluAguVL89Md4rGbQXxnL/YOJ+V/e9DaJv/vRBKTw0n0nAdOPX8/FqlXLYorKYZHtrRipG1Ae3k32Nmn3fhXVLGcEs0+onUJBOs28bpKOD1W2KmPIXidcDUNLtTZRORYKavCDQAAIABJREFUNe4NiWYnm/VWGduCapodLNks8AGyRX+7tq4u1yhTN9Z0tQ1gv+UGlR+Hno9qNCAyOLOzFz3DSextn29wkdFbX2R/BfsaHINf50YIAEYiB9CzyvzYzgyG5Q4MA20etE4kMdnfi7hP9GZmDHvaw5hUd0DtCyK+sRV7hx9HvM9XtM0zO+ejZxgAPOjqH0BzfxgjepufTuHCRGmD81H5Bm5kSxCr3yrOxyX9x3Bqu68gb6LoOR3E6i1x7H3wAL5oWCYyiEfihkd8+eIUAKA5FLXYyXVADig/Dp2NYmW93oINWLndoAydDqJpGGjtHyrIizEc6k8C6m33jWFP+yaM9EdxpnCbp4NSBapu+CvLa+SnCHdiNyOVnQmgtXsAD/TdX5pn02OID6Y01tWIq+kxxB/chL1OOhEN2dmns/ivbjklmoWE6xLBuk10+zbqNnPi9bHwdaIMaXBWZxORY2W+NyS62gjXW2VtC5bSfEVo6dEMWo5eKvoomo5kLD254p4GrNw3hlPP+gEAI1scPDJraV8PowsAhl/U2Y8fXd2Qn2Ix2dz0ATw1DKDbL21Tz0QLOvo9AKSGnZDTL2IEWie6Af6QX3ebrd3HcOrsGB7d3mSygyY8oNUTWH8/HugGgClcmi78wgd/UYGXLFq1QcqDiQuYhr7LB3uxd8KDrm6tJ58KGfccFpI6uTzY5ajRqjSo/XigsLGey/9g8bbrfejp9wCI49Rp9TY82PWkKvDrfXj0WT+AOJ46aP9xUDdi98xOuXOlfxJH9ml0rsjp9e+zeNNd74P/yQG0Aph84YcCr+A4YGufVuJfUrvllKhWCdYlwnWbaF0lurwFNutjkeuE+2lwVmcTkVPlvzckurqI11tlbQtq0B2DJdXZUPT5+fsfVKFzJW/RqigOdQPFDdZyWIIlbcZLrO6TGm4jJ407Q3Ins2+D6V4Xbx/CrjYAw5sM3+kq2cfJOAAPOnwa50UpaOdTRQ3Mlfuu4Mg+HxbVW9hBvc+kICZxUeSa32b0yLP8NEj3w+hp1N/EdDqp/2XJwkon18POHnOWXwdp7Q86+AXhIi5OAGi7F1/USktDs9QhkL5oew+Aw9hV8qttAPvdfNKk/i50tKGyN+u29mke/zVdTolqlWBdIly3idZVbtdtsFcfC10nypQGQ4Z1NhE5V5l7Q6I5Q11vVaEtaGmQ25+//wFWJd4oaqBVo6Nl5Vo/APOODWeUC53BTYXScBt+3GAwvDGcGob+BbNEQ+4Xd+tP6WRw6TwAtGCx5j7kxmJZG7UWf3mbTuECACxr0n3q4czOTRiBH4cMX80Qc3nsOCYBdK11sk2DHkuDik+6cRb4ZbK+SX6PUODm14Ro7CqvtHWF3H4k3EJcuc7OPs3Xqd1ySjSbFV4ry1G3iT4lIrp8LdTHLqbBQp1NRBVQhntDoquSTr1V9ragBtMOFnUDzfL4K+Vg59cXIRnEN27CCMwamGaP+wKXDz5uYTsq9fdjv/xaSc9OK51IZo3BBixeBth61NlM7kkHsw6kDC6flgfcazNolJ4OomcY6HrW6jum0pg8RTM/aIy0XtjJcflgsHi2iJKZcHQY9Vgq52x4EzoPKjPQSDMz9ZS8o6fc3B7Hj7T2q1wYXLoBF49d5ebcj9VuD6YmP7Ze0Zt14X1aiP9aLqdEs5FmXeJi3Wa5rrK5fI6TNFu7TpQ3DQqLdTYRuaSy94ZEVx/jeqvsbUENhrMIzfzho5Jfv4VMhLH65nDp37uPIeV6pR1Hz81xjb/rzQgSR8/GKdXMI9LyXc8OmQ82tyqIXW1x7B1+EWf2+VSZLb9C0DaAHsGG6qLtQ9j1Qiv2Dm/CnrW1Omp4BvEHjZ50GMOemzcVDJzrQVf/MezXeF8ut/yWuMX8yuCSMg6O7MJwHJMTcUyWzNqT/zXv4uB87B2WZlSQOuniGBkOo2f4uMksCeY9lou2j+EUfFjdvwmr+/N/b+0+phpctQFfvNuDvRNJjQGY8nnqBnuxW46nTDI4czCKp/rjgN5TH3rXiXLu01b813I5JZqNzOqSSm+/3Okp3Z/160Q5idbZROSeyt0bEl09rNZblWkLqhl2sNz23LTjV4G0p2kuE81pmvWmH4Y03Wzhv7sHcMrqwJ3yUyx7t8Tx1MEgVhZkuK2nVwq3++QAEu1hyzMVVVbBDDP9kzoN0SVYUjCw74XhOEb6N2HkBT8OPakeXEh5asCPQ5ZmKmiAf1+0+E/7orh8+gB2bAnrzMQUx8iwetToKHrk6ZUNZ4xRptnu3qDbY5mbprnNg65lcnk7H8fI8CZ0onhKzFwHmtypIE0vNoWR4aQ0VWhbHCN2p+Ys4Ebs2qPT0dnmx64n9Z/6ML5OKJ0f7u5TLP5rvJwSzTpW6pJKbr/c6dFi5zpRDiJ1NhG5rVL3hkRXD9F6q7xtQTXDDhbHDTShaZotMHwn2MY0zbkpz5TpWcNYfR7FU6QZWbUBXYirpuLNT9tr+zWL+vuxv/84VveXa1pbm+TpKydzv/LrpUt101hww9jTjoJ8V2ZjEXnlQtuiVUqeJZEYy8CvyrOuZ0uDbdH2h9HVvwkjmk8hSfIDFWsHXa5zpfsYTu1TTRd2UHqqpbOx8FfIBvifn8Tinb14ajiJyWF5PvbuY9i/Dzh0cxwwHWTVnL3YLX4/33bc5jo6W9C8rBlL1t4Fv25ZgYXrhLqX2oV9CsZ/rZdTolnFcl1Soe1bWf50EE1b4qV/V0+r6gLd60TZ0mC9ziaicqjMvSHR1UO83ipXW1CLbgdLVcda0ZO5IF1wGpe4vGFpKuhDmI+eYZFODWkq3pH+gqdYCqftdZCi3Am38guWboPYbMA76/JPaQzg0JM6U/cayN8wxnHqdBQrVwE4HcTq/qRrvxYu8t2L1v6kPOBsA3Lvm0/oDVbow+puYGRYeh+99JjMBirO4EcvSJ1ph/ZpTBemnMMXfojL2wtvfqXytnKfaoXpA64MKmg/dpX80ssPK0Q7Ot3gdJ8m8V/z5ZRo9hCqS2zUbaJ1leXlG4I49KzWjIBLitPnUn1cep2obBo062wiKqPy3hsSXe20661ytwW1aXaw/NvmBvzuw6zmCpamHSqL/DzxmtMPumDlvmPoGrbYqSErbkTfhR8JvqOlz4dHn/VjZEtcfiezSWMZ5YkDvULhzpgayg2o1JNu/53sRUtaACRx4WIGWAX5fAKT/a1o6tdeZ2TLfLnDyt676PWNDl5RUzrL7r5L55jl/NUl9kSIG6NcO41dKb/m5uso2vGfqf1ySjRLWK9L7NVtonWV0PL1DVhZbxTbFaiPK5yG4jq7Rp6kJZpjOMsgkXVa9VZ524LaNNtc19QBn5xXp/n5xLw6+4l04MxO6d1ox3NYG5I6NYxmB9Jap6ffA0yEceig9I6W06dXclZFcagbwEQYOw6mNBaQBsYCpMeIS9gsFEWmD2CH/ArMEQedKwBw+eIUAKBZ7kJcfLcfXd06H/lRyNY26d8dFh5aUiqhwieclEDTzB+lV1Ln17wzJ+Ow1qGnNyODWQdMofzTME5m8HEau4u2Pyy9zzi8CXtszWIxm2nHf62XU6JZQagusVG3idZVLtZtttNsQOs6UfE0qOpsIqo0d+4NieYKrXqrMm3BYtV7IMWq6THs2TgfPcOQ3jMu96/qq4LY1Qa5gWltlUW+e9EKYKRfekfLzSdsVu47hi4Ak/3HcUHj/UulQTzZH1VNMyXPeOLwaRrR987OHAxqTnd1+bR8M5urJBqwcnsUj+7T/vTcLfU2Noekf+fG05g+gD256ZC1t190vPL5nOzvRVyVLmUwYu0OMSuNWumxMqVBXpymDM7slMcNMR0UKZPrQHQ6xodzUidDK4CRLa0FU0+rTI9hz84DZZouvYpK4r/WyynR7CBal4jWbcJ1lY13qt1Os/B1ogxpsF5nE1Fl1dK9IVHtEK63ytoW1GY4yG1lqadNBSYnkrn/N3+Et3T9vBY8YHmMhoJZfLYEsdrK4G719+OB7rDUCeT6Ezb5V4UmJ6AxyFX++572uDzyuDzVI5xelJX3tYHEYBAX9RZr3IAeZVqsdBw9/fGiGXUunI/npsDdddZ5JXGhfxNW93vQ2t0iHWvB9kuPN38+97bPR6LNj+ZlBeu0DWC/1g2sMqCySefIyn3H0HV+E0aGN2G1PPVXM6ZwYVieoUY9H/v0AXQ+eBxYJqUdyijxqOTMFSZWRXHkWaBzSxyTytTThTN0KbPvtA2gp0pJLB8b8a+jIuWUaFawUZcI1W2i27eTHivE62Ox60QZ0lCBOpuITMyGe0OiWiFcb5W3LailhjpYUDJtamubB813P4wenw+L6sXXzzOYqllLrsOkdApmPSv7BtA6fBwdLv4alrMqikPdcakDR+f7U88241AkjBH5Jgptbk6vmMTksF7eAmhrRs926bhX9h3DLjyOxHASI0oHWZsHrd0POxq/Jaf+LjzQfVweZV1Jk7z9Pp1yUn8/jpxtwp4HH8fIRMHNa//D+jfPlgdU9uHR5yex+mAUT70Qz438jjYPuu7W2n4TmoH8eYL0eskDTwZN3q2vsFVRHHkriDPKcRXGlu6xXSVsxH/pNipUTolmFet1CQAbdZvg9oWXt0AkzXauEy6noex1NhFZMEvuDYlqgK16q6xtwVJ1MzMz2XA4jL/f/U3hlYmoum74ZBa/+k11xkUiImOMT5oLWM6Jqo9xSFQ7an8MFiIiIiIiIiKiGscOFiIiIiIiIiIih9jBQkRERERERETkEDtYiIiIiIiIiIgcYgcLEREREREREZFD7GAhIiIiIiIiInKIHSxERERERERERA7NC4fDAKT504lo9mHsEtUuxifNBSznRNXHOCSqDXUzMzPZcDiMAwcOVDstRCToypUrmD9/frWTQUQaGJ80F7CcE1Uf45CodvAVISIiIiIiIiIih9jBQkRERERERETkEDtYiIiIiIiIiIgcYgcLEREREREREZFD7GAhIiIiIiIiInKIHSxERERERERERA6xg4WIiIiIiIiIyCF2sBAREREREREROcQOFiIiIiIiIiIih8rUwTKK3ro61Ol+2hFNK8umEW3XX669vRfR0TTSuvsyWl/6tEfTFpdvR3vvqM6+CtZrjxqkR2Q9kW3Keaq3XHoUve3tRcfSO2ollWmMRttRV9eLUaNletvRXpin7b2I6mw+XZIWaXlLyZH3p+RLr1aiRnsNzrfBcaRHEVUdR11RuszLkvJRpys9GkVve/F2owYHnB7tRbvA8pWj5IFReQBGe7ViS3dh6Rh7RyGSx8XbN1ivXSrrxSnJX4OM05hfrqSsaZUXvWuE3TKZ35lxmSe6KojVJdIqInWb6PZtpMcKkTQ7vnY4T4PzOpuInCvT9YjoaiRcd9qML9O2o7Z5IsdSF/lJ0b+zoVtN1/F6vRp/Xa63MIqWHh/H+Pg4xjtiCMGLSOosgo2GO4PA3kqWHx8fx3isA00xk32Nh7B/NIihdQZpUaRP4Mi4heXGQ9gWXY+zhgeot48o2ptCGAfgDQSwHMC5WAyxjiacCyRwViuh6TRG92/DY7FxSMnTy6VR9LZ3ICZtHIHlAM6dQ2w8hvGmGKYSWVU+jGJ/Uwdi8ObSgnMxxMZj6Gg6Z34OAWB0P0IW8szrDWB5SbJb0KS5zV60d8SkPFKOA8C5c+fwOgDlEJZ25r/Tci4Wwzi8aCnYSTrajqbQOAAvvIHlWI5zOBeLIdQRw5FIquScjva2o0PKUASkDM0tX5qf7rATu0bW3RMAYjGMHzmBdDAIo1M6+lwMABC4Zx2ANLBcO05zxuUy6Y3gGa3CUhS30jUi1tGEmDeC1FklLeswlAgg1hHDeGg/RoND0MrWdPQxxAAgkCjK9/w5Ld6fdI14DCd2rNMsx0JlspDFMk80e4nWJRCs28TrKuH0WGGnPoaDa4fjNLhQZxORQ2W6HhFd5azVnTbjy2LbUdPMzEy2r68vW+ijj7LZ33/4UdGnEP55Mot/nszqS2QDQBbeSDZlsJQklY14kQUC2YTO94mANwsgCyAbKFnIbH2R5Qv2VbIjZT35Y+nYstlEwGgdeZteb9YLZAFvNqK7Ub08lf9esq6S3tJt5tPkzQYiEXl9nfxLRbJerXSlInKa1eslspFIoiRvUomAxXwrzufS853NpiJe3e+0N1mQVisnTY98DN6izEjk86/wz6mEdr7q5YPe8iZmZmaK/u08dq3Gk375KiZ6XHrbNUhXKpErM15VYnJlXbsgaZfhgnNUWl5S2VSk9O/CZVK1TbMyT7OTOj7nNBt1iVDdJrp94fRYIV4fO7t2uJEGp3U2yzmRYy5cjxiHNJcI1Z124sth21Gzg0VphBV+Cr8r/K82NztY5KWUyr5kOTc7WArSbrCfQMBiQ0g5OYGATn7ktxmJ6HXsqNKl3oZmo7/4O/U2EwFkvYFENpUyOl4liQndgiU1Xs0a2Kr0m53niFfq+AnoB46yjLX9iqZTN2Xa5cYg/0uD36RTwuhc6lBXqM5j13o8KcdnlF4ry1hb3iRdSqzpdkCqy1K+U0Ndxuw0eETLpNa6RmWeZife8P7/7N1vbBxnnif2L7OeF8FgV4u7bII730WyxJYgjl4MwRseUI1AsEDCYssWNAcdTxhQJwKhipE9cTfmIGsJSRkmtqCTlcl2+87ysqRgW2MiYLjC2bCtpgcUNBEG7GA0IThAaOqkbtPSbIwAWSwgAbvYvdmZqbyoqu7681TV81RVN0nx+wEaMxarqp+qep566vn188dFtS5RrdtUj59Z3ZYizWa6Z0dWaQg5kHRwnPmcKKUMnkcsh7SdKNWdCcpX2rZj6BwsZunbns/6s1+jp/zL1EMLkuodmUFNBwADH3d0joIc+iLHLwDHzpahATBiErJwtYQ6NJTPHov91r3FmyhrAIyC0hwM1vALDaNHBH14R45BB4DVR545I0ZmTCzNjKBXpttv7whGIrerY60hn15oUV2eF3C1VAf0CzjbF36IxprCWIpmBe8YAPQL6bo520M4tPLZ6C5hkRpYqwPQRiG6Xcj1QQNQV7qgQd0qu71HRq30zt8Onbfo9rw1FEqYPwObV3DKusjioUHRicGodfHgvXrWUCEAMN5pz1/UrJyyhuT4hgYBivkrxT4WuTxPtOUp1iXKdZtqXZV13YZk9XHyZ0d2aYgUWWcTUSY68Dwiep4p1Z2q5SuDtqPUJLfrz36NPX+25mmgbUSgZeSY3VDqaITFaQRHvFQ4jTnjnYjJcRZgveeENKaDB0Xxph24KchObNfEo1UAOIC9wu+wg0WBRmeWvPORhGo+gpXUvaHzdSxMFmBARy3DgabN2/Oow5n/I/FRULFKGi74S1pEUMQq/JLXBwB699rj3xVefmN0tOy2ghrzuC1KsDP/kFQZaKJyyg5I3oye00Usotw6wdl6CacqzXYgJySvtZ4z76hMZp1MJ/I80dbkflZ2om5TeBYn2n4z1McZpkGiziaiblF9HhGRPN/cmhm0HWMDLP4Gmn+yzK5K8uuLkiYq+QKsoFVUI68XxQs6gDpKV8WhEGfyzOjj+A9bxE2rGwsKUt1Y4oJBvdhrtdjxKOsL5kT3YhvPTTQX7An3tIiG5MIkCgag18STkQbVUcr5ZoIWTOnsDnI0K5Pe2aMnK3KrJET1XnHumVFAvuKsLmOtzFQwAK180xX9dF5uwwIS9gttRi/gnS+7vThiRVgwLzgh5wGljR6JLQNOjxLv9VKw8LE1WW1IY2BkpgYrxnIK+VPW5I+heW3krNWbrF5CTml1J7k82U6zap4neg4J65IM6zbpuirh9i1p0qz47OhIGhySdTYRdV7i5xHRdpCy7gwpX1m0HSMDLH/1d78N/PqtpF5CTrR8UkfWITVQEC7VlA/pZWKgkM8j3/r0oKcnh1Jdg15rxM/W7TTCjI8FvU3sbv9aGWcV3016Ew4V6i6nt0FYAMm9THcOucI8DpRraCyFNSQXMGlFIySuVxOPoEPX2x8NQL1uoFTIBZbkdn7NW7vag1zJAJz9NKBulFDIheUP17mG9V6x9RaX0ChrqJcKdn7PoVCqQ9NrvhWE2gGJ0inBkt32Nc1C6rIrKXyYkMLwoIVJa8WeJEOD0MRCxZrlO6xHisUZKlRHPWRoUFsviksN1KxMglIhF7OMtkqedKjkeaLnVVxd0u3jdzo9we9Tf3Z0gmqdTUSd1+3nEdFWkUXdGVa+smg7QryKUNRkmNETZLamhmlNLKlpWvDjmWBNZZJa0USvrhU4RN+l6SEz6Qs+etSkvIJ0hkwmF5wkM2zS35BzF07YKTpG/GTC8ZP0JF3lJWri0oZZ1nVTtz9aaxUl0UzM4mugOtFoo1YWrMTkvtfB727ETixsuiYqDt+mdRxNa52z7lyjmNWoNF1vTW4Kzd5PcoUq0xRPcuv+X9HfoiWdNFq0oofMZIphK16EfU/IJ1DOBUcoa66yLp2xzLJrFTNxHg7bVZQn3eeSLs/T5sdJB6NE1SVZ1G0ydVWa7QMpyiDNdkpCnx2dSoNKnR3EfE6UNfXnEcshbXfydWdU+cqg7WhGrCIUuoNKgCXDVYSsTUWNtixWEXItzxyaZtF+ouBExL/JBlhM0WoqmyDA0mhnXF1xzap2ppdrVCZfycV9zcJXirHEn3vc9XMXtODqX+Er4tR0rf0SawdiGkrlxhIWYBHpTIDFFAYaZe9fTXZFLmEgVTd1vWyWZfKiK2hZlv5O9/7uQIv8tRHlgSzzPG1ufOENEVuXpKzbVOsqme1bKxn6g7tOGrMLsFhJEtQfXUxDWJ0twnxOlKGE79osh0QSq5fGlq/0bUfTjFhFqKf8S+FnQzXWrDkdMp/pqRcjM0veiTCljOCsPWfKO84+9lwQ6VabAXqLF1pzRsQmJ3TOjrgJ7+Q1K3n05Eqoa2XUGkuYiZ6OOaB3pD2/TGuOYntoiFaWGJIl8x3OcJXWhLPOePOwycFGYM1nGjYePW6iYmcYjDU0xb9J6x4Ghs9Y+W3JNGHan6WZEfRmNKlg18uuPTdS+zzb1yVyfih7DpLo4Tp+OmpLS1haWsLS0gxmZoooxuZFbzfA4lnVyaQB9I6gOGMNBZOfI0mQJzPO80RbjVJdkqBuU62rpLfPnUWtVgt+LvjmmMqoPg7WZ91Ng7DOJqKOSvuuTbTdCetOm1z5Stt2tLwg+se/L34bf/ub3wl3kFp2qCOcuTAkl3xNYGSmBt0owCidQuXIktRkm73FC9BLBRjzt9EsHsHtmPk6FFKDmZoOo2CgdKqCI0t7Bds4k6ZaNzmYTyRWRJLQrOStRqFew01BIEFW794DAOpYfdQERmDfT6BeyqGnJN7HKPTYAauGbz4TObm4NbejOMGy0Ela7esb/u2eFRtiwwAZzFq9MWXXetgYxjxuN4sowl49SD8WEWS05yDpwgo6wSWZi7hZnkeuZKAweQymwve3yvvqIzShWhaaXcnzRJuVfF2SrG5TrauUtu/txUhv1BZdqI+7nAZvnc1nEVEnZfWuTURBKuUrVdvRJgywvNAD/P43Ni6UIrIwmbMbScnXpI7nCmpcXUBRquFl9WIxSiVcrQCrYavNJErODGq6gYJRwqlK2VrC18OaNLVUt1ZxKfovTGyAQIKzpK1ew1LKhnDT+ukMB/b2Amhi76gOPXhSllUDRh3QNB0HDgB9oviS//jOqjWukKP1gmiIr4/TQyXk17yFj2UDejEvs1Ike33E2KiyO2JFWDB/u4kjiA8UWcsTd2EFHWcCXV8gp7d4E+X5HEpGAZPHzI71JvHnyazzPNGWoVSXJKjbVOuqDOu2xGmOSp6gPut6Gjx1NhF1TObPI6LtSVh3KpavNG3HFtEcLOllOAdLo9aaMFR8vCzmYBH93T/2KmK/1niusLHN6nOwBPaFZmrCCVBdY8EaIf8eeuz47VTGjJumadbK4knxVMZzm2bEfBSNsqmXBfOdhB4/ZBJWM26cntz1c+YQCc7B0vD8LVpDYS4Sr+zH3CaYg8U0zXYel5io15lHQG0SlATpak+2Lfyq1nwG3mPWynrIvC4NsybKM8p5UoxzsDx/OCa+TbUuUa3blOsq5fRIHVWtPs7o2ZEmDVnU2cznROlk8TxiOaRtQ7HuVC9fSduObcIeLBvDQCG/CnennHq9/fN/fJee4P5tB3BBernBXhRvljGfK8EoTOKYKbFfbxEX9JI9n0TWPWzavWrq1qq3oX8v5Axouo4DAFYNw+pFkKqHgDNeG5i/Oom1sM36juFs0b43awYKJQPQNOgHrJ/qV1fttENDuZG+x8JqqYBcSYOmH7DO1XX84Pm272cp14N5u3dAa5+wpYGd+VAih7nYw8pWCzCMAnIG7Ou/ilWjbi25rPmGwDQryJ+aBw4csHskrcIwrHy+uebliChPBy4IIsDOMCHDHt4S9gupMzQIgPEO8qvvRKbiwIWlxNfE6SUTOsdLq4eYb6jQmoFSyUAJADStdQ1azyNBnlHLk0TbTYK6RKluUz1+kvTIUK+Ps392KKahC3U2EUXp1POI6PklX3cmKV8J245um6cHS/CjaZoVoUqzfGsgkiX3S7jToyC4Ik1YT5uyqYVGx9L0YPGmJ+yaNmrldk8fpeVko3pqyFxbX5rs1VY0z981e5UceeG/5gdX4AHs40d9QaNm6prm2UcU/WxfFvES3CEHN2tl3eph5Dpn4fED6YCpabpZi87koTrXgyXiE9bFohG/PForH0t+2l+l2IMlpHeKYMNgLxcnD/uug6ZZM46LetElypP+o7AHy3OHvyg6EtQlzp5SdZvq8ZOnR+pspevjbJ4dqdKQQZ3NfE6URjbPI5ZD2j5U6s4U5Uu17ejS8/TpU3NqagrXrl0DEW0tz549w44dOzY6GUQkwPJJ2wHzOdHGYzkk2jw210y2RERERERERERbEAMsREREREREREQpMcBCRERERER7DpF+AAAgAElEQVRERJQSAyxERERERERERCkxwEJERERERERElBIDLEREREREREREKTHAQkRERERERESU0gtTU1MArPXTiWjrYdkl2rxYPmk7YD4n2ngsh0SbwwuXL1/G1NQU/vJvejY6LUSk6I++abLsEm1SLJ+0HTCfE208lkOizYNDhIiIiIiIiIiIUmKAhYiIiIiIiIgoJQZYiIiIiIiIiIhSYoCFiIiIiIiIiCglBliIiIiIiIiIiFJigIWIiIiIiIiIKCUGWIiIiIiIiIiIUmKAhYiIiIiIiIgoJQZYiIiIiIiIiIhS6lCAZREXX9yBXOhnGNXHzrbrqB4N3270aBHVu+t4EvpdUftbn9Hr65LbD2P03GLId7n2O3otIj0q+6kc076mYds9XsTFo8Oec7l4d120ZSB9964PI/diEfeitjk3jFH3NT1adN1DryeBtFjb3wvZXvR9znW5eFfw57vFiPsdcR6PF1H1nUfOk674vOR8/Ol6cvcaLh71Hrcacf2f3C1iVGH7bnhyfVjq3J0yde+cqHyFcO7ZuUX7H5xrHZXvQjxex73rvuv34g7kjg5j9Nw133VsP4ui09neTpjnWmLyJqBeFhOXXaKtRq0uAaBYPrpdV8WRqV/TbB9B8bmyGeskou0rw2cB0bYQ/X6epL5Xbdu5vaCS9Ny896CN0d2x+/QPDAr+tU+88cAg+t3/vXwfK8v3sXKyiksYxPmlRYzvivgy//62fZLbryzfx8rscQzNxnzX8hRu3H0dbx+KSIvj8eeoLUtstzyFs9cPY/50/DUNfsc1jOansAKgf2wc+wA8nK1i7mQ/Ho7dwvyVYcE+67j3wSTen72PFQCh9wSLuHj0OOaWAQyM48R+AA/WMLdcxUq+ii8/fOa7Dou4kT+OOQy20oIHVcwtVzGRX4u/hwBwt4JLEtesf2Ac+/b7/3UfhIe/W8Toyap1jZzzAPDwwRq+AnDQ3uyl19p/E3k4W8UKBrHHdZueXB/G0PR9AIPoH+vDPqzh4WwVl05WUZteCdzTe+eGMTFrbX9irA9wbR+8ntmQK7t96B/w/svK8n3r//jKyj4AB18ZB2arWPn0czw5/Tp2Rnz/vZ9UAQAnXhHkRQXtaw0Ag570rjjPi9mHeOnrin1Ph/H2h+OYO1nFynQF905XWvfae9x3MQcAY7eir39c3lQti0nKLtGWpFqXQLF8bEBdFUa6fk24fez3qz1XNqJOIiKBrJ8FRNtF5Pu5en2v2rbzEwZYTBP4DUzPv32jp6fVKPM31kINXMbVT6IbXm3juPGJqPGzjnvnJjExex+X8jsiKvuw/VW+z/VdHyxiPKJxM1e+holD8ed274Mp+yEZYWAQ/cv3sTI9ieqw6kvdIi7mp7DiD0BdKaJ6tB+XZt9F9cyw55j3zu3AxCwADOLE9GXsm56yGpcijxt4uBwMOL1tv8DNnSxi6GvvddwzfQt3Tg+7rk0FE3eLGDpZxaU3r+HlyDyxjmq5GnnGT75cAwDsK1Ukg1zX7ODKOG4sVXBwV9iGu3EwpAEOwOqFMQv0T8+4rsUibkzfB/zHPrOIi/njmPM36u8WrRfZgcu4474OzvaC66kiTdndebqC+dPuf1m38tByWNkq4vxAFZeWP8JPH78ekW8XcWcWAMYxlPhFfR33zvVb+XZgHDfeC7mPjxdR/aDh/bdDFdwYq2JitoqJc6+iIQhynHXuYWRAIy5vqpZF9bJLtGUp1yWK5aPrdZWYUv2aYPt4itetw3USEcnJ/llAtF3Etx3V6nvFtp2AcIjQ3j9fR9+ff+X5OHLz61I9V7KzGwevLOLOh+MAgLmTnewutxsHr7yFEwAw+1nI94zjxBjsXiwxh3t8De/PAhgbt44ZZrkPhelBAFZgR8ndzzAHf6MfAHZjvDQeesz+sVu4s7SIt0/nYr4ghzdEv+Tteh1vjAHAGr567P7DMMY9Gdiy89Cr1jVYfojHCPfk+iQuLQ/ixJio55ObtxdJFCvINYjzkcGVOE7hHccb7qhl6/oXvcfeNYyJ6UEAVdy56z/GIM6/53tx32X1tACqeF9myE2I7pbd3Xj5NSvf1hYjup7bvUP6p4uJX9KfXJ+0XjzGbuHOJxH3cdcwxq+8Hvieg1du2eX6uK/r4Dqqb1pB0BMfRj8sY/OmallMWHaJtibFukS5fHS3rooiX78m2z6S0nXrfJ1ERPIyfRYQbRPxbUfF+l6pbScWOgdLY3S35/MXf/2bDQiutO08VMGNMUDmpNLZgz0D0VsMnbmMfgBzP4lu/LQa9mdejf3Wl07P4PwABA3AaNbQi0EUhgX3xck4DxqeeVsOXnmG+SvD2LlL4gt2DccEJe7jS5V3r4GQITwAWhHDsbcw0Rt+iMfN++F/DGzsBLneStcTwO56liZIAHyJL5cBDHwXL4vSsnsf+gGsNL9M/A1Ad8vuzuHvWmn+9PPQuYt++qnVxU6YR2U4PUwGLuPOleADUo7TWLB6nzlptR7KiB8aJJE3VctikrJLtGUp1iXK5aOrdVU4pfo1wfZx1K5bd+okIoqX9bOAaHuQaztGSljfR5Ga5PYv/vo3OFT7laeBthGBloOvjAOID2yk47xwRFzsXYdRGAAw+27E5Hz2sIiwF5eA3Rh/zw7cSPfSWcdXDwCgDy8Jv8MOFqX4JS6eZE+Sxw08BID9udAG8r1zxzEXO0xDzZPFj6zeCanm/gjpvQJEvoBagSD5njbYlbPHBWbXqO542XXKwvJH+Oljwd+dOYiky0FQ6x6W1LvrezhB2uUpnL2+rjA0SCZvqpbFzVB2iTYT97OyE+Uju7pq88r4unWgTiIiIspKqrZjWH2fQdsuNsDib6BJz7/SCR3/VXcd1aPHMYe4xlx8F35nWIRSo3DX67hqdz2aOCcTRIoLBu3GS/uBYNfoDDg9Q2Ibzut4cteecG8gogDcLWJiNn6YRps1J49npQjBzM7ugvDketG7usS5a3KrRUT1XnHu2exxjF53VqCyZn+fCMzX4rzchgUj7IKeUaO6O2U3epiQExzpf+1wwsZKuweMdKAqgjNUaGV6EqOSQ4Pk8qZqWdzAsku0mQjrkgzLR9Z11aamet26WycRERFlRrnt6Iip75XadmKRAZanv/5d4NdvJctTGBIt8yoVPFBVxUTsktC+7Y8OY7T12YHci/3WGK4PV+InTz1UtIf0iOZqsbsrDVzGhOKknjsTDhXqLte8FcIAknuZ7n4MnfwI+6btuTOEx1vExZNVyeu1jq8wjhNj7U8/gJXlKi6d7A8sye38mvflBzswNF215sMZG8eJAWBldgoT+bD84TrXsN4rtp2nF3FnehAr08ft/N6Pien76B+75Ztluh2MuPSmYMnuNyUmRJaUuuwqCB8mlMHwoJawX2RVOUOF7mNFcmiQfN4kIjVxdUmnj69aVz1vulcnERERZUf1/Vytvpdv24lFLtP8nY8fp26giZdp7hDhMs0RS5wt3/e+PIxdxp0rsi95Vi+WSyereP96EQddFztR7xX3cd+7jFp+Snqlou5yVpYB+qfDAlF7sMc1se/D2Srmpo9j7lPR6i9Or6Fx3JBasWE3xq9UvP90pYInd6/h7MmpkJWYqpib9a8gVMGEvQRX5IpRzhCXsVdDX7hbS3kNDOLEfju/PahibvY4RuFdEnPn6Rmc/7Qfl5anMPTilL1c2BrmZu9bS4sOVDEXttS0gizKrrRdh1EYmMKKfzWh1rVLOf9NFNdypG4nIpYWdVahiqeaN4lInkxd0unjq9RVz6du1UlERETZSPJ+rlbfq7TtRCIDLKkbaErLNEuIHBudYJnm1tKDzvLMUxh6AO9ShVEOvYoTqPqWa2ov7ZR4Sdpdr+Pq9EcYmp7C2euHpSJlXdFqzA7ixIczePtQWLp8QRBXAGQiD9d1b08yqt69y2vnIeeaWUNVxn3X7MSHwcKz8/RbODF9HHOzn+HelWHh97cnKhYXpFYBHLvlm4DVCeAcx2ive7303Rj/ZAUvnZvE+7P3sTJbtYbQjN3C1SvAjRerQMwkyzK6vdKXE2x0X/ts5r+Jt88dxPUHTf1cE+ae3z+FS7PHcfEVcTAmq7xJRD7SdUmnjy9fV+FuEbmT1eAh/Msbd1JH0tCdOomIiCgLyd7PVdqmqm27oNAAy4bOtRJm/aFV8ffuyfjA1lLQN7ADE7MqQQ1ruaa5aVcvFvfSTilS1Gr8C3tk+Njjo4MvV3ET3slrR/Iu48Z7ryv/stcOgFRx524FBw8BuFvE0PT9zH693Dn8XfRP37cnJdqN1njz5bD5O4YxNAbMzVrj0YPnFDdRsTMExhq/F1j+y7mHn36OJ6fdL79Wfjt4xbfD42uZTK64IWXXCTa2zrV9bRIHGgG076Er37jteh1vf/J66z9b+VTIO1xgfDdQm53C3Mkihr72PaST5k3VstiFsku0mSjVJQnKR0fqKgDYXcSND0UrAu7pXu822TQoX7fO1klERESZyLDtKK7vk7btvIQBlv/4L3fj735rCneQWnaoI5y5MLKYz0Hs4JVbODErGdSweS/0Yfw0Zr4OedZcEXMnq7j05jW8/ElOsI0zQV1YgEBiRSQJzgur9YtW0mVygZ17+gDcx8Mv14FDsO8nsDLdj9y0eJ+5kzvsgFV0pDDMrt4UQ9ScYFnoBK329Q3lXbEh7rpl0eNj48quE6yyhwkhfmiVrIOvjAOzVcz9ZBFvH0p+bYJLMrcfrBPnXkWj1d1vPUHeVC2L3Sm7RJuJfF2SrHx0pq6y651du3Fw1wb3Jo1NQ7bPlW71QiQiIoqX5P08ut4O1vfZtO2EAZbf6wG++UJPZIK67d65frtx1MH5HNxBjah5OXz7WL1YpnDjOvAwbLWZJA5VcGOsavequWwtl+hhTVB3aVk8LCY+QCDBGVIxFj/eLI4z98W+PbsBrOOl18ZxYn/Ixg+qmFsG+gfGsW8/sEei01JrxRpXDyer4FTF18fpoRLSS+DeT6qQC+jFvMxKyabHx0aWXScQUltcx8vI8MX8UBHnB6q4NBvfJS+UHfH2L8ncmn/AN1RIPW+qlsUulF2izUSpLklQPjpWV20lWT5XsuqFSERElI3M246h9X26tl3kHCybwuNFXHzzOOaWYY0z7vTSia7GXNjcDH7O0JS56SkAgzifYQ+bdq+aj4TjoNtDiSq4N+yeZ8SeXTllb5q4OUgC218vAsOCyYLu2i+/rZe13Th4Onzs3JPra5hbvo99pYr3Hjy+houLOUyc9v466T6+53yd+ynoleRMRiwOiEUHXyxOrw1rotyXPb+Yrttrs0OiF8d6K4C4pef7aA0TquAGkq2iJdae+Hlluh+jzVu4emYYO3f5t1vH46Zof6csiK5ve/6Y9lChZHlTtSx2uuwSbSaqdYlq+ehcXbW1ZPNceU7qJCIieo4kez9Xq++zadttogBLFRNH1zyrAK0st+dSiO/yG9y/rQ9vSE+A61rFRzQ3g8iu1/HG2BQmZtGBHjbtXjUryxAEWdp/n8hX7RUArNmRV5D25cgZrw3UPijiy7DNel9tBzyaVUxMVz2zLj98YKcdgzi/lP5l7eH0cQxND6J/rM86V9fxhQ1o+35eyu9AzY5qtvYZuIyropdNZ0LlmAJ08MotnHhwHHOzxzE0i9YKDA9n7clW/eurP76G0Tc/Avb32T2S7NUa0KmVNLrJeShV7cCVzK+kEeV2/1vtX6J3vY75pZwVbLWvNTCI/lZ5sJddhvXv7qB1+2EYsiRzq6eYf6iQKtWy2MmyS7SZJKhLlMrH5qyrNobic+W5rpOIiGjbU6zvldt2ApsowILACiD9A4PY99pbmBgW/Vodv39bxFLNIq2ASXAJ5jAHz1xG/+xHKEj+eqak1QAM//udD/fhRnkKc/ZLFAayXGbyPlZmI1ZnGdiHidPWeR88cwvn8S5qs/cx5wTIBgbRP/ZWqjHxLbsO442xj+zVDpw02ccX9mqAq3H+LuaWXcGY6bcCPWFapCdUHsbbn6xg6HoF739aba3AgIFBnHhNdPwc9gHt+wSrK9sb7xU3fnx/BqxyYP2SLD1XUli59XcB3DWMtz95hom713Cj/BEeLnuDKv0DfSiUinj50O72Nb9btMtN9MOw1VNMoeeakGpZ7HjZJdpM5OsSAAnKxyaqqzaS0nV7vuskIiLa3tTre9W2XVDP06dPzampKfzgwr/N+nyIqMP+6Jsm/vJvNtd8SURkYfmk7YD5nGjjsRwSbR4btygQEREREREREdFzggEWIiIiIiIiIqKUGGAhIiIiIiIiIkqJARYiIiIiIiIiopQYYCEiIiIiIiIiSokBFiIiIiIiIiKilBhgISIiIiIiIiJK6YWpqSkA1vrpRLT1sOwSbV4sn7QdMJ8TbTyWQ6LNoefp06fm1NQUrl27ttFpISJFz549w44dOzY6GUQkwPJJ2wHzOdHGYzkk2jw4RIiIiIiIiIiIKCUGWIiIiIiIiIiIUmKAhYiIiIiIiIgoJQZYiIiIiIiIiIhSYoCFiIiIiIiIiCglBliIiIiIiIiIiFJigIWIiIiIiIiIKCUGWIiIiIiIiIiIUmKAhYiIiIiIiIgopQ4FWJqo5HvQ0yP45POYXGiiqbJPTx75yQXBPu7dF1CZzCOvuh+AhUl7+8kF+fPKV2KOu4DJqO1U09tcwGQ+79l2ciHuzKw0L1Ty6OmZRPjZNbHgS0s+P4lKyOGbgbRY20slx/4+5zoKL/nCZEg+6Ik+D9E19aQrKo95P/50NRcqmMx7j1uJOOHmwiTyCttvWqH5tOK730nKfFCispjkGRNbfmX3s8u54BNdJtTKnLVL0mcA0WbR6XyvevwE6ZGhkuak9V2GaUhfpxNRtmTe3YmeB1nk9U3Y1n369Kl55swZUwb+ZMXzCdcwyxpMACY0zdRaH/vfABNa2WxI7aO194FmlhuCbyu7tgnsJ97HtbOptY6vm7XIK+BKI2BqkQeumbrwPBOk15VGTddNXddd/x2S4kbDrOmaxLnVTL113a1j665rHjy8fV7QWmlp7R93rVuH0COO3/675qTH8wleT2ef1jVx7adp7jQ1zFpZdEzX9oLzaN8v55zb11WUB2p6e3vdt33Y7Urq6dOnUtvJl11Hwyzr3rLXKpPCMpykzPu/MmFZTPKMUbkX7nQFjumUB186Ip9ZqmXOTPYMoA0nWz63h07n+wR1mWp6ZKiW1ST1XaZpSF+nM58TZUT63T2I5ZC2lBR5Xf0Y3W/rCgMsv/udaf6n3/7O8/HsJB1gEZxoo9Zq5HgbpxH7mI12o9V/FZzGulY2a4ETbpiNsujfXVvYjWcnwBEdNLHT2GpARV3kkACLcnrbN9n7Xc71CqahprczgV4u2/uHZLpG2dQigzr+/WpmuVwLBo1c5xWd7+Ibuc49UW8A65H3Opbzouu5GLX29fNk15r4uoZdh7DtU/JXqOnLrmm675Gmh5SfRs0s66IAi0qZ922WpCwmesZIBnxs7fIUFWAJpqMVmAvkBfUyp/oMoM2BL7wunc73qsdXTo8M9bKqXN9lnoa0dTrzOVEWlN7dBVgOaatIm9eVj9H1tm5IgMX/a7e7Qeb8/8QBFvcJCX8Bj4g+CS5CupcT13cK0xS+fbkcEvDxp9d3POX0Chv93r/501DTrV+pGg1XOkLvRS00KGFlXtnGm1wAwTp/zdT18OvgbCPbaFRLZ2jKxPkv4voH72VMgzfqXibkr1DTl932Q0stnUnKfMj+imUxyTNG1yV/pXaOo+shPdKi8n3I31TLXIJnAG0OfOF16XS+Vz1+ZnVfijSb6vVdJ9IQciDpl17mc6L0lN7dBVgOaatIm9eVj9Hltq5pmmboHCxm6duez/qzX6On/EuYpW+H7SKv9whGNQD1NTSkd8qhTwv+a2OtnjwdC1dRqgPQj2GklaZ53JYYX7W3eBNlDYBREM8jEkI1vQsfGwA0jB7pDf5x5Bh0AFh95JkXYmTGxNLMCHoFuwT0jmAkcrs61uRvEqD1IRf6xwVcLdUB/QLO9oUfQukaNSt4xwCgX0BR5nxDk2blBa18FiOJD9LAWh2ANgrR7UKuD1a2V7mg6lKVXed6amXcTHVBfeLKfIqymOT7jp0tQwNgfBxdeBeullCHhvLZYwkSYT+z/GVCscwleQYQbTqdzveqdVnWdR+SldVU7zAZpSFSZJ1ORFlRencn2sKyyOubt61rkZrkdv3Zr7Hnz9Y8DbR0gRanIapScYv3GTmmAwCMd1QmrbQ4LyLlsyMAelG8oAOoo3RVJmLSi+JNu5FWkJ+YRy29TTxaBYAD2CvMGHYDTilQpUpDn8xNaj6CldS9CMvDC5MFGNBRm0kewgh87e15WO3yNMdsomJFaXDBH1SICIpYL8aS1wcAevfiANDVxrBq2bUCCoB+oRh6H5OJLvPpyqL697UCMMY7ERNaLsBKVkjALE7zNubriCwTYu48tRmeAUTd0Ol8r/CsTrT9ZiirGaZBok4nIiLa+rJr6zpiAyz+BlpP+ZcSKYix8DEMyQRamqjkC7A6KvgafiNnrZ4k9RJySiu1CBpPzq87xsdyAZPeIm5a3VhQkO3GopTeuEBUL/ZaLXY8yrrF3urJENe4bKK5UEE+V0JdiwieLEyiYAB6bUayh0gdpZxvpmfBtXIHOZqVSe/s0IGVbkJE9V5x7rFRQL7irPBkzVZdMACtfNPVc8Z5eQ3peeEUzC41htXLrvNyriNVvEokssxnUBaVvg+QCeI0K++InzkSpMpE8AsFZW4DnwFE3dDpfC9dlyXcviVNmuXqu86mwSFZpxMREW1lWbd1XSIDLH/1d78N/PqdThMLlUnkC1ZvAXECDRTyeeRbnx709ORQqmvQaw0Ed+lFcamBmq4BdQOlQk5qSVyn8aSNHnE1nkZgdTAxEDNyoP3tykOFkqW3u5qonIrqyeBemjaHXGEeB8o1NJbCgicLmLSiETgbmyebeAQdut7+aADq9rXKe7obtH+tW7vag1zJAJz9NKBulFDI5WOW3IzovWLrLS6hUdZQLxWQs8+5UKpD02tY8uzTiyPWuBSUTvl7KLWvaTckK7tJepbFiS/zWZVF2e9rf4Ud7BQGcezhbFJ51kpnwRXcyxVKqGvliDIRTHd0mSN6HnU636sev9vlUKW+6yTVOp2IiGgry7qt6xM2ya37f0V/i+ZbrcP/0XTBZDIR+8guVdioeZeW1cJWlYmYjDRygs2QiTWF+4Qv0yyf3vhjxE/Oozp5UENixZeGWQ4sbRx2vcXXTHWy30atLFi5yZ1ngt/diJ2I2HRNYhq+TXs1GK29fGZrlZ3A2jHepbztZZqd66Nr8qvXyBBNcuv+X9Hfwknk2VBJyrx7v6RlMckzxpUXQyaEDObPsGsTskyzazk3PXZpq6gyl8UzgDYKJx2M0ul8L1OXpdk+kKLMyqq4vutkGlTq9CDmc6KscZJb2i6yWGV1o9u6QZEBFuEOqgGWVoNDN3W9bJZDUyVqiLuWZ1Zp9HkCF6JlXKMa1VErwYSvXNJaYra1k0JjNTS9XQ6wNNovdfGNQv8piJe6CgukJFn9KXiN2/lMfJz4c4+7fu4gTbD9H7acsH9ddnum61QBDLGwAIuI/PLMSR5yScq8mUFZTPuMEeWRiH9TWUWoUWsF4kLzeWyZY4BlK+MLb4hO53vVukxme2cFnkAw10ljtmVVWL90MQ1hdboI8zlR1hhgoe2iywGWDrR1RaSXaRYt+xqRhAQNtfB9ki0bG96Dob12dvRH1HAOPy/n5jovLuqN6WB64zKMzHVWWT7ZSq9ifgsco518lSWOpb4g0BiPe1mM/nvcPZJcOlz2Hkv0llEls0yzStlN3lhPFpzpTFlUS2OgISPMtwkCLK5jie65XJnL4hlAG4UvvEGdzveqdZn09o2GWavVBB/fjypZlVVRfdHlNMjW08znRFljgIW2i+4FWDrS1g3xgmjY0N8Xv42//c3vRH+SW3YoYyMzNehGAUbpFCpHlqSX4+0tXoBeKsBYfYQmRuzxVfaEmgA0TbDuMwCgjnodqJeuYqEoOwZ5BDM1HUbBQOlUBUeW9solMjK9zqSp1oR0wSWmspkzo1nJI2fPKXJzZiTxuPPevQcA1LH6qAmMwJ7bBKiXcugpifcxCj3W/Bvlhm8+Ezk50drdsuyJUL1zf7jZ1zf82z0rMsSlPpsVj6KlLbvW9bQmfi12fHLDTpVFNa1yN38bzeIR3I6Zk0eJswqV75/ly1x3ngFE3dDpfK9alylt39uLkcj1ILtQVrucBm+dzpmhiIhoa+pMWzf8KMI21ws9wO9/4z8Tfr75jQ0JsWCmlnbZVpuzuohew9LSUsjHRC3JBJsjM9Z+9RJOVR6lSycA96Sp86JlaWIDBBKaFZwq1a3rkSLDAUDTmnEWB+z1IfeOeifv83zs9rSmWf89KhGPcgIUmmstLSejC69PqwEvXrLSWRp4NHapiLAVF+ICMG5N3J6voyMr9LikLbu9xQv26j0FTHZ64uVOlkUlIzhb1oB6CVcr1tLKwhWlkmisBSc2VipzXXgGEHVDp/O9al2WYd2XOM1RyRPUd11Pg69OJyIi2nI62NYNJRoilF62Q4S8f/d2y6mV9ZA5FxpmTXnODhena79nSIDKkBx7okvfkAK19LqPFzIBbuw1jt5OdUhIrSye3EdlXJppRnSxapRNvSyY7yT0+OHzdITPkWKastevNYQlMAdLw/O3aO1tMxwdZJpmh7qE1tqTOWmCe2GapjW/iK5aNjwH6EJZDPvOiHmZEFYeEs7BAsEzS3kYVtpnAG0Udtlu63S+V67LOjJ3kWJZVa7vsk9DFnU68zlR1jhEiLYLuaH20dOEbL62rnCI0ObUi+LNMuZzJRiFSRwz7eECawZKJQMlANA0OAMN6nX7d2OtjJtOV/+m9eu01NKrI8egw4BRn8ftZhueB7EAACAASURBVFF6WJJ7qFC9DsA/8kElvb7jFXIGNF3HAQCrhmENN6mlGTbhLHMMzF+dxFrYZn3HcLZoR/zWDBRKBqBp0A8cAACsrtrnCg3lRvphHKulAnIlDZp+wDpX1/GD59vOF6VcD+Y1HQcOuPYJXE/n1B9hFQD0Y5HpHZmpQV8twDAKyBmwr/8qVo261TPBvx56s4L8qXnggJV2YBWGYd1brSxaZnwTGpnBUg3IFwxraeoSPHkVdefcyzib9Du6UhYV9BZxQS/BWt35QoLvMFDIr7qKex3tIu2+7wnKXEefAUTd0Ol8r3r8JOmRoV5W1eq7DqShC3U6ERFREgv2XAL1+dtoFkXLKcfZoLbu1unBYglMeGuvwNNeFtX+u2bNDuwOQEX3aBCkKLQHTPx5tXo3+H/xVkivd7dya0US67hyy0RFR/VilroNrFDgSr/n75q9So688EmCgivwAPbxIycgrJm6pnn2Ef0y2L4sMhFRV5rKuveeaSHHD6QDpqbpZi0y8cl19hcLwXmHnnuyyRO7URal09gom5ryhMiuZZr9E/Nqot5qCcqcs2fiZwBtFP6i6Oh0vlc9fvL0SJ2tdFlNWN9lmYYM6nTmc6KssQcLbRfReb2RugfLxrR1e54+fWpOTU3h2rVrcbEYItpknj17hh07dmx0MohIgOWTtgPmc6KNx3JItHlsxIy1RERERERERETPFQZYiIiIiIiIiIhSYoCFiIiIiIiIiCglBliIiIiIiIiIiFJigIWIiIiIiIiIKCUGWIiIiIiIiIiIUmKAhYiIiIiIiIgopRempqYAWOunE9HWw7JLtHmxfNJ2wHxOtPFYDok2hxcuX76Mqakp/OXf9Gx0WohI0R9902TZJdqkWD5pO2A+J9p4LIdEmweHCBERERERERERpcQACxERERERERFRSgywEBERERERERGlxAALEREREREREVFKDLAQEREREREREaXEAAsRERERERERUUoMsBARERERERERpcQACxERERERERFRSgywEBERERERERGl1KEAyzqqR3cg96Lgc3QYF++u44nKPi8OY/TcomAfl8eLqJ4bxqjqfgDunbO3P7cof15Hr8UcdxEXo7ZTTe/jRVw8OuzZ9uLd9Zj0Wmm+d30YuReLuBe1jS8to0eLqD4Wb/0kkBZr+3sh24u+z7mOF+8K/ny3GJIPdkSfh+iaetIVlce8H3+6nty9hotHvcetRlz/J3eLGFXYfvNwrlFUfmmXmdHrEufk3M9zi1C5B97jqz5T7PIXm8b2doG8qFJGk+bZlpgyQfRcUKtrACjWfarHT5AeGSppTv3sSJ+G9HU6EaXXoecR0fNIue5MWL5i25ZiL6icS27eWzk3RnfH7zQwiP7Wf9zHyvJ9zJ3sx9zAZdz55HXsjN0HWFm+j5XZ4xiaHcT5pUWM7/Ju/uT6MIam7wf2tfZ7Fz89MxzYp+XxNbw/a///2c9w78owDsafFbA8hbPXD2P+tMQ18FFO7+NrGM1PYQVA/9g49gF4OFvF3Ml+PBy7hfkrw4LzWse9Dybx/ux9rAAA+kJSs4iLR49jbhnAwDhO7AfwYA1zy1Ws5Kv48sNnePuQd/sb+eOYw2ArLXhQxdxyFRP5NeH9CbhbwaXlmG0A9A+MY99+/7/ug/Dwd4sYPVm1rpFzHgAePljDV0Drnr70WvtvIg9nq1jBIPa4bmv7fg2if6wP+7CGh7NVXDpZRW16JZAH7p0bxsSstf2JsT7AtX3wenZHorIb4eAr48BsFSuffo4np0PKse3eT6oAgBOvDANYB/Z7y3fAsp1nBy7jqqh8ST1ThvH2h+OYO1nFynQF905XhOX6yfV3MQcAY7c89yXpM0Upz7pJlgmirUu1roFi3adelymnR0aS+hopnh2p05BBnU5EKXXoeUT0nJOrOxOWL8m2pYgwwGKawG9gev7tGz09rUaZv7EWbhw3PvE1bB4vovrmcVwKDVAI9sE67p2bxMTsfVz6YBHj7peDu0WrITRwGTfeex0Hd3n3e3L9czyOSOGTxY/sCzeIleUq3r9exMG4oMnAIPqX72NlehLVYcWXD+X0LuJifgor8AWXrhRRPdqPS7Pvoupr7N07twMTswAwiBPTl7FvespqRIo8buDhcjBw9bb9gjZ3soihr733Y8/0Ldw5PexqVFcwcbeIoZNVXHrzGl4OC5zZ51gtV0P/CgBPvlwDAOwrVeQqlMfX7AIwjhtLFd81dduNgyENbQBWNHQW6J+ecV2LRdyYvg/4j31mERfzxzHnb7zfLVrBFX8A0dlecD2zlF3ZjXGoiPMDVVxa/gg/ffx6RBlYxJ1ZABjH0CEA2I3xK4sYDz3wOqpH+7GyPIjz74nykcIz5VAFN8aqmJitYuLcq2j4GzaPr+Gsc29TPlOU86z/nGPKBNGWp1zXKNZ9qsdPUPfFU6+v0z07sklDujqdiFLryPOI6PmlVHcmKV/SbUsx4RChvX++jr4//8rzceTm19P9+r1rGOPvXUY/YP36LbXTbhy88hZOAFYvE9dfnAt8ouRvCFn77Twt+nfHOn76qdXAeuO978qnabkPhelBAFbAR4Vyeu9+hjn4G/3WtuOl8dA09I/dwp2lRbx9OheTohzeEP1Ctet1vDEGAGv46rH7D8MY97yIWXYeetW6P8sPowNa1ydxaXkQJ8YGY9Ll7UUS5d4HzsukegFocxq543jDHWBrXf+i99i7hjExPQigijt3/ccQBAd2WT0qgCrelxlWk1BHy67Hbrz8mlUGaosRQ6XsHiL900WpFwMrf4jye4SIZ8rBK7fs58Zx39CbdVTftH7hPfGh96Ga/Jkin2fd5MsE0VamWNco132qdZnq9hIS1tdJnx3ZpCFdnU5EWejA84jouSdbd6qXr7Rty9A5WBqjuz2fv/jr32TXQNt1GIUBKFbce7BnIPivj5v3k6fD6ZY/9ioOttL0EX4qkaiXTs/g/AAEDbdoqum1hlcMojAsuO7OC9CDhq9R+QzzV4axc5fEF+wajsk49/GlSjxgIKpLs90bZOwtTPSGH0LpGjlDvMbeSteN2c4LsoEAsS/x5TKAge/iZVFadu+zggDNLxN/g4yOll2XncNxQUkngBmSf/2cHiVhQ4OihD5TnMAWMFduz4fkBHL8Q4OAZM+U5M8huTJBtOUp1jXKdZ9qXZZ13Ydk9XWqd5iM0hApsk4nokx04HlE9DxTqjtVy1cGbUupSW7/4q9/g0O1X3kaaOkaa05DVKXiFu9z8JVxAN7GkyznReT8mWHE/8Lkt7v1q/ncSfmJ6NTSu46vHgBAH17aJfq7HXTq6C9MktHBxw08BID9udCuxPfOHcecfzhGSs4QL2t+j6RCeq8AkUERq3Ar/PK4K2ePb1d4uU0p+7LrEheUfPw5alEBJw+nR0nY0KA4Ec+UQxXcGIM9b9J6+NAgW5pniqpOlAmircn9LO1E3afaS0R1+81QX2eYBok6nYi6JcNebkTk45t7M4O2ZWyAxd9Ay2QOB7sLq3zFvY7q0eOYg9Vt37PPoaLVk2R5CkNKK7XYc0O4G3/Orzu+YUihdr2Oq/YwkYnYFYiSpDcuELUbL+0HOtJ10InexTaO1/Hkrj2h3kBEQ/FuEROzweEY4e7jUt4307PgWrmDHE+uF72zQ5+7JrcKQlTvFecezx7H6HVn9RhrZaaJwHwtzstrWMDBfmHtUpfrjpRdj+hhQq35jV47HFvOEw0Ncot5pjhDhVamJzEaMjSoJfEzRS7PttOsWiaInkPCuibDuk+6Lku4fUuaNCs+OzqSBodknU5EnZf4eUS0HaSsO0PKVxZty8gAy9Nf/y7w63c667h33ZqRN+zXY6CKiaPDGG19diD3Yr81R8GHK4KJbHZj/JMV3BgbBJaruHSyX2pJ3NbcEJ7G3zCGxqw03JEc9rNTeahQsvR2l2t+Cn9AC4B7advci/0YOvkR9k3fwp3A5MSu7U9WgYHLmIidxG8dX2EcJ8ban34AK/a18i652/617ssPdmBougo4+w0AK7NTmMgPxyzBFdF7xbbz9CLuTA9iZfo4huxznpi+j/6xW75JmtsBh0tv+ns/tK9pN2RfdsXChwkpDA9yTSqrPDRI6pkCtIcK3cdKyNCgNtUyqpJnHSplguh5FVfXdPv4nU5P8PvUnx2doFqnE1Hndft5RLRVZFF3hpWvLNqWMcs0f+fjxykbaFVMvFgN/vPAOM6/F1FxO8u0OsYu486VqIfLbhy8sojGmUVUP3gXl+wlcS8NjOPGe6LJacIbfwfPXEb/7BTmytcwcUjmgWYNFarl1fZRS283Wau4WL0JRAEtANiDPWPjVm8f2Ms/Th/H3Kei9Du9j8ZxQ2olgt0Yv1Lx/tOVCp7cvYazJ6dCVm6qYm7WP8tzBRP2UruBlafcnGEsY6+G5sfWkr0Dgzix317u+kEVc7PHMQrvkpc7T8/g/Kf9uLQ8haEXp+xlL9cwN3vfWhpsoIq5pEtvKkhfdiXtOozCwBRW/KsJta5r3PhFO9AgPTQo4TMF7clr5aiUUdU8q1omiJ5HMnVNN4/f6fSIJKnvOkGlTieiztuI5xHRVpG27pQpXynalojpwZJJA21gEP0Dg9b60WOXcf7DFTQ+qUSc9DhufP0Mja+fofG1/Svy7BSGjkrMh7BrGONXFtFYuoXz9q/PE3nB/ChRjT/FyW6tfexhJM4cD7Jk09stj69h1NVbKLiEtsPK2G/bn/mvn+HOh5fRL0i/M/Qj7TCInYec4Vji4SgnPgy+BO48LV55yq01S/QZcSFpBVfGbuHOJ4utc377k2dWr5bZ475Iabv3Qz+Aldkq5mat3i53PnkVWFY+9US6ElwB4J67yH1fZMcvWnOQACc+VGhEKD9T4JlA9/wY5HucpSijYXk2qzJBtGVJ1zVdOr7M9neLrS7Cno/Mu4mi0PquY2mQr9OJqMM6/Xwkek7FtRUBKJWvpG1LIKIHSzbzNYzjRqouptavyDewAxOzUzh7/bDcg2bXMMavDOPl3mEMTVcxce5VNFxRJqtRDWD2OHKzYQexbs645INt5+m3cGL6OOaS/OIUk15nzo7gL91xE9rJa/fSuIwb70UtbS1mZeqPMDRdxZ27FRw8hNbQj6yi7zuHv4v+6fv2hLO70RpPvhw2+Zc15Gtu1hpvHjwnwTw8Hu1lvG9cESxj6dzzTz/Hk9PunghWvj14xbfD42tdmTQw+7lWYhx6FSdQdV2H9nUbirrv9hwk0cN1/JI8U7zdAMd3A7XZkHXvw8SV0RCBPJtxmSDaapTqmgR1n2pdJr397iJufPiq4A97vOnLqL4O1nfdTYOwTieijkr7Lk603QnrTptc+UrbtrQIAyz/8V/uxt/91hTuILXsUMYOXrmFE7PqwYtWA/hBA0/gNJDtRjWA/oHBkD2teRpWpiu4d1q2MWfN8TB3sopLb17Dy5/k5BIZmV5n0tSwm5hkNaYgJ8P1j93CVUEgQdbOPX0A7uPhl+vAIdhzmwAr0/3ITYv3mTu5w5oLZzpZlH5Xb9g9lGBPjBo+Cat9fUN5V2SIncg1kxWPom1M2XUeNvYwIcQPu2oPDer8JIrBJZnbDQfZQIlD/EyRtd6VMkG0WcnXNcnqPtW6TGn7XbtxcFdUeexCfd3lNHjrdD6LiDopq3dxIgpSKV+p2pY2YYDl93qAb77Qk/rg2XEFL2LGPMVyVhsZ886d4Xfv3A5MzCr+cnOoghtjVbu3zWVrSd5UrElTLy2H9KaJDRBIcIZOxFwPGc4cF/v27AawjpdeG8eJ/SEbP6hibhnoHxjHvv3Anj0Sx3dWpeltb2y9AFZDehs5wTTxr3XOMt2xk7Ai5mVVimSvjpQ2quwefGUcmLXuw8uIDyS1hwZ1eJiMM4GuL5DTmitn9jguvvKsY71J/Hk26zJBtGUo1TUJ6j7VuizDui9xmiOI6ruup8FTpxNRx2T+PCLanoR1p2L5StO2dGxEh5RknKVTfXMn3LsetrrHOu4FVgpq/4Ic14vg4CvjAIC5strY5vZysB/h4UDw72rpbY/1Wpmu+JaFavcACFv9RkbcHCSi9IuWp3py1868rQDCbhw83R7T7f9MvGZFB/eVrP8ed34de3wNF1vLIYuP7zlfO1+sTE8GZnRurRQlWn5ZqoA4q0pZkxn5V8lxggTRPTWcbfuf73k37CXOVz6t4Man96NXx0k0NCgJp4yIrrszdwwwd9I7x4BqGZXPswnLBNFzQLWuUa37lOsyxe07kWbl+q4DaZCv04moUzrxPCJ6binWncrlK3Hbsi1yFaHNxbVaj3vuhGYVl6aruARYk1/aW68s37f+j3vpV2dyW5mlUZ15Jfyro8Rq97ZZWQbgD7KopNd3vIl81V6VxprlfwVpG+zOeGyg9kERX4Zt1vsqJk7b3amaVUxMVz0r6jx8YJ8rBnF+KX0A4eH0cQxND6J/rM86V9fxhQ1lO19cyu9Azf71v7VP2NK/jxvWfCgxwZGDV27hxIPjmJs9jqFZtFYFejhrr3Q14Bvi8vgaRt/8CNjfZ/dgslcQwlabCb6KiaNrrfzpsf8tQQTYGSZUtR88Yb+QtoMemH0Xow/ejUzFvtJi4mvWDoCFBHJaPc58Q4WUy6hqniXabhLUNUp1n+rxk6RHhnp9nf2zQzENXajTiShKp55HRM8v+bozSflK2LZ02UIBFgC7XscbY1OYmK3i/etFHDy9GwfP3MJ5vIvag/tYcS3v3D8wiH2lGUwc2t16GLW6DUl1jx3GxPQg5qbVJrsF4Gq4Bf+kkl738e58uA83ylOYs1+SkOmSzvexMutbGtttYB8mTg970z97H3OtBucg+sfeymbM6K7DeGPsI7w/606Tffwzw9i5S7TP65hfyuHim+9ibtlVwKbfCq+M1h9Kdr8extufrGDoegXvf1rFSuv6D+LEa6Lj57APaN8nWEM+3nivGDN2fhPyL5fuCBni4ixxvhIx7KoV9ADgzHUUJfEwO6eXTMwcL635nVxDhZTLaJI8S7Qtydc1ABLUfYrHV95egkqaO/XsUEhDx+t0IpLUgecR0fMoUd2pWL6StC1dep4+fWpOTU3hBxf+reLZEdFG+6NvmvjLv9lM8yURkYPlk7YD5nOijcdySLR5bJ05WIiIiIiIiIiINikGWIiIiIiIiIiIUmKAhYiIiIiIiIgoJQZYiIiIiIiIiIhSYoCFiIiIiIiIiCglBliIiIiIiIiIiFJigIWIiIiIiIiIKKUXpqamAFjrpxPR1sOyS7R5sXzSdsB8TrTxWA6JNoeep0+fmlNTU7h27dpGp4WIFD179gw7duzY6GQQkQDLJ20HzOdEG4/lkGjz4BAhIiIiIiIiIqKUGGAhIiIiIiIiIkqJARYiIiIiIiIiopQYYCEiIiIiIiIiSokBFiIiIiIiIiKilBhgISIiIiIiIiJKiQEWIiIiIiIiIqKUGGAhIiIiIiIiIkqJARYiIiIiIiIiopQ6FGBpopLvQU+P4JPPY3KhiWborguoTOaR9+yXR35yIXwfAM2FCibz+cB35ScrWAjdcQGTojS6vrfS2td1TvlKZFpax43bLvRcQ9LcXPCdo3Ut4zWxUMmjp2cSC1Hb+NKSz0+6zt+3dSAt1vZSybG/z7mek6JELUxG3JeI8xBdU0+6IvKm7+NPl5XHvMetRJxwc2ESeYXtN1qzkpe6Lj09PchXmliYbP//WM79bF1U5z5E5cmwhDaxUPFdW1d5917jdhmPTmd7O2F+bH95dL4F1Mtp4nJNtNWo1TPWLirlQ/X4CdIjQyXNSeu6DNOQvj4notQ69Swg2hbC3s8TtvtSlscXVJLeU/6l57/N0rfjd9I0aK3/qKNer8Mo5GBoZTSWiuh1bdqs5JEr1QP71et11I13cPvsCIruHQDrJeJUAUY9+H31uvV9BaMErdzAUmBndzI1wb8eEG9cL+FU5Ujk8aI1UZk8hVI70dDaiUbdqKOwCu/1aVaQz5VQB6DpOg4AWDUMGIUcVvUalmZGBF/TxMLVU3jHqKMedT5YwGTevoaaDv0AgNVVGHUD9ZyBtZoJ7+EXcDVXgAGtlRasGjDqBgq5VZQbS8H7FPjKq3BudRRN03EgkOw+5ITHnES+YFjXyDkPAKurq3gEwDmFvaPtv4msGgbq0NDn+pJ23tSg6QdwAKtYNQyUCgbmBXlrYTKPgnVBoVsXtLV98Hp2nlzZPQB/MajXg+XR2hIYOaYDhoH6/G00i96y7LfwsQEA0I+lO3HPM8JdbtAu73VjDXvNGft+j2CmpsMoGKiXrmKhOANRCpqVd2AAgF6Lvjdx+Va1nCYp10Rbkmo9A8XyoV6PKadHRsIyrVTXZZqGDOpzIspMps8Cou0i4v08SbvPkbg8Pn361Dxz5ozp9rvfmeZ/+u3vPB83/MmKiT9ZMcM1zLIGE9DNWuBPNftvMLVyo/3vNd0EYEIrm7VGYCezURb8e6NsarCPpdfMwG6maTZqrm3K/i1qpm5/p2hf4Tlpmn08zQwcTuq4jfb566JzNa1rpLv3tY8X+E7nWMG01HTrOwDN1Mtle3/B/TBN+zoKzqd1ff371cxyOXi9G657GH0929cAgKkLEtUoa6F/Ex/Sldb4mxnOPgdvXqm1r5/7nxs18XUNuw5h26fw9OlTz3+nL7ueBIeXY8/fo8qCaXqun/Sxg9/VytNaxD22y47/mK19xZktJJ8H0xCdb1XLqXq5pq3FXz63tQT1jFL5UD2+cnpkqJdp5bou8zSkrc+Zz4mykPZZwHJI21d8uzKUsN2XvjwKAyxOI8z9cf/N/b9iMY0n5wXGVXGrn0hDHKgRbhr2wpEgwALdLNtpFTbWYo7rNPRi0+zdKXwf5yXIl5aabgedGq70hN6PWmiD1UqvbENPLoBg3WvN1PXwe+5sI3uZ1NIZmjJxvo24/sF8G9M4jrqXCfgr1PRl1y0+COKcf9T5iLdRC7A0XGUu2ZVz8qY/v7WfI3HPnth8q1pOE5Rr2lr4wuuiWs+olg/V42dW76VIs6le13UiDSEHkv5BgPmcKL20zwKWQ9quZNqVIXuGtkXSlsfQOVjM0rc9n/Vnv0ZP+Zdyw4Li9B7BqAagvoaG/U+NNYnxIm5OVyCtjJtx/Vd7rWECQB2lq+lHMe4t3kRZA2AUYuZr8GlW8I4BuTS7WMMrNIweEewzcgw6AKw+8sz3MjJjYmlmBL0yX9M7gpHI7epYa0T93UeL6jq1gKulOqBfwNm+8EMo5QfnuuoX0nVltvOUVj4rHEYip4G1OgBtFKLbhVwfrKyvckHVdLTs+vQeGbXOZ/52yHxDTdyet4ZKCfOvjGYFp6wbg8bMSORQpHDOMwAw3mnPjdSsnLKeI3FDgyTyrWo5TVKuibYsxXpGuXyo1mNZ13tIVqaV3306kIZIkfU5EWUl62cB0fYg164U7xre7ktbHqUmuV1/9mvs+bM1TwMtXWPNaYS2K+6RY8HGT5TWnA4Xoud+aHFeLIyPM5goqhfFm2VYMRb5iacWrlpjoqXTDABo4tEqABzAXuFOOfT5glXZE49LC2g+gpXUvaHntzBZgAEdtQznlmjenreua6r5PZqoWFEaXPBHaSKCIlYBlLw+ANC71x7j3p2Gc/Zl16cVLJ3HbeHEzLcxHxVwktC6v0rlRmBkBlactYRTlWY7cCORH+PzrWo53QzlmmgzcT9HO1E+FJ7TibbfDGU6wzRI1OdEREQbKXm7MqLdl4HYAIu/geafLDORhY+tCSXdFffIWatXSL2EXOxqK85LhMoLkP1igVU8yqJl21vETasbCwpS3VicNOtQiwMEg1G+hGCv1WLP5rzcWj1u4hrHTTQX7En1tIhMvjCJggHoNfFEo0F1lHK+1R0E+cId5GhWJr0rQkSuIuVOW0TvFedeGwXkK85qVtbKTAUD0Mo3XT1nnBfYsICD/dLahYZzR8puQC+OWBEWzAtO2AmOaKNHEr6kt3vAqDV2xEZmarBiLKeQP2UHPOPyo1S+VS2nG1iuiTYTYT2TYfmQrscSbt+SJs1ydV1n0+CQrM+JqAOyehYQbQPK7Ur3vjKjFpKXx8gAy1/93W8Dv36nYy+vWrAiRt6KuxfFpQZqugbUDZQKuYhlbe2XiNBfaUScFwtBt996CTnRMkwxgZNepaFCcS8+m00TlVNRPW7cS1znkCvM40C5hsZSWCZfwKQVjcDZ2FLQxCPo0PX2RwNQt/OFd7nd9i92a1d7kCsZgLOfBtSNEgq5fMyym/FRzN7iEhplDfVSwc4rORRKdWh6zbeCUDvgUDrl743Vvqadln3ZDRc+TCiD4UEtKmU9Snu4YF1yaJB8viUiNXH1TLeP3+n0BL9Pvq7rJNX6nIiytVmeBURbRZr387h2X/ryGBlg+S/+9P9O2UAzUPAELXIolAzUNR3lhqji7sXIzBLMRg1lX6Cl0wFcTdOCn9i9XEOFJIc2bQ1NVPI5O7LXCGmA5tDnyXh1GKUCcsJ71UQlb3fhWpJ5ae1FcWYGM67PkmmiUbOudb10ShAwMWAYOmoNE0vOfksmGmU72BE1944zjEU/Fvoy2VoeWNPaBU4D6kYBeV90rRV4swN3+clJTE7m0dOTQwnWfp0OtKUvuwrChgm1rmvKuXGiNCueHkvCtez9u1gROZmDK+ZbIpInU8908/idTo9IkrquE1TqcyLK3mZ5FhBtBSnfz2PbfenLY2SAJZMGWitgoUPXyyjXGjCXZqIbXL0jKPoCLYWce66TJMN9IoYVaWXcXFrCkv8j84blDB9x5nUItUXmVGhWkO/JoVTXoNcavt4Zbt7M18p4gXvVnkg0URcu9zeOOMOyxMNR9NpMYNLC3uKF2Ll3rLlxNJRDQqCt4IpeQ2NpqV3g7ABO3Sj4opnt3lgagLphwDCs3i6NpWPoRheWrgVXAAC9KF6weoW470s2Q9LdnQAAIABJREFUc+PEO6ASFHVNmFvWEdn7LKt8S0Q+0vVMl44vs/3CZLCXa08PevLZ/7gSWtd1LA3y9TkRdU/cey/RdpT2/Tyu3RdGpTy+EPaHbOZr0FFL08W0dwTFmREc6csjVzJQmDwGc2YEreE+dXu4j9S7WZJhRZLJLF6AXirAKJ1C5chSSPDISbMVFIpevUDADswEd4ub1E5eu5dGGbWbReU0WhlvHrmSgY8XZjAyAmBhErlSPbNfBHuPjEIr1e0JZ3vRvq5hc3SM4JgOGEbYdV/Ax5Hj7Z1hLtaQNv8mrXs/fxvNojuKavXGGpnxH67S8YkDOzPXSoyRY9BhuK5D+7qli68499eVpzx/LmJmqdj6z1YeFvJ2/y/mgHmjBKMwiWOm7zmVNN+qltMulGuizUSpnklQPlTrMentc2dRqx0T/cGbvozKdLCu624ahPU5EXWd8FlAtF2lblfGtfuiyZZHYYDl74vfxt/+5nfCHaSWHcpYqxG7+ghNWI3cEavVDOOdCs6OSHQPcibWjRgGkpw1r4NRMFA6VcGRpb3CrXJ97eEqRelc4fR8CQsQZDO3i/OSqek13Ey8FC7Qa7WGsfqoCYzAHuMG1Es59JTE+xiFHlirVyf7JdO6rgnZ+SJ8ElYnMBf67Z6eSXGp73Svjo0ru04gax63m0UUET/sSvrITln/eAEzKd7yg0sytxsQ7eAt0B6bqZJvVctpd8o10WYiX88kKx+q9ZjS9r29GOmN2qILZbrLafDW52zYERHRRkryfu6ru2LbfdkQBlhe6AF+/xsbEUpRMHIWZc1AqV7CqcqR6IZ5s2JPrKveHUg+PTOo6QYKRgmnKmVrKV6fVqDIKGDyWAMzUi8s1qSppbrVHanYiYziDJvQa3LDoqIOZc9vcWBvL4Am9o7q0EUXAwBWDRh1QNN0HDgA9InjUt7jO6vSuLqrWC+Bhvj6OJHKkF/srOW+ZSZhjXlhlZJVr45wG1l2nUDI/O0mjiDDQJJT1o0C8n0JhxPYEW//5Nq9xZsoz+dQMgqYPGa2ouHq+Va1nHahXBNtJkr1TILyoVqPZVjvJU5zVPIEdV3X0+Cpz4loIyR7FhA9n9K2K+XbfWLS5fHp06fmmTNnzGw1zLIGE9DNmuQetbJulmsN4bFqZc0EYGpl398bZVMDrL/pNVO4d01vb+Pf36yZOmBCKwv3VT8n+3jQTE0LOa4nPeI0m42aqevufZ3j6qb3Ern+PTLt0dvVdCvNgcsTdrSyPx1Osp37IXffG/Z91f0bN8qmLrg24cd37k3wHBphecc6E6nrZ10fmAjksYbnb9Ha28ZuquDp06fZHSxAtRw75Uk39bD8n/TY/rIuLjhmTRflKec+h1z7mm7dw7T5Vrmcpi3XtNl1tnxuLar1jGr5UK7HlNMjdVS1Mq1c12Wfhizqc+ZzopQyeBawHNJ2F/5+7pB8v86gPIbOwdJ1awZKJQMlwJoY1/7net3uHqCVcdP/a0xvEUsNYPJUCYZRQM4I2RfJh5+oaQ8Vqlur0wo2mcFSDcgXDGvJ35I3zajXrTlQtTLOCo5byBnQdB0HAKwahtVLINUknM6YbGD+6iTWwjbrO4azRbsL9ZqBQsmwVtQ5YIURV1ftc4YWskKUmtVSAbmSBk0/YJ2r6/jB87VWc5rPlVDK9WDejly29hHlHQBoPrLmQ4kZxjIyU4O+WmjlMev6r2LVcO6Vb8nxZgX5U/PAgQN2T6ZVGIaVF7u3OsVGcIYJGXbXPJlfSQ0U8qviyWkPXGj/stxbxFJjLyZPte8DoEFrFxy0i7uGPtdhFiYL9vDAkCWZW73P/EOFVKmW006Wa6LNJEE9o1Q+VI+fJD0y1Mu0Wl3XgTR0oT4nonjZPwuIyEOy3QdkUB43Sw8Ws1Ezy7rd8wPtj6Zppl5rxPQwaVg9VTTNsy809/E0QQ+ZrHuw2Ed1ejXE/IJfK+uB84WmCaNmpmlFznT39pr4lydBiiIids55xXzc5+LcK/+1DulFFHoFQiONVk8Ez/GhRfRcaKdL9+SB8GtpXRY9oneLIE3++xV2rwLpgKlpulmLTHwym6sHi+nqaRL3y7BEvgsJQVvlQJA/NKsXnPdHW9neKTG9XDynGB0hVy2nycs1bXb8RdGRoJ5x9pQqH6rHT54eqbOVLtMJ67os05BBfc58TpRW+mcByyFtd7E9WKTbfenLY8/Tp0/NqakpXLt2LS4Ws0U1sTB5CgWnB0HKSVyJNpNnz55hx44dG50MIhJg+aTtgPmcaOOxHBJtHpt8JtssWMvlNmo6NAB1o4BcfhILXE6eiIiIiIiIiDKyeeZg6bDekRksmTMbnQwiIiIiIiIieg5tgx4sRERERERERESdxQALEREREREREVFKDLAQEREREREREaXEAAsRERERERERUUoMsBARERERERERpfTC1NQUAGv9dCLaelh2iTYvlk/aDpjPiTYeyyHR5vDCf/kv/if8f//hf8DK//vbjU4LESnq/0e/x7JLtEmxfNJ2wHxOtPH6/9Hv4Q//8A83OhlEBA4RIiIiIiIiIiJK7YWNTgARERERERGl99//h/9no5NAtC39u3/xTwCwBwsRERERERERUWoMsBARERERERERpcQACxERERERERFRSgywEBERERERERGlxAALEREREREREVFKDLAQEREREREREaXEAAsRERERERERUUodCrB8hVvf+4d4eb/g873D+NHPvsLXYbv+6g5u/fAwvu/Z7zC+/8M74fsA+Ppnf4offe9w4Lu+/8M/xc9/FbbXHfxIlEbX995q7es6p+/9aWRaWseN2y70XEPS/Ks7vnO0rmW8r/DzHx/Gy/t/gJ9HbeNLy/e/9wPX+Xt9HUiLtX34tQ5+n3M9f/QzwZ9/9oOI+xJxHqJr6klXRN70ffzpsvKY97i3Iq7/1z/7Ab6vsP1G+/rHh6Wuy8v7/yG+/+Ov8PMftv9/LOd+/vCO/Q/OfYjKkyF+9RV+/mPftXWVd+81bpfx6HS2txPmx5aYfAuol9PE5Zpoq1GrZwAolo9u12NxZOreNNtHUHyubLX6iuj5luGzgGhbeAGvDr2I9777IiZeDP71H//Bf46Jof8K7333xdbn/NA/wMAfhB/xH7/4B5gYam//3tA/wKsvviCZGgUvf+596/jp4f86fqf+7+Bbrf/4Bb5Y+QU+0/8ZPuu/hNn/7b+D+xp8/ePDGLv8i8B+X6z8Al/M/8/4P//bIRz3f+Wv7uBHf/yv8NlK8Pu+WLG+74/nz+NbU/8X/v2/fik0md/q/47gX/vEG6+cx+UfvxJ5vGhf4dYPz+D9eftc8R18q9859i/wxfwv8McNeK/Pr/4U33/lPL4A8K3RU3gJwFfzN/GZ/s/w1ej/jn//Pw4Fv+ZXX+Hn/+sZfDj/C3wRdT64gx99z76G/afwag5AYw2frdzEF6/cxBPjr/Bv/hvv9nOv/Ct8hu+00oLGTXy2chN//Moa3vjJ58H75Pezf4f3V2K2AfCt/lN4Kef/1734J8Jj/gDf129a18g5DwBfNdbwFwD+ub3ZPz3c/pvIV/M38QW+g5072//WzpvfwbdG+/AS1vDV/E28r9/E/yHIWz//4WH88by1/aujfYBr++D17Dy5stvXzoe2L1aC5REAXgLwz4dOAfM38cXnP8HX/9pblv1+fucmAODVIUE+VeB5RrjLDdrl/Yv5R/inD/4X+34P4d8Yp/CZfhNfXP53/397ZxsbxZXu+b83jrS+K8iIfOAGbxxZ2Agw4o43ISjlIGUUNmDH0nJXyEYRwbrKqIxFWCwSJFtEFyEF2VIC274JAbcmippEUWihuXxw2rDLaNAy9siX5Ho24k1p51phYjK+q0EEVpe9N8z0fjhV1fVy6uVUV7s78f8ntcDddU6dOnWeOud56jnPg6ldx6xx4Kz3bYwBQNfp4HsTNm5V5TSOXBPyg0R1noGifFRgHvMj8twb8/jQ86s9V6ptviJk0ZL0s4CQxUL9UrywxO/HOnQ8vwzr8QDzt+5jHgCW1GH9kjr0PL8cj/1qHmN3nSVWrFmOgdW1AB5g/tb3mMfDWL6iDi88XYe/ujGPI9cfBDZHbmApAA9QcB5YU2MpZW5lzZ8eDH/sUmhuXsCZgW4cdxspLu0XilPrEQwP78ZGx8JmFnOnzuMbd/WORcRpDB7e7FHy5i6dxJB+EFeHnsKr8DGytB7B4MfBCmLx2A1omb6Mq0N9OPNcnAXYLM689BSOTwMtXUfw8ivua4Xoo/dnbF9cwNEtB3EVG5yLvsN7RV3Zt3HGZXyaOvQoBrIAsAGdg0fQOHRQKJAybs5gdnqDZ0H5mtG/Y/p+PHvdeR+fGDyNj3bZ+/sYdlzaj516BscHTuKZwP6cxZkTGd9fAWBu9hoAoLHvWLTF3c2ThnGlB8Pnj3n71KIRG32UbADC0yILtAyesPXFBXwydBlw1/3KBRzd0o0xt+J+ab9YrLqNiObxkv5MjBJkt37XMby7y/6NOVYlcgwA2Is9rRkcnz6L397cHSALF/CbLAD04NnYC/VZTB16Sozp1h4MD/vcY4/sANh0DMNdGQxkMxg41IFfS4wcQ+b9DTRohI1bVTlVl2tCfrAozzOK8rHg85gcpbk3xvHhKPZbJecrQohF8s8CQhYLtehcUxd4xB9u3Ebu+n3csn23on4ZBp6uwwtPL8U/Xrhr+60OHatrAdxH5le38blpfFlah58/vwzrVy/Fk9dv4/OA80m3CP3s/E385/O/d3ys387djOa54kfDZmwfPoIWQLz5Nr42FerOPonBAY2o3+U1upwZMIwrg5/hXYlxBQDqN+3Gu+dPoxMQRpFSXX+n1+K5wQ0ALuP4+xdCD3czdcgwrgx+hncPy64Voo8O2xY6l3IYg1vpB4BGbO/r8W1LS9dpfHT+HF7b1RTSqia8LHtb17AbL3cBwDX83tFvm7F9l7e/6zd1oBMApr/0GsNszJ3qw/HpDejsknkN2XF6kQQx9b65oAwyroRhKtA9eNluiLP6f6+z7obN2DG4AUAGv7nkrmMD9gy7FucNwpsCyODDKNtqYlBW2fXQiGe2Clm4eDHA9dzwDmkZ3Bt7kT53qk8sPLpO46OPA+6xITvu82w8LJ4ByHa7tvYUnyOd6WAlInTcqsppTLkm5IeJ4jyjLB8LO48FEX3ujXd8IEr9Vtn5ihDiJNFnASGLhBVrHsULSx7gi1t+XiX3MeYyrgDArbn7+AIAltTiMfsP9XVYD2D+xt2icQUA7t5H7sYDAHVoDXn74huD5ddbGxyfb//lQXIKWsMWPNcKxwLmm68uB5XwYrrqtx7BYNhWHWuhkIzC8viuE9jTComyFsLNk/gwi2httiG2V2zAc89JypiLwfyMI97LxsN/FEanKLerYXOIUeIyvv46cnOBVp8tPAAsb5Cu17FjpX8VSuPB7Neu10t722+MqVIMAcBX+HoaQOs2PCNryxOrhHHxq69inyGMssqui/rntnmMpU5m8dtzwvVcOn6jYHqYtB7BRz6G1HDMZwAwdqIYG0kYTRC+NSjCuFWV0zhyTcgPFsV5Rlk+FnQe80dp7o1xfBhq/Vb5+YoQIkj6WUDI4sDwNrl1F7m74UdLufcA3ybapohBbr/9lwd46X/dcihopSlr5qReXMBs3OxVfoKwYjr0RXThNRcW2VwCAaMaLS+cMT16ACrhZaHQZgDALH6fB4C1eFza5SvxhMtYlTwRPUluzmAWAJqbfK9v6lA3xkK3Yqgxd/Gs6NeS4nv4eK8AgYtMYQiK7mmDhiZjr//CKM7Jy64Ly1h6Fr+VBmY+j4tBC/gIWPdXSW4kbDqG4S4YMZRmFbYGRRm3qnJaDXJNSDVhf46WQz6Sm8eql4T7bYHnK0IIIUSFJzcuw3rcR2bqvnrhpQ9jOQDc+97p3XLvAeYBLF/6sKfIY0tFXJY/3AuuOtTA4lbQosdfCcBwYXUsYDbtFV4h0wexMzR6vbmIUFBszYWFx004Jg27MWhsDxk4FMUrxmyzahwKrzHKSSMebwYSuy47lsdNmHI8i7lLRjyc1gAl9NJ+DGTDt2IUuYzjW1zZICTjwm7kmDu135lBIjCLlL1tAd4r5r3OduPVU2Y2KxHhfcATr8VcwPoZHIzF+wIozmWRXQ/B24RM40jL1i0xlZWiB0x0WffH3Cp0dagPr0bcGhRt3KrKaQXlmpBqQjrPJCgfSc9jVY1qv1XPfEUIIYQoUb8MPSuAL/4hOB6Kl1qsqF+Kg88vwfJ7EuPM3bv44MYDYMUyHFxThxVGmSfXLEfPCmD+xh89QXG9Zwjg7vd/9rz9Lo1ZTJ16Bx8OCU8B5wKmEds//gyPH+rDgBG9/nhrD/b07cX2TW5XV2MR4fuWRoaxsJg23ITt5aYPYueag94iXae9ATFt1O86gT3nnsLxbDeObg6LtB+28Kk2bLEppJ4DF3B0TbctANcGdA6exqBkT7t1vJ4BWo9gR6iBaRa/Rw86u2zfZDO4Op3BVU/WnuIbu6/ffxTHsyJrgnCDzmAsexAD2bMhGSECvFcM6nedw0fYip1D3dg5VPy+peu0K3CyMDgcn74sCZJY7NNyk7zs+lP/3Da0DF2WZBNKYHuQhYqsB2HLKhRxa1D0cUsIUSNsnil3/arz2I+N6pivCCGEEDXq8POn64B795CL5GJZh5//9TKst/5+gC9u3MYHktgsAHDr+jyGsRwDq5dhYHXx+/lbt0MzCAEhBpb/8qtvSlTQMhhYI8m60dqDPcOyt8GN2Hj4HH79ygWcef9tHLcZWnyzhiSEPE1zGGKr0MUtBzF24iR2bCrHArES2DIdDX7mo4CuxBOmIQNGCsihboydk92rWZx5ydhiESkrQyO2Hz7m/OrwMVtGKFkGpwzGsu4MQseww0jre/z9C9juZywzt7F0dfh6KFjpgVs3oLPZSJuXz2As241X4Ux7aRneDMOdSJN5DWPZyyJ9aGsGY36pphOidNlVoGELnms9iKvubEJWv5YYGycIWyYxO50BqUXNgNrhqI5bQkh0oswz5a5fZR77cVIN8xUhhBASnVp0bja2Bjmy/wTxPf5wq+ipsnxFHdavXob19feR+YfbzmC2sKVpvvcAX9z7Xny5pA7rVyzDwY23cSRkS1KggSURBa11A1oAAGvR2LwKT2zeIvFIcdGwGdsPb8Z2m6FlYAswbKUKNN1ahZtrtEVQwLYilTTNnrbuxuDgWewccqWd9uDc+1y1ypqlsG5AZ/oEXvO9Vy4jiM0A4rxXxUCi0bcGyanfZPa12I6y3dXXnWnvgrh+1+voHOrGWDaHqcObpee3MhC9IjfAWMaVrtOuIKumAacbr660e9UUvbE+zF7G1WzGlkoc+GRNBmiN3w9RWDDjCgAzO8VxPeO4L8nExolwdrtxdPpy8BtXW8DcPc0HA73Pkhq3hBAXkeeZctcffR7Dpf34mS57YeRKb1xOytKGys9XhBBCSFRE1iDVrUEPMDZ121lP/VL8zdNL0PP8MuDvi3VZxpVbtzE85UrtvEZ4tRxcMx/oyeJrYEkmXkMPhj8uQTkxDC3PrNyKnUMZDBzqMLbsBGz38SXOtqJoWEq81LPCxGyzilHIhq9hJiyoXXSKXhpHMDzsk0I6gKIBJIPfXDqGjZsAXNqPnUOXE3tDaW1H+eorAI0o9qtfjI7NeLYLGMv69fsF/CZwf765zUVsafOk9DTvvWd7jPDG2njYVeDmybIHUCxPrJUQNnWgExlbPxT7TS3mkBvz/trGlJ2G3Xjt493Wn9YYluLcLrD9CeBi9iDG9P149rrrORV33KrK6QLINSHVhNI8E0M+yjKPAcATezGc7pCUWLlwL0yitkG53yo3XxFCCCGRqV+GgdW1mL8xj1+UGH391txdfHCjDgOrRdrlz+cAoBb/qb4WMALnelI7X7+LL1Yvw/r6v8CK6/7eM1IDy4WtDfjXPxWkBSKlHUoYS4nNz2AOQsnduLkHyGaib80xA+sGbAOJTzGug9jHLM9f/x9XimCggdtVPIR56yQT28VclIq3VvH3n9c3rgVwGbOzs8AmGLFNgKtDT+FnQ/IyY/qjGINw4/b3APJH9GtMjHHhH4TVNMz5oeaZVG6vjsrJrmnIMrYJIXzbVVQsWb9wAa9tit9v3pTMRUWqaLwFijF5VMatqpwujFwTUk1En2fiyUd55jFjTmpoxMaGhD1tVAltQ7LPlYXyQiSEEELCqUXnmjoAwPLVy/F3q+VHrX+6Hn8HYP5GsJcJANy6+z2AWixfWgvMPQDwMP5ySVCJ7/GHe8D6JbV4DPA1sEh1rocA/MVDNdLPv3+oJrChC4Yt69DQqaCMQxDuwnoGCNgGUnp77ClgZ6SH1O963UgV3Y2jgVmS7ARnaQk3EETA3DbRJWKJlPKmyoxv0dgoFoGPb+1BZ5fPx3A7bmkVf0eJg2plpVm50vrOXAxL+8f0UPHxBBDpvqMEYfXLVhFmgLGTlFeHP5WUXZFqXdyHRBfmpqxnu/FqmKz7YXikuINr1+86YdV99FLxcPVxqyqnCyDXhFQTSvNMDPko4zz2wyHJ50r55ytCCCFEhW/n7uOLWz4fI3Xy/D3x9/8OyfQDACuMVMzzd92GmIfx2FJZiTADjKASDilSpk75pWaexdSptyWLAhFgtgXiLfOrh8z0uU7mLu23gmA60+kmTzEF7FnMSvcsC0+XFgBj+lO2lL8ubl7A0UMnrd9Mw8zVoXdcKYeNDCcB2W+iEBaDxHP8qf3S1Mdzl4wFrrUga8TGXcfw2mH5Z8dW4XnS2Cf+tmLz3DyJo5K+sdfvuF5DAb861IczrnbNmWNHln45xPgiEJ4ZpueRs02zmDrUHdEzahZTh576ccf02NQhxum5d/DJucsJZt6RyLrU2DWLb76SfW/KiazvRfwYABjT92PK+C7OuFWV03LLNSHVhOo8oyof5ZvHflgk81xZBPMVIYSQHxgP8Pn12/jFlPyTmxNGknnjmDHj7yfXLMOTEmPJivql+JvVYjvQtKXg3cf0LQCoxQtWimaTWjy50chEdOt+YPyXwCC3C8pXGRwfyuA4YAuMC1ydNuIptB7BoHtR0LAb754Hjg4cxFi2GzuzPmURf/uJGq4UsDIjy6ZjeDcNvKpncNVM+WtrsxWks/UIdkjqHdiSMaL8G6mLUeoCyNyTDVx8fz++9jtsZQd2mKkrv8pgYCjjyKgzmzeuGRuw53zpC7LZoW7sHNqAlq614lpt9UuVZCOb0/Etj+Jiaw8am21lZGMHAG7OiP3lIcaRjYdPozPfbY0xM8vCbNa8V66U4zdP4tWBs0CzaDvMjAwoV7aMasHcJpQxjFpR3pJmMPDSteL4t9P8ejE7U8NuvHu+CUcHivcB2IAWS8YuG+NDfG8Px1M0gvmkZN50DMNdGQxk3VuFVFGV03LKNSHVRIx5Rkk+qnMeqwyKz5VFO18RQghZFCytQ8/qevTYMgItX1KH5UsA4AH+x6+cwXI/n7qN1s3LsH7FMgz8NTB/6z7m8TCWr6jFcgC4J+KzBFE1BpaNr5zGHryNi/nLuGrLBNLSugGNfSewY1OjXFlr2I3XPt6CHZfewdCJa46ywnAhFK+rQ30403giPINRqVjKWvAx717fi6lT7+DDcxlPmzu3vm5bZBbLfJRehU9OHMSYsVBCoumrL+NqNiADS+sq7NglFE/rXmUvY8wygG1AS9frJe17t2jYgpe7zhoZDcw2GfW/shn1suu1FPC3MTZtM8YMSvrS5OsvPduN5GzGax9/hmfN+2X1v8+9QhMageJ9gthO8vLw3srv4S8zG185gpaseJMcvu3KwC/zT7Pr74bNeO3jP2LHpZP45MRZzE47jSotrWvxXN9ePGN/Vlzab8iiywjmbvfh0+jMCuONX1ahSKjKadnlmpBqIvo8AyCGfFTRPFZJlPpt8c5XhBBCfvx8fv02HsNS/NWKWqxfYpg+7j3A/K27+EASyBa4j19cmMeTa5Zia30dlq+oMwwrD/DF3F3krsvKOKk59D//T+Gff/m36PpvbyZ9PVXCLKYO9WHAfCNTYvA7QqqJ1scewvS3f6p0MwghEiifZDHAcU5I5Wl97CH85Cc/AQDs/eU3FW4NIYuTd/6rCCFfNTFYyodIP/iREfvkarYbO1+S770mhBBCCCGEEEIIiUPVbBEqN/WbjuHd68cq3QxCCCGEEEIIIYT8CFkEHiyEEEIIIYQQQggh5YUGFkIIIYQQQgghhJASoYGFEEIIIYQQQgghpEQWTQwWQgghhBBCCPkxY2YyIYRUBnqwEEIIIYQQQgghhJRI7T//8m8BiPzphJAfHpRdQqoXyidZDHCcE1J57ty5U+kmEEIA1Ny5c6cwODiI9957r9JtIYQo8t133+GRRx6pdDMIIRIon2QxwHFOSOWhHBJSPXCLECGEEEIIIYQQQkiJ0MBCCCGEEEIIIYQQUiI0sBBCCCGEEEIIIYSUCA0shBBCCCGEEEIIISVCAwshhBBCCCGEEEJIidDAQgghhBBCCCGEEFIiNLAQQgghhBBCCCGElAgNLIQQQgghhBBCCCElQgMLIYQQQgghhBBCSImUycAyg5G2GtTUSD5tbegdn8GMb9FxjPS2oc1Rrg1tveP+ZQDMjI+gt63Nc6623hGM+xYcR6+sjbbzjlhlbdfUNhLYFqvesON8r9WnzTPjrmsUfRnODMZH2lBT04vxoGNcbWlr67Vdv+toT1vE8ZGaY5zP7M9eWaPGewPuS8B1yPrU0a6Asen6uNslxpiz3pGAC54Z70WbwvGVZmakLVK/1NTUoG1kBuO9xf+HYt5Pb6dGlHcV+YtaLmgshD1zFkBeYss7IdWKmtyIIipyoFp/jPZEQaXNcee6BNtQ+nxOCCkVyiEhaqjqWWp6XInrgzt37hT6+voKUcB/n3Z8/MkXUhoKAArQtIJHWHB6AAAOlUlEQVRmfYzvgAK0VCHvLpXSbL8Xy4nvtELKXaBQKBTyuYLuqNddTnw0aeFcQTd/d7TT/Oi2c9quybc+V72Sa7Tq0u3ts53Tr3/yKes3TdcLuq7b/s753IZ8Iafb6oRekB9p60NN1K3b+s9bvdlvmtWW4j3wuU+eKvSA+ou/a2Z7HB+ffs3Z+sRWTtM0x33MpWR12o6XXEdxbJrXXOxX2VjI6cXjddfxfrcrDnfu3Il0XBTZzad0jwzI5ErTtIKeyhfvoe84L5LTvdeuJu9O+Yvchza58bbT7znllE3v7V0AeYkj76TqiCqfiwNVuSkoykEMuVRtTxRUZTfOXJdoG0qfzznOCSkVyiEhKqjqWWp6XOnrA6mB5c9/LhT+9U9/dnwchSIbWCQKfT5nKTWOC7IpaznPgyRfyKck3zsWETnpQiSfSwV3YEQF0bomywgS9MALqreo1Gm67FoLoo8cC6vig1eudHrbYiq0gFbQUymjvI+BJZ8qaLLrsfrXXS5XSKW8/Z2PrHCHK8umIKgr0rq8T6NiLnYdnZEr9p/963xO3q9+/eB3fAm4J9TSZdfRYH85dvweNvlLrltZ3p1jJprM2uUgyMAiu7588eHtHoRllxd1eSfVCRe8NmLIjZIcqNav3J4oqMuu8lyXeBtKnc85zgkpHcohIZFR1rMU9bgE1gdSA4v7bbddITP/H9vAYm+grWPUFxl5uaFGeqjfgiOGgQV6IZXyUbwi1GsqfKFtdhbyL2MOMldbcrphdMrb2uN7P3K+RgnR3qgKXTQDgrjXWkHX/e+5eUzUblJrp2/L5OM2oP+94zZECQ66lzFwT6ily66dMANL8fqDrkd2THx51wu6xBvG58TiOaPrPvIYdn1+D94yy0sMeSfVCRe8NlTlRlUOVOtPTI5LaHNBfa4rRxt8Kor8QoDjnJByQTkkxEkMPUtJjysksj7wjcFS6P+p4/NP3/0balK/Q6H/p35FotP0Iro0AJPXkDe+yl+bVKtj/C30TwLQUsjsawo5XztGczqASfS/FXtHs8WqfRmkNADpDnn8ED9mRvBmGtHabGP8bBqAhq4XJWXat0EHgCtfOuJFtI8WMDHajqYop2lqR3vgcZO4lg/63YW2Fs2+P47jrf5JQH8DB9b6V6E0Hsx+1d+AQrdKmibGlJY6gPbYleRxbRKA1gXZ7ULzWoihr9KhapRVdl00vdglrif7qU+8khl8mp2Ee/wqy7uNbQdS0ACkzwYL3/hb/ZiEhtSBbTHP1Iy1muTrMstLHHknpOpRlBtlOVCVy6TlGPFkt5RnYVJtCCRwPieELAiUQ0IMFkDPSmB9ECnI7T99929Y+cE1h4JWmrJmdk7xgdG+TQcApN+MFsBSLCIA/Y19iKRTmwuL9Nn4QeMsmrAvYyh5HdGD0AmFT6HNAIAZfHkFANZhlbSQoQTajFXJo2FtlCf7zJcQTV3le33jvR1IQ0duNL4Jw3PaT7OiX7eVUucMRoSVBm+4rTQBwioWxxH7BwCaVmEdsGAKcvKy68IylmbxqTQw86fISh6EqvIuPWf6zYBgU+MQeobPAzgS3udUNEqRl2qQd0IqgV1uyiEHCs/pWMdXg+wm2IYI8zkhpMxQDglRQ6ZnJanHAZGODzWwuBW0mtTvVFogZ/ws0oDzgdF+QHiFTPajOTTbirmIUOkQ8230FXyZhGbbtA8Z4caCjkhuLGabdajZAcKUvCasEiMpmeuyY3nchCmpM5gZH0Fbcz8mtQDjyXgvOtKAnhuN6CEyif5mV/RmybiwC8fMSK8z4nNgFil72wK8V8x7ne5A24iZWUZkZupIA1oqY/OcMRewfgYHY7JcAAW5LLLroQkvCgsLspILNo1fWteLzsWBkrx7z7nvjWCPtJmRNyGcmlSMmY4aMNLWoVZHIvJSQXknpBJI5SZBOYgslzGPtyilzdHmuvK2wSTifE4IKSOUQ0LkxNCzlPS4ABTWB4EGlj/+vz953n6XxgzGR3rR1iE8BZwPjCbsm8gjp2vAZBr9Hc0B6ZOMRYTvWxoZ5sJC4tYz2Y9mWYrEEMNJk9JWobhvwyvFDEZ6gjxu7Cmum9HckcW6VA75CT/jyTh6xSjGgdB5YgZfQoeuFz8agEljXDjTAhff2F17qwbN/WnALKcBk+l+dDS3haTVCvBeMWjaN4F8SsNkf4cxVprR0T8JTc9hwlGmaHDo75GkBTb6tNwkL7v++G8Tkm8PMkopyLsE00Aj9UgztqFFGmsAkEZHWxvarI+4v/2TGvRcHtHWNUnLCyGLgTC5Wej6y90e7/miz3XlhM8nQioP5ZCQcOLpWdH1OD8U1wd+QW7t/8p+C8aV8cP9caQ/lhXPOdMYa+7MMPGysXhTxYakaXZGvJEHxJQE7JUHuVUJqCu51oBy4QF3VPsrSgDhfCHlSW0su1f2+pznVw10WswI5Uy7XBxr3nPnQwMSF2zBUP2PserRtGIKTSsblLucK6W3kQ7M7B9dizMO5MiC3Nr/lf0WnfAgt87jZFk9IgRUDJV3n7b4BK3yjis/GQp4TimlR01SXpKQd1ItMOhgEEFyk4QcKATCj3W8p0WJya58ritnG1Tmcy8c54QkAeWQkGio61lqepz/+aKuDwINLNICqgYWy2ChF3Q9VUip5NB1KF52JS9OulJZmXhZhDzqtCdLiqzeqMqqmwU2sOSLCztdMd9xcVEYzZASJz2lt6+LY01eT/i1h/Wf3Ujjzdjll0VHpPm1JkiYqcTjGtrk+BlYZJTPwFKQGjvUU237ybtfW2T3NuC7SFmEbOmZo9yjxOWFBpYfE1zw+hAqNyXKgapcRjnezMDjeWFktjFZ2ZXOLQvYBr/5XAbHOSHlgXJIiB/R9ax4epx1QKx1vu8WoZrU76QfNXTkJiYwMTGBiYlRjI7uw77gsLxOmtqxb1S49DhjnQRs9/ElzraiiM3c9wZ0AJP9PQFbUUqMneAbsyMsqF10ZkbaUNPcj0kthVx+AqMq9wpAU3sxLo2V4GW8F839k9BSUbdahJzD3I5i3XizX/3i8bRDxFP16/ewYKjmNhexpc2z0cW8957tMU1oH53ARKGAgvGZGG1H0wIELEtGdhUxgkgX+6HYb5FjDvnKu+9JccA49k1T8Iz4TvEzQYn7JpKO9aMnwEW/LPJisgDyTkglUJKbGHKgKpeRj28+gFwu5/284YovlZDseue6hW1D4POJELIgUA4J8SOqnhVXjyttnS81sHy/76e4u2e99PN/96yPXHlSmBdvjwisnIXEDKyrbyvDXkZbGmjPfrAizWuNPWNKqaLDgvMmE9tlZqRNGEL0HPIT+0LSU/nTJKwduPLlDIqxTYDJ/mZPjJvmfrFLLt1hBPaLud+8WZpLNyKmQu4OwmphGuZ8z66UGSKZjEf+VE52DUOWGXTKzB4UQ95k8h52rHgwhsfSiUr7aC7QaFoeeQEWSt4JqQTR5SaeHKjKpdLxTU1ob2+XfMxCCyC7C9wG7/OJELLQUA4JiY5Xz4qnx5W6zpcaWGprgCUP/zvp5z88HCmzc/mxZSEJessMAJgZMQLrakhFi3oZoz2jtrfeX0oPsRTHdAd6I2cICM7SEm4giMDMCHr6JwE9J6x/cesBMCNej2Gd8XpsVZczgJ/jY9hFNE383bUqQv1mVhqbu4qYfHz6x/RQ8XljJ9J9y4KwuglZsEYihleHIpWUXWH0FPeh3IYk21mFF8tkP94aEUad+N4rznoto6nbIFpGeVkQeSekEijJTQw5UJXLBOU4dpuDmieZ6xa8DZ7nEyFkoaEcEhKVID1LQY9LYn0gi8FSOurxRnIp3Sc+S76Q89sfZe2LMvddSUrnioGi4gTSU7smM/6DVtD8Apk62iNvcyGfK+i6JECuJ4hr1NgqwcepxnTIpeQBt1T2ihYKATE68qmCLukb//r9Y/IE762L1n9mcGTv3r2847dg8pIgy6VT3j23qnJsylN4IF91eQ9oi+05IB/HKjFYZL8771n55aVUeSfVAvfEF1GPHaQmB8pyWZZYRoqyqzzXJd+GJOZzjnNCSoNySEip+OtZqnpcEuuD2jhGmbJwLY3+/jT6AUDTYG76mJw0zEpaChm323/TPkzkgd6efqTTHWhO+5QFoKXyEdMwlYJ4653uSGNSZKeVHDKKiRzQ1pEWqaL6nW3G5KRIL6WlcEBSb0dzGpquYx2AK+m08BLIlZLCzdyTDWTf6sU1v8PWbsOBfYYV71oaHf1pQNOgrzNcF68Y1wwNqXzpKeWu9HeguV+Dpq8T12qr33u9TdiXSSHb3I/+5hpkNR3r1tnKyMYOUMyVHrKNpX00B/1KhzXGRP9fwZW0ea9cKcdnRtDWkwXWibYDV5BOi7GYVCya6kRsE0qn00YclIC3pHHk3Y+mfXhD74fI/v5GtFz20Sq2xlW6oxfbCqNoXxB5Kae8E1IJYsiNkhyo1h+nPVFQl121ua4MbViA+ZwQEgLlkJDoKOpZanpcQuuDavFgMTOIaK60qZomovYGG5HywlNF0xxlRQYj25ttj3k4aQ8Wo1bTGhZYb76QS+me64WmSd9oFQrCkq3bj4+Yui34zXdISm1PloJC8V65+9rHi8i3B3yzzHgjQwNG/SHpvXXHGPDvS9Et8jS/PpV775ffvfK0AwVN0wu5wMbHo7o8WAqOaNtRUrFHl/eQtuRTBc33nHE9WIzSut0DbuHkJb68k2qBbxRNYsiNWTKSHKjWH789ka42suzGnOuSbEMC8znHOSElQjkkJDqx9Kyoelwy64OaO3fuFAYHB/Hee+/52WB+4MxgvLcHHaZlS88hk8h+a0Iqz3fffYdHHnmk0s0ghEigfJLFAMc5IZWHckhI9VAlEWvLiUjjlM/pIuVhugPNbb2IHGOWEEIIIYQQQgghJITqicFSZpraRzFRGK10MwghhBBCCCGEEPIjZBF4sBBCCCGEEEIIIYSUFxpYCCGEEEIIIYQQQkrk/wMGzA7r+Ti/OwAAAABJRU5ErkJggg==;" vertex="1" parent="1">
          <mxGeometry x="-990" y="580" width="1112" height="390" as="geometry" />
        </mxCell>
        <mxCell id="ODbVOPba3RWWneBiBJT6-10" value="(1) CONSISTENZA DEI DATI&lt;br style=&quot;font-size: 30px;&quot;&gt;Il vincolo (constraint) di chiave primary (primary key) garantisce &lt;br style=&quot;font-size: 30px;&quot;&gt;che le istanze-record presenti nella tabella siano consistenti, &lt;br style=&quot;font-size: 30px;&quot;&gt;ossia si evitino duplicazioni di istanze-record analoghe&lt;br style=&quot;font-size: 30px;&quot;&gt;&lt;br style=&quot;font-size: 30px;&quot;&gt;(2) INTEGRITA DEI DATI: &lt;br style=&quot;font-size: 30px;&quot;&gt;Il vincolo (constraint) di chiave correlata|esterna (foreign key) &lt;br style=&quot;font-size: 30px;&quot;&gt;garantisce che le istanze-record di una tabella abbiano alcuni campi &lt;br style=&quot;font-size: 30px;&quot;&gt;che possono essere valorizzati solo se il valore da inserire&lt;br style=&quot;font-size: 30px;&quot;&gt;è presente anche come campo chiave primaria nella tabella di correlazione.&lt;br style=&quot;font-size: 30px;&quot;&gt;&lt;br style=&quot;font-size: 30px;&quot;&gt;Esempio: &lt;br style=&quot;font-size: 30px;&quot;&gt;&lt;br style=&quot;font-size: 30px;&quot;&gt;la tabella &#39;ordinazione&#39; è correlata alla tabella &#39;cliente&#39; tramite il campo &#39;codice_fiscale ed alla tabella &#39;prodotto&#39; tramite il campo &#39;codice_prodotto&#39;&lt;br style=&quot;font-size: 30px;&quot;&gt;&lt;br style=&quot;font-size: 30px;&quot;&gt;&lt;div style=&quot;text-align: center; font-size: 30px;&quot;&gt;&lt;span style=&quot;background-color: initial; font-size: 30px;&quot;&gt;&lt;u style=&quot;font-size: 30px;&quot;&gt;ne consegue che&lt;/u&gt;&lt;/span&gt;&lt;/div&gt;&lt;br style=&quot;font-size: 30px;&quot;&gt;&#x9;a) non si possono effettuare ordini per un cliente la cui chiave primaria &lt;br style=&quot;font-size: 30px;&quot;&gt;&#x9;   non sia presente  nella tabella &#39;cliente&#39;&lt;br style=&quot;font-size: 30px;&quot;&gt;&lt;br style=&quot;font-size: 30px;&quot;&gt;&#x9;b) non si possono effettuare ordini per un prodotto la cui chiave primaria &lt;br style=&quot;font-size: 30px;&quot;&gt;&#x9;   non sia presente nella tabella &#39;prodotto&#39;" style="text;whiteSpace=wrap;html=1;fontSize=30;fillColor=#1ba1e2;strokeColor=#006EAF;fontColor=#ffffff;" vertex="1" parent="1">
          <mxGeometry x="-850" y="-1120" width="1230" height="860" as="geometry" />
        </mxCell>
        <mxCell id="ODbVOPba3RWWneBiBJT6-11" value="&lt;h1 style=&quot;&quot;&gt;&lt;font style=&quot;font-size: 24px;&quot;&gt;INSERT-SQL su tabella &#39;prodotto&#39; che falisce per violazione del vincolo chiave primaria (valore del campo chiave primaria già esistente)&lt;/font&gt;&lt;/h1&gt;&lt;div style=&quot;&quot;&gt;&lt;font style=&quot;font-size: 24px;&quot;&gt;&lt;br style=&quot;&quot;&gt;&lt;/font&gt;&lt;/div&gt;&lt;div style=&quot;&quot;&gt;&lt;div style=&quot;padding: 0px 0px 0px 2px;&quot;&gt;&lt;div style=&quot;font-family: Consolas;&quot;&gt;&lt;p style=&quot;margin: 0px;&quot;&gt;&lt;font style=&quot;font-size: 24px;&quot;&gt;INSERT &lt;span style=&quot;color:#800000;font-weight:bold;&quot;&gt;INTO&lt;/span&gt; magazzino.prodotto&lt;/font&gt;&lt;/p&gt;&lt;p style=&quot;margin: 0px;&quot;&gt;&lt;font style=&quot;font-size: 24px;&quot;&gt;&amp;nbsp; &amp;nbsp; &amp;nbsp; &amp;nbsp; &amp;nbsp; &amp;nbsp; (codice_prodotto, descrizione, quantita_disponibile, prezzo)&lt;/font&gt;&lt;/p&gt;&lt;p style=&quot;margin: 0px;&quot;&gt;&lt;font style=&quot;font-size: 24px;&quot;&gt;&lt;span style=&quot;color: rgb(128, 0, 0); font-weight: bold;&quot;&gt;&amp;nbsp; &amp;nbsp; &amp;nbsp;VALUES&amp;nbsp;&lt;/span&gt;(&lt;span style=&quot;color: rgb(0, 128, 0);&quot;&gt;&#39;CPHPR456&#39;&lt;/span&gt;, &lt;span style=&quot;color: rgb(0, 128, 0);&quot;&gt;&#39;Computer 456 di una certa marca&#39;&lt;/span&gt;, 3, 234)&lt;span style=&quot;color: rgb(255, 0, 0);&quot;&gt;;&lt;/span&gt;&lt;/font&gt;&lt;/p&gt;&lt;/div&gt;&lt;/div&gt;&lt;/div&gt;" style="text;html=1;strokeColor=default;fillColor=#ffe6cc;spacing=5;spacingTop=-20;whiteSpace=wrap;overflow=hidden;rounded=0;fontSize=24;labelBackgroundColor=none;labelBorderColor=none;" vertex="1" parent="1">
          <mxGeometry x="500" y="1180" width="1010" height="290" as="geometry" />
        </mxCell>
        <mxCell id="ODbVOPba3RWWneBiBJT6-12" value="" style="shape=flexArrow;endArrow=classic;html=1;rounded=0;entryX=1;entryY=0.5;entryDx=0;entryDy=0;fillColor=default;" edge="1" parent="1" source="ODbVOPba3RWWneBiBJT6-11" target="ODbVOPba3RWWneBiBJT6-13">
          <mxGeometry width="50" height="50" relative="1" as="geometry">
            <mxPoint x="590" y="1190" as="sourcePoint" />
            <mxPoint x="700" y="830" as="targetPoint" />
          </mxGeometry>
        </mxCell>
        <mxCell id="ODbVOPba3RWWneBiBJT6-13" value="" style="ellipse;whiteSpace=wrap;html=1;fillColor=none;strokeColor=#CC0000;strokeWidth=4;" vertex="1" parent="1">
          <mxGeometry x="660" y="770" width="140" height="50" as="geometry" />
        </mxCell>
        <mxCell id="ODbVOPba3RWWneBiBJT6-14" value="&lt;h1 style=&quot;&quot;&gt;&lt;font style=&quot;font-size: 24px;&quot;&gt;INSERT-SQL su tabella &#39;cliente&#39; che fallisce per violazione del vincolo chiave primaria (valore chiave già esistente)&lt;/font&gt;&lt;/h1&gt;&lt;div style=&quot;&quot;&gt;&lt;font style=&quot;font-size: 24px;&quot;&gt;&lt;br style=&quot;&quot;&gt;&lt;/font&gt;&lt;/div&gt;&lt;div style=&quot;&quot;&gt;&lt;div style=&quot;padding: 0px 0px 0px 2px;&quot;&gt;&lt;div style=&quot;font-family: Consolas;&quot;&gt;&lt;p style=&quot;margin: 0px;&quot;&gt;&lt;font style=&quot;font-size: 24px;&quot;&gt;INSERT &lt;span style=&quot;color:#800000;font-weight:bold;&quot;&gt;INTO&lt;/span&gt; magazzino.prodotto&lt;/font&gt;&lt;/p&gt;&lt;p style=&quot;margin: 0px;&quot;&gt;&lt;font style=&quot;font-size: 24px;&quot;&gt;&amp;nbsp; &amp;nbsp; &amp;nbsp; &amp;nbsp; &amp;nbsp; &amp;nbsp; (codice_prodotto, descrizione, quantita_disponibile, prezzo)&lt;/font&gt;&lt;/p&gt;&lt;p style=&quot;margin: 0px;&quot;&gt;&lt;font style=&quot;font-size: 24px;&quot;&gt;&lt;span style=&quot;color: rgb(128, 0, 0); font-weight: bold;&quot;&gt;&amp;nbsp; &amp;nbsp; &amp;nbsp;VALUES&amp;nbsp;&lt;/span&gt;(&lt;span style=&quot;color: rgb(0, 128, 0);&quot;&gt;&#39;CPHPR456&#39;&lt;/span&gt;, &lt;span style=&quot;color: rgb(0, 128, 0);&quot;&gt;&#39;Computer 456 di una certa marca&#39;&lt;/span&gt;, 3, 234)&lt;span style=&quot;color: rgb(255, 0, 0);&quot;&gt;;&lt;/span&gt;&lt;/font&gt;&lt;/p&gt;&lt;/div&gt;&lt;/div&gt;&lt;/div&gt;" style="text;html=1;strokeColor=default;fillColor=#ffe6cc;spacing=5;spacingTop=-20;whiteSpace=wrap;overflow=hidden;rounded=0;fontSize=24;labelBackgroundColor=none;labelBorderColor=none;" vertex="1" parent="1">
          <mxGeometry x="930" y="-370" width="1010" height="290" as="geometry" />
        </mxCell>
        <mxCell id="ODbVOPba3RWWneBiBJT6-15" value="" style="shape=flexArrow;endArrow=classic;html=1;rounded=0;fillColor=default;" edge="1" parent="1" source="ODbVOPba3RWWneBiBJT6-14" target="ODbVOPba3RWWneBiBJT6-16">
          <mxGeometry width="50" height="50" relative="1" as="geometry">
            <mxPoint x="1070" y="-70" as="sourcePoint" />
            <mxPoint x="960" y="290" as="targetPoint" />
          </mxGeometry>
        </mxCell>
        <mxCell id="ODbVOPba3RWWneBiBJT6-16" value="" style="ellipse;whiteSpace=wrap;html=1;fillColor=none;strokeColor=#CC0000;strokeWidth=4;" vertex="1" parent="1">
          <mxGeometry x="650" y="170" width="240" height="50" as="geometry" />
        </mxCell>
        <mxCell id="ODbVOPba3RWWneBiBJT6-18" value="" style="shape=flexArrow;endArrow=classic;html=1;rounded=0;fillColor=default;" edge="1" parent="1" source="ODbVOPba3RWWneBiBJT6-17" target="ODbVOPba3RWWneBiBJT6-24">
          <mxGeometry width="50" height="50" relative="1" as="geometry">
            <mxPoint x="-980" y="1410" as="sourcePoint" />
            <mxPoint x="-900" y="1055" as="targetPoint" />
          </mxGeometry>
        </mxCell>
        <mxCell id="ODbVOPba3RWWneBiBJT6-21" value="" style="rounded=0;whiteSpace=wrap;html=1;fillColor=none;strokeColor=#EA6B66;strokeWidth=8;" vertex="1" parent="1">
          <mxGeometry x="-990" y="626" width="660" height="30" as="geometry" />
        </mxCell>
        <mxCell id="ODbVOPba3RWWneBiBJT6-22" value="&lt;h1 style=&quot;&quot;&gt;&lt;span style=&quot;font-size: 24px;&quot;&gt;Esempio di valore chiave primary di un record nella tabella &#39;ordinazione&#39;.&lt;br&gt;La chiave primaria è rappresnetata dai tre valori:&lt;/span&gt;&lt;/h1&gt;&lt;div&gt;&lt;span style=&quot;font-size: 24px;&quot;&gt;&lt;br&gt;&lt;/span&gt;&lt;/div&gt;&lt;div&gt;&lt;span style=&quot;white-space: pre;&quot;&gt;&#x9;&lt;/span&gt;&lt;span style=&quot;white-space: pre;&quot;&gt;&#x9;&lt;/span&gt;&lt;span style=&quot;white-space: pre;&quot;&gt;&#x9;&lt;/span&gt;&lt;span style=&quot;white-space: pre;&quot;&gt;&#x9;&lt;/span&gt;&lt;b&gt;BVEGTA0123456789&lt;span style=&quot;white-space: pre;&quot;&gt;&amp;nbsp;&amp;nbsp;&amp;nbsp;&amp;nbsp;&lt;/span&gt;LVDR1500&lt;span style=&quot;white-space: pre;&quot;&gt;&amp;nbsp;&amp;nbsp;&amp;nbsp;&amp;nbsp;&lt;/span&gt;2022-05-03&lt;br&gt;&lt;/b&gt;&lt;/div&gt;&lt;div&gt;&lt;span style=&quot;font-size: 24px;&quot;&gt;&lt;br&gt;&lt;/span&gt;&lt;/div&gt;&lt;div&gt;&lt;span style=&quot;font-size: 24px;&quot;&gt;&lt;br&gt;&lt;/span&gt;&lt;/div&gt;&lt;div&gt;&lt;span style=&quot;font-size: 24px;&quot;&gt;&lt;br&gt;&lt;/span&gt;&lt;/div&gt;&lt;div&gt;&lt;span style=&quot;font-size: 24px;&quot;&gt;&lt;br&gt;&lt;/span&gt;&lt;/div&gt;&lt;div&gt;&lt;span style=&quot;font-size: 24px;&quot;&gt;&lt;br&gt;&lt;/span&gt;&lt;/div&gt;" style="text;html=1;strokeColor=#006EAF;fillColor=#1ba1e2;spacing=5;spacingTop=-20;whiteSpace=wrap;overflow=hidden;rounded=0;fontSize=24;labelBackgroundColor=none;labelBorderColor=none;fontColor=#ffffff;fontStyle=0" vertex="1" parent="1">
          <mxGeometry x="-2190" y="500" width="1010" height="250" as="geometry" />
        </mxCell>
        <mxCell id="ODbVOPba3RWWneBiBJT6-23" value="" style="shape=flexArrow;endArrow=classic;html=1;rounded=0;" edge="1" parent="1">
          <mxGeometry width="50" height="50" relative="1" as="geometry">
            <mxPoint x="-1170" y="650" as="sourcePoint" />
            <mxPoint x="-1000" y="650" as="targetPoint" />
          </mxGeometry>
        </mxCell>
        <mxCell id="ODbVOPba3RWWneBiBJT6-24" value="" style="ellipse;whiteSpace=wrap;html=1;fillColor=none;strokeColor=#CC0000;strokeWidth=4;" vertex="1" parent="1">
          <mxGeometry x="-1000" y="830" width="710" height="50" as="geometry" />
        </mxCell>
        <mxCell id="ODbVOPba3RWWneBiBJT6-17" value="&lt;h1 style=&quot;&quot;&gt;&lt;font style=&quot;font-size: 24px;&quot;&gt;INSERT-SQL su tabella &#39;ordinazione&#39; che falisce per violazione del vincolo chiave primaria&amp;nbsp;&lt;/font&gt;&lt;/h1&gt;&lt;h1 style=&quot;&quot;&gt;&lt;font style=&quot;font-size: 24px;&quot;&gt;(valore del campo chiave primaria già esistente)&lt;/font&gt;&lt;/h1&gt;&lt;div style=&quot;&quot;&gt;&lt;font style=&quot;font-size: 24px;&quot;&gt;&lt;br style=&quot;&quot;&gt;&lt;/font&gt;&lt;/div&gt;&lt;div style=&quot;&quot;&gt;&lt;div style=&quot;padding: 0px 0px 0px 2px;&quot;&gt;&lt;div style=&quot;&quot;&gt;&lt;div style=&quot;padding: 0px 0px 0px 2px;&quot;&gt;&lt;div style=&quot;font-family: Consolas;&quot;&gt;&lt;p style=&quot;margin: 0px;&quot;&gt;&lt;font style=&quot;font-size: 24px;&quot;&gt;INSERT &lt;span style=&quot;color: rgb(128, 0, 0); font-weight: bold;&quot;&gt;INTO&lt;/span&gt; magazzino.ordinazione&lt;/font&gt;&lt;/p&gt;&lt;p style=&quot;margin: 0px;&quot;&gt;&lt;font style=&quot;font-size: 24px;&quot;&gt;&lt;br&gt;&lt;/font&gt;&lt;/p&gt;&lt;p style=&quot;margin: 0px;&quot;&gt;&lt;font style=&quot;font-size: 24px;&quot;&gt;&amp;nbsp; &amp;nbsp; &amp;nbsp; &amp;nbsp; &amp;nbsp; &amp;nbsp; (codice_fiscale, codice_prodotto, data_ordine, quantita_ordine, prezzo_acquisto)&lt;/font&gt;&lt;/p&gt;&lt;p style=&quot;margin: 0px;&quot;&gt;&lt;font style=&quot;font-size: 24px;&quot;&gt;&lt;br&gt;&lt;/font&gt;&lt;/p&gt;&lt;p style=&quot;margin: 0px;&quot;&gt;&lt;font style=&quot;font-size: 24px;&quot;&gt;&lt;span style=&quot;color: rgb(128, 0, 0); font-weight: bold;&quot;&gt;&amp;nbsp; &amp;nbsp; &amp;nbsp;VALUES&amp;nbsp;&lt;/span&gt;(&lt;span style=&quot;color: rgb(0, 128, 0);&quot;&gt;&#39;PRSANS0123456789&#39;&lt;/span&gt;, &lt;span style=&quot;color: rgb(0, 128, 0);&quot;&gt;&#39;LVZPXS54&#39;&lt;/span&gt;, &lt;span style=&quot;color: rgb(0, 128, 0);&quot;&gt;&#39;2022-05-03&#39;&lt;/span&gt;, &lt;span style=&quot;color: rgb(0, 0, 255);&quot;&gt;1&lt;/span&gt;, &lt;span style=&quot;color: rgb(0, 0, 255);&quot;&gt;387&lt;/span&gt;)&lt;span style=&quot;color: rgb(255, 0, 0);&quot;&gt;;&lt;/span&gt;&lt;/font&gt;&lt;/p&gt;&lt;/div&gt;&lt;/div&gt;&lt;/div&gt;&lt;/div&gt;&lt;/div&gt;" style="text;html=1;strokeColor=#d79b00;fillColor=#ffe6cc;spacing=5;spacingTop=-20;whiteSpace=wrap;overflow=hidden;rounded=0;fontSize=24;labelBackgroundColor=none;labelBorderColor=none;" vertex="1" parent="1">
          <mxGeometry x="-1180" y="1330" width="1370" height="390" as="geometry" />
        </mxCell>
        <mxCell id="ODbVOPba3RWWneBiBJT6-25" value="&lt;h1 style=&quot;&quot;&gt;&lt;font style=&quot;font-size: 24px;&quot;&gt;INSERT-SQL su tabella &#39;ordinazione&#39; che falisce per violazione del vincolo chiave correlata&amp;nbsp;&lt;/font&gt;&lt;/h1&gt;&lt;h1 style=&quot;&quot;&gt;&lt;span style=&quot;font-size: 24px; background-color: initial;&quot;&gt;(su &#39;codice_prodotto&#39; della tabella &#39;prodotto&#39;, non esiste un istanza record in &#39;prodotto&#39; con valore del campo campo &#39;codice_prodotto&#39; pari a &#39;LVRR0123&#39;)&lt;/span&gt;&lt;br&gt;&lt;/h1&gt;&lt;div style=&quot;&quot;&gt;&lt;div style=&quot;padding: 0px 0px 0px 2px;&quot;&gt;&lt;div style=&quot;&quot;&gt;&lt;div style=&quot;padding: 0px 0px 0px 2px;&quot;&gt;&lt;div style=&quot;font-family: Consolas;&quot;&gt;&lt;p style=&quot;margin: 0px;&quot;&gt;&lt;font style=&quot;font-size: 24px;&quot;&gt;INSERT &lt;span style=&quot;color: rgb(128, 0, 0); font-weight: bold;&quot;&gt;INTO&lt;/span&gt; magazzino.ordinazione&lt;/font&gt;&lt;/p&gt;&lt;p style=&quot;margin: 0px;&quot;&gt;&lt;font style=&quot;font-size: 24px;&quot;&gt;&lt;br&gt;&lt;/font&gt;&lt;/p&gt;&lt;p style=&quot;margin: 0px;&quot;&gt;&lt;font style=&quot;font-size: 24px;&quot;&gt;&amp;nbsp; &amp;nbsp; &amp;nbsp; &amp;nbsp; &amp;nbsp; &amp;nbsp; (codice_fiscale, codice_prodotto, data_ordine, quantita_ordine, prezzo_acquisto)&lt;/font&gt;&lt;/p&gt;&lt;p style=&quot;margin: 0px;&quot;&gt;&lt;font style=&quot;font-size: 24px;&quot;&gt;&lt;br&gt;&lt;/font&gt;&lt;/p&gt;&lt;p style=&quot;margin: 0px;&quot;&gt;&lt;font style=&quot;font-size: 24px;&quot;&gt;&lt;span style=&quot;color: rgb(128, 0, 0); font-weight: bold;&quot;&gt;&amp;nbsp; &amp;nbsp; &amp;nbsp;VALUES&amp;nbsp;&lt;/span&gt;(&lt;span style=&quot;color: rgb(0, 128, 0);&quot;&gt;&#39;PRSANS0123456789&#39;&lt;/span&gt;, &lt;span style=&quot;color: rgb(0, 128, 0);&quot;&gt;&#39;LVRR0123&#39;&lt;/span&gt;, &lt;span style=&quot;color: rgb(0, 128, 0);&quot;&gt;&#39;2022-06-30&#39;&lt;/span&gt;, 7, 145)&lt;span style=&quot;color: rgb(255, 0, 0);&quot;&gt;;&lt;/span&gt;&lt;/font&gt;&lt;/p&gt;&lt;/div&gt;&lt;/div&gt;&lt;/div&gt;&lt;/div&gt;&lt;/div&gt;" style="text;html=1;strokeColor=#d79b00;fillColor=#ffe6cc;spacing=5;spacingTop=-20;whiteSpace=wrap;overflow=hidden;rounded=0;fontSize=24;labelBackgroundColor=none;labelBorderColor=none;" vertex="1" parent="1">
          <mxGeometry x="-2370" y="1150" width="1090" height="450" as="geometry" />
        </mxCell>
        <mxCell id="ODbVOPba3RWWneBiBJT6-26" value="" style="shape=flexArrow;endArrow=classic;html=1;rounded=0;exitX=1;exitY=0;exitDx=0;exitDy=0;" edge="1" parent="1" source="ODbVOPba3RWWneBiBJT6-25">
          <mxGeometry width="50" height="50" relative="1" as="geometry">
            <mxPoint x="-1210" y="810" as="sourcePoint" />
            <mxPoint x="-1000" y="760" as="targetPoint" />
          </mxGeometry>
        </mxCell>
        <mxCell id="ODbVOPba3RWWneBiBJT6-27" value="" style="shape=flexArrow;endArrow=classic;html=1;rounded=0;" edge="1" parent="1" source="ODbVOPba3RWWneBiBJT6-25">
          <mxGeometry width="50" height="50" relative="1" as="geometry">
            <mxPoint x="-1140" y="1130" as="sourcePoint" />
            <mxPoint x="663.3333333333334" y="870" as="targetPoint" />
          </mxGeometry>
        </mxCell>
        <mxCell id="ODbVOPba3RWWneBiBJT6-28" value="&lt;h1 style=&quot;&quot;&gt;&lt;font style=&quot;font-size: 24px;&quot;&gt;INSERT-SQL su tabella &#39;ordinazione&#39; che falisce per violazione del vincolo chiave correlata&amp;nbsp;&lt;/font&gt;&lt;/h1&gt;&lt;h1 style=&quot;&quot;&gt;&lt;span style=&quot;font-size: 24px; background-color: initial;&quot;&gt;(su &#39;codice_fiscale&#39; della tabella &#39;cliente&#39;: non esiste un istanza record in &#39;cliente&#39; con valore del campo campo &#39;codice_fiscale&#39; pari a &#39;STKRMN0123456789&#39;)&lt;/span&gt;&lt;br&gt;&lt;/h1&gt;&lt;div style=&quot;&quot;&gt;&lt;div style=&quot;padding: 0px 0px 0px 2px;&quot;&gt;&lt;div style=&quot;&quot;&gt;&lt;div style=&quot;padding: 0px 0px 0px 2px;&quot;&gt;&lt;div style=&quot;font-family: Consolas;&quot;&gt;&lt;p style=&quot;margin: 0px;&quot;&gt;&lt;font style=&quot;font-size: 24px;&quot;&gt;INSERT &lt;span style=&quot;color: rgb(128, 0, 0); font-weight: bold;&quot;&gt;INTO&lt;/span&gt; magazzino.ordinazione&lt;/font&gt;&lt;/p&gt;&lt;p style=&quot;margin: 0px;&quot;&gt;&lt;font style=&quot;font-size: 24px;&quot;&gt;&lt;br&gt;&lt;/font&gt;&lt;/p&gt;&lt;p style=&quot;margin: 0px;&quot;&gt;&lt;font style=&quot;font-size: 24px;&quot;&gt;&amp;nbsp; &amp;nbsp; &amp;nbsp; &amp;nbsp; &amp;nbsp; &amp;nbsp; (codice_fiscale, codice_prodotto, data_ordine, quantita_ordine, prezzo_acquisto)&lt;/font&gt;&lt;/p&gt;&lt;p style=&quot;margin: 0px;&quot;&gt;&lt;font style=&quot;font-size: 24px;&quot;&gt;&lt;br&gt;&lt;/font&gt;&lt;/p&gt;&lt;p style=&quot;margin: 0px;&quot;&gt;&lt;font style=&quot;font-size: 24px;&quot;&gt;&lt;span style=&quot;color: rgb(128, 0, 0); font-weight: bold;&quot;&gt;&amp;nbsp; &amp;nbsp; &amp;nbsp;VALUES&amp;nbsp;&lt;/span&gt;(&lt;span style=&quot;color: rgb(0, 128, 0);&quot;&gt;&#39;STKRMN0123456789&#39;&lt;/span&gt;, &lt;span style=&quot;color: rgb(0, 128, 0);&quot;&gt;&#39;LVZPXS54&#39;&lt;/span&gt;, &lt;span style=&quot;color: rgb(0, 128, 0);&quot;&gt;&#39;2023-08-11&#39;&lt;/span&gt;, 3, 232)&lt;span style=&quot;color: rgb(255, 0, 0);&quot;&gt;;&lt;/span&gt;&lt;/font&gt;&lt;/p&gt;&lt;/div&gt;&lt;/div&gt;&lt;/div&gt;&lt;/div&gt;&lt;/div&gt;" style="text;html=1;strokeColor=#d79b00;fillColor=#ffe6cc;spacing=5;spacingTop=-20;whiteSpace=wrap;overflow=hidden;rounded=0;fontSize=24;labelBackgroundColor=none;labelBorderColor=none;" vertex="1" parent="1">
          <mxGeometry x="-1790" y="-50" width="1090" height="450" as="geometry" />
        </mxCell>
        <mxCell id="ODbVOPba3RWWneBiBJT6-29" value="" style="shape=flexArrow;endArrow=classic;html=1;rounded=0;" edge="1" parent="1" source="ODbVOPba3RWWneBiBJT6-28">
          <mxGeometry width="50" height="50" relative="1" as="geometry">
            <mxPoint x="-800.0026381909553" y="400" as="sourcePoint" />
            <mxPoint x="-677.2900000000001" y="573" as="targetPoint" />
          </mxGeometry>
        </mxCell>
        <mxCell id="ODbVOPba3RWWneBiBJT6-30" value="" style="shape=flexArrow;endArrow=classic;html=1;rounded=0;exitX=1;exitY=0.75;exitDx=0;exitDy=0;" edge="1" parent="1" source="ODbVOPba3RWWneBiBJT6-28">
          <mxGeometry width="50" height="50" relative="1" as="geometry">
            <mxPoint x="-400" y="170" as="sourcePoint" />
            <mxPoint x="640" y="160" as="targetPoint" />
          </mxGeometry>
        </mxCell>
      </root>
    </mxGraphModel>
  </diagram>
</mxfile>
